%TF.GenerationSoftware,KiCad,Pcbnew,6.0.10-86aedd382b~118~ubuntu22.04.1*%
%TF.CreationDate,2023-01-08T16:41:24+01:00*%
%TF.ProjectId,bcp,6263702e-6b69-4636-9164-5f7063625858,rev?*%
%TF.SameCoordinates,Original*%
%TF.FileFunction,Legend,Top*%
%TF.FilePolarity,Positive*%
%FSLAX46Y46*%
G04 Gerber Fmt 4.6, Leading zero omitted, Abs format (unit mm)*
G04 Created by KiCad (PCBNEW 6.0.10-86aedd382b~118~ubuntu22.04.1) date 2023-01-08 16:41:24*
%MOMM*%
%LPD*%
G01*
G04 APERTURE LIST*
%ADD10C,0.150000*%
%ADD11C,0.010000*%
%ADD12C,0.120000*%
G04 APERTURE END LIST*
D10*
X88266547Y-98932666D02*
X88228452Y-98894571D01*
X88152261Y-98780285D01*
X88114166Y-98704095D01*
X88076071Y-98589809D01*
X88037976Y-98399333D01*
X88037976Y-98246952D01*
X88076071Y-98056476D01*
X88114166Y-97942190D01*
X88152261Y-97866000D01*
X88228452Y-97751714D01*
X88266547Y-97713619D01*
X88914166Y-98589809D02*
X88837976Y-98627904D01*
X88685595Y-98627904D01*
X88609404Y-98589809D01*
X88571309Y-98551714D01*
X88533214Y-98475523D01*
X88533214Y-98246952D01*
X88571309Y-98170761D01*
X88609404Y-98132666D01*
X88685595Y-98094571D01*
X88837976Y-98094571D01*
X88914166Y-98132666D01*
X89180833Y-98932666D02*
X89218928Y-98894571D01*
X89295119Y-98780285D01*
X89333214Y-98704095D01*
X89371309Y-98589809D01*
X89409404Y-98399333D01*
X89409404Y-98246952D01*
X89371309Y-98056476D01*
X89333214Y-97942190D01*
X89295119Y-97866000D01*
X89218928Y-97751714D01*
X89180833Y-97713619D01*
X90361785Y-97904095D02*
X90399880Y-97866000D01*
X90476071Y-97827904D01*
X90666547Y-97827904D01*
X90742738Y-97866000D01*
X90780833Y-97904095D01*
X90818928Y-97980285D01*
X90818928Y-98056476D01*
X90780833Y-98170761D01*
X90323690Y-98627904D01*
X90818928Y-98627904D01*
X91314166Y-97827904D02*
X91390357Y-97827904D01*
X91466547Y-97866000D01*
X91504642Y-97904095D01*
X91542738Y-97980285D01*
X91580833Y-98132666D01*
X91580833Y-98323142D01*
X91542738Y-98475523D01*
X91504642Y-98551714D01*
X91466547Y-98589809D01*
X91390357Y-98627904D01*
X91314166Y-98627904D01*
X91237976Y-98589809D01*
X91199880Y-98551714D01*
X91161785Y-98475523D01*
X91123690Y-98323142D01*
X91123690Y-98132666D01*
X91161785Y-97980285D01*
X91199880Y-97904095D01*
X91237976Y-97866000D01*
X91314166Y-97827904D01*
X91885595Y-97904095D02*
X91923690Y-97866000D01*
X91999880Y-97827904D01*
X92190357Y-97827904D01*
X92266547Y-97866000D01*
X92304642Y-97904095D01*
X92342738Y-97980285D01*
X92342738Y-98056476D01*
X92304642Y-98170761D01*
X91847500Y-98627904D01*
X92342738Y-98627904D01*
X92609404Y-97827904D02*
X93104642Y-97827904D01*
X92837976Y-98132666D01*
X92952261Y-98132666D01*
X93028452Y-98170761D01*
X93066547Y-98208857D01*
X93104642Y-98285047D01*
X93104642Y-98475523D01*
X93066547Y-98551714D01*
X93028452Y-98589809D01*
X92952261Y-98627904D01*
X92723690Y-98627904D01*
X92647500Y-98589809D01*
X92609404Y-98551714D01*
X93980833Y-98094571D02*
X94171309Y-98627904D01*
X94361785Y-98094571D01*
X94818928Y-97827904D02*
X94895119Y-97827904D01*
X94971309Y-97866000D01*
X95009404Y-97904095D01*
X95047500Y-97980285D01*
X95085595Y-98132666D01*
X95085595Y-98323142D01*
X95047500Y-98475523D01*
X95009404Y-98551714D01*
X94971309Y-98589809D01*
X94895119Y-98627904D01*
X94818928Y-98627904D01*
X94742738Y-98589809D01*
X94704642Y-98551714D01*
X94666547Y-98475523D01*
X94628452Y-98323142D01*
X94628452Y-98132666D01*
X94666547Y-97980285D01*
X94704642Y-97904095D01*
X94742738Y-97866000D01*
X94818928Y-97827904D01*
X95428452Y-98551714D02*
X95466547Y-98589809D01*
X95428452Y-98627904D01*
X95390357Y-98589809D01*
X95428452Y-98551714D01*
X95428452Y-98627904D01*
X96228452Y-98627904D02*
X95771309Y-98627904D01*
X95999880Y-98627904D02*
X95999880Y-97827904D01*
X95923690Y-97942190D01*
X95847500Y-98018380D01*
X95771309Y-98056476D01*
X88495119Y-99839714D02*
X88457023Y-99877809D01*
X88342738Y-99915904D01*
X88266547Y-99915904D01*
X88152261Y-99877809D01*
X88076071Y-99801619D01*
X88037976Y-99725428D01*
X87999880Y-99573047D01*
X87999880Y-99458761D01*
X88037976Y-99306380D01*
X88076071Y-99230190D01*
X88152261Y-99154000D01*
X88266547Y-99115904D01*
X88342738Y-99115904D01*
X88457023Y-99154000D01*
X88495119Y-99192095D01*
X88837976Y-99915904D02*
X88837976Y-99115904D01*
X89180833Y-99915904D02*
X89180833Y-99496857D01*
X89142738Y-99420666D01*
X89066547Y-99382571D01*
X88952261Y-99382571D01*
X88876071Y-99420666D01*
X88837976Y-99458761D01*
X89561785Y-99915904D02*
X89561785Y-99382571D01*
X89561785Y-99534952D02*
X89599880Y-99458761D01*
X89637976Y-99420666D01*
X89714166Y-99382571D01*
X89790357Y-99382571D01*
X90057023Y-99915904D02*
X90057023Y-99382571D01*
X90057023Y-99115904D02*
X90018928Y-99154000D01*
X90057023Y-99192095D01*
X90095119Y-99154000D01*
X90057023Y-99115904D01*
X90057023Y-99192095D01*
X90399880Y-99877809D02*
X90476071Y-99915904D01*
X90628452Y-99915904D01*
X90704642Y-99877809D01*
X90742738Y-99801619D01*
X90742738Y-99763523D01*
X90704642Y-99687333D01*
X90628452Y-99649238D01*
X90514166Y-99649238D01*
X90437976Y-99611142D01*
X90399880Y-99534952D01*
X90399880Y-99496857D01*
X90437976Y-99420666D01*
X90514166Y-99382571D01*
X90628452Y-99382571D01*
X90704642Y-99420666D01*
X90971309Y-99382571D02*
X91276071Y-99382571D01*
X91085595Y-99115904D02*
X91085595Y-99801619D01*
X91123690Y-99877809D01*
X91199880Y-99915904D01*
X91276071Y-99915904D01*
X91542738Y-99915904D02*
X91542738Y-99382571D01*
X91542738Y-99115904D02*
X91504642Y-99154000D01*
X91542738Y-99192095D01*
X91580833Y-99154000D01*
X91542738Y-99115904D01*
X91542738Y-99192095D01*
X92266547Y-99915904D02*
X92266547Y-99496857D01*
X92228452Y-99420666D01*
X92152261Y-99382571D01*
X91999880Y-99382571D01*
X91923690Y-99420666D01*
X92266547Y-99877809D02*
X92190357Y-99915904D01*
X91999880Y-99915904D01*
X91923690Y-99877809D01*
X91885595Y-99801619D01*
X91885595Y-99725428D01*
X91923690Y-99649238D01*
X91999880Y-99611142D01*
X92190357Y-99611142D01*
X92266547Y-99573047D01*
X92647500Y-99382571D02*
X92647500Y-99915904D01*
X92647500Y-99458761D02*
X92685595Y-99420666D01*
X92761785Y-99382571D01*
X92876071Y-99382571D01*
X92952261Y-99420666D01*
X92990357Y-99496857D01*
X92990357Y-99915904D01*
X93942738Y-99877809D02*
X94057023Y-99915904D01*
X94247500Y-99915904D01*
X94323690Y-99877809D01*
X94361785Y-99839714D01*
X94399880Y-99763523D01*
X94399880Y-99687333D01*
X94361785Y-99611142D01*
X94323690Y-99573047D01*
X94247500Y-99534952D01*
X94095119Y-99496857D01*
X94018928Y-99458761D01*
X93980833Y-99420666D01*
X93942738Y-99344476D01*
X93942738Y-99268285D01*
X93980833Y-99192095D01*
X94018928Y-99154000D01*
X94095119Y-99115904D01*
X94285595Y-99115904D01*
X94399880Y-99154000D01*
X94857023Y-99915904D02*
X94780833Y-99877809D01*
X94742738Y-99839714D01*
X94704642Y-99763523D01*
X94704642Y-99534952D01*
X94742738Y-99458761D01*
X94780833Y-99420666D01*
X94857023Y-99382571D01*
X94971309Y-99382571D01*
X95047500Y-99420666D01*
X95085595Y-99458761D01*
X95123690Y-99534952D01*
X95123690Y-99763523D01*
X95085595Y-99839714D01*
X95047500Y-99877809D01*
X94971309Y-99915904D01*
X94857023Y-99915904D01*
X95466547Y-99382571D02*
X95466547Y-99915904D01*
X95466547Y-99458761D02*
X95504642Y-99420666D01*
X95580833Y-99382571D01*
X95695119Y-99382571D01*
X95771309Y-99420666D01*
X95809404Y-99496857D01*
X95809404Y-99915904D01*
X96190357Y-99382571D02*
X96190357Y-99915904D01*
X96190357Y-99458761D02*
X96228452Y-99420666D01*
X96304642Y-99382571D01*
X96418928Y-99382571D01*
X96495119Y-99420666D01*
X96533214Y-99496857D01*
X96533214Y-99915904D01*
X96799880Y-99382571D02*
X97104642Y-99382571D01*
X96914166Y-99115904D02*
X96914166Y-99801619D01*
X96952261Y-99877809D01*
X97028452Y-99915904D01*
X97104642Y-99915904D01*
X97714166Y-99915904D02*
X97714166Y-99496857D01*
X97676071Y-99420666D01*
X97599880Y-99382571D01*
X97447500Y-99382571D01*
X97371309Y-99420666D01*
X97714166Y-99877809D02*
X97637976Y-99915904D01*
X97447500Y-99915904D01*
X97371309Y-99877809D01*
X97333214Y-99801619D01*
X97333214Y-99725428D01*
X97371309Y-99649238D01*
X97447500Y-99611142D01*
X97637976Y-99611142D01*
X97714166Y-99573047D01*
X98437976Y-99382571D02*
X98437976Y-100030190D01*
X98399880Y-100106380D01*
X98361785Y-100144476D01*
X98285595Y-100182571D01*
X98171309Y-100182571D01*
X98095119Y-100144476D01*
X98437976Y-99877809D02*
X98361785Y-99915904D01*
X98209404Y-99915904D01*
X98133214Y-99877809D01*
X98095119Y-99839714D01*
X98057023Y-99763523D01*
X98057023Y-99534952D01*
X98095119Y-99458761D01*
X98133214Y-99420666D01*
X98209404Y-99382571D01*
X98361785Y-99382571D01*
X98437976Y-99420666D01*
%TO.C,SW5*%
X95074761Y-52862380D02*
X95122380Y-52719523D01*
X95122380Y-52481428D01*
X95074761Y-52386190D01*
X95027142Y-52338571D01*
X94931904Y-52290952D01*
X94836666Y-52290952D01*
X94741428Y-52338571D01*
X94693809Y-52386190D01*
X94646190Y-52481428D01*
X94598571Y-52671904D01*
X94550952Y-52767142D01*
X94503333Y-52814761D01*
X94408095Y-52862380D01*
X94312857Y-52862380D01*
X94217619Y-52814761D01*
X94170000Y-52767142D01*
X94122380Y-52671904D01*
X94122380Y-52433809D01*
X94170000Y-52290952D01*
X94122380Y-51957619D02*
X95122380Y-51719523D01*
X94408095Y-51529047D01*
X95122380Y-51338571D01*
X94122380Y-51100476D01*
X95217619Y-50957619D02*
X95217619Y-50195714D01*
X94170000Y-49433809D02*
X94122380Y-49529047D01*
X94122380Y-49671904D01*
X94170000Y-49814761D01*
X94265238Y-49909999D01*
X94360476Y-49957619D01*
X94550952Y-50005238D01*
X94693809Y-50005238D01*
X94884285Y-49957619D01*
X94979523Y-49909999D01*
X95074761Y-49814761D01*
X95122380Y-49671904D01*
X95122380Y-49576666D01*
X95074761Y-49433809D01*
X95027142Y-49386190D01*
X94693809Y-49386190D01*
X94693809Y-49576666D01*
X95122380Y-48957619D02*
X94122380Y-48957619D01*
X94122380Y-48576666D01*
X94170000Y-48481428D01*
X94217619Y-48433809D01*
X94312857Y-48386190D01*
X94455714Y-48386190D01*
X94550952Y-48433809D01*
X94598571Y-48481428D01*
X94646190Y-48576666D01*
X94646190Y-48957619D01*
X95122380Y-47957619D02*
X94122380Y-47957619D01*
X94122380Y-47290952D02*
X94122380Y-47100476D01*
X94170000Y-47005238D01*
X94265238Y-46909999D01*
X94455714Y-46862380D01*
X94789047Y-46862380D01*
X94979523Y-46909999D01*
X95074761Y-47005238D01*
X95122380Y-47100476D01*
X95122380Y-47290952D01*
X95074761Y-47386190D01*
X94979523Y-47481428D01*
X94789047Y-47529047D01*
X94455714Y-47529047D01*
X94265238Y-47481428D01*
X94170000Y-47386190D01*
X94122380Y-47290952D01*
X95122380Y-45909999D02*
X95122380Y-46481428D01*
X95122380Y-46195714D02*
X94122380Y-46195714D01*
X94265238Y-46290952D01*
X94360476Y-46386190D01*
X94408095Y-46481428D01*
X94122380Y-45576666D02*
X94122380Y-44909999D01*
X95122380Y-45338571D01*
%TO.C,SW4*%
X95014761Y-63562380D02*
X95062380Y-63419523D01*
X95062380Y-63181428D01*
X95014761Y-63086190D01*
X94967142Y-63038571D01*
X94871904Y-62990952D01*
X94776666Y-62990952D01*
X94681428Y-63038571D01*
X94633809Y-63086190D01*
X94586190Y-63181428D01*
X94538571Y-63371904D01*
X94490952Y-63467142D01*
X94443333Y-63514761D01*
X94348095Y-63562380D01*
X94252857Y-63562380D01*
X94157619Y-63514761D01*
X94110000Y-63467142D01*
X94062380Y-63371904D01*
X94062380Y-63133809D01*
X94110000Y-62990952D01*
X94062380Y-62657619D02*
X95062380Y-62419523D01*
X94348095Y-62229047D01*
X95062380Y-62038571D01*
X94062380Y-61800476D01*
X95157619Y-61657619D02*
X95157619Y-60895714D01*
X94110000Y-60133809D02*
X94062380Y-60229047D01*
X94062380Y-60371904D01*
X94110000Y-60514761D01*
X94205238Y-60609999D01*
X94300476Y-60657619D01*
X94490952Y-60705238D01*
X94633809Y-60705238D01*
X94824285Y-60657619D01*
X94919523Y-60609999D01*
X95014761Y-60514761D01*
X95062380Y-60371904D01*
X95062380Y-60276666D01*
X95014761Y-60133809D01*
X94967142Y-60086190D01*
X94633809Y-60086190D01*
X94633809Y-60276666D01*
X95062380Y-59657619D02*
X94062380Y-59657619D01*
X94062380Y-59276666D01*
X94110000Y-59181428D01*
X94157619Y-59133809D01*
X94252857Y-59086190D01*
X94395714Y-59086190D01*
X94490952Y-59133809D01*
X94538571Y-59181428D01*
X94586190Y-59276666D01*
X94586190Y-59657619D01*
X95062380Y-58657619D02*
X94062380Y-58657619D01*
X94062380Y-57990952D02*
X94062380Y-57800476D01*
X94110000Y-57705238D01*
X94205238Y-57609999D01*
X94395714Y-57562380D01*
X94729047Y-57562380D01*
X94919523Y-57609999D01*
X95014761Y-57705238D01*
X95062380Y-57800476D01*
X95062380Y-57990952D01*
X95014761Y-58086190D01*
X94919523Y-58181428D01*
X94729047Y-58229047D01*
X94395714Y-58229047D01*
X94205238Y-58181428D01*
X94110000Y-58086190D01*
X94062380Y-57990952D01*
X94157619Y-57181428D02*
X94110000Y-57133809D01*
X94062380Y-57038571D01*
X94062380Y-56800476D01*
X94110000Y-56705238D01*
X94157619Y-56657619D01*
X94252857Y-56609999D01*
X94348095Y-56609999D01*
X94490952Y-56657619D01*
X95062380Y-57229047D01*
X95062380Y-56609999D01*
X94062380Y-56276666D02*
X94062380Y-55609999D01*
X95062380Y-56038571D01*
%TO.C,SW3*%
X95042261Y-73967380D02*
X95089880Y-73824523D01*
X95089880Y-73586428D01*
X95042261Y-73491190D01*
X94994642Y-73443571D01*
X94899404Y-73395952D01*
X94804166Y-73395952D01*
X94708928Y-73443571D01*
X94661309Y-73491190D01*
X94613690Y-73586428D01*
X94566071Y-73776904D01*
X94518452Y-73872142D01*
X94470833Y-73919761D01*
X94375595Y-73967380D01*
X94280357Y-73967380D01*
X94185119Y-73919761D01*
X94137500Y-73872142D01*
X94089880Y-73776904D01*
X94089880Y-73538809D01*
X94137500Y-73395952D01*
X94089880Y-73062619D02*
X95089880Y-72824523D01*
X94375595Y-72634047D01*
X95089880Y-72443571D01*
X94089880Y-72205476D01*
X95185119Y-72062619D02*
X95185119Y-71300714D01*
X94137500Y-70538809D02*
X94089880Y-70634047D01*
X94089880Y-70776904D01*
X94137500Y-70919761D01*
X94232738Y-71014999D01*
X94327976Y-71062619D01*
X94518452Y-71110238D01*
X94661309Y-71110238D01*
X94851785Y-71062619D01*
X94947023Y-71014999D01*
X95042261Y-70919761D01*
X95089880Y-70776904D01*
X95089880Y-70681666D01*
X95042261Y-70538809D01*
X94994642Y-70491190D01*
X94661309Y-70491190D01*
X94661309Y-70681666D01*
X95089880Y-70062619D02*
X94089880Y-70062619D01*
X94089880Y-69681666D01*
X94137500Y-69586428D01*
X94185119Y-69538809D01*
X94280357Y-69491190D01*
X94423214Y-69491190D01*
X94518452Y-69538809D01*
X94566071Y-69586428D01*
X94613690Y-69681666D01*
X94613690Y-70062619D01*
X95089880Y-69062619D02*
X94089880Y-69062619D01*
X94089880Y-68395952D02*
X94089880Y-68205476D01*
X94137500Y-68110238D01*
X94232738Y-68014999D01*
X94423214Y-67967380D01*
X94756547Y-67967380D01*
X94947023Y-68014999D01*
X95042261Y-68110238D01*
X95089880Y-68205476D01*
X95089880Y-68395952D01*
X95042261Y-68491190D01*
X94947023Y-68586428D01*
X94756547Y-68634047D01*
X94423214Y-68634047D01*
X94232738Y-68586428D01*
X94137500Y-68491190D01*
X94089880Y-68395952D01*
X94185119Y-67586428D02*
X94137500Y-67538809D01*
X94089880Y-67443571D01*
X94089880Y-67205476D01*
X94137500Y-67110238D01*
X94185119Y-67062619D01*
X94280357Y-67014999D01*
X94375595Y-67014999D01*
X94518452Y-67062619D01*
X95089880Y-67634047D01*
X95089880Y-67014999D01*
X94185119Y-66634047D02*
X94137500Y-66586428D01*
X94089880Y-66491190D01*
X94089880Y-66253095D01*
X94137500Y-66157857D01*
X94185119Y-66110238D01*
X94280357Y-66062619D01*
X94375595Y-66062619D01*
X94518452Y-66110238D01*
X95089880Y-66681666D01*
X95089880Y-66062619D01*
%TO.C,SW2*%
X95042261Y-84497380D02*
X95089880Y-84354523D01*
X95089880Y-84116428D01*
X95042261Y-84021190D01*
X94994642Y-83973571D01*
X94899404Y-83925952D01*
X94804166Y-83925952D01*
X94708928Y-83973571D01*
X94661309Y-84021190D01*
X94613690Y-84116428D01*
X94566071Y-84306904D01*
X94518452Y-84402142D01*
X94470833Y-84449761D01*
X94375595Y-84497380D01*
X94280357Y-84497380D01*
X94185119Y-84449761D01*
X94137500Y-84402142D01*
X94089880Y-84306904D01*
X94089880Y-84068809D01*
X94137500Y-83925952D01*
X94089880Y-83592619D02*
X95089880Y-83354523D01*
X94375595Y-83164047D01*
X95089880Y-82973571D01*
X94089880Y-82735476D01*
X95185119Y-82592619D02*
X95185119Y-81830714D01*
X94137500Y-81068809D02*
X94089880Y-81164047D01*
X94089880Y-81306904D01*
X94137500Y-81449761D01*
X94232738Y-81544999D01*
X94327976Y-81592619D01*
X94518452Y-81640238D01*
X94661309Y-81640238D01*
X94851785Y-81592619D01*
X94947023Y-81544999D01*
X95042261Y-81449761D01*
X95089880Y-81306904D01*
X95089880Y-81211666D01*
X95042261Y-81068809D01*
X94994642Y-81021190D01*
X94661309Y-81021190D01*
X94661309Y-81211666D01*
X95089880Y-80592619D02*
X94089880Y-80592619D01*
X94089880Y-80211666D01*
X94137500Y-80116428D01*
X94185119Y-80068809D01*
X94280357Y-80021190D01*
X94423214Y-80021190D01*
X94518452Y-80068809D01*
X94566071Y-80116428D01*
X94613690Y-80211666D01*
X94613690Y-80592619D01*
X95089880Y-79592619D02*
X94089880Y-79592619D01*
X94089880Y-78925952D02*
X94089880Y-78735476D01*
X94137500Y-78640238D01*
X94232738Y-78544999D01*
X94423214Y-78497380D01*
X94756547Y-78497380D01*
X94947023Y-78544999D01*
X95042261Y-78640238D01*
X95089880Y-78735476D01*
X95089880Y-78925952D01*
X95042261Y-79021190D01*
X94947023Y-79116428D01*
X94756547Y-79164047D01*
X94423214Y-79164047D01*
X94232738Y-79116428D01*
X94137500Y-79021190D01*
X94089880Y-78925952D01*
X95089880Y-77544999D02*
X95089880Y-78116428D01*
X95089880Y-77830714D02*
X94089880Y-77830714D01*
X94232738Y-77925952D01*
X94327976Y-78021190D01*
X94375595Y-78116428D01*
X95089880Y-77068809D02*
X95089880Y-76878333D01*
X95042261Y-76783095D01*
X94994642Y-76735476D01*
X94851785Y-76640238D01*
X94661309Y-76592619D01*
X94280357Y-76592619D01*
X94185119Y-76640238D01*
X94137500Y-76687857D01*
X94089880Y-76783095D01*
X94089880Y-76973571D01*
X94137500Y-77068809D01*
X94185119Y-77116428D01*
X94280357Y-77164047D01*
X94518452Y-77164047D01*
X94613690Y-77116428D01*
X94661309Y-77068809D01*
X94708928Y-76973571D01*
X94708928Y-76783095D01*
X94661309Y-76687857D01*
X94613690Y-76640238D01*
X94518452Y-76592619D01*
%TO.C,SW1*%
X95042261Y-95367380D02*
X95089880Y-95224523D01*
X95089880Y-94986428D01*
X95042261Y-94891190D01*
X94994642Y-94843571D01*
X94899404Y-94795952D01*
X94804166Y-94795952D01*
X94708928Y-94843571D01*
X94661309Y-94891190D01*
X94613690Y-94986428D01*
X94566071Y-95176904D01*
X94518452Y-95272142D01*
X94470833Y-95319761D01*
X94375595Y-95367380D01*
X94280357Y-95367380D01*
X94185119Y-95319761D01*
X94137500Y-95272142D01*
X94089880Y-95176904D01*
X94089880Y-94938809D01*
X94137500Y-94795952D01*
X94089880Y-94462619D02*
X95089880Y-94224523D01*
X94375595Y-94034047D01*
X95089880Y-93843571D01*
X94089880Y-93605476D01*
X95185119Y-93462619D02*
X95185119Y-92700714D01*
X94137500Y-91938809D02*
X94089880Y-92034047D01*
X94089880Y-92176904D01*
X94137500Y-92319761D01*
X94232738Y-92414999D01*
X94327976Y-92462619D01*
X94518452Y-92510238D01*
X94661309Y-92510238D01*
X94851785Y-92462619D01*
X94947023Y-92414999D01*
X95042261Y-92319761D01*
X95089880Y-92176904D01*
X95089880Y-92081666D01*
X95042261Y-91938809D01*
X94994642Y-91891190D01*
X94661309Y-91891190D01*
X94661309Y-92081666D01*
X95089880Y-91462619D02*
X94089880Y-91462619D01*
X94089880Y-91081666D01*
X94137500Y-90986428D01*
X94185119Y-90938809D01*
X94280357Y-90891190D01*
X94423214Y-90891190D01*
X94518452Y-90938809D01*
X94566071Y-90986428D01*
X94613690Y-91081666D01*
X94613690Y-91462619D01*
X95089880Y-90462619D02*
X94089880Y-90462619D01*
X94089880Y-89795952D02*
X94089880Y-89605476D01*
X94137500Y-89510238D01*
X94232738Y-89414999D01*
X94423214Y-89367380D01*
X94756547Y-89367380D01*
X94947023Y-89414999D01*
X95042261Y-89510238D01*
X95089880Y-89605476D01*
X95089880Y-89795952D01*
X95042261Y-89891190D01*
X94947023Y-89986428D01*
X94756547Y-90034047D01*
X94423214Y-90034047D01*
X94232738Y-89986428D01*
X94137500Y-89891190D01*
X94089880Y-89795952D01*
X94185119Y-88986428D02*
X94137500Y-88938809D01*
X94089880Y-88843571D01*
X94089880Y-88605476D01*
X94137500Y-88510238D01*
X94185119Y-88462619D01*
X94280357Y-88414999D01*
X94375595Y-88414999D01*
X94518452Y-88462619D01*
X95089880Y-89034047D01*
X95089880Y-88414999D01*
X94089880Y-87557857D02*
X94089880Y-87748333D01*
X94137500Y-87843571D01*
X94185119Y-87891190D01*
X94327976Y-87986428D01*
X94518452Y-88034047D01*
X94899404Y-88034047D01*
X94994642Y-87986428D01*
X95042261Y-87938809D01*
X95089880Y-87843571D01*
X95089880Y-87653095D01*
X95042261Y-87557857D01*
X94994642Y-87510238D01*
X94899404Y-87462619D01*
X94661309Y-87462619D01*
X94566071Y-87510238D01*
X94518452Y-87557857D01*
X94470833Y-87653095D01*
X94470833Y-87843571D01*
X94518452Y-87938809D01*
X94566071Y-87986428D01*
X94661309Y-88034047D01*
%TO.C,REF\u002A\u002A*%
G36*
X74723802Y-97944059D02*
G01*
X74759786Y-97765332D01*
X74809759Y-97603845D01*
X74873668Y-97459726D01*
X74951462Y-97333106D01*
X75043089Y-97224115D01*
X75148497Y-97132883D01*
X75193662Y-97101932D01*
X75294611Y-97045785D01*
X75397901Y-97006174D01*
X75507989Y-96982014D01*
X75629330Y-96972219D01*
X75721836Y-96973265D01*
X75851490Y-96984231D01*
X75964084Y-97006046D01*
X76062875Y-97039714D01*
X76151121Y-97086236D01*
X76199986Y-97120448D01*
X76229353Y-97142362D01*
X76251043Y-97157333D01*
X76259253Y-97161733D01*
X76260868Y-97150904D01*
X76262159Y-97120251D01*
X76263138Y-97072526D01*
X76263817Y-97010479D01*
X76264210Y-96936862D01*
X76264330Y-96854427D01*
X76264188Y-96765925D01*
X76263797Y-96674107D01*
X76263171Y-96581724D01*
X76262320Y-96491528D01*
X76261260Y-96406271D01*
X76260001Y-96328703D01*
X76258556Y-96261576D01*
X76256938Y-96207641D01*
X76255161Y-96169650D01*
X76254669Y-96162667D01*
X76247092Y-96092251D01*
X76235531Y-96037102D01*
X76217792Y-95989981D01*
X76191682Y-95943647D01*
X76185415Y-95934067D01*
X76160983Y-95897378D01*
X77066311Y-95897378D01*
X77066507Y-97582245D01*
X77066526Y-97816662D01*
X77066552Y-98029603D01*
X77066625Y-98222168D01*
X77066782Y-98395459D01*
X77067064Y-98550576D01*
X77067509Y-98688620D01*
X77068156Y-98810692D01*
X77069045Y-98917894D01*
X77070213Y-99011326D01*
X77071701Y-99092090D01*
X77073546Y-99161286D01*
X77075789Y-99220015D01*
X77078469Y-99269379D01*
X77081623Y-99310478D01*
X77085292Y-99344413D01*
X77089513Y-99372286D01*
X77094327Y-99395198D01*
X77099773Y-99414249D01*
X77105888Y-99430540D01*
X77112712Y-99445173D01*
X77120285Y-99459249D01*
X77128645Y-99473868D01*
X77133839Y-99482974D01*
X77168104Y-99543689D01*
X76309955Y-99543689D01*
X76309955Y-99447733D01*
X76309224Y-99404370D01*
X76307272Y-99371205D01*
X76304463Y-99353424D01*
X76303221Y-99351778D01*
X76291799Y-99358662D01*
X76269084Y-99376505D01*
X76246385Y-99395879D01*
X76191800Y-99436614D01*
X76122321Y-99477617D01*
X76045270Y-99515123D01*
X75967965Y-99545364D01*
X75937113Y-99555012D01*
X75868616Y-99569578D01*
X75785764Y-99579539D01*
X75696371Y-99584583D01*
X75608248Y-99584396D01*
X75529207Y-99578666D01*
X75491511Y-99572858D01*
X75353414Y-99534797D01*
X75226113Y-99477073D01*
X75110292Y-99400211D01*
X75006637Y-99304739D01*
X74915833Y-99191179D01*
X74849031Y-99080381D01*
X74794164Y-98963625D01*
X74752163Y-98844276D01*
X74722167Y-98718283D01*
X74703311Y-98581594D01*
X74694732Y-98430158D01*
X74694006Y-98352711D01*
X74696100Y-98295934D01*
X75525217Y-98295934D01*
X75525424Y-98389002D01*
X75528337Y-98476692D01*
X75534000Y-98553772D01*
X75542455Y-98615009D01*
X75545038Y-98627350D01*
X75576840Y-98734633D01*
X75618498Y-98821658D01*
X75670363Y-98888642D01*
X75732781Y-98935805D01*
X75806100Y-98963365D01*
X75890669Y-98971541D01*
X75986835Y-98960551D01*
X76050311Y-98944829D01*
X76099454Y-98926639D01*
X76153583Y-98900791D01*
X76194244Y-98877089D01*
X76264800Y-98830721D01*
X76264800Y-97680530D01*
X76197392Y-97636962D01*
X76118867Y-97596040D01*
X76034681Y-97569389D01*
X75949557Y-97557465D01*
X75868216Y-97560722D01*
X75795380Y-97579615D01*
X75763426Y-97595184D01*
X75705501Y-97638181D01*
X75656544Y-97694953D01*
X75615390Y-97767575D01*
X75580874Y-97858121D01*
X75551833Y-97968666D01*
X75550552Y-97974533D01*
X75540381Y-98036788D01*
X75532739Y-98114594D01*
X75527670Y-98202720D01*
X75525217Y-98295934D01*
X74696100Y-98295934D01*
X74701857Y-98139895D01*
X74723802Y-97944059D01*
G37*
D11*
X74723802Y-97944059D02*
X74759786Y-97765332D01*
X74809759Y-97603845D01*
X74873668Y-97459726D01*
X74951462Y-97333106D01*
X75043089Y-97224115D01*
X75148497Y-97132883D01*
X75193662Y-97101932D01*
X75294611Y-97045785D01*
X75397901Y-97006174D01*
X75507989Y-96982014D01*
X75629330Y-96972219D01*
X75721836Y-96973265D01*
X75851490Y-96984231D01*
X75964084Y-97006046D01*
X76062875Y-97039714D01*
X76151121Y-97086236D01*
X76199986Y-97120448D01*
X76229353Y-97142362D01*
X76251043Y-97157333D01*
X76259253Y-97161733D01*
X76260868Y-97150904D01*
X76262159Y-97120251D01*
X76263138Y-97072526D01*
X76263817Y-97010479D01*
X76264210Y-96936862D01*
X76264330Y-96854427D01*
X76264188Y-96765925D01*
X76263797Y-96674107D01*
X76263171Y-96581724D01*
X76262320Y-96491528D01*
X76261260Y-96406271D01*
X76260001Y-96328703D01*
X76258556Y-96261576D01*
X76256938Y-96207641D01*
X76255161Y-96169650D01*
X76254669Y-96162667D01*
X76247092Y-96092251D01*
X76235531Y-96037102D01*
X76217792Y-95989981D01*
X76191682Y-95943647D01*
X76185415Y-95934067D01*
X76160983Y-95897378D01*
X77066311Y-95897378D01*
X77066507Y-97582245D01*
X77066526Y-97816662D01*
X77066552Y-98029603D01*
X77066625Y-98222168D01*
X77066782Y-98395459D01*
X77067064Y-98550576D01*
X77067509Y-98688620D01*
X77068156Y-98810692D01*
X77069045Y-98917894D01*
X77070213Y-99011326D01*
X77071701Y-99092090D01*
X77073546Y-99161286D01*
X77075789Y-99220015D01*
X77078469Y-99269379D01*
X77081623Y-99310478D01*
X77085292Y-99344413D01*
X77089513Y-99372286D01*
X77094327Y-99395198D01*
X77099773Y-99414249D01*
X77105888Y-99430540D01*
X77112712Y-99445173D01*
X77120285Y-99459249D01*
X77128645Y-99473868D01*
X77133839Y-99482974D01*
X77168104Y-99543689D01*
X76309955Y-99543689D01*
X76309955Y-99447733D01*
X76309224Y-99404370D01*
X76307272Y-99371205D01*
X76304463Y-99353424D01*
X76303221Y-99351778D01*
X76291799Y-99358662D01*
X76269084Y-99376505D01*
X76246385Y-99395879D01*
X76191800Y-99436614D01*
X76122321Y-99477617D01*
X76045270Y-99515123D01*
X75967965Y-99545364D01*
X75937113Y-99555012D01*
X75868616Y-99569578D01*
X75785764Y-99579539D01*
X75696371Y-99584583D01*
X75608248Y-99584396D01*
X75529207Y-99578666D01*
X75491511Y-99572858D01*
X75353414Y-99534797D01*
X75226113Y-99477073D01*
X75110292Y-99400211D01*
X75006637Y-99304739D01*
X74915833Y-99191179D01*
X74849031Y-99080381D01*
X74794164Y-98963625D01*
X74752163Y-98844276D01*
X74722167Y-98718283D01*
X74703311Y-98581594D01*
X74694732Y-98430158D01*
X74694006Y-98352711D01*
X74696100Y-98295934D01*
X75525217Y-98295934D01*
X75525424Y-98389002D01*
X75528337Y-98476692D01*
X75534000Y-98553772D01*
X75542455Y-98615009D01*
X75545038Y-98627350D01*
X75576840Y-98734633D01*
X75618498Y-98821658D01*
X75670363Y-98888642D01*
X75732781Y-98935805D01*
X75806100Y-98963365D01*
X75890669Y-98971541D01*
X75986835Y-98960551D01*
X76050311Y-98944829D01*
X76099454Y-98926639D01*
X76153583Y-98900791D01*
X76194244Y-98877089D01*
X76264800Y-98830721D01*
X76264800Y-97680530D01*
X76197392Y-97636962D01*
X76118867Y-97596040D01*
X76034681Y-97569389D01*
X75949557Y-97557465D01*
X75868216Y-97560722D01*
X75795380Y-97579615D01*
X75763426Y-97595184D01*
X75705501Y-97638181D01*
X75656544Y-97694953D01*
X75615390Y-97767575D01*
X75580874Y-97858121D01*
X75551833Y-97968666D01*
X75550552Y-97974533D01*
X75540381Y-98036788D01*
X75532739Y-98114594D01*
X75527670Y-98202720D01*
X75525217Y-98295934D01*
X74696100Y-98295934D01*
X74701857Y-98139895D01*
X74723802Y-97944059D01*
G36*
X75843065Y-100379163D02*
G01*
X75921772Y-100379542D01*
X75982863Y-100380333D01*
X76028817Y-100381670D01*
X76062114Y-100383683D01*
X76085236Y-100386506D01*
X76100662Y-100390269D01*
X76110871Y-100395105D01*
X76115813Y-100398822D01*
X76141457Y-100431358D01*
X76144559Y-100465138D01*
X76128711Y-100495826D01*
X76118348Y-100508089D01*
X76107196Y-100516450D01*
X76091035Y-100521657D01*
X76065642Y-100524457D01*
X76026798Y-100525596D01*
X75970280Y-100525821D01*
X75959180Y-100525822D01*
X75813244Y-100525822D01*
X75813244Y-100796756D01*
X75813148Y-100882154D01*
X75812711Y-100947864D01*
X75811712Y-100996774D01*
X75809928Y-101031773D01*
X75807137Y-101055749D01*
X75803117Y-101071593D01*
X75797645Y-101082191D01*
X75790666Y-101090267D01*
X75757734Y-101110112D01*
X75723354Y-101108548D01*
X75692176Y-101085906D01*
X75689886Y-101083100D01*
X75682429Y-101072492D01*
X75676747Y-101060081D01*
X75672601Y-101042850D01*
X75669750Y-101017784D01*
X75667954Y-100981867D01*
X75666972Y-100932083D01*
X75666564Y-100865417D01*
X75666489Y-100789589D01*
X75666489Y-100525822D01*
X75527127Y-100525822D01*
X75467322Y-100525418D01*
X75425918Y-100523840D01*
X75398748Y-100520547D01*
X75381646Y-100514992D01*
X75370443Y-100506631D01*
X75369083Y-100505178D01*
X75352725Y-100471939D01*
X75354172Y-100434362D01*
X75372978Y-100401645D01*
X75380250Y-100395298D01*
X75389627Y-100390266D01*
X75403609Y-100386396D01*
X75424696Y-100383537D01*
X75455389Y-100381535D01*
X75498189Y-100380239D01*
X75555595Y-100379498D01*
X75630110Y-100379158D01*
X75724233Y-100379068D01*
X75744260Y-100379067D01*
X75843065Y-100379163D01*
G37*
X75843065Y-100379163D02*
X75921772Y-100379542D01*
X75982863Y-100380333D01*
X76028817Y-100381670D01*
X76062114Y-100383683D01*
X76085236Y-100386506D01*
X76100662Y-100390269D01*
X76110871Y-100395105D01*
X76115813Y-100398822D01*
X76141457Y-100431358D01*
X76144559Y-100465138D01*
X76128711Y-100495826D01*
X76118348Y-100508089D01*
X76107196Y-100516450D01*
X76091035Y-100521657D01*
X76065642Y-100524457D01*
X76026798Y-100525596D01*
X75970280Y-100525821D01*
X75959180Y-100525822D01*
X75813244Y-100525822D01*
X75813244Y-100796756D01*
X75813148Y-100882154D01*
X75812711Y-100947864D01*
X75811712Y-100996774D01*
X75809928Y-101031773D01*
X75807137Y-101055749D01*
X75803117Y-101071593D01*
X75797645Y-101082191D01*
X75790666Y-101090267D01*
X75757734Y-101110112D01*
X75723354Y-101108548D01*
X75692176Y-101085906D01*
X75689886Y-101083100D01*
X75682429Y-101072492D01*
X75676747Y-101060081D01*
X75672601Y-101042850D01*
X75669750Y-101017784D01*
X75667954Y-100981867D01*
X75666972Y-100932083D01*
X75666564Y-100865417D01*
X75666489Y-100789589D01*
X75666489Y-100525822D01*
X75527127Y-100525822D01*
X75467322Y-100525418D01*
X75425918Y-100523840D01*
X75398748Y-100520547D01*
X75381646Y-100514992D01*
X75370443Y-100506631D01*
X75369083Y-100505178D01*
X75352725Y-100471939D01*
X75354172Y-100434362D01*
X75372978Y-100401645D01*
X75380250Y-100395298D01*
X75389627Y-100390266D01*
X75403609Y-100386396D01*
X75424696Y-100383537D01*
X75455389Y-100381535D01*
X75498189Y-100380239D01*
X75555595Y-100379498D01*
X75630110Y-100379158D01*
X75724233Y-100379068D01*
X75744260Y-100379067D01*
X75843065Y-100379163D01*
G36*
X64609002Y-100455055D02*
G01*
X64617170Y-100421778D01*
X64630444Y-100399759D01*
X64650026Y-100386739D01*
X64677117Y-100380457D01*
X64712918Y-100378653D01*
X64758629Y-100379066D01*
X64798111Y-100379467D01*
X64913800Y-100382259D01*
X65010689Y-100390550D01*
X65092081Y-100405232D01*
X65161277Y-100427193D01*
X65221580Y-100457322D01*
X65276292Y-100496510D01*
X65295833Y-100513532D01*
X65328250Y-100553363D01*
X65357480Y-100607413D01*
X65380009Y-100667323D01*
X65392321Y-100724739D01*
X65393600Y-100745956D01*
X65385583Y-100804769D01*
X65364101Y-100869013D01*
X65333001Y-100929821D01*
X65296134Y-100978330D01*
X65290146Y-100984182D01*
X65239421Y-101025321D01*
X65183875Y-101057435D01*
X65120304Y-101081365D01*
X65045506Y-101097953D01*
X64956278Y-101108041D01*
X64849418Y-101112469D01*
X64800472Y-101112845D01*
X64738238Y-101112545D01*
X64694472Y-101111292D01*
X64665069Y-101108554D01*
X64645921Y-101103801D01*
X64632923Y-101096501D01*
X64625955Y-101090267D01*
X64619374Y-101082694D01*
X64614212Y-101072924D01*
X64610297Y-101058340D01*
X64607457Y-101036326D01*
X64605520Y-101004264D01*
X64604492Y-100966089D01*
X64750133Y-100966089D01*
X64843266Y-100966004D01*
X64899307Y-100964396D01*
X64958001Y-100960256D01*
X65006972Y-100954464D01*
X65008462Y-100954226D01*
X65087608Y-100935090D01*
X65148998Y-100905287D01*
X65195695Y-100862878D01*
X65225365Y-100816961D01*
X65243647Y-100766026D01*
X65242229Y-100718200D01*
X65221012Y-100666933D01*
X65179511Y-100613899D01*
X65122002Y-100574600D01*
X65047250Y-100548331D01*
X64997292Y-100539035D01*
X64940584Y-100532507D01*
X64880481Y-100527782D01*
X64829361Y-100525817D01*
X64826333Y-100525808D01*
X64750133Y-100525822D01*
X64750133Y-100966089D01*
X64604492Y-100966089D01*
X64604316Y-100959536D01*
X64603672Y-100899526D01*
X64603417Y-100821617D01*
X64603378Y-100745956D01*
X64603130Y-100645041D01*
X64603183Y-100564427D01*
X64604143Y-100525822D01*
X64604740Y-100501851D01*
X64609002Y-100455055D01*
G37*
X64609002Y-100455055D02*
X64617170Y-100421778D01*
X64630444Y-100399759D01*
X64650026Y-100386739D01*
X64677117Y-100380457D01*
X64712918Y-100378653D01*
X64758629Y-100379066D01*
X64798111Y-100379467D01*
X64913800Y-100382259D01*
X65010689Y-100390550D01*
X65092081Y-100405232D01*
X65161277Y-100427193D01*
X65221580Y-100457322D01*
X65276292Y-100496510D01*
X65295833Y-100513532D01*
X65328250Y-100553363D01*
X65357480Y-100607413D01*
X65380009Y-100667323D01*
X65392321Y-100724739D01*
X65393600Y-100745956D01*
X65385583Y-100804769D01*
X65364101Y-100869013D01*
X65333001Y-100929821D01*
X65296134Y-100978330D01*
X65290146Y-100984182D01*
X65239421Y-101025321D01*
X65183875Y-101057435D01*
X65120304Y-101081365D01*
X65045506Y-101097953D01*
X64956278Y-101108041D01*
X64849418Y-101112469D01*
X64800472Y-101112845D01*
X64738238Y-101112545D01*
X64694472Y-101111292D01*
X64665069Y-101108554D01*
X64645921Y-101103801D01*
X64632923Y-101096501D01*
X64625955Y-101090267D01*
X64619374Y-101082694D01*
X64614212Y-101072924D01*
X64610297Y-101058340D01*
X64607457Y-101036326D01*
X64605520Y-101004264D01*
X64604492Y-100966089D01*
X64750133Y-100966089D01*
X64843266Y-100966004D01*
X64899307Y-100964396D01*
X64958001Y-100960256D01*
X65006972Y-100954464D01*
X65008462Y-100954226D01*
X65087608Y-100935090D01*
X65148998Y-100905287D01*
X65195695Y-100862878D01*
X65225365Y-100816961D01*
X65243647Y-100766026D01*
X65242229Y-100718200D01*
X65221012Y-100666933D01*
X65179511Y-100613899D01*
X65122002Y-100574600D01*
X65047250Y-100548331D01*
X64997292Y-100539035D01*
X64940584Y-100532507D01*
X64880481Y-100527782D01*
X64829361Y-100525817D01*
X64826333Y-100525808D01*
X64750133Y-100525822D01*
X64750133Y-100966089D01*
X64604492Y-100966089D01*
X64604316Y-100959536D01*
X64603672Y-100899526D01*
X64603417Y-100821617D01*
X64603378Y-100745956D01*
X64603130Y-100645041D01*
X64603183Y-100564427D01*
X64604143Y-100525822D01*
X64604740Y-100501851D01*
X64609002Y-100455055D01*
G36*
X74624665Y-100381034D02*
G01*
X74644255Y-100388035D01*
X74645010Y-100388377D01*
X74671613Y-100408678D01*
X74686270Y-100429561D01*
X74689138Y-100439352D01*
X74688996Y-100452361D01*
X74684961Y-100470895D01*
X74676146Y-100497257D01*
X74661669Y-100533752D01*
X74640645Y-100582687D01*
X74612188Y-100646365D01*
X74575415Y-100727093D01*
X74555175Y-100771216D01*
X74518625Y-100849985D01*
X74484315Y-100922423D01*
X74453552Y-100985880D01*
X74427648Y-101037708D01*
X74407910Y-101075259D01*
X74395650Y-101095884D01*
X74393224Y-101098733D01*
X74362183Y-101111302D01*
X74327121Y-101109619D01*
X74299000Y-101094332D01*
X74297854Y-101093089D01*
X74286668Y-101076154D01*
X74267904Y-101043170D01*
X74243875Y-100998380D01*
X74216897Y-100946032D01*
X74207201Y-100926742D01*
X74134014Y-100780150D01*
X74054240Y-100939393D01*
X74025767Y-100994415D01*
X73999350Y-101042132D01*
X73977148Y-101078893D01*
X73961319Y-101101044D01*
X73955954Y-101105741D01*
X73914257Y-101112102D01*
X73879849Y-101098733D01*
X73869728Y-101084446D01*
X73852214Y-101052692D01*
X73828735Y-101006597D01*
X73800720Y-100949285D01*
X73769599Y-100883880D01*
X73736799Y-100813507D01*
X73703750Y-100741291D01*
X73671881Y-100670355D01*
X73642619Y-100603825D01*
X73617395Y-100544826D01*
X73597636Y-100496481D01*
X73584772Y-100461915D01*
X73580231Y-100444253D01*
X73580277Y-100443613D01*
X73591326Y-100421388D01*
X73613410Y-100398753D01*
X73614710Y-100397768D01*
X73641853Y-100382425D01*
X73666958Y-100382574D01*
X73676368Y-100385466D01*
X73687834Y-100391718D01*
X73700010Y-100404014D01*
X73714357Y-100424908D01*
X73732336Y-100456949D01*
X73755407Y-100502688D01*
X73785030Y-100564677D01*
X73811745Y-100621898D01*
X73842480Y-100688226D01*
X73870021Y-100747874D01*
X73892938Y-100797725D01*
X73909798Y-100834664D01*
X73919173Y-100855573D01*
X73920540Y-100858845D01*
X73926689Y-100853497D01*
X73940822Y-100831109D01*
X73961057Y-100794946D01*
X73985515Y-100748277D01*
X73995248Y-100729022D01*
X74028217Y-100664004D01*
X74053643Y-100616654D01*
X74073612Y-100584219D01*
X74090210Y-100563946D01*
X74105524Y-100553082D01*
X74121640Y-100548875D01*
X74132143Y-100548400D01*
X74150670Y-100550042D01*
X74166904Y-100556831D01*
X74183035Y-100571566D01*
X74201251Y-100597044D01*
X74223739Y-100636061D01*
X74252689Y-100691414D01*
X74268662Y-100722903D01*
X74294570Y-100773087D01*
X74317167Y-100814704D01*
X74334458Y-100844242D01*
X74344450Y-100858189D01*
X74345809Y-100858770D01*
X74352261Y-100847793D01*
X74366708Y-100819290D01*
X74387703Y-100776244D01*
X74413797Y-100721638D01*
X74443546Y-100658454D01*
X74458180Y-100627071D01*
X74496250Y-100546078D01*
X74526905Y-100483756D01*
X74551737Y-100438071D01*
X74572337Y-100406989D01*
X74590298Y-100388478D01*
X74607210Y-100380504D01*
X74624665Y-100381034D01*
G37*
X74624665Y-100381034D02*
X74644255Y-100388035D01*
X74645010Y-100388377D01*
X74671613Y-100408678D01*
X74686270Y-100429561D01*
X74689138Y-100439352D01*
X74688996Y-100452361D01*
X74684961Y-100470895D01*
X74676146Y-100497257D01*
X74661669Y-100533752D01*
X74640645Y-100582687D01*
X74612188Y-100646365D01*
X74575415Y-100727093D01*
X74555175Y-100771216D01*
X74518625Y-100849985D01*
X74484315Y-100922423D01*
X74453552Y-100985880D01*
X74427648Y-101037708D01*
X74407910Y-101075259D01*
X74395650Y-101095884D01*
X74393224Y-101098733D01*
X74362183Y-101111302D01*
X74327121Y-101109619D01*
X74299000Y-101094332D01*
X74297854Y-101093089D01*
X74286668Y-101076154D01*
X74267904Y-101043170D01*
X74243875Y-100998380D01*
X74216897Y-100946032D01*
X74207201Y-100926742D01*
X74134014Y-100780150D01*
X74054240Y-100939393D01*
X74025767Y-100994415D01*
X73999350Y-101042132D01*
X73977148Y-101078893D01*
X73961319Y-101101044D01*
X73955954Y-101105741D01*
X73914257Y-101112102D01*
X73879849Y-101098733D01*
X73869728Y-101084446D01*
X73852214Y-101052692D01*
X73828735Y-101006597D01*
X73800720Y-100949285D01*
X73769599Y-100883880D01*
X73736799Y-100813507D01*
X73703750Y-100741291D01*
X73671881Y-100670355D01*
X73642619Y-100603825D01*
X73617395Y-100544826D01*
X73597636Y-100496481D01*
X73584772Y-100461915D01*
X73580231Y-100444253D01*
X73580277Y-100443613D01*
X73591326Y-100421388D01*
X73613410Y-100398753D01*
X73614710Y-100397768D01*
X73641853Y-100382425D01*
X73666958Y-100382574D01*
X73676368Y-100385466D01*
X73687834Y-100391718D01*
X73700010Y-100404014D01*
X73714357Y-100424908D01*
X73732336Y-100456949D01*
X73755407Y-100502688D01*
X73785030Y-100564677D01*
X73811745Y-100621898D01*
X73842480Y-100688226D01*
X73870021Y-100747874D01*
X73892938Y-100797725D01*
X73909798Y-100834664D01*
X73919173Y-100855573D01*
X73920540Y-100858845D01*
X73926689Y-100853497D01*
X73940822Y-100831109D01*
X73961057Y-100794946D01*
X73985515Y-100748277D01*
X73995248Y-100729022D01*
X74028217Y-100664004D01*
X74053643Y-100616654D01*
X74073612Y-100584219D01*
X74090210Y-100563946D01*
X74105524Y-100553082D01*
X74121640Y-100548875D01*
X74132143Y-100548400D01*
X74150670Y-100550042D01*
X74166904Y-100556831D01*
X74183035Y-100571566D01*
X74201251Y-100597044D01*
X74223739Y-100636061D01*
X74252689Y-100691414D01*
X74268662Y-100722903D01*
X74294570Y-100773087D01*
X74317167Y-100814704D01*
X74334458Y-100844242D01*
X74344450Y-100858189D01*
X74345809Y-100858770D01*
X74352261Y-100847793D01*
X74366708Y-100819290D01*
X74387703Y-100776244D01*
X74413797Y-100721638D01*
X74443546Y-100658454D01*
X74458180Y-100627071D01*
X74496250Y-100546078D01*
X74526905Y-100483756D01*
X74551737Y-100438071D01*
X74572337Y-100406989D01*
X74590298Y-100388478D01*
X74607210Y-100380504D01*
X74624665Y-100381034D01*
G36*
X67933600Y-95599054D02*
G01*
X67944465Y-95712993D01*
X67976082Y-95820616D01*
X68026985Y-95919615D01*
X68095707Y-96007684D01*
X68180781Y-96082516D01*
X68277768Y-96140384D01*
X68384036Y-96180005D01*
X68491050Y-96198573D01*
X68596700Y-96197434D01*
X68698875Y-96177930D01*
X68795466Y-96141406D01*
X68884362Y-96089205D01*
X68963454Y-96022673D01*
X69030631Y-95943152D01*
X69083783Y-95851987D01*
X69120801Y-95750523D01*
X69139573Y-95640102D01*
X69141511Y-95590206D01*
X69141511Y-95502267D01*
X69193440Y-95502267D01*
X69229747Y-95505111D01*
X69256645Y-95516911D01*
X69283751Y-95540649D01*
X69322133Y-95579031D01*
X69322133Y-97770602D01*
X69322124Y-98032739D01*
X69322092Y-98273241D01*
X69322028Y-98493048D01*
X69321924Y-98693101D01*
X69321773Y-98874344D01*
X69321566Y-99037716D01*
X69321294Y-99184160D01*
X69320950Y-99314617D01*
X69320526Y-99430029D01*
X69320013Y-99531338D01*
X69319403Y-99619484D01*
X69318688Y-99695410D01*
X69317860Y-99760057D01*
X69316911Y-99814367D01*
X69315833Y-99859280D01*
X69314617Y-99895740D01*
X69313255Y-99924687D01*
X69311739Y-99947063D01*
X69310062Y-99963809D01*
X69308214Y-99975868D01*
X69306187Y-99984180D01*
X69303975Y-99989687D01*
X69302892Y-99991537D01*
X69298729Y-99998549D01*
X69295195Y-100004996D01*
X69291365Y-100010900D01*
X69286318Y-100016286D01*
X69279129Y-100021178D01*
X69268877Y-100025598D01*
X69254636Y-100029572D01*
X69235486Y-100033121D01*
X69210501Y-100036270D01*
X69178760Y-100039042D01*
X69139338Y-100041461D01*
X69091314Y-100043551D01*
X69033763Y-100045335D01*
X68965763Y-100046837D01*
X68886390Y-100048080D01*
X68794721Y-100049089D01*
X68689834Y-100049885D01*
X68570804Y-100050494D01*
X68436710Y-100050939D01*
X68286627Y-100051243D01*
X68119633Y-100051430D01*
X67934804Y-100051524D01*
X67731217Y-100051548D01*
X67507950Y-100051525D01*
X67264078Y-100051480D01*
X66998679Y-100051437D01*
X66960296Y-100051432D01*
X66693318Y-100051389D01*
X66447998Y-100051318D01*
X66223417Y-100051213D01*
X66018655Y-100051066D01*
X65832794Y-100050869D01*
X65664912Y-100050616D01*
X65514092Y-100050300D01*
X65379413Y-100049913D01*
X65259956Y-100049447D01*
X65154801Y-100048897D01*
X65063029Y-100048253D01*
X64983721Y-100047511D01*
X64915957Y-100046661D01*
X64858818Y-100045697D01*
X64811383Y-100044611D01*
X64772734Y-100043397D01*
X64741951Y-100042047D01*
X64718115Y-100040555D01*
X64700306Y-100038911D01*
X64687605Y-100037111D01*
X64679092Y-100035145D01*
X64674734Y-100033477D01*
X64666272Y-100029906D01*
X64658503Y-100027270D01*
X64651398Y-100024634D01*
X64644927Y-100021062D01*
X64639061Y-100015621D01*
X64633771Y-100007375D01*
X64629026Y-99995390D01*
X64624798Y-99978731D01*
X64621057Y-99956463D01*
X64617773Y-99927652D01*
X64614917Y-99891363D01*
X64612460Y-99846661D01*
X64610371Y-99792611D01*
X64608622Y-99728279D01*
X64607183Y-99652730D01*
X64606024Y-99565030D01*
X64605117Y-99464243D01*
X64604431Y-99349434D01*
X64603937Y-99219670D01*
X64603605Y-99074015D01*
X64603407Y-98911535D01*
X64603313Y-98731295D01*
X64603292Y-98532360D01*
X64603315Y-98313796D01*
X64603354Y-98074668D01*
X64603378Y-97814040D01*
X64603378Y-97771889D01*
X64603364Y-97508992D01*
X64603339Y-97267732D01*
X64603329Y-97047165D01*
X64603358Y-96846352D01*
X64603452Y-96664349D01*
X64603638Y-96500216D01*
X64603941Y-96353011D01*
X64604386Y-96221792D01*
X64604966Y-96111867D01*
X64907803Y-96111867D01*
X64947593Y-96169711D01*
X64958764Y-96185479D01*
X64968834Y-96199441D01*
X64977862Y-96212784D01*
X64985903Y-96226693D01*
X64993014Y-96242356D01*
X64999253Y-96260958D01*
X65004675Y-96283686D01*
X65009338Y-96311727D01*
X65013299Y-96346267D01*
X65016615Y-96388492D01*
X65019341Y-96439589D01*
X65021536Y-96500744D01*
X65023255Y-96573144D01*
X65024556Y-96657975D01*
X65025495Y-96756422D01*
X65026130Y-96869674D01*
X65026516Y-96998916D01*
X65026712Y-97145334D01*
X65026773Y-97310116D01*
X65026757Y-97494447D01*
X65026720Y-97699513D01*
X65026711Y-97822133D01*
X65026735Y-98039082D01*
X65026769Y-98234642D01*
X65026757Y-98409999D01*
X65026642Y-98566341D01*
X65026370Y-98704857D01*
X65025882Y-98826734D01*
X65025124Y-98933160D01*
X65024038Y-99025322D01*
X65022569Y-99104409D01*
X65020660Y-99171608D01*
X65018256Y-99228107D01*
X65015299Y-99275093D01*
X65011734Y-99313755D01*
X65007505Y-99345280D01*
X65002554Y-99370855D01*
X64996827Y-99391670D01*
X64990267Y-99408911D01*
X64982817Y-99423765D01*
X64974421Y-99437422D01*
X64965024Y-99451069D01*
X64954568Y-99465893D01*
X64948477Y-99474783D01*
X64909704Y-99532400D01*
X65441268Y-99532400D01*
X65564517Y-99532365D01*
X65667013Y-99532215D01*
X65750580Y-99531878D01*
X65817044Y-99531286D01*
X65868229Y-99530367D01*
X65905959Y-99529051D01*
X65932060Y-99527269D01*
X65948356Y-99524951D01*
X65956672Y-99522026D01*
X65958832Y-99518424D01*
X65956661Y-99514075D01*
X65955465Y-99512645D01*
X65930315Y-99475573D01*
X65904417Y-99422772D01*
X65880808Y-99360770D01*
X65872539Y-99334357D01*
X65867922Y-99316416D01*
X65864021Y-99295355D01*
X65860752Y-99269089D01*
X65858034Y-99235532D01*
X65855785Y-99192599D01*
X65853923Y-99138204D01*
X65852364Y-99070262D01*
X65851028Y-98986688D01*
X65849831Y-98885395D01*
X65848692Y-98764300D01*
X65848315Y-98719600D01*
X65847298Y-98594449D01*
X65846540Y-98490082D01*
X65846097Y-98404707D01*
X65846030Y-98336533D01*
X65846395Y-98283765D01*
X65847252Y-98244614D01*
X65848659Y-98217285D01*
X65850675Y-98199986D01*
X65853357Y-98190926D01*
X65856764Y-98188312D01*
X65860956Y-98190351D01*
X65865429Y-98194667D01*
X65875784Y-98207602D01*
X65897842Y-98236676D01*
X65930043Y-98279759D01*
X65970826Y-98334718D01*
X66018630Y-98399423D01*
X66071895Y-98471742D01*
X66129060Y-98549544D01*
X66188563Y-98630698D01*
X66248845Y-98713072D01*
X66308345Y-98794536D01*
X66365502Y-98872957D01*
X66418755Y-98946204D01*
X66466543Y-99012147D01*
X66507307Y-99068654D01*
X66539484Y-99113593D01*
X66561515Y-99144834D01*
X66566083Y-99151466D01*
X66589004Y-99188369D01*
X66615812Y-99236359D01*
X66641211Y-99285897D01*
X66644432Y-99292577D01*
X66666110Y-99340772D01*
X66678696Y-99378334D01*
X66684426Y-99414160D01*
X66685544Y-99456200D01*
X66684910Y-99532400D01*
X67839349Y-99532400D01*
X67748185Y-99438669D01*
X67701388Y-99388775D01*
X67651101Y-99332295D01*
X67605056Y-99278026D01*
X67584631Y-99252673D01*
X67554193Y-99213128D01*
X67514138Y-99159916D01*
X67465639Y-99094667D01*
X67409865Y-99019011D01*
X67347989Y-98934577D01*
X67281181Y-98842994D01*
X67210613Y-98745892D01*
X67137455Y-98644901D01*
X67062879Y-98541650D01*
X66988056Y-98437768D01*
X66914157Y-98334885D01*
X66842354Y-98234631D01*
X66773816Y-98138636D01*
X66709716Y-98048527D01*
X66651225Y-97965936D01*
X66599514Y-97892492D01*
X66555753Y-97829824D01*
X66521115Y-97779561D01*
X66496770Y-97743334D01*
X66483889Y-97722771D01*
X66482131Y-97718668D01*
X66490090Y-97707342D01*
X66510885Y-97680162D01*
X66543153Y-97638829D01*
X66585530Y-97585044D01*
X66636653Y-97520506D01*
X66695159Y-97446918D01*
X66759686Y-97365978D01*
X66828869Y-97279388D01*
X66901347Y-97188848D01*
X66975754Y-97096060D01*
X67035483Y-97021702D01*
X68046489Y-97021702D01*
X68052398Y-97034659D01*
X68066728Y-97056908D01*
X68067775Y-97058391D01*
X68086562Y-97088544D01*
X68106209Y-97125375D01*
X68110108Y-97133511D01*
X68113644Y-97141940D01*
X68116770Y-97152059D01*
X68119514Y-97165260D01*
X68121908Y-97182938D01*
X68123981Y-97206484D01*
X68125765Y-97237293D01*
X68127288Y-97276757D01*
X68128581Y-97326269D01*
X68129674Y-97387223D01*
X68130597Y-97461011D01*
X68131381Y-97549028D01*
X68132055Y-97652665D01*
X68132650Y-97773316D01*
X68133195Y-97912374D01*
X68133721Y-98071232D01*
X68134255Y-98250089D01*
X68134794Y-98435207D01*
X68135228Y-98599145D01*
X68135491Y-98743303D01*
X68135516Y-98869079D01*
X68135235Y-98977871D01*
X68134581Y-99071077D01*
X68133486Y-99150097D01*
X68131882Y-99216328D01*
X68129703Y-99271170D01*
X68126881Y-99316021D01*
X68123349Y-99352278D01*
X68119039Y-99381341D01*
X68113883Y-99404609D01*
X68107815Y-99423479D01*
X68100767Y-99439351D01*
X68092671Y-99453622D01*
X68083460Y-99467691D01*
X68074960Y-99480158D01*
X68057824Y-99506452D01*
X68047678Y-99524037D01*
X68046489Y-99527257D01*
X68057396Y-99528334D01*
X68088589Y-99529335D01*
X68137777Y-99530235D01*
X68202667Y-99531010D01*
X68280970Y-99531637D01*
X68370393Y-99532091D01*
X68468644Y-99532349D01*
X68537555Y-99532400D01*
X68642548Y-99532180D01*
X68739390Y-99531548D01*
X68825893Y-99530549D01*
X68899868Y-99529227D01*
X68959126Y-99527626D01*
X69001480Y-99525791D01*
X69024740Y-99523765D01*
X69028622Y-99522493D01*
X69020924Y-99507591D01*
X69012926Y-99499560D01*
X68999754Y-99482434D01*
X68982515Y-99452183D01*
X68970593Y-99427622D01*
X68943955Y-99368711D01*
X68940880Y-98191845D01*
X68937805Y-97014978D01*
X68492147Y-97014978D01*
X68394330Y-97015142D01*
X68303936Y-97015611D01*
X68223370Y-97016347D01*
X68155038Y-97017316D01*
X68101344Y-97018480D01*
X68064695Y-97019803D01*
X68047496Y-97021249D01*
X68046489Y-97021702D01*
X67035483Y-97021702D01*
X67050730Y-97002722D01*
X67124910Y-96910537D01*
X67196931Y-96821204D01*
X67265431Y-96736424D01*
X67329045Y-96657898D01*
X67386412Y-96587326D01*
X67436167Y-96526409D01*
X67476948Y-96476847D01*
X67494112Y-96456178D01*
X67580404Y-96355516D01*
X67657003Y-96272259D01*
X67725817Y-96204438D01*
X67788752Y-96150089D01*
X67798133Y-96142722D01*
X67837644Y-96112117D01*
X66705884Y-96111867D01*
X66711173Y-96159844D01*
X66707870Y-96217188D01*
X66686339Y-96285463D01*
X66646365Y-96365212D01*
X66601057Y-96437495D01*
X66584839Y-96460140D01*
X66556786Y-96497696D01*
X66518570Y-96548021D01*
X66471863Y-96608973D01*
X66418339Y-96678411D01*
X66359669Y-96754194D01*
X66297525Y-96834180D01*
X66233579Y-96916228D01*
X66169505Y-96998196D01*
X66106973Y-97077943D01*
X66047657Y-97153327D01*
X65993229Y-97222207D01*
X65945361Y-97282442D01*
X65905725Y-97331889D01*
X65875994Y-97368408D01*
X65857839Y-97389858D01*
X65854780Y-97393156D01*
X65851921Y-97385149D01*
X65849707Y-97354855D01*
X65848143Y-97302556D01*
X65847233Y-97228531D01*
X65846980Y-97133063D01*
X65847387Y-97016434D01*
X65848296Y-96896445D01*
X65849618Y-96764333D01*
X65851143Y-96652594D01*
X65853119Y-96559025D01*
X65855794Y-96481419D01*
X65859418Y-96417574D01*
X65864239Y-96365283D01*
X65870506Y-96322344D01*
X65878468Y-96286551D01*
X65888373Y-96255700D01*
X65900469Y-96227586D01*
X65915007Y-96200005D01*
X65929689Y-96174966D01*
X65967686Y-96111867D01*
X64907803Y-96111867D01*
X64604966Y-96111867D01*
X64604999Y-96105617D01*
X64605805Y-96003544D01*
X64606830Y-95914633D01*
X64608100Y-95837941D01*
X64609640Y-95772527D01*
X64611476Y-95717449D01*
X64613633Y-95671765D01*
X64616137Y-95634534D01*
X64619013Y-95604813D01*
X64622287Y-95581662D01*
X64625985Y-95564139D01*
X64630131Y-95551301D01*
X64634753Y-95542208D01*
X64639874Y-95535918D01*
X64645522Y-95531488D01*
X64651721Y-95527978D01*
X64658496Y-95524445D01*
X64664492Y-95520876D01*
X64669725Y-95518300D01*
X64677901Y-95515972D01*
X64690114Y-95513878D01*
X64707459Y-95512007D01*
X64731031Y-95510347D01*
X64761923Y-95508884D01*
X64801232Y-95507608D01*
X64850050Y-95506504D01*
X64909473Y-95505561D01*
X64980596Y-95504767D01*
X65064512Y-95504109D01*
X65162317Y-95503575D01*
X65275106Y-95503153D01*
X65403971Y-95502829D01*
X65550009Y-95502592D01*
X65714314Y-95502430D01*
X65897980Y-95502330D01*
X66102103Y-95502280D01*
X66313247Y-95502267D01*
X67933600Y-95502267D01*
X67933600Y-95599054D01*
G37*
X67933600Y-95599054D02*
X67944465Y-95712993D01*
X67976082Y-95820616D01*
X68026985Y-95919615D01*
X68095707Y-96007684D01*
X68180781Y-96082516D01*
X68277768Y-96140384D01*
X68384036Y-96180005D01*
X68491050Y-96198573D01*
X68596700Y-96197434D01*
X68698875Y-96177930D01*
X68795466Y-96141406D01*
X68884362Y-96089205D01*
X68963454Y-96022673D01*
X69030631Y-95943152D01*
X69083783Y-95851987D01*
X69120801Y-95750523D01*
X69139573Y-95640102D01*
X69141511Y-95590206D01*
X69141511Y-95502267D01*
X69193440Y-95502267D01*
X69229747Y-95505111D01*
X69256645Y-95516911D01*
X69283751Y-95540649D01*
X69322133Y-95579031D01*
X69322133Y-97770602D01*
X69322124Y-98032739D01*
X69322092Y-98273241D01*
X69322028Y-98493048D01*
X69321924Y-98693101D01*
X69321773Y-98874344D01*
X69321566Y-99037716D01*
X69321294Y-99184160D01*
X69320950Y-99314617D01*
X69320526Y-99430029D01*
X69320013Y-99531338D01*
X69319403Y-99619484D01*
X69318688Y-99695410D01*
X69317860Y-99760057D01*
X69316911Y-99814367D01*
X69315833Y-99859280D01*
X69314617Y-99895740D01*
X69313255Y-99924687D01*
X69311739Y-99947063D01*
X69310062Y-99963809D01*
X69308214Y-99975868D01*
X69306187Y-99984180D01*
X69303975Y-99989687D01*
X69302892Y-99991537D01*
X69298729Y-99998549D01*
X69295195Y-100004996D01*
X69291365Y-100010900D01*
X69286318Y-100016286D01*
X69279129Y-100021178D01*
X69268877Y-100025598D01*
X69254636Y-100029572D01*
X69235486Y-100033121D01*
X69210501Y-100036270D01*
X69178760Y-100039042D01*
X69139338Y-100041461D01*
X69091314Y-100043551D01*
X69033763Y-100045335D01*
X68965763Y-100046837D01*
X68886390Y-100048080D01*
X68794721Y-100049089D01*
X68689834Y-100049885D01*
X68570804Y-100050494D01*
X68436710Y-100050939D01*
X68286627Y-100051243D01*
X68119633Y-100051430D01*
X67934804Y-100051524D01*
X67731217Y-100051548D01*
X67507950Y-100051525D01*
X67264078Y-100051480D01*
X66998679Y-100051437D01*
X66960296Y-100051432D01*
X66693318Y-100051389D01*
X66447998Y-100051318D01*
X66223417Y-100051213D01*
X66018655Y-100051066D01*
X65832794Y-100050869D01*
X65664912Y-100050616D01*
X65514092Y-100050300D01*
X65379413Y-100049913D01*
X65259956Y-100049447D01*
X65154801Y-100048897D01*
X65063029Y-100048253D01*
X64983721Y-100047511D01*
X64915957Y-100046661D01*
X64858818Y-100045697D01*
X64811383Y-100044611D01*
X64772734Y-100043397D01*
X64741951Y-100042047D01*
X64718115Y-100040555D01*
X64700306Y-100038911D01*
X64687605Y-100037111D01*
X64679092Y-100035145D01*
X64674734Y-100033477D01*
X64666272Y-100029906D01*
X64658503Y-100027270D01*
X64651398Y-100024634D01*
X64644927Y-100021062D01*
X64639061Y-100015621D01*
X64633771Y-100007375D01*
X64629026Y-99995390D01*
X64624798Y-99978731D01*
X64621057Y-99956463D01*
X64617773Y-99927652D01*
X64614917Y-99891363D01*
X64612460Y-99846661D01*
X64610371Y-99792611D01*
X64608622Y-99728279D01*
X64607183Y-99652730D01*
X64606024Y-99565030D01*
X64605117Y-99464243D01*
X64604431Y-99349434D01*
X64603937Y-99219670D01*
X64603605Y-99074015D01*
X64603407Y-98911535D01*
X64603313Y-98731295D01*
X64603292Y-98532360D01*
X64603315Y-98313796D01*
X64603354Y-98074668D01*
X64603378Y-97814040D01*
X64603378Y-97771889D01*
X64603364Y-97508992D01*
X64603339Y-97267732D01*
X64603329Y-97047165D01*
X64603358Y-96846352D01*
X64603452Y-96664349D01*
X64603638Y-96500216D01*
X64603941Y-96353011D01*
X64604386Y-96221792D01*
X64604966Y-96111867D01*
X64907803Y-96111867D01*
X64947593Y-96169711D01*
X64958764Y-96185479D01*
X64968834Y-96199441D01*
X64977862Y-96212784D01*
X64985903Y-96226693D01*
X64993014Y-96242356D01*
X64999253Y-96260958D01*
X65004675Y-96283686D01*
X65009338Y-96311727D01*
X65013299Y-96346267D01*
X65016615Y-96388492D01*
X65019341Y-96439589D01*
X65021536Y-96500744D01*
X65023255Y-96573144D01*
X65024556Y-96657975D01*
X65025495Y-96756422D01*
X65026130Y-96869674D01*
X65026516Y-96998916D01*
X65026712Y-97145334D01*
X65026773Y-97310116D01*
X65026757Y-97494447D01*
X65026720Y-97699513D01*
X65026711Y-97822133D01*
X65026735Y-98039082D01*
X65026769Y-98234642D01*
X65026757Y-98409999D01*
X65026642Y-98566341D01*
X65026370Y-98704857D01*
X65025882Y-98826734D01*
X65025124Y-98933160D01*
X65024038Y-99025322D01*
X65022569Y-99104409D01*
X65020660Y-99171608D01*
X65018256Y-99228107D01*
X65015299Y-99275093D01*
X65011734Y-99313755D01*
X65007505Y-99345280D01*
X65002554Y-99370855D01*
X64996827Y-99391670D01*
X64990267Y-99408911D01*
X64982817Y-99423765D01*
X64974421Y-99437422D01*
X64965024Y-99451069D01*
X64954568Y-99465893D01*
X64948477Y-99474783D01*
X64909704Y-99532400D01*
X65441268Y-99532400D01*
X65564517Y-99532365D01*
X65667013Y-99532215D01*
X65750580Y-99531878D01*
X65817044Y-99531286D01*
X65868229Y-99530367D01*
X65905959Y-99529051D01*
X65932060Y-99527269D01*
X65948356Y-99524951D01*
X65956672Y-99522026D01*
X65958832Y-99518424D01*
X65956661Y-99514075D01*
X65955465Y-99512645D01*
X65930315Y-99475573D01*
X65904417Y-99422772D01*
X65880808Y-99360770D01*
X65872539Y-99334357D01*
X65867922Y-99316416D01*
X65864021Y-99295355D01*
X65860752Y-99269089D01*
X65858034Y-99235532D01*
X65855785Y-99192599D01*
X65853923Y-99138204D01*
X65852364Y-99070262D01*
X65851028Y-98986688D01*
X65849831Y-98885395D01*
X65848692Y-98764300D01*
X65848315Y-98719600D01*
X65847298Y-98594449D01*
X65846540Y-98490082D01*
X65846097Y-98404707D01*
X65846030Y-98336533D01*
X65846395Y-98283765D01*
X65847252Y-98244614D01*
X65848659Y-98217285D01*
X65850675Y-98199986D01*
X65853357Y-98190926D01*
X65856764Y-98188312D01*
X65860956Y-98190351D01*
X65865429Y-98194667D01*
X65875784Y-98207602D01*
X65897842Y-98236676D01*
X65930043Y-98279759D01*
X65970826Y-98334718D01*
X66018630Y-98399423D01*
X66071895Y-98471742D01*
X66129060Y-98549544D01*
X66188563Y-98630698D01*
X66248845Y-98713072D01*
X66308345Y-98794536D01*
X66365502Y-98872957D01*
X66418755Y-98946204D01*
X66466543Y-99012147D01*
X66507307Y-99068654D01*
X66539484Y-99113593D01*
X66561515Y-99144834D01*
X66566083Y-99151466D01*
X66589004Y-99188369D01*
X66615812Y-99236359D01*
X66641211Y-99285897D01*
X66644432Y-99292577D01*
X66666110Y-99340772D01*
X66678696Y-99378334D01*
X66684426Y-99414160D01*
X66685544Y-99456200D01*
X66684910Y-99532400D01*
X67839349Y-99532400D01*
X67748185Y-99438669D01*
X67701388Y-99388775D01*
X67651101Y-99332295D01*
X67605056Y-99278026D01*
X67584631Y-99252673D01*
X67554193Y-99213128D01*
X67514138Y-99159916D01*
X67465639Y-99094667D01*
X67409865Y-99019011D01*
X67347989Y-98934577D01*
X67281181Y-98842994D01*
X67210613Y-98745892D01*
X67137455Y-98644901D01*
X67062879Y-98541650D01*
X66988056Y-98437768D01*
X66914157Y-98334885D01*
X66842354Y-98234631D01*
X66773816Y-98138636D01*
X66709716Y-98048527D01*
X66651225Y-97965936D01*
X66599514Y-97892492D01*
X66555753Y-97829824D01*
X66521115Y-97779561D01*
X66496770Y-97743334D01*
X66483889Y-97722771D01*
X66482131Y-97718668D01*
X66490090Y-97707342D01*
X66510885Y-97680162D01*
X66543153Y-97638829D01*
X66585530Y-97585044D01*
X66636653Y-97520506D01*
X66695159Y-97446918D01*
X66759686Y-97365978D01*
X66828869Y-97279388D01*
X66901347Y-97188848D01*
X66975754Y-97096060D01*
X67035483Y-97021702D01*
X68046489Y-97021702D01*
X68052398Y-97034659D01*
X68066728Y-97056908D01*
X68067775Y-97058391D01*
X68086562Y-97088544D01*
X68106209Y-97125375D01*
X68110108Y-97133511D01*
X68113644Y-97141940D01*
X68116770Y-97152059D01*
X68119514Y-97165260D01*
X68121908Y-97182938D01*
X68123981Y-97206484D01*
X68125765Y-97237293D01*
X68127288Y-97276757D01*
X68128581Y-97326269D01*
X68129674Y-97387223D01*
X68130597Y-97461011D01*
X68131381Y-97549028D01*
X68132055Y-97652665D01*
X68132650Y-97773316D01*
X68133195Y-97912374D01*
X68133721Y-98071232D01*
X68134255Y-98250089D01*
X68134794Y-98435207D01*
X68135228Y-98599145D01*
X68135491Y-98743303D01*
X68135516Y-98869079D01*
X68135235Y-98977871D01*
X68134581Y-99071077D01*
X68133486Y-99150097D01*
X68131882Y-99216328D01*
X68129703Y-99271170D01*
X68126881Y-99316021D01*
X68123349Y-99352278D01*
X68119039Y-99381341D01*
X68113883Y-99404609D01*
X68107815Y-99423479D01*
X68100767Y-99439351D01*
X68092671Y-99453622D01*
X68083460Y-99467691D01*
X68074960Y-99480158D01*
X68057824Y-99506452D01*
X68047678Y-99524037D01*
X68046489Y-99527257D01*
X68057396Y-99528334D01*
X68088589Y-99529335D01*
X68137777Y-99530235D01*
X68202667Y-99531010D01*
X68280970Y-99531637D01*
X68370393Y-99532091D01*
X68468644Y-99532349D01*
X68537555Y-99532400D01*
X68642548Y-99532180D01*
X68739390Y-99531548D01*
X68825893Y-99530549D01*
X68899868Y-99529227D01*
X68959126Y-99527626D01*
X69001480Y-99525791D01*
X69024740Y-99523765D01*
X69028622Y-99522493D01*
X69020924Y-99507591D01*
X69012926Y-99499560D01*
X68999754Y-99482434D01*
X68982515Y-99452183D01*
X68970593Y-99427622D01*
X68943955Y-99368711D01*
X68940880Y-98191845D01*
X68937805Y-97014978D01*
X68492147Y-97014978D01*
X68394330Y-97015142D01*
X68303936Y-97015611D01*
X68223370Y-97016347D01*
X68155038Y-97017316D01*
X68101344Y-97018480D01*
X68064695Y-97019803D01*
X68047496Y-97021249D01*
X68046489Y-97021702D01*
X67035483Y-97021702D01*
X67050730Y-97002722D01*
X67124910Y-96910537D01*
X67196931Y-96821204D01*
X67265431Y-96736424D01*
X67329045Y-96657898D01*
X67386412Y-96587326D01*
X67436167Y-96526409D01*
X67476948Y-96476847D01*
X67494112Y-96456178D01*
X67580404Y-96355516D01*
X67657003Y-96272259D01*
X67725817Y-96204438D01*
X67788752Y-96150089D01*
X67798133Y-96142722D01*
X67837644Y-96112117D01*
X66705884Y-96111867D01*
X66711173Y-96159844D01*
X66707870Y-96217188D01*
X66686339Y-96285463D01*
X66646365Y-96365212D01*
X66601057Y-96437495D01*
X66584839Y-96460140D01*
X66556786Y-96497696D01*
X66518570Y-96548021D01*
X66471863Y-96608973D01*
X66418339Y-96678411D01*
X66359669Y-96754194D01*
X66297525Y-96834180D01*
X66233579Y-96916228D01*
X66169505Y-96998196D01*
X66106973Y-97077943D01*
X66047657Y-97153327D01*
X65993229Y-97222207D01*
X65945361Y-97282442D01*
X65905725Y-97331889D01*
X65875994Y-97368408D01*
X65857839Y-97389858D01*
X65854780Y-97393156D01*
X65851921Y-97385149D01*
X65849707Y-97354855D01*
X65848143Y-97302556D01*
X65847233Y-97228531D01*
X65846980Y-97133063D01*
X65847387Y-97016434D01*
X65848296Y-96896445D01*
X65849618Y-96764333D01*
X65851143Y-96652594D01*
X65853119Y-96559025D01*
X65855794Y-96481419D01*
X65859418Y-96417574D01*
X65864239Y-96365283D01*
X65870506Y-96322344D01*
X65878468Y-96286551D01*
X65888373Y-96255700D01*
X65900469Y-96227586D01*
X65915007Y-96200005D01*
X65929689Y-96174966D01*
X65967686Y-96111867D01*
X64907803Y-96111867D01*
X64604966Y-96111867D01*
X64604999Y-96105617D01*
X64605805Y-96003544D01*
X64606830Y-95914633D01*
X64608100Y-95837941D01*
X64609640Y-95772527D01*
X64611476Y-95717449D01*
X64613633Y-95671765D01*
X64616137Y-95634534D01*
X64619013Y-95604813D01*
X64622287Y-95581662D01*
X64625985Y-95564139D01*
X64630131Y-95551301D01*
X64634753Y-95542208D01*
X64639874Y-95535918D01*
X64645522Y-95531488D01*
X64651721Y-95527978D01*
X64658496Y-95524445D01*
X64664492Y-95520876D01*
X64669725Y-95518300D01*
X64677901Y-95515972D01*
X64690114Y-95513878D01*
X64707459Y-95512007D01*
X64731031Y-95510347D01*
X64761923Y-95508884D01*
X64801232Y-95507608D01*
X64850050Y-95506504D01*
X64909473Y-95505561D01*
X64980596Y-95504767D01*
X65064512Y-95504109D01*
X65162317Y-95503575D01*
X65275106Y-95503153D01*
X65403971Y-95502829D01*
X65550009Y-95502592D01*
X65714314Y-95502430D01*
X65897980Y-95502330D01*
X66102103Y-95502280D01*
X66313247Y-95502267D01*
X67933600Y-95502267D01*
X67933600Y-95599054D01*
G36*
X68606957Y-95136571D02*
G01*
X68703232Y-95160809D01*
X68789816Y-95203641D01*
X68864627Y-95263419D01*
X68925582Y-95338494D01*
X68970601Y-95427220D01*
X68996864Y-95523530D01*
X69002714Y-95620795D01*
X68987860Y-95714654D01*
X68954160Y-95802511D01*
X68903472Y-95881770D01*
X68837655Y-95949836D01*
X68758566Y-96004112D01*
X68668066Y-96042002D01*
X68616800Y-96054426D01*
X68572302Y-96061947D01*
X68538001Y-96064919D01*
X68505040Y-96063094D01*
X68464566Y-96056225D01*
X68431469Y-96049250D01*
X68338053Y-96017741D01*
X68254381Y-95966617D01*
X68182335Y-95897429D01*
X68123800Y-95811728D01*
X68109852Y-95784489D01*
X68093414Y-95748122D01*
X68083106Y-95717582D01*
X68077540Y-95685450D01*
X68075331Y-95644307D01*
X68075052Y-95598222D01*
X68079139Y-95513865D01*
X68092554Y-95444586D01*
X68117744Y-95383961D01*
X68157154Y-95325567D01*
X68195702Y-95281302D01*
X68267594Y-95215484D01*
X68342687Y-95170053D01*
X68425438Y-95142850D01*
X68503072Y-95132576D01*
X68606957Y-95136571D01*
G37*
X68606957Y-95136571D02*
X68703232Y-95160809D01*
X68789816Y-95203641D01*
X68864627Y-95263419D01*
X68925582Y-95338494D01*
X68970601Y-95427220D01*
X68996864Y-95523530D01*
X69002714Y-95620795D01*
X68987860Y-95714654D01*
X68954160Y-95802511D01*
X68903472Y-95881770D01*
X68837655Y-95949836D01*
X68758566Y-96004112D01*
X68668066Y-96042002D01*
X68616800Y-96054426D01*
X68572302Y-96061947D01*
X68538001Y-96064919D01*
X68505040Y-96063094D01*
X68464566Y-96056225D01*
X68431469Y-96049250D01*
X68338053Y-96017741D01*
X68254381Y-95966617D01*
X68182335Y-95897429D01*
X68123800Y-95811728D01*
X68109852Y-95784489D01*
X68093414Y-95748122D01*
X68083106Y-95717582D01*
X68077540Y-95685450D01*
X68075331Y-95644307D01*
X68075052Y-95598222D01*
X68079139Y-95513865D01*
X68092554Y-95444586D01*
X68117744Y-95383961D01*
X68157154Y-95325567D01*
X68195702Y-95281302D01*
X68267594Y-95215484D01*
X68342687Y-95170053D01*
X68425438Y-95142850D01*
X68503072Y-95132576D01*
X68606957Y-95136571D01*
G36*
X69579886Y-100383448D02*
G01*
X69603452Y-100397273D01*
X69634265Y-100419881D01*
X69673922Y-100452338D01*
X69724020Y-100495708D01*
X69786157Y-100551058D01*
X69861928Y-100619451D01*
X69948666Y-100698084D01*
X70129289Y-100861878D01*
X70134933Y-100642029D01*
X70136971Y-100566351D01*
X70138937Y-100509994D01*
X70141266Y-100469706D01*
X70144394Y-100442235D01*
X70148755Y-100424329D01*
X70154784Y-100412737D01*
X70162916Y-100404208D01*
X70167228Y-100400623D01*
X70201759Y-100381670D01*
X70234617Y-100384441D01*
X70260682Y-100400633D01*
X70287333Y-100422199D01*
X70290648Y-100737151D01*
X70291565Y-100829779D01*
X70292032Y-100902544D01*
X70291887Y-100958161D01*
X70290968Y-100999342D01*
X70289113Y-101028803D01*
X70286161Y-101049255D01*
X70281950Y-101063413D01*
X70276318Y-101073991D01*
X70270073Y-101082474D01*
X70256561Y-101098207D01*
X70243117Y-101108636D01*
X70227876Y-101112639D01*
X70208974Y-101109094D01*
X70184545Y-101096879D01*
X70152727Y-101074871D01*
X70111652Y-101041949D01*
X70059458Y-100996991D01*
X69994278Y-100938875D01*
X69920444Y-100872099D01*
X69655155Y-100631458D01*
X69649511Y-100850589D01*
X69647469Y-100926128D01*
X69645498Y-100982354D01*
X69643161Y-101022524D01*
X69640019Y-101049896D01*
X69635636Y-101067728D01*
X69629576Y-101079279D01*
X69621400Y-101087807D01*
X69617216Y-101091282D01*
X69580235Y-101110372D01*
X69545292Y-101107493D01*
X69514864Y-101083100D01*
X69507903Y-101073286D01*
X69502477Y-101061826D01*
X69498397Y-101045968D01*
X69495471Y-101022963D01*
X69493508Y-100990062D01*
X69492317Y-100944516D01*
X69491708Y-100883573D01*
X69491489Y-100804486D01*
X69491466Y-100745956D01*
X69491540Y-100654407D01*
X69491887Y-100582687D01*
X69492699Y-100528045D01*
X69494167Y-100487732D01*
X69496481Y-100458998D01*
X69499833Y-100439093D01*
X69504412Y-100425268D01*
X69510411Y-100414772D01*
X69514864Y-100408811D01*
X69526150Y-100394691D01*
X69536699Y-100384029D01*
X69548107Y-100377892D01*
X69561970Y-100377343D01*
X69579886Y-100383448D01*
G37*
X69579886Y-100383448D02*
X69603452Y-100397273D01*
X69634265Y-100419881D01*
X69673922Y-100452338D01*
X69724020Y-100495708D01*
X69786157Y-100551058D01*
X69861928Y-100619451D01*
X69948666Y-100698084D01*
X70129289Y-100861878D01*
X70134933Y-100642029D01*
X70136971Y-100566351D01*
X70138937Y-100509994D01*
X70141266Y-100469706D01*
X70144394Y-100442235D01*
X70148755Y-100424329D01*
X70154784Y-100412737D01*
X70162916Y-100404208D01*
X70167228Y-100400623D01*
X70201759Y-100381670D01*
X70234617Y-100384441D01*
X70260682Y-100400633D01*
X70287333Y-100422199D01*
X70290648Y-100737151D01*
X70291565Y-100829779D01*
X70292032Y-100902544D01*
X70291887Y-100958161D01*
X70290968Y-100999342D01*
X70289113Y-101028803D01*
X70286161Y-101049255D01*
X70281950Y-101063413D01*
X70276318Y-101073991D01*
X70270073Y-101082474D01*
X70256561Y-101098207D01*
X70243117Y-101108636D01*
X70227876Y-101112639D01*
X70208974Y-101109094D01*
X70184545Y-101096879D01*
X70152727Y-101074871D01*
X70111652Y-101041949D01*
X70059458Y-100996991D01*
X69994278Y-100938875D01*
X69920444Y-100872099D01*
X69655155Y-100631458D01*
X69649511Y-100850589D01*
X69647469Y-100926128D01*
X69645498Y-100982354D01*
X69643161Y-101022524D01*
X69640019Y-101049896D01*
X69635636Y-101067728D01*
X69629576Y-101079279D01*
X69621400Y-101087807D01*
X69617216Y-101091282D01*
X69580235Y-101110372D01*
X69545292Y-101107493D01*
X69514864Y-101083100D01*
X69507903Y-101073286D01*
X69502477Y-101061826D01*
X69498397Y-101045968D01*
X69495471Y-101022963D01*
X69493508Y-100990062D01*
X69492317Y-100944516D01*
X69491708Y-100883573D01*
X69491489Y-100804486D01*
X69491466Y-100745956D01*
X69491540Y-100654407D01*
X69491887Y-100582687D01*
X69492699Y-100528045D01*
X69494167Y-100487732D01*
X69496481Y-100458998D01*
X69499833Y-100439093D01*
X69504412Y-100425268D01*
X69510411Y-100414772D01*
X69514864Y-100408811D01*
X69526150Y-100394691D01*
X69536699Y-100384029D01*
X69548107Y-100377892D01*
X69561970Y-100377343D01*
X69579886Y-100383448D01*
G36*
X66167206Y-100379146D02*
G01*
X66236614Y-100379518D01*
X66289003Y-100380385D01*
X66327153Y-100381946D01*
X66353841Y-100384403D01*
X66371847Y-100387957D01*
X66383951Y-100392810D01*
X66392931Y-100399161D01*
X66396182Y-100402084D01*
X66415957Y-100433142D01*
X66419518Y-100468828D01*
X66406509Y-100500510D01*
X66400494Y-100506913D01*
X66390765Y-100513121D01*
X66375099Y-100517910D01*
X66350592Y-100521514D01*
X66314339Y-100524164D01*
X66263435Y-100526095D01*
X66194974Y-100527539D01*
X66132383Y-100528418D01*
X65884666Y-100531467D01*
X65881281Y-100596378D01*
X65877895Y-100661289D01*
X66046042Y-100661289D01*
X66119041Y-100661919D01*
X66172483Y-100664553D01*
X66209372Y-100670309D01*
X66232712Y-100680304D01*
X66245506Y-100695656D01*
X66250758Y-100717482D01*
X66251555Y-100737738D01*
X66249077Y-100762592D01*
X66239723Y-100780906D01*
X66220617Y-100793637D01*
X66188882Y-100801741D01*
X66141641Y-100806176D01*
X66076017Y-100807899D01*
X66040199Y-100808045D01*
X65879022Y-100808045D01*
X65879022Y-100966089D01*
X66127378Y-100966089D01*
X66208787Y-100966202D01*
X66270658Y-100966712D01*
X66316032Y-100967870D01*
X66347946Y-100969930D01*
X66369441Y-100973146D01*
X66383557Y-100977772D01*
X66393332Y-100984059D01*
X66398311Y-100988667D01*
X66415390Y-101015560D01*
X66420889Y-101039467D01*
X66413037Y-101068667D01*
X66398311Y-101090267D01*
X66390454Y-101097066D01*
X66380312Y-101102346D01*
X66365156Y-101106298D01*
X66342259Y-101109113D01*
X66308891Y-101110982D01*
X66262325Y-101112098D01*
X66199833Y-101112651D01*
X66118686Y-101112833D01*
X66076578Y-101112845D01*
X65986402Y-101112765D01*
X65916076Y-101112398D01*
X65862871Y-101111552D01*
X65824060Y-101110036D01*
X65796913Y-101107659D01*
X65778702Y-101104229D01*
X65766700Y-101099554D01*
X65758178Y-101093444D01*
X65754844Y-101090267D01*
X65748245Y-101082670D01*
X65743073Y-101072870D01*
X65739154Y-101058239D01*
X65736316Y-101036152D01*
X65734385Y-101003982D01*
X65733188Y-100959103D01*
X65732552Y-100898889D01*
X65732303Y-100820713D01*
X65732266Y-100747923D01*
X65732300Y-100654707D01*
X65732535Y-100581431D01*
X65733170Y-100525458D01*
X65734406Y-100484151D01*
X65736444Y-100454872D01*
X65739483Y-100434984D01*
X65743723Y-100421850D01*
X65749365Y-100412832D01*
X65756609Y-100405293D01*
X65758394Y-100403612D01*
X65767055Y-100396172D01*
X65777118Y-100390409D01*
X65791375Y-100386112D01*
X65812617Y-100383064D01*
X65843636Y-100381051D01*
X65887223Y-100379860D01*
X65946169Y-100379275D01*
X66023266Y-100379083D01*
X66077999Y-100379067D01*
X66167206Y-100379146D01*
G37*
X66167206Y-100379146D02*
X66236614Y-100379518D01*
X66289003Y-100380385D01*
X66327153Y-100381946D01*
X66353841Y-100384403D01*
X66371847Y-100387957D01*
X66383951Y-100392810D01*
X66392931Y-100399161D01*
X66396182Y-100402084D01*
X66415957Y-100433142D01*
X66419518Y-100468828D01*
X66406509Y-100500510D01*
X66400494Y-100506913D01*
X66390765Y-100513121D01*
X66375099Y-100517910D01*
X66350592Y-100521514D01*
X66314339Y-100524164D01*
X66263435Y-100526095D01*
X66194974Y-100527539D01*
X66132383Y-100528418D01*
X65884666Y-100531467D01*
X65881281Y-100596378D01*
X65877895Y-100661289D01*
X66046042Y-100661289D01*
X66119041Y-100661919D01*
X66172483Y-100664553D01*
X66209372Y-100670309D01*
X66232712Y-100680304D01*
X66245506Y-100695656D01*
X66250758Y-100717482D01*
X66251555Y-100737738D01*
X66249077Y-100762592D01*
X66239723Y-100780906D01*
X66220617Y-100793637D01*
X66188882Y-100801741D01*
X66141641Y-100806176D01*
X66076017Y-100807899D01*
X66040199Y-100808045D01*
X65879022Y-100808045D01*
X65879022Y-100966089D01*
X66127378Y-100966089D01*
X66208787Y-100966202D01*
X66270658Y-100966712D01*
X66316032Y-100967870D01*
X66347946Y-100969930D01*
X66369441Y-100973146D01*
X66383557Y-100977772D01*
X66393332Y-100984059D01*
X66398311Y-100988667D01*
X66415390Y-101015560D01*
X66420889Y-101039467D01*
X66413037Y-101068667D01*
X66398311Y-101090267D01*
X66390454Y-101097066D01*
X66380312Y-101102346D01*
X66365156Y-101106298D01*
X66342259Y-101109113D01*
X66308891Y-101110982D01*
X66262325Y-101112098D01*
X66199833Y-101112651D01*
X66118686Y-101112833D01*
X66076578Y-101112845D01*
X65986402Y-101112765D01*
X65916076Y-101112398D01*
X65862871Y-101111552D01*
X65824060Y-101110036D01*
X65796913Y-101107659D01*
X65778702Y-101104229D01*
X65766700Y-101099554D01*
X65758178Y-101093444D01*
X65754844Y-101090267D01*
X65748245Y-101082670D01*
X65743073Y-101072870D01*
X65739154Y-101058239D01*
X65736316Y-101036152D01*
X65734385Y-101003982D01*
X65733188Y-100959103D01*
X65732552Y-100898889D01*
X65732303Y-100820713D01*
X65732266Y-100747923D01*
X65732300Y-100654707D01*
X65732535Y-100581431D01*
X65733170Y-100525458D01*
X65734406Y-100484151D01*
X65736444Y-100454872D01*
X65739483Y-100434984D01*
X65743723Y-100421850D01*
X65749365Y-100412832D01*
X65756609Y-100405293D01*
X65758394Y-100403612D01*
X65767055Y-100396172D01*
X65777118Y-100390409D01*
X65791375Y-100386112D01*
X65812617Y-100383064D01*
X65843636Y-100381051D01*
X65887223Y-100379860D01*
X65946169Y-100379275D01*
X66023266Y-100379083D01*
X66077999Y-100379067D01*
X66167206Y-100379146D01*
G36*
X71110343Y-100379260D02*
G01*
X71186701Y-100380174D01*
X71245217Y-100382311D01*
X71288255Y-100386175D01*
X71318183Y-100392267D01*
X71337368Y-100401090D01*
X71348176Y-100413146D01*
X71352973Y-100428939D01*
X71354127Y-100448970D01*
X71354133Y-100451335D01*
X71353131Y-100473992D01*
X71348396Y-100491503D01*
X71337333Y-100504574D01*
X71317348Y-100513913D01*
X71285846Y-100520227D01*
X71240232Y-100524222D01*
X71177913Y-100526606D01*
X71096293Y-100528086D01*
X71071277Y-100528414D01*
X70829200Y-100531467D01*
X70825814Y-100596378D01*
X70822429Y-100661289D01*
X70990576Y-100661289D01*
X71056266Y-100661531D01*
X71103172Y-100662556D01*
X71135083Y-100664811D01*
X71155791Y-100668742D01*
X71169084Y-100674798D01*
X71178755Y-100683424D01*
X71178817Y-100683493D01*
X71196356Y-100717112D01*
X71195722Y-100753448D01*
X71177314Y-100784423D01*
X71173671Y-100787607D01*
X71160741Y-100795812D01*
X71143024Y-100801521D01*
X71116570Y-100805162D01*
X71077432Y-100807167D01*
X71021662Y-100807964D01*
X70985994Y-100808045D01*
X70823555Y-100808045D01*
X70823555Y-100966089D01*
X71070161Y-100966089D01*
X71151580Y-100966231D01*
X71213410Y-100966814D01*
X71258637Y-100968068D01*
X71290248Y-100970227D01*
X71311231Y-100973523D01*
X71324573Y-100978189D01*
X71333261Y-100984457D01*
X71335450Y-100986733D01*
X71351614Y-101018280D01*
X71352797Y-101054168D01*
X71339536Y-101085285D01*
X71329043Y-101095271D01*
X71318129Y-101100769D01*
X71301217Y-101105022D01*
X71275633Y-101108180D01*
X71238701Y-101110392D01*
X71187746Y-101111806D01*
X71120094Y-101112572D01*
X71033069Y-101112838D01*
X71013394Y-101112845D01*
X70924911Y-101112787D01*
X70856227Y-101112467D01*
X70804564Y-101111667D01*
X70767145Y-101110167D01*
X70741190Y-101107749D01*
X70723922Y-101104194D01*
X70712562Y-101099282D01*
X70704332Y-101092795D01*
X70699817Y-101088138D01*
X70693021Y-101079889D01*
X70687712Y-101069669D01*
X70683706Y-101054800D01*
X70680821Y-101032602D01*
X70678874Y-101000393D01*
X70677681Y-100955496D01*
X70677061Y-100895228D01*
X70676829Y-100816911D01*
X70676800Y-100750994D01*
X70676871Y-100658628D01*
X70677208Y-100586117D01*
X70677998Y-100530737D01*
X70679426Y-100489765D01*
X70681679Y-100460478D01*
X70684943Y-100440153D01*
X70689404Y-100426066D01*
X70695248Y-100415495D01*
X70700197Y-100408811D01*
X70723594Y-100379067D01*
X71013774Y-100379067D01*
X71110343Y-100379260D01*
G37*
X71110343Y-100379260D02*
X71186701Y-100380174D01*
X71245217Y-100382311D01*
X71288255Y-100386175D01*
X71318183Y-100392267D01*
X71337368Y-100401090D01*
X71348176Y-100413146D01*
X71352973Y-100428939D01*
X71354127Y-100448970D01*
X71354133Y-100451335D01*
X71353131Y-100473992D01*
X71348396Y-100491503D01*
X71337333Y-100504574D01*
X71317348Y-100513913D01*
X71285846Y-100520227D01*
X71240232Y-100524222D01*
X71177913Y-100526606D01*
X71096293Y-100528086D01*
X71071277Y-100528414D01*
X70829200Y-100531467D01*
X70825814Y-100596378D01*
X70822429Y-100661289D01*
X70990576Y-100661289D01*
X71056266Y-100661531D01*
X71103172Y-100662556D01*
X71135083Y-100664811D01*
X71155791Y-100668742D01*
X71169084Y-100674798D01*
X71178755Y-100683424D01*
X71178817Y-100683493D01*
X71196356Y-100717112D01*
X71195722Y-100753448D01*
X71177314Y-100784423D01*
X71173671Y-100787607D01*
X71160741Y-100795812D01*
X71143024Y-100801521D01*
X71116570Y-100805162D01*
X71077432Y-100807167D01*
X71021662Y-100807964D01*
X70985994Y-100808045D01*
X70823555Y-100808045D01*
X70823555Y-100966089D01*
X71070161Y-100966089D01*
X71151580Y-100966231D01*
X71213410Y-100966814D01*
X71258637Y-100968068D01*
X71290248Y-100970227D01*
X71311231Y-100973523D01*
X71324573Y-100978189D01*
X71333261Y-100984457D01*
X71335450Y-100986733D01*
X71351614Y-101018280D01*
X71352797Y-101054168D01*
X71339536Y-101085285D01*
X71329043Y-101095271D01*
X71318129Y-101100769D01*
X71301217Y-101105022D01*
X71275633Y-101108180D01*
X71238701Y-101110392D01*
X71187746Y-101111806D01*
X71120094Y-101112572D01*
X71033069Y-101112838D01*
X71013394Y-101112845D01*
X70924911Y-101112787D01*
X70856227Y-101112467D01*
X70804564Y-101111667D01*
X70767145Y-101110167D01*
X70741190Y-101107749D01*
X70723922Y-101104194D01*
X70712562Y-101099282D01*
X70704332Y-101092795D01*
X70699817Y-101088138D01*
X70693021Y-101079889D01*
X70687712Y-101069669D01*
X70683706Y-101054800D01*
X70680821Y-101032602D01*
X70678874Y-101000393D01*
X70677681Y-100955496D01*
X70677061Y-100895228D01*
X70676829Y-100816911D01*
X70676800Y-100750994D01*
X70676871Y-100658628D01*
X70677208Y-100586117D01*
X70677998Y-100530737D01*
X70679426Y-100489765D01*
X70681679Y-100460478D01*
X70684943Y-100440153D01*
X70689404Y-100426066D01*
X70695248Y-100415495D01*
X70700197Y-100408811D01*
X70723594Y-100379067D01*
X71013774Y-100379067D01*
X71110343Y-100379260D01*
G36*
X75068614Y-100385877D02*
G01*
X75092327Y-100400647D01*
X75118978Y-100422227D01*
X75118978Y-100743773D01*
X75118893Y-100837830D01*
X75118529Y-100911932D01*
X75117724Y-100968704D01*
X75116313Y-101010768D01*
X75114133Y-101040748D01*
X75111021Y-101061267D01*
X75106814Y-101074949D01*
X75101348Y-101084416D01*
X75097472Y-101089082D01*
X75066034Y-101109575D01*
X75030233Y-101108739D01*
X74998873Y-101091264D01*
X74972222Y-101069684D01*
X74972222Y-100422227D01*
X74998873Y-100400647D01*
X75024594Y-100384949D01*
X75045600Y-100379067D01*
X75068614Y-100385877D01*
G37*
X75068614Y-100385877D02*
X75092327Y-100400647D01*
X75118978Y-100422227D01*
X75118978Y-100743773D01*
X75118893Y-100837830D01*
X75118529Y-100911932D01*
X75117724Y-100968704D01*
X75116313Y-101010768D01*
X75114133Y-101040748D01*
X75111021Y-101061267D01*
X75106814Y-101074949D01*
X75101348Y-101084416D01*
X75097472Y-101089082D01*
X75066034Y-101109575D01*
X75030233Y-101108739D01*
X74998873Y-101091264D01*
X74972222Y-101069684D01*
X74972222Y-100422227D01*
X74998873Y-100400647D01*
X75024594Y-100384949D01*
X75045600Y-100379067D01*
X75068614Y-100385877D01*
G36*
X77108823Y-100384533D02*
G01*
X77140202Y-100406776D01*
X77167911Y-100434485D01*
X77167911Y-100743920D01*
X77167838Y-100835799D01*
X77167495Y-100907840D01*
X77166692Y-100962780D01*
X77165241Y-101003360D01*
X77162952Y-101032317D01*
X77159636Y-101052391D01*
X77155105Y-101066321D01*
X77149169Y-101076845D01*
X77144514Y-101083100D01*
X77113783Y-101107673D01*
X77078496Y-101110341D01*
X77046245Y-101095271D01*
X77035588Y-101086374D01*
X77028464Y-101074557D01*
X77024167Y-101055526D01*
X77021991Y-101024992D01*
X77021228Y-100978662D01*
X77021155Y-100942871D01*
X77021155Y-100808045D01*
X76524444Y-100808045D01*
X76524444Y-100930700D01*
X76523931Y-100986787D01*
X76521876Y-101025333D01*
X76517508Y-101051361D01*
X76510056Y-101069897D01*
X76501047Y-101083100D01*
X76470144Y-101107604D01*
X76435196Y-101110506D01*
X76401738Y-101093089D01*
X76392604Y-101083959D01*
X76386152Y-101071855D01*
X76381897Y-101053001D01*
X76379352Y-101023620D01*
X76378029Y-100979937D01*
X76377443Y-100918175D01*
X76377375Y-100904000D01*
X76376891Y-100787631D01*
X76376641Y-100691727D01*
X76376723Y-100614177D01*
X76377231Y-100552869D01*
X76378262Y-100505690D01*
X76379913Y-100470530D01*
X76382279Y-100445276D01*
X76385457Y-100427817D01*
X76389544Y-100416041D01*
X76394634Y-100407835D01*
X76400266Y-100401645D01*
X76432128Y-100381844D01*
X76465357Y-100384533D01*
X76496735Y-100406776D01*
X76509433Y-100421126D01*
X76517526Y-100436978D01*
X76522042Y-100459554D01*
X76524006Y-100494078D01*
X76524444Y-100545776D01*
X76524444Y-100661289D01*
X77021155Y-100661289D01*
X77021155Y-100542756D01*
X77021662Y-100488148D01*
X77023698Y-100451275D01*
X77028035Y-100427307D01*
X77035447Y-100411415D01*
X77043733Y-100401645D01*
X77075594Y-100381844D01*
X77108823Y-100384533D01*
G37*
X77108823Y-100384533D02*
X77140202Y-100406776D01*
X77167911Y-100434485D01*
X77167911Y-100743920D01*
X77167838Y-100835799D01*
X77167495Y-100907840D01*
X77166692Y-100962780D01*
X77165241Y-101003360D01*
X77162952Y-101032317D01*
X77159636Y-101052391D01*
X77155105Y-101066321D01*
X77149169Y-101076845D01*
X77144514Y-101083100D01*
X77113783Y-101107673D01*
X77078496Y-101110341D01*
X77046245Y-101095271D01*
X77035588Y-101086374D01*
X77028464Y-101074557D01*
X77024167Y-101055526D01*
X77021991Y-101024992D01*
X77021228Y-100978662D01*
X77021155Y-100942871D01*
X77021155Y-100808045D01*
X76524444Y-100808045D01*
X76524444Y-100930700D01*
X76523931Y-100986787D01*
X76521876Y-101025333D01*
X76517508Y-101051361D01*
X76510056Y-101069897D01*
X76501047Y-101083100D01*
X76470144Y-101107604D01*
X76435196Y-101110506D01*
X76401738Y-101093089D01*
X76392604Y-101083959D01*
X76386152Y-101071855D01*
X76381897Y-101053001D01*
X76379352Y-101023620D01*
X76378029Y-100979937D01*
X76377443Y-100918175D01*
X76377375Y-100904000D01*
X76376891Y-100787631D01*
X76376641Y-100691727D01*
X76376723Y-100614177D01*
X76377231Y-100552869D01*
X76378262Y-100505690D01*
X76379913Y-100470530D01*
X76382279Y-100445276D01*
X76385457Y-100427817D01*
X76389544Y-100416041D01*
X76394634Y-100407835D01*
X76400266Y-100401645D01*
X76432128Y-100381844D01*
X76465357Y-100384533D01*
X76496735Y-100406776D01*
X76509433Y-100421126D01*
X76517526Y-100436978D01*
X76522042Y-100459554D01*
X76524006Y-100494078D01*
X76524444Y-100545776D01*
X76524444Y-100661289D01*
X77021155Y-100661289D01*
X77021155Y-100542756D01*
X77021662Y-100488148D01*
X77023698Y-100451275D01*
X77028035Y-100427307D01*
X77035447Y-100411415D01*
X77043733Y-100401645D01*
X77075594Y-100381844D01*
X77108823Y-100384533D01*
G36*
X68929919Y-100384599D02*
G01*
X68998435Y-100396095D01*
X69051057Y-100413967D01*
X69085292Y-100437499D01*
X69094621Y-100450924D01*
X69104107Y-100482148D01*
X69097723Y-100510395D01*
X69077570Y-100537182D01*
X69046255Y-100549713D01*
X69000817Y-100548696D01*
X68965674Y-100541906D01*
X68887581Y-100528971D01*
X68807774Y-100527742D01*
X68718445Y-100538241D01*
X68693771Y-100542690D01*
X68610709Y-100566108D01*
X68545727Y-100600945D01*
X68499539Y-100646604D01*
X68472855Y-100702494D01*
X68467337Y-100731388D01*
X68470949Y-100790012D01*
X68494271Y-100841879D01*
X68535176Y-100885978D01*
X68591541Y-100921299D01*
X68661240Y-100946829D01*
X68742148Y-100961559D01*
X68832140Y-100964478D01*
X68929090Y-100954575D01*
X68934564Y-100953641D01*
X68973125Y-100946459D01*
X68994506Y-100939521D01*
X69003773Y-100929227D01*
X69005994Y-100911976D01*
X69006044Y-100902841D01*
X69006044Y-100864489D01*
X68937569Y-100864489D01*
X68877100Y-100860347D01*
X68835835Y-100847147D01*
X68811825Y-100823730D01*
X68803123Y-100788936D01*
X68803017Y-100784394D01*
X68808108Y-100754654D01*
X68825567Y-100733419D01*
X68858061Y-100719366D01*
X68908257Y-100711173D01*
X68956877Y-100708161D01*
X69027544Y-100706433D01*
X69078802Y-100709070D01*
X69113761Y-100718800D01*
X69135530Y-100738353D01*
X69147220Y-100770456D01*
X69151940Y-100817838D01*
X69152800Y-100880071D01*
X69151391Y-100949535D01*
X69147152Y-100996786D01*
X69140064Y-101022012D01*
X69138689Y-101023988D01*
X69099772Y-101055508D01*
X69042714Y-101080470D01*
X68971131Y-101098340D01*
X68888642Y-101108586D01*
X68798861Y-101110673D01*
X68705408Y-101104068D01*
X68650444Y-101095956D01*
X68564234Y-101071554D01*
X68484108Y-101031662D01*
X68417023Y-100979887D01*
X68406827Y-100969539D01*
X68373698Y-100926035D01*
X68343806Y-100872118D01*
X68320643Y-100815592D01*
X68307702Y-100764259D01*
X68306142Y-100744544D01*
X68312782Y-100703419D01*
X68330432Y-100652252D01*
X68355703Y-100598394D01*
X68385211Y-100549195D01*
X68411281Y-100516334D01*
X68472235Y-100467452D01*
X68551031Y-100428545D01*
X68644843Y-100400494D01*
X68750850Y-100384179D01*
X68848000Y-100380192D01*
X68929919Y-100384599D01*
G37*
X68929919Y-100384599D02*
X68998435Y-100396095D01*
X69051057Y-100413967D01*
X69085292Y-100437499D01*
X69094621Y-100450924D01*
X69104107Y-100482148D01*
X69097723Y-100510395D01*
X69077570Y-100537182D01*
X69046255Y-100549713D01*
X69000817Y-100548696D01*
X68965674Y-100541906D01*
X68887581Y-100528971D01*
X68807774Y-100527742D01*
X68718445Y-100538241D01*
X68693771Y-100542690D01*
X68610709Y-100566108D01*
X68545727Y-100600945D01*
X68499539Y-100646604D01*
X68472855Y-100702494D01*
X68467337Y-100731388D01*
X68470949Y-100790012D01*
X68494271Y-100841879D01*
X68535176Y-100885978D01*
X68591541Y-100921299D01*
X68661240Y-100946829D01*
X68742148Y-100961559D01*
X68832140Y-100964478D01*
X68929090Y-100954575D01*
X68934564Y-100953641D01*
X68973125Y-100946459D01*
X68994506Y-100939521D01*
X69003773Y-100929227D01*
X69005994Y-100911976D01*
X69006044Y-100902841D01*
X69006044Y-100864489D01*
X68937569Y-100864489D01*
X68877100Y-100860347D01*
X68835835Y-100847147D01*
X68811825Y-100823730D01*
X68803123Y-100788936D01*
X68803017Y-100784394D01*
X68808108Y-100754654D01*
X68825567Y-100733419D01*
X68858061Y-100719366D01*
X68908257Y-100711173D01*
X68956877Y-100708161D01*
X69027544Y-100706433D01*
X69078802Y-100709070D01*
X69113761Y-100718800D01*
X69135530Y-100738353D01*
X69147220Y-100770456D01*
X69151940Y-100817838D01*
X69152800Y-100880071D01*
X69151391Y-100949535D01*
X69147152Y-100996786D01*
X69140064Y-101022012D01*
X69138689Y-101023988D01*
X69099772Y-101055508D01*
X69042714Y-101080470D01*
X68971131Y-101098340D01*
X68888642Y-101108586D01*
X68798861Y-101110673D01*
X68705408Y-101104068D01*
X68650444Y-101095956D01*
X68564234Y-101071554D01*
X68484108Y-101031662D01*
X68417023Y-100979887D01*
X68406827Y-100969539D01*
X68373698Y-100926035D01*
X68343806Y-100872118D01*
X68320643Y-100815592D01*
X68307702Y-100764259D01*
X68306142Y-100744544D01*
X68312782Y-100703419D01*
X68330432Y-100652252D01*
X68355703Y-100598394D01*
X68385211Y-100549195D01*
X68411281Y-100516334D01*
X68472235Y-100467452D01*
X68551031Y-100428545D01*
X68644843Y-100400494D01*
X68750850Y-100384179D01*
X68848000Y-100380192D01*
X68929919Y-100384599D01*
G36*
X71693050Y-100884311D02*
G01*
X71692825Y-100805526D01*
X71692800Y-100743920D01*
X71692800Y-100434485D01*
X71720509Y-100406776D01*
X71732806Y-100395544D01*
X71746103Y-100387853D01*
X71764672Y-100383040D01*
X71792786Y-100380446D01*
X71834717Y-100379410D01*
X71894737Y-100379270D01*
X71898309Y-100379275D01*
X72027288Y-100383636D01*
X72136991Y-100396861D01*
X72229226Y-100419741D01*
X72305802Y-100453070D01*
X72368527Y-100497638D01*
X72419212Y-100554236D01*
X72459663Y-100623658D01*
X72460459Y-100625351D01*
X72484601Y-100687483D01*
X72493203Y-100742509D01*
X72486231Y-100797887D01*
X72463654Y-100861073D01*
X72459372Y-100870689D01*
X72430172Y-100926966D01*
X72397356Y-100970451D01*
X72355002Y-101007417D01*
X72297190Y-101044135D01*
X72293831Y-101046052D01*
X72243504Y-101070227D01*
X72186621Y-101088282D01*
X72119527Y-101100839D01*
X72038565Y-101108522D01*
X71940082Y-101111953D01*
X71905286Y-101112251D01*
X71739594Y-101112845D01*
X71716197Y-101083100D01*
X71709257Y-101073319D01*
X71703842Y-101061897D01*
X71699765Y-101046095D01*
X71696837Y-101023175D01*
X71694867Y-100990396D01*
X71694225Y-100966089D01*
X71850844Y-100966089D01*
X71944726Y-100966089D01*
X71999664Y-100964483D01*
X72056060Y-100960255D01*
X72102345Y-100954292D01*
X72105139Y-100953790D01*
X72187348Y-100931736D01*
X72251114Y-100898600D01*
X72298452Y-100852847D01*
X72331382Y-100792939D01*
X72337108Y-100777061D01*
X72342721Y-100752333D01*
X72340291Y-100727902D01*
X72328467Y-100695400D01*
X72321340Y-100679434D01*
X72298000Y-100637006D01*
X72269880Y-100607240D01*
X72238940Y-100586511D01*
X72176966Y-100559537D01*
X72097651Y-100539998D01*
X72005253Y-100528746D01*
X71938333Y-100526270D01*
X71850844Y-100525822D01*
X71850844Y-100966089D01*
X71694225Y-100966089D01*
X71693668Y-100945021D01*
X71693050Y-100884311D01*
G37*
X71693050Y-100884311D02*
X71692825Y-100805526D01*
X71692800Y-100743920D01*
X71692800Y-100434485D01*
X71720509Y-100406776D01*
X71732806Y-100395544D01*
X71746103Y-100387853D01*
X71764672Y-100383040D01*
X71792786Y-100380446D01*
X71834717Y-100379410D01*
X71894737Y-100379270D01*
X71898309Y-100379275D01*
X72027288Y-100383636D01*
X72136991Y-100396861D01*
X72229226Y-100419741D01*
X72305802Y-100453070D01*
X72368527Y-100497638D01*
X72419212Y-100554236D01*
X72459663Y-100623658D01*
X72460459Y-100625351D01*
X72484601Y-100687483D01*
X72493203Y-100742509D01*
X72486231Y-100797887D01*
X72463654Y-100861073D01*
X72459372Y-100870689D01*
X72430172Y-100926966D01*
X72397356Y-100970451D01*
X72355002Y-101007417D01*
X72297190Y-101044135D01*
X72293831Y-101046052D01*
X72243504Y-101070227D01*
X72186621Y-101088282D01*
X72119527Y-101100839D01*
X72038565Y-101108522D01*
X71940082Y-101111953D01*
X71905286Y-101112251D01*
X71739594Y-101112845D01*
X71716197Y-101083100D01*
X71709257Y-101073319D01*
X71703842Y-101061897D01*
X71699765Y-101046095D01*
X71696837Y-101023175D01*
X71694867Y-100990396D01*
X71694225Y-100966089D01*
X71850844Y-100966089D01*
X71944726Y-100966089D01*
X71999664Y-100964483D01*
X72056060Y-100960255D01*
X72102345Y-100954292D01*
X72105139Y-100953790D01*
X72187348Y-100931736D01*
X72251114Y-100898600D01*
X72298452Y-100852847D01*
X72331382Y-100792939D01*
X72337108Y-100777061D01*
X72342721Y-100752333D01*
X72340291Y-100727902D01*
X72328467Y-100695400D01*
X72321340Y-100679434D01*
X72298000Y-100637006D01*
X72269880Y-100607240D01*
X72238940Y-100586511D01*
X72176966Y-100559537D01*
X72097651Y-100539998D01*
X72005253Y-100528746D01*
X71938333Y-100526270D01*
X71850844Y-100525822D01*
X71850844Y-100966089D01*
X71694225Y-100966089D01*
X71693668Y-100945021D01*
X71693050Y-100884311D01*
G36*
X71208429Y-96059071D02*
G01*
X71368570Y-96080245D01*
X71532510Y-96120385D01*
X71702313Y-96179889D01*
X71880043Y-96259154D01*
X71891310Y-96264699D01*
X71949005Y-96292725D01*
X72000552Y-96316802D01*
X72042191Y-96335249D01*
X72070162Y-96346386D01*
X72079733Y-96348933D01*
X72098950Y-96353941D01*
X72103561Y-96358147D01*
X72098458Y-96368580D01*
X72082418Y-96394868D01*
X72057288Y-96434257D01*
X72024914Y-96483991D01*
X71987143Y-96541315D01*
X71945822Y-96603476D01*
X71902798Y-96667718D01*
X71859917Y-96731285D01*
X71819026Y-96791425D01*
X71781971Y-96845380D01*
X71750600Y-96890397D01*
X71726759Y-96923721D01*
X71712294Y-96942597D01*
X71710309Y-96944787D01*
X71700191Y-96940138D01*
X71677850Y-96922962D01*
X71647280Y-96896440D01*
X71631536Y-96881964D01*
X71535047Y-96806682D01*
X71428336Y-96751241D01*
X71312832Y-96716141D01*
X71189962Y-96701880D01*
X71120561Y-96703051D01*
X70999423Y-96720212D01*
X70890205Y-96756094D01*
X70792582Y-96810959D01*
X70706228Y-96885070D01*
X70630815Y-96978688D01*
X70566018Y-97092076D01*
X70528601Y-97178667D01*
X70484748Y-97314366D01*
X70452428Y-97461850D01*
X70431557Y-97617314D01*
X70422051Y-97776956D01*
X70423827Y-97936973D01*
X70436803Y-98093561D01*
X70460894Y-98242918D01*
X70496018Y-98381240D01*
X70542092Y-98504724D01*
X70558373Y-98538978D01*
X70626620Y-98653064D01*
X70707079Y-98749557D01*
X70798570Y-98827670D01*
X70899911Y-98886617D01*
X71009920Y-98925612D01*
X71127415Y-98943868D01*
X71168883Y-98945211D01*
X71290441Y-98934290D01*
X71410878Y-98901474D01*
X71528666Y-98847439D01*
X71642277Y-98772865D01*
X71733685Y-98694539D01*
X71780215Y-98650008D01*
X71961483Y-98947271D01*
X72006580Y-99021433D01*
X72047819Y-99089646D01*
X72083735Y-99149459D01*
X72112866Y-99198420D01*
X72133750Y-99234079D01*
X72144924Y-99253984D01*
X72146375Y-99257079D01*
X72138146Y-99266718D01*
X72112567Y-99283999D01*
X72072873Y-99307283D01*
X72022297Y-99334934D01*
X71964074Y-99365315D01*
X71901437Y-99396790D01*
X71837621Y-99427722D01*
X71775860Y-99456473D01*
X71719388Y-99481408D01*
X71671438Y-99500889D01*
X71647986Y-99509318D01*
X71514221Y-99547133D01*
X71376327Y-99572136D01*
X71228622Y-99585140D01*
X71101833Y-99587468D01*
X71033878Y-99586373D01*
X70968277Y-99584275D01*
X70910847Y-99581434D01*
X70867403Y-99578106D01*
X70853298Y-99576422D01*
X70714284Y-99547587D01*
X70572757Y-99502468D01*
X70435275Y-99443750D01*
X70308394Y-99374120D01*
X70230889Y-99321441D01*
X70103481Y-99213239D01*
X69985178Y-99086671D01*
X69878172Y-98944866D01*
X69784652Y-98790951D01*
X69706810Y-98628053D01*
X69662956Y-98510756D01*
X69612708Y-98327128D01*
X69579209Y-98132581D01*
X69562449Y-97931325D01*
X69562416Y-97727568D01*
X69579101Y-97525521D01*
X69612493Y-97329392D01*
X69662580Y-97143391D01*
X69666397Y-97131803D01*
X69729281Y-96969750D01*
X69806028Y-96821832D01*
X69899242Y-96683865D01*
X70011527Y-96551661D01*
X70055392Y-96506399D01*
X70191534Y-96382457D01*
X70331491Y-96279915D01*
X70477411Y-96197656D01*
X70631442Y-96134564D01*
X70795732Y-96089523D01*
X70891289Y-96072033D01*
X71050023Y-96056466D01*
X71208429Y-96059071D01*
G37*
X71208429Y-96059071D02*
X71368570Y-96080245D01*
X71532510Y-96120385D01*
X71702313Y-96179889D01*
X71880043Y-96259154D01*
X71891310Y-96264699D01*
X71949005Y-96292725D01*
X72000552Y-96316802D01*
X72042191Y-96335249D01*
X72070162Y-96346386D01*
X72079733Y-96348933D01*
X72098950Y-96353941D01*
X72103561Y-96358147D01*
X72098458Y-96368580D01*
X72082418Y-96394868D01*
X72057288Y-96434257D01*
X72024914Y-96483991D01*
X71987143Y-96541315D01*
X71945822Y-96603476D01*
X71902798Y-96667718D01*
X71859917Y-96731285D01*
X71819026Y-96791425D01*
X71781971Y-96845380D01*
X71750600Y-96890397D01*
X71726759Y-96923721D01*
X71712294Y-96942597D01*
X71710309Y-96944787D01*
X71700191Y-96940138D01*
X71677850Y-96922962D01*
X71647280Y-96896440D01*
X71631536Y-96881964D01*
X71535047Y-96806682D01*
X71428336Y-96751241D01*
X71312832Y-96716141D01*
X71189962Y-96701880D01*
X71120561Y-96703051D01*
X70999423Y-96720212D01*
X70890205Y-96756094D01*
X70792582Y-96810959D01*
X70706228Y-96885070D01*
X70630815Y-96978688D01*
X70566018Y-97092076D01*
X70528601Y-97178667D01*
X70484748Y-97314366D01*
X70452428Y-97461850D01*
X70431557Y-97617314D01*
X70422051Y-97776956D01*
X70423827Y-97936973D01*
X70436803Y-98093561D01*
X70460894Y-98242918D01*
X70496018Y-98381240D01*
X70542092Y-98504724D01*
X70558373Y-98538978D01*
X70626620Y-98653064D01*
X70707079Y-98749557D01*
X70798570Y-98827670D01*
X70899911Y-98886617D01*
X71009920Y-98925612D01*
X71127415Y-98943868D01*
X71168883Y-98945211D01*
X71290441Y-98934290D01*
X71410878Y-98901474D01*
X71528666Y-98847439D01*
X71642277Y-98772865D01*
X71733685Y-98694539D01*
X71780215Y-98650008D01*
X71961483Y-98947271D01*
X72006580Y-99021433D01*
X72047819Y-99089646D01*
X72083735Y-99149459D01*
X72112866Y-99198420D01*
X72133750Y-99234079D01*
X72144924Y-99253984D01*
X72146375Y-99257079D01*
X72138146Y-99266718D01*
X72112567Y-99283999D01*
X72072873Y-99307283D01*
X72022297Y-99334934D01*
X71964074Y-99365315D01*
X71901437Y-99396790D01*
X71837621Y-99427722D01*
X71775860Y-99456473D01*
X71719388Y-99481408D01*
X71671438Y-99500889D01*
X71647986Y-99509318D01*
X71514221Y-99547133D01*
X71376327Y-99572136D01*
X71228622Y-99585140D01*
X71101833Y-99587468D01*
X71033878Y-99586373D01*
X70968277Y-99584275D01*
X70910847Y-99581434D01*
X70867403Y-99578106D01*
X70853298Y-99576422D01*
X70714284Y-99547587D01*
X70572757Y-99502468D01*
X70435275Y-99443750D01*
X70308394Y-99374120D01*
X70230889Y-99321441D01*
X70103481Y-99213239D01*
X69985178Y-99086671D01*
X69878172Y-98944866D01*
X69784652Y-98790951D01*
X69706810Y-98628053D01*
X69662956Y-98510756D01*
X69612708Y-98327128D01*
X69579209Y-98132581D01*
X69562449Y-97931325D01*
X69562416Y-97727568D01*
X69579101Y-97525521D01*
X69612493Y-97329392D01*
X69662580Y-97143391D01*
X69666397Y-97131803D01*
X69729281Y-96969750D01*
X69806028Y-96821832D01*
X69899242Y-96683865D01*
X70011527Y-96551661D01*
X70055392Y-96506399D01*
X70191534Y-96382457D01*
X70331491Y-96279915D01*
X70477411Y-96197656D01*
X70631442Y-96134564D01*
X70795732Y-96089523D01*
X70891289Y-96072033D01*
X71050023Y-96056466D01*
X71208429Y-96059071D01*
G36*
X67956178Y-100401645D02*
G01*
X67962758Y-100409218D01*
X67967921Y-100418987D01*
X67971836Y-100433571D01*
X67974676Y-100455585D01*
X67976613Y-100487648D01*
X67977817Y-100532375D01*
X67978461Y-100592385D01*
X67978716Y-100670294D01*
X67978755Y-100745956D01*
X67978686Y-100839802D01*
X67978362Y-100913689D01*
X67977614Y-100970232D01*
X67976268Y-101012049D01*
X67974154Y-101041757D01*
X67971100Y-101061973D01*
X67966934Y-101075314D01*
X67961484Y-101084398D01*
X67956178Y-101090267D01*
X67923174Y-101109947D01*
X67888009Y-101108181D01*
X67856545Y-101086717D01*
X67849316Y-101078337D01*
X67843666Y-101068614D01*
X67839401Y-101054861D01*
X67836327Y-101034389D01*
X67834248Y-101004512D01*
X67832970Y-100962541D01*
X67832299Y-100905789D01*
X67832041Y-100831567D01*
X67832000Y-100747537D01*
X67832000Y-100434485D01*
X67859709Y-100406776D01*
X67893863Y-100383463D01*
X67926994Y-100382623D01*
X67956178Y-100401645D01*
G37*
X67956178Y-100401645D02*
X67962758Y-100409218D01*
X67967921Y-100418987D01*
X67971836Y-100433571D01*
X67974676Y-100455585D01*
X67976613Y-100487648D01*
X67977817Y-100532375D01*
X67978461Y-100592385D01*
X67978716Y-100670294D01*
X67978755Y-100745956D01*
X67978686Y-100839802D01*
X67978362Y-100913689D01*
X67977614Y-100970232D01*
X67976268Y-101012049D01*
X67974154Y-101041757D01*
X67971100Y-101061973D01*
X67966934Y-101075314D01*
X67961484Y-101084398D01*
X67956178Y-101090267D01*
X67923174Y-101109947D01*
X67888009Y-101108181D01*
X67856545Y-101086717D01*
X67849316Y-101078337D01*
X67843666Y-101068614D01*
X67839401Y-101054861D01*
X67836327Y-101034389D01*
X67834248Y-101004512D01*
X67832970Y-100962541D01*
X67832299Y-100905789D01*
X67832041Y-100831567D01*
X67832000Y-100747537D01*
X67832000Y-100434485D01*
X67859709Y-100406776D01*
X67893863Y-100383463D01*
X67926994Y-100382623D01*
X67956178Y-100401645D01*
G36*
X72162522Y-98580812D02*
G01*
X72178768Y-98509590D01*
X72204405Y-98438864D01*
X72228401Y-98386493D01*
X72287020Y-98291196D01*
X72365117Y-98203170D01*
X72460315Y-98124017D01*
X72570238Y-98055340D01*
X72692510Y-97998741D01*
X72824755Y-97955821D01*
X72889422Y-97940882D01*
X73025604Y-97918777D01*
X73174049Y-97904194D01*
X73325505Y-97897813D01*
X73452064Y-97899445D01*
X73613950Y-97906224D01*
X73606530Y-97847245D01*
X73587238Y-97748092D01*
X73556104Y-97667372D01*
X73512269Y-97604466D01*
X73454871Y-97558756D01*
X73383048Y-97529622D01*
X73295941Y-97516447D01*
X73192686Y-97518611D01*
X73154711Y-97522612D01*
X73013520Y-97547780D01*
X72876707Y-97588814D01*
X72782178Y-97626815D01*
X72737018Y-97646190D01*
X72698585Y-97661760D01*
X72672234Y-97671405D01*
X72664546Y-97673452D01*
X72654802Y-97664374D01*
X72638083Y-97635405D01*
X72614232Y-97586217D01*
X72583093Y-97516484D01*
X72544507Y-97425879D01*
X72537910Y-97410089D01*
X72507853Y-97337772D01*
X72480874Y-97272425D01*
X72458136Y-97216906D01*
X72440806Y-97174072D01*
X72430048Y-97146781D01*
X72426941Y-97137942D01*
X72436940Y-97133187D01*
X72463217Y-97127910D01*
X72491489Y-97124231D01*
X72521646Y-97119474D01*
X72569433Y-97110028D01*
X72630612Y-97096820D01*
X72700946Y-97080776D01*
X72776194Y-97062820D01*
X72804755Y-97055797D01*
X72909816Y-97030209D01*
X72997480Y-97010147D01*
X73072068Y-96994969D01*
X73137903Y-96984035D01*
X73199307Y-96976704D01*
X73260602Y-96972335D01*
X73326110Y-96970287D01*
X73384128Y-96969889D01*
X73553574Y-96976552D01*
X73705492Y-96996567D01*
X73840756Y-97030202D01*
X73960239Y-97077725D01*
X74064815Y-97139405D01*
X74142424Y-97202965D01*
X74211265Y-97277099D01*
X74265006Y-97356871D01*
X74307910Y-97449091D01*
X74323384Y-97492161D01*
X74336244Y-97531142D01*
X74347446Y-97567289D01*
X74357120Y-97602434D01*
X74365396Y-97638410D01*
X74372403Y-97677050D01*
X74378272Y-97720185D01*
X74383131Y-97769649D01*
X74387110Y-97827273D01*
X74390340Y-97894891D01*
X74392949Y-97974334D01*
X74395067Y-98067436D01*
X74396824Y-98176027D01*
X74398349Y-98301942D01*
X74399772Y-98447012D01*
X74401025Y-98589778D01*
X74402351Y-98745968D01*
X74403556Y-98881239D01*
X74404766Y-98997246D01*
X74406106Y-99095645D01*
X74407700Y-99178093D01*
X74409675Y-99246246D01*
X74412156Y-99301760D01*
X74415269Y-99346292D01*
X74419138Y-99381498D01*
X74423889Y-99409034D01*
X74429648Y-99430556D01*
X74436539Y-99447722D01*
X74444689Y-99462186D01*
X74454223Y-99475606D01*
X74465266Y-99489638D01*
X74469566Y-99495071D01*
X74485386Y-99517910D01*
X74492422Y-99533463D01*
X74492444Y-99533922D01*
X74481567Y-99536121D01*
X74450582Y-99538147D01*
X74401957Y-99539942D01*
X74338163Y-99541451D01*
X74261669Y-99542616D01*
X74174944Y-99543380D01*
X74080457Y-99543686D01*
X74069550Y-99543689D01*
X73646657Y-99543689D01*
X73643395Y-99447622D01*
X73640133Y-99351556D01*
X73578044Y-99402543D01*
X73480714Y-99470057D01*
X73370813Y-99524749D01*
X73284349Y-99554978D01*
X73215278Y-99569666D01*
X73131925Y-99579659D01*
X73042159Y-99584646D01*
X72953845Y-99584313D01*
X72874851Y-99578351D01*
X72838622Y-99572638D01*
X72698603Y-99534776D01*
X72572178Y-99479932D01*
X72460260Y-99408924D01*
X72363762Y-99322568D01*
X72283600Y-99221679D01*
X72220687Y-99107076D01*
X72176312Y-98980984D01*
X72163978Y-98924401D01*
X72156368Y-98862202D01*
X72152739Y-98787363D01*
X72152245Y-98753467D01*
X72152310Y-98750282D01*
X72912248Y-98750282D01*
X72921541Y-98825333D01*
X72949728Y-98889160D01*
X72998197Y-98944798D01*
X73003254Y-98949211D01*
X73051548Y-98984037D01*
X73103257Y-99006620D01*
X73163989Y-99018540D01*
X73239352Y-99021383D01*
X73257459Y-99020978D01*
X73311278Y-99018325D01*
X73351308Y-99012909D01*
X73386324Y-99002745D01*
X73425103Y-98985850D01*
X73435745Y-98980672D01*
X73496396Y-98944844D01*
X73543215Y-98902212D01*
X73555952Y-98886973D01*
X73600622Y-98830462D01*
X73600622Y-98634586D01*
X73600086Y-98555939D01*
X73598396Y-98497988D01*
X73595428Y-98458875D01*
X73591057Y-98436741D01*
X73586972Y-98430274D01*
X73571047Y-98427111D01*
X73537264Y-98424488D01*
X73490340Y-98422655D01*
X73434993Y-98421857D01*
X73426106Y-98421842D01*
X73305330Y-98427096D01*
X73202660Y-98443263D01*
X73116106Y-98470961D01*
X73043681Y-98510808D01*
X72988751Y-98557758D01*
X72944204Y-98615645D01*
X72919480Y-98678693D01*
X72912248Y-98750282D01*
X72152310Y-98750282D01*
X72154178Y-98659712D01*
X72162522Y-98580812D01*
G37*
X72162522Y-98580812D02*
X72178768Y-98509590D01*
X72204405Y-98438864D01*
X72228401Y-98386493D01*
X72287020Y-98291196D01*
X72365117Y-98203170D01*
X72460315Y-98124017D01*
X72570238Y-98055340D01*
X72692510Y-97998741D01*
X72824755Y-97955821D01*
X72889422Y-97940882D01*
X73025604Y-97918777D01*
X73174049Y-97904194D01*
X73325505Y-97897813D01*
X73452064Y-97899445D01*
X73613950Y-97906224D01*
X73606530Y-97847245D01*
X73587238Y-97748092D01*
X73556104Y-97667372D01*
X73512269Y-97604466D01*
X73454871Y-97558756D01*
X73383048Y-97529622D01*
X73295941Y-97516447D01*
X73192686Y-97518611D01*
X73154711Y-97522612D01*
X73013520Y-97547780D01*
X72876707Y-97588814D01*
X72782178Y-97626815D01*
X72737018Y-97646190D01*
X72698585Y-97661760D01*
X72672234Y-97671405D01*
X72664546Y-97673452D01*
X72654802Y-97664374D01*
X72638083Y-97635405D01*
X72614232Y-97586217D01*
X72583093Y-97516484D01*
X72544507Y-97425879D01*
X72537910Y-97410089D01*
X72507853Y-97337772D01*
X72480874Y-97272425D01*
X72458136Y-97216906D01*
X72440806Y-97174072D01*
X72430048Y-97146781D01*
X72426941Y-97137942D01*
X72436940Y-97133187D01*
X72463217Y-97127910D01*
X72491489Y-97124231D01*
X72521646Y-97119474D01*
X72569433Y-97110028D01*
X72630612Y-97096820D01*
X72700946Y-97080776D01*
X72776194Y-97062820D01*
X72804755Y-97055797D01*
X72909816Y-97030209D01*
X72997480Y-97010147D01*
X73072068Y-96994969D01*
X73137903Y-96984035D01*
X73199307Y-96976704D01*
X73260602Y-96972335D01*
X73326110Y-96970287D01*
X73384128Y-96969889D01*
X73553574Y-96976552D01*
X73705492Y-96996567D01*
X73840756Y-97030202D01*
X73960239Y-97077725D01*
X74064815Y-97139405D01*
X74142424Y-97202965D01*
X74211265Y-97277099D01*
X74265006Y-97356871D01*
X74307910Y-97449091D01*
X74323384Y-97492161D01*
X74336244Y-97531142D01*
X74347446Y-97567289D01*
X74357120Y-97602434D01*
X74365396Y-97638410D01*
X74372403Y-97677050D01*
X74378272Y-97720185D01*
X74383131Y-97769649D01*
X74387110Y-97827273D01*
X74390340Y-97894891D01*
X74392949Y-97974334D01*
X74395067Y-98067436D01*
X74396824Y-98176027D01*
X74398349Y-98301942D01*
X74399772Y-98447012D01*
X74401025Y-98589778D01*
X74402351Y-98745968D01*
X74403556Y-98881239D01*
X74404766Y-98997246D01*
X74406106Y-99095645D01*
X74407700Y-99178093D01*
X74409675Y-99246246D01*
X74412156Y-99301760D01*
X74415269Y-99346292D01*
X74419138Y-99381498D01*
X74423889Y-99409034D01*
X74429648Y-99430556D01*
X74436539Y-99447722D01*
X74444689Y-99462186D01*
X74454223Y-99475606D01*
X74465266Y-99489638D01*
X74469566Y-99495071D01*
X74485386Y-99517910D01*
X74492422Y-99533463D01*
X74492444Y-99533922D01*
X74481567Y-99536121D01*
X74450582Y-99538147D01*
X74401957Y-99539942D01*
X74338163Y-99541451D01*
X74261669Y-99542616D01*
X74174944Y-99543380D01*
X74080457Y-99543686D01*
X74069550Y-99543689D01*
X73646657Y-99543689D01*
X73643395Y-99447622D01*
X73640133Y-99351556D01*
X73578044Y-99402543D01*
X73480714Y-99470057D01*
X73370813Y-99524749D01*
X73284349Y-99554978D01*
X73215278Y-99569666D01*
X73131925Y-99579659D01*
X73042159Y-99584646D01*
X72953845Y-99584313D01*
X72874851Y-99578351D01*
X72838622Y-99572638D01*
X72698603Y-99534776D01*
X72572178Y-99479932D01*
X72460260Y-99408924D01*
X72363762Y-99322568D01*
X72283600Y-99221679D01*
X72220687Y-99107076D01*
X72176312Y-98980984D01*
X72163978Y-98924401D01*
X72156368Y-98862202D01*
X72152739Y-98787363D01*
X72152245Y-98753467D01*
X72152310Y-98750282D01*
X72912248Y-98750282D01*
X72921541Y-98825333D01*
X72949728Y-98889160D01*
X72998197Y-98944798D01*
X73003254Y-98949211D01*
X73051548Y-98984037D01*
X73103257Y-99006620D01*
X73163989Y-99018540D01*
X73239352Y-99021383D01*
X73257459Y-99020978D01*
X73311278Y-99018325D01*
X73351308Y-99012909D01*
X73386324Y-99002745D01*
X73425103Y-98985850D01*
X73435745Y-98980672D01*
X73496396Y-98944844D01*
X73543215Y-98902212D01*
X73555952Y-98886973D01*
X73600622Y-98830462D01*
X73600622Y-98634586D01*
X73600086Y-98555939D01*
X73598396Y-98497988D01*
X73595428Y-98458875D01*
X73591057Y-98436741D01*
X73586972Y-98430274D01*
X73571047Y-98427111D01*
X73537264Y-98424488D01*
X73490340Y-98422655D01*
X73434993Y-98421857D01*
X73426106Y-98421842D01*
X73305330Y-98427096D01*
X73202660Y-98443263D01*
X73116106Y-98470961D01*
X73043681Y-98510808D01*
X72988751Y-98557758D01*
X72944204Y-98615645D01*
X72919480Y-98678693D01*
X72912248Y-98750282D01*
X72152310Y-98750282D01*
X72154178Y-98659712D01*
X72162522Y-98580812D01*
G36*
X67188297Y-100380351D02*
G01*
X67263112Y-100385581D01*
X67332694Y-100393750D01*
X67392998Y-100404550D01*
X67439980Y-100417673D01*
X67469594Y-100432813D01*
X67474140Y-100437269D01*
X67489946Y-100471850D01*
X67485153Y-100507351D01*
X67460636Y-100537725D01*
X67459466Y-100538596D01*
X67445046Y-100547954D01*
X67429992Y-100552876D01*
X67408995Y-100553473D01*
X67376743Y-100549861D01*
X67327927Y-100542154D01*
X67324000Y-100541505D01*
X67251261Y-100532569D01*
X67172783Y-100528161D01*
X67094073Y-100528119D01*
X67020639Y-100532279D01*
X66957989Y-100540479D01*
X66911630Y-100552557D01*
X66908584Y-100553771D01*
X66874952Y-100572615D01*
X66863136Y-100591685D01*
X66872386Y-100610439D01*
X66901953Y-100628337D01*
X66951089Y-100644837D01*
X67019043Y-100659396D01*
X67064355Y-100666406D01*
X67158544Y-100679889D01*
X67233456Y-100692214D01*
X67292283Y-100704449D01*
X67338215Y-100717661D01*
X67374445Y-100732917D01*
X67404162Y-100751285D01*
X67430558Y-100773831D01*
X67451770Y-100795971D01*
X67476935Y-100826819D01*
X67489319Y-100853345D01*
X67493192Y-100886026D01*
X67493333Y-100897995D01*
X67490424Y-100937712D01*
X67478798Y-100967259D01*
X67458677Y-100993486D01*
X67417784Y-101033576D01*
X67372183Y-101064149D01*
X67318487Y-101086203D01*
X67253308Y-101100735D01*
X67173256Y-101108741D01*
X67074943Y-101111218D01*
X67058711Y-101111177D01*
X66993151Y-101109818D01*
X66928134Y-101106730D01*
X66870748Y-101102356D01*
X66828078Y-101097140D01*
X66824628Y-101096541D01*
X66782204Y-101086491D01*
X66746220Y-101073796D01*
X66725850Y-101062190D01*
X66706893Y-101031572D01*
X66705573Y-100995918D01*
X66721915Y-100964144D01*
X66725571Y-100960551D01*
X66740685Y-100949876D01*
X66759585Y-100945276D01*
X66788838Y-100946059D01*
X66824349Y-100950127D01*
X66864030Y-100953762D01*
X66919655Y-100956828D01*
X66984594Y-100959053D01*
X67052215Y-100960164D01*
X67070000Y-100960237D01*
X67137872Y-100959964D01*
X67187546Y-100958646D01*
X67223390Y-100955827D01*
X67249776Y-100951050D01*
X67271074Y-100943857D01*
X67283874Y-100937867D01*
X67312000Y-100921233D01*
X67329932Y-100906168D01*
X67332553Y-100901897D01*
X67327024Y-100884263D01*
X67300740Y-100867192D01*
X67255522Y-100851458D01*
X67193192Y-100837838D01*
X67174829Y-100834804D01*
X67078910Y-100819738D01*
X67002359Y-100807146D01*
X66942220Y-100796111D01*
X66895540Y-100785720D01*
X66859363Y-100775056D01*
X66830735Y-100763205D01*
X66806702Y-100749251D01*
X66784308Y-100732281D01*
X66760598Y-100711378D01*
X66752620Y-100704049D01*
X66724647Y-100676699D01*
X66709840Y-100655029D01*
X66704048Y-100630232D01*
X66703111Y-100598983D01*
X66713425Y-100537705D01*
X66744248Y-100485640D01*
X66795405Y-100442958D01*
X66866717Y-100409825D01*
X66917600Y-100394964D01*
X66972900Y-100385366D01*
X67039147Y-100379936D01*
X67112294Y-100378367D01*
X67188297Y-100380351D01*
G37*
X67188297Y-100380351D02*
X67263112Y-100385581D01*
X67332694Y-100393750D01*
X67392998Y-100404550D01*
X67439980Y-100417673D01*
X67469594Y-100432813D01*
X67474140Y-100437269D01*
X67489946Y-100471850D01*
X67485153Y-100507351D01*
X67460636Y-100537725D01*
X67459466Y-100538596D01*
X67445046Y-100547954D01*
X67429992Y-100552876D01*
X67408995Y-100553473D01*
X67376743Y-100549861D01*
X67327927Y-100542154D01*
X67324000Y-100541505D01*
X67251261Y-100532569D01*
X67172783Y-100528161D01*
X67094073Y-100528119D01*
X67020639Y-100532279D01*
X66957989Y-100540479D01*
X66911630Y-100552557D01*
X66908584Y-100553771D01*
X66874952Y-100572615D01*
X66863136Y-100591685D01*
X66872386Y-100610439D01*
X66901953Y-100628337D01*
X66951089Y-100644837D01*
X67019043Y-100659396D01*
X67064355Y-100666406D01*
X67158544Y-100679889D01*
X67233456Y-100692214D01*
X67292283Y-100704449D01*
X67338215Y-100717661D01*
X67374445Y-100732917D01*
X67404162Y-100751285D01*
X67430558Y-100773831D01*
X67451770Y-100795971D01*
X67476935Y-100826819D01*
X67489319Y-100853345D01*
X67493192Y-100886026D01*
X67493333Y-100897995D01*
X67490424Y-100937712D01*
X67478798Y-100967259D01*
X67458677Y-100993486D01*
X67417784Y-101033576D01*
X67372183Y-101064149D01*
X67318487Y-101086203D01*
X67253308Y-101100735D01*
X67173256Y-101108741D01*
X67074943Y-101111218D01*
X67058711Y-101111177D01*
X66993151Y-101109818D01*
X66928134Y-101106730D01*
X66870748Y-101102356D01*
X66828078Y-101097140D01*
X66824628Y-101096541D01*
X66782204Y-101086491D01*
X66746220Y-101073796D01*
X66725850Y-101062190D01*
X66706893Y-101031572D01*
X66705573Y-100995918D01*
X66721915Y-100964144D01*
X66725571Y-100960551D01*
X66740685Y-100949876D01*
X66759585Y-100945276D01*
X66788838Y-100946059D01*
X66824349Y-100950127D01*
X66864030Y-100953762D01*
X66919655Y-100956828D01*
X66984594Y-100959053D01*
X67052215Y-100960164D01*
X67070000Y-100960237D01*
X67137872Y-100959964D01*
X67187546Y-100958646D01*
X67223390Y-100955827D01*
X67249776Y-100951050D01*
X67271074Y-100943857D01*
X67283874Y-100937867D01*
X67312000Y-100921233D01*
X67329932Y-100906168D01*
X67332553Y-100901897D01*
X67327024Y-100884263D01*
X67300740Y-100867192D01*
X67255522Y-100851458D01*
X67193192Y-100837838D01*
X67174829Y-100834804D01*
X67078910Y-100819738D01*
X67002359Y-100807146D01*
X66942220Y-100796111D01*
X66895540Y-100785720D01*
X66859363Y-100775056D01*
X66830735Y-100763205D01*
X66806702Y-100749251D01*
X66784308Y-100732281D01*
X66760598Y-100711378D01*
X66752620Y-100704049D01*
X66724647Y-100676699D01*
X66709840Y-100655029D01*
X66704048Y-100630232D01*
X66703111Y-100598983D01*
X66713425Y-100537705D01*
X66744248Y-100485640D01*
X66795405Y-100442958D01*
X66866717Y-100409825D01*
X66917600Y-100394964D01*
X66972900Y-100385366D01*
X67039147Y-100379936D01*
X67112294Y-100378367D01*
X67188297Y-100380351D01*
G36*
X82885388Y-99700501D02*
G01*
X82919029Y-99632530D01*
X82969018Y-99583664D01*
X83035356Y-99553899D01*
X83049601Y-99550448D01*
X83135210Y-99542345D01*
X83210762Y-99556055D01*
X83274363Y-99590692D01*
X83324123Y-99645372D01*
X83347568Y-99689842D01*
X83357634Y-99729121D01*
X83364156Y-99785116D01*
X83366951Y-99849621D01*
X83365836Y-99914429D01*
X83360626Y-99971334D01*
X83354541Y-100001727D01*
X83334014Y-100043306D01*
X83298463Y-100087468D01*
X83255619Y-100126087D01*
X83213211Y-100151034D01*
X83212177Y-100151430D01*
X83159553Y-100162331D01*
X83097188Y-100162601D01*
X83037924Y-100152676D01*
X83015040Y-100144722D01*
X82956102Y-100111300D01*
X82913890Y-100067511D01*
X82886156Y-100009538D01*
X82870651Y-99933565D01*
X82867143Y-99893771D01*
X82867590Y-99843766D01*
X83002376Y-99843766D01*
X83006917Y-99916732D01*
X83019986Y-99972334D01*
X83040756Y-100007861D01*
X83055552Y-100018020D01*
X83093464Y-100025104D01*
X83138527Y-100023007D01*
X83177487Y-100012812D01*
X83187704Y-100007204D01*
X83214659Y-99974538D01*
X83232451Y-99924545D01*
X83240024Y-99863705D01*
X83236325Y-99798497D01*
X83228057Y-99759253D01*
X83204320Y-99713805D01*
X83166849Y-99685396D01*
X83121720Y-99675573D01*
X83075011Y-99685887D01*
X83039132Y-99711112D01*
X83020277Y-99731925D01*
X83009272Y-99752439D01*
X83004026Y-99780203D01*
X83002449Y-99822762D01*
X83002376Y-99843766D01*
X82867590Y-99843766D01*
X82868094Y-99787580D01*
X82885388Y-99700501D01*
G37*
X82885388Y-99700501D02*
X82919029Y-99632530D01*
X82969018Y-99583664D01*
X83035356Y-99553899D01*
X83049601Y-99550448D01*
X83135210Y-99542345D01*
X83210762Y-99556055D01*
X83274363Y-99590692D01*
X83324123Y-99645372D01*
X83347568Y-99689842D01*
X83357634Y-99729121D01*
X83364156Y-99785116D01*
X83366951Y-99849621D01*
X83365836Y-99914429D01*
X83360626Y-99971334D01*
X83354541Y-100001727D01*
X83334014Y-100043306D01*
X83298463Y-100087468D01*
X83255619Y-100126087D01*
X83213211Y-100151034D01*
X83212177Y-100151430D01*
X83159553Y-100162331D01*
X83097188Y-100162601D01*
X83037924Y-100152676D01*
X83015040Y-100144722D01*
X82956102Y-100111300D01*
X82913890Y-100067511D01*
X82886156Y-100009538D01*
X82870651Y-99933565D01*
X82867143Y-99893771D01*
X82867590Y-99843766D01*
X83002376Y-99843766D01*
X83006917Y-99916732D01*
X83019986Y-99972334D01*
X83040756Y-100007861D01*
X83055552Y-100018020D01*
X83093464Y-100025104D01*
X83138527Y-100023007D01*
X83177487Y-100012812D01*
X83187704Y-100007204D01*
X83214659Y-99974538D01*
X83232451Y-99924545D01*
X83240024Y-99863705D01*
X83236325Y-99798497D01*
X83228057Y-99759253D01*
X83204320Y-99713805D01*
X83166849Y-99685396D01*
X83121720Y-99675573D01*
X83075011Y-99685887D01*
X83039132Y-99711112D01*
X83020277Y-99731925D01*
X83009272Y-99752439D01*
X83004026Y-99780203D01*
X83002449Y-99822762D01*
X83002376Y-99843766D01*
X82867590Y-99843766D01*
X82868094Y-99787580D01*
X82885388Y-99700501D01*
G36*
X81606644Y-100493020D02*
G01*
X81625461Y-100498660D01*
X81631527Y-100511053D01*
X81631782Y-100516647D01*
X81632871Y-100532230D01*
X81640368Y-100534676D01*
X81660619Y-100523993D01*
X81672649Y-100516694D01*
X81710600Y-100501063D01*
X81755928Y-100493334D01*
X81803456Y-100492740D01*
X81848005Y-100498513D01*
X81884398Y-100509884D01*
X81907457Y-100526088D01*
X81912004Y-100546355D01*
X81909709Y-100551843D01*
X81892980Y-100574626D01*
X81867037Y-100602647D01*
X81862345Y-100607177D01*
X81837617Y-100628005D01*
X81816282Y-100634735D01*
X81786445Y-100630038D01*
X81774492Y-100626917D01*
X81737295Y-100619421D01*
X81711141Y-100622792D01*
X81689054Y-100634681D01*
X81668822Y-100650635D01*
X81653921Y-100670700D01*
X81643566Y-100698702D01*
X81636971Y-100738467D01*
X81633351Y-100793823D01*
X81631922Y-100868594D01*
X81631782Y-100913740D01*
X81631782Y-101107822D01*
X81506040Y-101107822D01*
X81506040Y-100491683D01*
X81568911Y-100491683D01*
X81606644Y-100493020D01*
G37*
X81606644Y-100493020D02*
X81625461Y-100498660D01*
X81631527Y-100511053D01*
X81631782Y-100516647D01*
X81632871Y-100532230D01*
X81640368Y-100534676D01*
X81660619Y-100523993D01*
X81672649Y-100516694D01*
X81710600Y-100501063D01*
X81755928Y-100493334D01*
X81803456Y-100492740D01*
X81848005Y-100498513D01*
X81884398Y-100509884D01*
X81907457Y-100526088D01*
X81912004Y-100546355D01*
X81909709Y-100551843D01*
X81892980Y-100574626D01*
X81867037Y-100602647D01*
X81862345Y-100607177D01*
X81837617Y-100628005D01*
X81816282Y-100634735D01*
X81786445Y-100630038D01*
X81774492Y-100626917D01*
X81737295Y-100619421D01*
X81711141Y-100622792D01*
X81689054Y-100634681D01*
X81668822Y-100650635D01*
X81653921Y-100670700D01*
X81643566Y-100698702D01*
X81636971Y-100738467D01*
X81633351Y-100793823D01*
X81631922Y-100868594D01*
X81631782Y-100913740D01*
X81631782Y-101107822D01*
X81506040Y-101107822D01*
X81506040Y-100491683D01*
X81568911Y-100491683D01*
X81606644Y-100493020D01*
G36*
X83593367Y-99744342D02*
G01*
X83594555Y-99836563D01*
X83598897Y-99906610D01*
X83607558Y-99957381D01*
X83621704Y-99991772D01*
X83642500Y-100012679D01*
X83671110Y-100023000D01*
X83706535Y-100025636D01*
X83743636Y-100022682D01*
X83771818Y-100011889D01*
X83792243Y-99990360D01*
X83806079Y-99955199D01*
X83814491Y-99903510D01*
X83818643Y-99832394D01*
X83819703Y-99744342D01*
X83819703Y-99548614D01*
X83958020Y-99548614D01*
X83958020Y-100152179D01*
X83888862Y-100152179D01*
X83847170Y-100150489D01*
X83825701Y-100144556D01*
X83819703Y-100133293D01*
X83816091Y-100123261D01*
X83801714Y-100125383D01*
X83772736Y-100139580D01*
X83706319Y-100161480D01*
X83635875Y-100159928D01*
X83568377Y-100136147D01*
X83536233Y-100117362D01*
X83511715Y-100097022D01*
X83493804Y-100071573D01*
X83481479Y-100037458D01*
X83473723Y-99991121D01*
X83469516Y-99929007D01*
X83467840Y-99847561D01*
X83467624Y-99784578D01*
X83467624Y-99548614D01*
X83593367Y-99548614D01*
X83593367Y-99744342D01*
G37*
X83593367Y-99744342D02*
X83594555Y-99836563D01*
X83598897Y-99906610D01*
X83607558Y-99957381D01*
X83621704Y-99991772D01*
X83642500Y-100012679D01*
X83671110Y-100023000D01*
X83706535Y-100025636D01*
X83743636Y-100022682D01*
X83771818Y-100011889D01*
X83792243Y-99990360D01*
X83806079Y-99955199D01*
X83814491Y-99903510D01*
X83818643Y-99832394D01*
X83819703Y-99744342D01*
X83819703Y-99548614D01*
X83958020Y-99548614D01*
X83958020Y-100152179D01*
X83888862Y-100152179D01*
X83847170Y-100150489D01*
X83825701Y-100144556D01*
X83819703Y-100133293D01*
X83816091Y-100123261D01*
X83801714Y-100125383D01*
X83772736Y-100139580D01*
X83706319Y-100161480D01*
X83635875Y-100159928D01*
X83568377Y-100136147D01*
X83536233Y-100117362D01*
X83511715Y-100097022D01*
X83493804Y-100071573D01*
X83481479Y-100037458D01*
X83473723Y-99991121D01*
X83469516Y-99929007D01*
X83467840Y-99847561D01*
X83467624Y-99784578D01*
X83467624Y-99548614D01*
X83593367Y-99548614D01*
X83593367Y-99744342D01*
G36*
X81845988Y-99559002D02*
G01*
X81877283Y-99573950D01*
X81907591Y-99595541D01*
X81930682Y-99620391D01*
X81947500Y-99652087D01*
X81958994Y-99694214D01*
X81966109Y-99750358D01*
X81969793Y-99824106D01*
X81970992Y-99919044D01*
X81971011Y-99928985D01*
X81971287Y-100152179D01*
X81832970Y-100152179D01*
X81832970Y-99946418D01*
X81832872Y-99870189D01*
X81832191Y-99814939D01*
X81830349Y-99776501D01*
X81826767Y-99750706D01*
X81820868Y-99733384D01*
X81812073Y-99720368D01*
X81799820Y-99707507D01*
X81756953Y-99679873D01*
X81710157Y-99674745D01*
X81665576Y-99692217D01*
X81650072Y-99705221D01*
X81638690Y-99717447D01*
X81630519Y-99730540D01*
X81625026Y-99748615D01*
X81621680Y-99775787D01*
X81619949Y-99816170D01*
X81619303Y-99873879D01*
X81619208Y-99944132D01*
X81619208Y-100152179D01*
X81480891Y-100152179D01*
X81480891Y-99548614D01*
X81550050Y-99548614D01*
X81591572Y-99550256D01*
X81612994Y-99556087D01*
X81619205Y-99567461D01*
X81619208Y-99567798D01*
X81622090Y-99578938D01*
X81634801Y-99577674D01*
X81660074Y-99565434D01*
X81717395Y-99547424D01*
X81782963Y-99545421D01*
X81845988Y-99559002D01*
G37*
X81845988Y-99559002D02*
X81877283Y-99573950D01*
X81907591Y-99595541D01*
X81930682Y-99620391D01*
X81947500Y-99652087D01*
X81958994Y-99694214D01*
X81966109Y-99750358D01*
X81969793Y-99824106D01*
X81970992Y-99919044D01*
X81971011Y-99928985D01*
X81971287Y-100152179D01*
X81832970Y-100152179D01*
X81832970Y-99946418D01*
X81832872Y-99870189D01*
X81832191Y-99814939D01*
X81830349Y-99776501D01*
X81826767Y-99750706D01*
X81820868Y-99733384D01*
X81812073Y-99720368D01*
X81799820Y-99707507D01*
X81756953Y-99679873D01*
X81710157Y-99674745D01*
X81665576Y-99692217D01*
X81650072Y-99705221D01*
X81638690Y-99717447D01*
X81630519Y-99730540D01*
X81625026Y-99748615D01*
X81621680Y-99775787D01*
X81619949Y-99816170D01*
X81619303Y-99873879D01*
X81619208Y-99944132D01*
X81619208Y-100152179D01*
X81480891Y-100152179D01*
X81480891Y-99548614D01*
X81550050Y-99548614D01*
X81591572Y-99550256D01*
X81612994Y-99556087D01*
X81619205Y-99567461D01*
X81619208Y-99567798D01*
X81622090Y-99578938D01*
X81634801Y-99577674D01*
X81660074Y-99565434D01*
X81717395Y-99547424D01*
X81782963Y-99545421D01*
X81845988Y-99559002D01*
G36*
X85028698Y-99654191D02*
G01*
X85074701Y-99598779D01*
X85132821Y-99561009D01*
X85201180Y-99542896D01*
X85277898Y-99546457D01*
X85310096Y-99554279D01*
X85371825Y-99582921D01*
X85424610Y-99626667D01*
X85461141Y-99679117D01*
X85466160Y-99690893D01*
X85473045Y-99721740D01*
X85477864Y-99767371D01*
X85479505Y-99813492D01*
X85479505Y-99900693D01*
X85297178Y-99900693D01*
X85221979Y-99900978D01*
X85169003Y-99902704D01*
X85135325Y-99907181D01*
X85118020Y-99915720D01*
X85114163Y-99929630D01*
X85120829Y-99950222D01*
X85132770Y-99974315D01*
X85166080Y-100014525D01*
X85212368Y-100034558D01*
X85268944Y-100033905D01*
X85333031Y-100012101D01*
X85388417Y-99985193D01*
X85434375Y-100021532D01*
X85480333Y-100057872D01*
X85437096Y-100097819D01*
X85379374Y-100135563D01*
X85308386Y-100158320D01*
X85232029Y-100164688D01*
X85158199Y-100153268D01*
X85146287Y-100149393D01*
X85081399Y-100115506D01*
X85033130Y-100064986D01*
X85000465Y-99996325D01*
X84982385Y-99908014D01*
X84982175Y-99906121D01*
X84980556Y-99809878D01*
X84987100Y-99775542D01*
X85114852Y-99775542D01*
X85126584Y-99780822D01*
X85158438Y-99784867D01*
X85205397Y-99787176D01*
X85235154Y-99787525D01*
X85290648Y-99787306D01*
X85325346Y-99785916D01*
X85343601Y-99782251D01*
X85349766Y-99775210D01*
X85348195Y-99763690D01*
X85346878Y-99759233D01*
X85324382Y-99717355D01*
X85289003Y-99683604D01*
X85257780Y-99668773D01*
X85216301Y-99669668D01*
X85174269Y-99688164D01*
X85139012Y-99718786D01*
X85117854Y-99756062D01*
X85114852Y-99775542D01*
X84987100Y-99775542D01*
X84996690Y-99725229D01*
X85028698Y-99654191D01*
G37*
X85028698Y-99654191D02*
X85074701Y-99598779D01*
X85132821Y-99561009D01*
X85201180Y-99542896D01*
X85277898Y-99546457D01*
X85310096Y-99554279D01*
X85371825Y-99582921D01*
X85424610Y-99626667D01*
X85461141Y-99679117D01*
X85466160Y-99690893D01*
X85473045Y-99721740D01*
X85477864Y-99767371D01*
X85479505Y-99813492D01*
X85479505Y-99900693D01*
X85297178Y-99900693D01*
X85221979Y-99900978D01*
X85169003Y-99902704D01*
X85135325Y-99907181D01*
X85118020Y-99915720D01*
X85114163Y-99929630D01*
X85120829Y-99950222D01*
X85132770Y-99974315D01*
X85166080Y-100014525D01*
X85212368Y-100034558D01*
X85268944Y-100033905D01*
X85333031Y-100012101D01*
X85388417Y-99985193D01*
X85434375Y-100021532D01*
X85480333Y-100057872D01*
X85437096Y-100097819D01*
X85379374Y-100135563D01*
X85308386Y-100158320D01*
X85232029Y-100164688D01*
X85158199Y-100153268D01*
X85146287Y-100149393D01*
X85081399Y-100115506D01*
X85033130Y-100064986D01*
X85000465Y-99996325D01*
X84982385Y-99908014D01*
X84982175Y-99906121D01*
X84980556Y-99809878D01*
X84987100Y-99775542D01*
X85114852Y-99775542D01*
X85126584Y-99780822D01*
X85158438Y-99784867D01*
X85205397Y-99787176D01*
X85235154Y-99787525D01*
X85290648Y-99787306D01*
X85325346Y-99785916D01*
X85343601Y-99782251D01*
X85349766Y-99775210D01*
X85348195Y-99763690D01*
X85346878Y-99759233D01*
X85324382Y-99717355D01*
X85289003Y-99683604D01*
X85257780Y-99668773D01*
X85216301Y-99669668D01*
X85174269Y-99688164D01*
X85139012Y-99718786D01*
X85117854Y-99756062D01*
X85114852Y-99775542D01*
X84987100Y-99775542D01*
X84996690Y-99725229D01*
X85028698Y-99654191D01*
G36*
X84364055Y-100620949D02*
G01*
X84400470Y-100561263D01*
X84452297Y-100520549D01*
X84519990Y-100498179D01*
X84556662Y-100493871D01*
X84632581Y-100494970D01*
X84692685Y-100510597D01*
X84743021Y-100542848D01*
X84767393Y-100566940D01*
X84807345Y-100623895D01*
X84830242Y-100689965D01*
X84838108Y-100771182D01*
X84838148Y-100777748D01*
X84838218Y-100843763D01*
X84458264Y-100843763D01*
X84466363Y-100878342D01*
X84480987Y-100909659D01*
X84506581Y-100942291D01*
X84511935Y-100947500D01*
X84557943Y-100975694D01*
X84610410Y-100980475D01*
X84670803Y-100961926D01*
X84681040Y-100956931D01*
X84712439Y-100941745D01*
X84733470Y-100933094D01*
X84737139Y-100932293D01*
X84749948Y-100940063D01*
X84774378Y-100959072D01*
X84786779Y-100969460D01*
X84812476Y-100993321D01*
X84820915Y-101009077D01*
X84815058Y-101023571D01*
X84811928Y-101027534D01*
X84790725Y-101044879D01*
X84755738Y-101065959D01*
X84731337Y-101078265D01*
X84662072Y-101099946D01*
X84585388Y-101106971D01*
X84512765Y-101098647D01*
X84492426Y-101092686D01*
X84429476Y-101058952D01*
X84382815Y-101007045D01*
X84352173Y-100936459D01*
X84337282Y-100846692D01*
X84335647Y-100799753D01*
X84340421Y-100731413D01*
X84460990Y-100731413D01*
X84472652Y-100736465D01*
X84503998Y-100740429D01*
X84549571Y-100742768D01*
X84580446Y-100743169D01*
X84635981Y-100742783D01*
X84671033Y-100740975D01*
X84690262Y-100736773D01*
X84698330Y-100729203D01*
X84699901Y-100718218D01*
X84689121Y-100684381D01*
X84661980Y-100650940D01*
X84626277Y-100625272D01*
X84590560Y-100614772D01*
X84542048Y-100624086D01*
X84500053Y-100651013D01*
X84470936Y-100689827D01*
X84460990Y-100731413D01*
X84340421Y-100731413D01*
X84342599Y-100700236D01*
X84364055Y-100620949D01*
G37*
X84364055Y-100620949D02*
X84400470Y-100561263D01*
X84452297Y-100520549D01*
X84519990Y-100498179D01*
X84556662Y-100493871D01*
X84632581Y-100494970D01*
X84692685Y-100510597D01*
X84743021Y-100542848D01*
X84767393Y-100566940D01*
X84807345Y-100623895D01*
X84830242Y-100689965D01*
X84838108Y-100771182D01*
X84838148Y-100777748D01*
X84838218Y-100843763D01*
X84458264Y-100843763D01*
X84466363Y-100878342D01*
X84480987Y-100909659D01*
X84506581Y-100942291D01*
X84511935Y-100947500D01*
X84557943Y-100975694D01*
X84610410Y-100980475D01*
X84670803Y-100961926D01*
X84681040Y-100956931D01*
X84712439Y-100941745D01*
X84733470Y-100933094D01*
X84737139Y-100932293D01*
X84749948Y-100940063D01*
X84774378Y-100959072D01*
X84786779Y-100969460D01*
X84812476Y-100993321D01*
X84820915Y-101009077D01*
X84815058Y-101023571D01*
X84811928Y-101027534D01*
X84790725Y-101044879D01*
X84755738Y-101065959D01*
X84731337Y-101078265D01*
X84662072Y-101099946D01*
X84585388Y-101106971D01*
X84512765Y-101098647D01*
X84492426Y-101092686D01*
X84429476Y-101058952D01*
X84382815Y-101007045D01*
X84352173Y-100936459D01*
X84337282Y-100846692D01*
X84335647Y-100799753D01*
X84340421Y-100731413D01*
X84460990Y-100731413D01*
X84472652Y-100736465D01*
X84503998Y-100740429D01*
X84549571Y-100742768D01*
X84580446Y-100743169D01*
X84635981Y-100742783D01*
X84671033Y-100740975D01*
X84690262Y-100736773D01*
X84698330Y-100729203D01*
X84699901Y-100718218D01*
X84689121Y-100684381D01*
X84661980Y-100650940D01*
X84626277Y-100625272D01*
X84590560Y-100614772D01*
X84542048Y-100624086D01*
X84500053Y-100651013D01*
X84470936Y-100689827D01*
X84460990Y-100731413D01*
X84340421Y-100731413D01*
X84342599Y-100700236D01*
X84364055Y-100620949D01*
G36*
X84817226Y-99553880D02*
G01*
X84890080Y-99584830D01*
X84913027Y-99599895D01*
X84942354Y-99623048D01*
X84960764Y-99641253D01*
X84963961Y-99647183D01*
X84954935Y-99660340D01*
X84931837Y-99682667D01*
X84913344Y-99698250D01*
X84862728Y-99738926D01*
X84822760Y-99705295D01*
X84791874Y-99683584D01*
X84761759Y-99676090D01*
X84727292Y-99677920D01*
X84672561Y-99691528D01*
X84634886Y-99719772D01*
X84611991Y-99765433D01*
X84601597Y-99831289D01*
X84601595Y-99831331D01*
X84602494Y-99904939D01*
X84616463Y-99958946D01*
X84644328Y-99995716D01*
X84663325Y-100008168D01*
X84713776Y-100023673D01*
X84767663Y-100023683D01*
X84814546Y-100008638D01*
X84825644Y-100001287D01*
X84853476Y-99982511D01*
X84875236Y-99979434D01*
X84898704Y-99993409D01*
X84924649Y-100018510D01*
X84965716Y-100060880D01*
X84920121Y-100098464D01*
X84849674Y-100140882D01*
X84770233Y-100161785D01*
X84687215Y-100160272D01*
X84632694Y-100146411D01*
X84568970Y-100112135D01*
X84518005Y-100058212D01*
X84494851Y-100020149D01*
X84476099Y-99965536D01*
X84466715Y-99896369D01*
X84466643Y-99821407D01*
X84475824Y-99749409D01*
X84494199Y-99689137D01*
X84497093Y-99682958D01*
X84539952Y-99622351D01*
X84597979Y-99578224D01*
X84666591Y-99551493D01*
X84741201Y-99543073D01*
X84817226Y-99553880D01*
G37*
X84817226Y-99553880D02*
X84890080Y-99584830D01*
X84913027Y-99599895D01*
X84942354Y-99623048D01*
X84960764Y-99641253D01*
X84963961Y-99647183D01*
X84954935Y-99660340D01*
X84931837Y-99682667D01*
X84913344Y-99698250D01*
X84862728Y-99738926D01*
X84822760Y-99705295D01*
X84791874Y-99683584D01*
X84761759Y-99676090D01*
X84727292Y-99677920D01*
X84672561Y-99691528D01*
X84634886Y-99719772D01*
X84611991Y-99765433D01*
X84601597Y-99831289D01*
X84601595Y-99831331D01*
X84602494Y-99904939D01*
X84616463Y-99958946D01*
X84644328Y-99995716D01*
X84663325Y-100008168D01*
X84713776Y-100023673D01*
X84767663Y-100023683D01*
X84814546Y-100008638D01*
X84825644Y-100001287D01*
X84853476Y-99982511D01*
X84875236Y-99979434D01*
X84898704Y-99993409D01*
X84924649Y-100018510D01*
X84965716Y-100060880D01*
X84920121Y-100098464D01*
X84849674Y-100140882D01*
X84770233Y-100161785D01*
X84687215Y-100160272D01*
X84632694Y-100146411D01*
X84568970Y-100112135D01*
X84518005Y-100058212D01*
X84494851Y-100020149D01*
X84476099Y-99965536D01*
X84466715Y-99896369D01*
X84466643Y-99821407D01*
X84475824Y-99749409D01*
X84494199Y-99689137D01*
X84497093Y-99682958D01*
X84539952Y-99622351D01*
X84597979Y-99578224D01*
X84666591Y-99551493D01*
X84741201Y-99543073D01*
X84817226Y-99553880D01*
G36*
X82976964Y-95380018D02*
G01*
X83033812Y-95681570D01*
X83453338Y-95854512D01*
X83704984Y-95683395D01*
X83775458Y-95635750D01*
X83839163Y-95593210D01*
X83893126Y-95557715D01*
X83934373Y-95531210D01*
X83959934Y-95515636D01*
X83966895Y-95512278D01*
X83979435Y-95520914D01*
X84006231Y-95544792D01*
X84044280Y-95580859D01*
X84090579Y-95626067D01*
X84142123Y-95677364D01*
X84195909Y-95731701D01*
X84248935Y-95786028D01*
X84298195Y-95837295D01*
X84340687Y-95882451D01*
X84373407Y-95918446D01*
X84393351Y-95942230D01*
X84398119Y-95950190D01*
X84391257Y-95964865D01*
X84372020Y-95997014D01*
X84342430Y-96043492D01*
X84304510Y-96101156D01*
X84260282Y-96166860D01*
X84234654Y-96204336D01*
X84187941Y-96272768D01*
X84146432Y-96334520D01*
X84112140Y-96386519D01*
X84087080Y-96425692D01*
X84073264Y-96448965D01*
X84071188Y-96453855D01*
X84075895Y-96467755D01*
X84088723Y-96500150D01*
X84107738Y-96546485D01*
X84131003Y-96602206D01*
X84156584Y-96662758D01*
X84182545Y-96723586D01*
X84206950Y-96780136D01*
X84227863Y-96827852D01*
X84243349Y-96862181D01*
X84251472Y-96878568D01*
X84251952Y-96879212D01*
X84264707Y-96882341D01*
X84298677Y-96889321D01*
X84350340Y-96899467D01*
X84416176Y-96912092D01*
X84492664Y-96926509D01*
X84537290Y-96934823D01*
X84619021Y-96950384D01*
X84692843Y-96965192D01*
X84755021Y-96978436D01*
X84801822Y-96989305D01*
X84829509Y-96996989D01*
X84835074Y-96999427D01*
X84840526Y-97015930D01*
X84844924Y-97053200D01*
X84848272Y-97106880D01*
X84850574Y-97172612D01*
X84851832Y-97246037D01*
X84852048Y-97322796D01*
X84851227Y-97398532D01*
X84849371Y-97468886D01*
X84846482Y-97529500D01*
X84842565Y-97576016D01*
X84837622Y-97604075D01*
X84834657Y-97609916D01*
X84816934Y-97616917D01*
X84779381Y-97626927D01*
X84726964Y-97638769D01*
X84664652Y-97651267D01*
X84642900Y-97655310D01*
X84538024Y-97674520D01*
X84455180Y-97689991D01*
X84391630Y-97702337D01*
X84344637Y-97712173D01*
X84311463Y-97720114D01*
X84289371Y-97726776D01*
X84275624Y-97732773D01*
X84267484Y-97738719D01*
X84266345Y-97739894D01*
X84254977Y-97758826D01*
X84237635Y-97795669D01*
X84216050Y-97845913D01*
X84191954Y-97905046D01*
X84167079Y-97968556D01*
X84143157Y-98031932D01*
X84121919Y-98090662D01*
X84105097Y-98140235D01*
X84094422Y-98176139D01*
X84091627Y-98193862D01*
X84091860Y-98194483D01*
X84101331Y-98208970D01*
X84122818Y-98240844D01*
X84154063Y-98286789D01*
X84192807Y-98343485D01*
X84236793Y-98407617D01*
X84249319Y-98425842D01*
X84293984Y-98491914D01*
X84333288Y-98552200D01*
X84365088Y-98603235D01*
X84387245Y-98641560D01*
X84397617Y-98663711D01*
X84398119Y-98666432D01*
X84389405Y-98680736D01*
X84365325Y-98709072D01*
X84328976Y-98748396D01*
X84283453Y-98795661D01*
X84231852Y-98847823D01*
X84177267Y-98901835D01*
X84122794Y-98954653D01*
X84071529Y-99003231D01*
X84026567Y-99044523D01*
X83991004Y-99075485D01*
X83967935Y-99093070D01*
X83961554Y-99095941D01*
X83946699Y-99089178D01*
X83916286Y-99070939D01*
X83875268Y-99044297D01*
X83843709Y-99022852D01*
X83786525Y-98983503D01*
X83718806Y-98937171D01*
X83650880Y-98890913D01*
X83614361Y-98866155D01*
X83490752Y-98782547D01*
X83386991Y-98838650D01*
X83339720Y-98863228D01*
X83299523Y-98882331D01*
X83272326Y-98893227D01*
X83265402Y-98894743D01*
X83257077Y-98883549D01*
X83240654Y-98851917D01*
X83217357Y-98802765D01*
X83188414Y-98739010D01*
X83155050Y-98663571D01*
X83118491Y-98579364D01*
X83079964Y-98489308D01*
X83040694Y-98396321D01*
X83001908Y-98303320D01*
X82964830Y-98213223D01*
X82930689Y-98128948D01*
X82900708Y-98053413D01*
X82876116Y-97989534D01*
X82858136Y-97940231D01*
X82847997Y-97908421D01*
X82846366Y-97897496D01*
X82859291Y-97883561D01*
X82887589Y-97860940D01*
X82925346Y-97834333D01*
X82928515Y-97832228D01*
X83026100Y-97754114D01*
X83104786Y-97662982D01*
X83163891Y-97561745D01*
X83202732Y-97453318D01*
X83220628Y-97340614D01*
X83216897Y-97226548D01*
X83190857Y-97114034D01*
X83141825Y-97005985D01*
X83127400Y-96982345D01*
X83052369Y-96886887D01*
X82963730Y-96810232D01*
X82864549Y-96752780D01*
X82757895Y-96714929D01*
X82646836Y-96697078D01*
X82534439Y-96699625D01*
X82423773Y-96722970D01*
X82317906Y-96767510D01*
X82219905Y-96833645D01*
X82189590Y-96860487D01*
X82112438Y-96944512D01*
X82056218Y-97032966D01*
X82017653Y-97132115D01*
X81996174Y-97230303D01*
X81990872Y-97340697D01*
X82008552Y-97451640D01*
X82047419Y-97559381D01*
X82105677Y-97660169D01*
X82181531Y-97750256D01*
X82273183Y-97825892D01*
X82285228Y-97833864D01*
X82323389Y-97859974D01*
X82352399Y-97882595D01*
X82366268Y-97897039D01*
X82366469Y-97897496D01*
X82363492Y-97913121D01*
X82351689Y-97948582D01*
X82332286Y-98000962D01*
X82306512Y-98067345D01*
X82275591Y-98144814D01*
X82240751Y-98230450D01*
X82203217Y-98321337D01*
X82164217Y-98414559D01*
X82124977Y-98507197D01*
X82086724Y-98596335D01*
X82050683Y-98679055D01*
X82018083Y-98752441D01*
X81990148Y-98813575D01*
X81968105Y-98859541D01*
X81953182Y-98887421D01*
X81947172Y-98894743D01*
X81928809Y-98889041D01*
X81894448Y-98873749D01*
X81850016Y-98851599D01*
X81825583Y-98838650D01*
X81721822Y-98782547D01*
X81598213Y-98866155D01*
X81535114Y-98908987D01*
X81466030Y-98956122D01*
X81401293Y-99000503D01*
X81368866Y-99022852D01*
X81323259Y-99053477D01*
X81284640Y-99077747D01*
X81258048Y-99092587D01*
X81249410Y-99095724D01*
X81236839Y-99087261D01*
X81209016Y-99063636D01*
X81168639Y-99027302D01*
X81118405Y-98980711D01*
X81061012Y-98926317D01*
X81024714Y-98891392D01*
X80961210Y-98828996D01*
X80906327Y-98773188D01*
X80862286Y-98726354D01*
X80831305Y-98690882D01*
X80815602Y-98669161D01*
X80814095Y-98664752D01*
X80821086Y-98647985D01*
X80840406Y-98614082D01*
X80869909Y-98566476D01*
X80907455Y-98508599D01*
X80950900Y-98443884D01*
X80963255Y-98425842D01*
X81008273Y-98360267D01*
X81048660Y-98301228D01*
X81082160Y-98252042D01*
X81106514Y-98216028D01*
X81119464Y-98196502D01*
X81120715Y-98194483D01*
X81118844Y-98178922D01*
X81108913Y-98144709D01*
X81092653Y-98096355D01*
X81071795Y-98038371D01*
X81048073Y-97975270D01*
X81023216Y-97911563D01*
X80998958Y-97851761D01*
X80977029Y-97800376D01*
X80959162Y-97761919D01*
X80947087Y-97740902D01*
X80946229Y-97739894D01*
X80938846Y-97733888D01*
X80926375Y-97727948D01*
X80906080Y-97721460D01*
X80875222Y-97713809D01*
X80831066Y-97704380D01*
X80770874Y-97692559D01*
X80691907Y-97677729D01*
X80591430Y-97659277D01*
X80569675Y-97655310D01*
X80505198Y-97642853D01*
X80448989Y-97630666D01*
X80406013Y-97619926D01*
X80381240Y-97611809D01*
X80377918Y-97609916D01*
X80372444Y-97593138D01*
X80367994Y-97555645D01*
X80364572Y-97501794D01*
X80362181Y-97435944D01*
X80360823Y-97362453D01*
X80360501Y-97285680D01*
X80361219Y-97209983D01*
X80362979Y-97139720D01*
X80365784Y-97079250D01*
X80369638Y-97032930D01*
X80374543Y-97005119D01*
X80377500Y-96999427D01*
X80393963Y-96993686D01*
X80431449Y-96984345D01*
X80486225Y-96972215D01*
X80554555Y-96958107D01*
X80632706Y-96942830D01*
X80675284Y-96934823D01*
X80756071Y-96919721D01*
X80828113Y-96906040D01*
X80887889Y-96894467D01*
X80931879Y-96885687D01*
X80956561Y-96880387D01*
X80960623Y-96879212D01*
X80967489Y-96865965D01*
X80982002Y-96834057D01*
X81002229Y-96788047D01*
X81026234Y-96732492D01*
X81052082Y-96671953D01*
X81077840Y-96610986D01*
X81101573Y-96554151D01*
X81121346Y-96506006D01*
X81135224Y-96471110D01*
X81141274Y-96454021D01*
X81141386Y-96453274D01*
X81134528Y-96439793D01*
X81115302Y-96408770D01*
X81085728Y-96363289D01*
X81047827Y-96306432D01*
X81003620Y-96241283D01*
X80977921Y-96203862D01*
X80931093Y-96135247D01*
X80889501Y-96072952D01*
X80855175Y-96020129D01*
X80830143Y-95979927D01*
X80816435Y-95955500D01*
X80814456Y-95950024D01*
X80822966Y-95937278D01*
X80846493Y-95910063D01*
X80882032Y-95871428D01*
X80926577Y-95824423D01*
X80977123Y-95772095D01*
X81030664Y-95717495D01*
X81084195Y-95663670D01*
X81134711Y-95613670D01*
X81179206Y-95570543D01*
X81214675Y-95537339D01*
X81238113Y-95517106D01*
X81245954Y-95512278D01*
X81258720Y-95519067D01*
X81289256Y-95538142D01*
X81334590Y-95567561D01*
X81391756Y-95605381D01*
X81457784Y-95649661D01*
X81507590Y-95683395D01*
X81759236Y-95854512D01*
X81968999Y-95768041D01*
X82178763Y-95681570D01*
X82235611Y-95380018D01*
X82292460Y-95078466D01*
X82920115Y-95078466D01*
X82976964Y-95380018D01*
G37*
X82976964Y-95380018D02*
X83033812Y-95681570D01*
X83453338Y-95854512D01*
X83704984Y-95683395D01*
X83775458Y-95635750D01*
X83839163Y-95593210D01*
X83893126Y-95557715D01*
X83934373Y-95531210D01*
X83959934Y-95515636D01*
X83966895Y-95512278D01*
X83979435Y-95520914D01*
X84006231Y-95544792D01*
X84044280Y-95580859D01*
X84090579Y-95626067D01*
X84142123Y-95677364D01*
X84195909Y-95731701D01*
X84248935Y-95786028D01*
X84298195Y-95837295D01*
X84340687Y-95882451D01*
X84373407Y-95918446D01*
X84393351Y-95942230D01*
X84398119Y-95950190D01*
X84391257Y-95964865D01*
X84372020Y-95997014D01*
X84342430Y-96043492D01*
X84304510Y-96101156D01*
X84260282Y-96166860D01*
X84234654Y-96204336D01*
X84187941Y-96272768D01*
X84146432Y-96334520D01*
X84112140Y-96386519D01*
X84087080Y-96425692D01*
X84073264Y-96448965D01*
X84071188Y-96453855D01*
X84075895Y-96467755D01*
X84088723Y-96500150D01*
X84107738Y-96546485D01*
X84131003Y-96602206D01*
X84156584Y-96662758D01*
X84182545Y-96723586D01*
X84206950Y-96780136D01*
X84227863Y-96827852D01*
X84243349Y-96862181D01*
X84251472Y-96878568D01*
X84251952Y-96879212D01*
X84264707Y-96882341D01*
X84298677Y-96889321D01*
X84350340Y-96899467D01*
X84416176Y-96912092D01*
X84492664Y-96926509D01*
X84537290Y-96934823D01*
X84619021Y-96950384D01*
X84692843Y-96965192D01*
X84755021Y-96978436D01*
X84801822Y-96989305D01*
X84829509Y-96996989D01*
X84835074Y-96999427D01*
X84840526Y-97015930D01*
X84844924Y-97053200D01*
X84848272Y-97106880D01*
X84850574Y-97172612D01*
X84851832Y-97246037D01*
X84852048Y-97322796D01*
X84851227Y-97398532D01*
X84849371Y-97468886D01*
X84846482Y-97529500D01*
X84842565Y-97576016D01*
X84837622Y-97604075D01*
X84834657Y-97609916D01*
X84816934Y-97616917D01*
X84779381Y-97626927D01*
X84726964Y-97638769D01*
X84664652Y-97651267D01*
X84642900Y-97655310D01*
X84538024Y-97674520D01*
X84455180Y-97689991D01*
X84391630Y-97702337D01*
X84344637Y-97712173D01*
X84311463Y-97720114D01*
X84289371Y-97726776D01*
X84275624Y-97732773D01*
X84267484Y-97738719D01*
X84266345Y-97739894D01*
X84254977Y-97758826D01*
X84237635Y-97795669D01*
X84216050Y-97845913D01*
X84191954Y-97905046D01*
X84167079Y-97968556D01*
X84143157Y-98031932D01*
X84121919Y-98090662D01*
X84105097Y-98140235D01*
X84094422Y-98176139D01*
X84091627Y-98193862D01*
X84091860Y-98194483D01*
X84101331Y-98208970D01*
X84122818Y-98240844D01*
X84154063Y-98286789D01*
X84192807Y-98343485D01*
X84236793Y-98407617D01*
X84249319Y-98425842D01*
X84293984Y-98491914D01*
X84333288Y-98552200D01*
X84365088Y-98603235D01*
X84387245Y-98641560D01*
X84397617Y-98663711D01*
X84398119Y-98666432D01*
X84389405Y-98680736D01*
X84365325Y-98709072D01*
X84328976Y-98748396D01*
X84283453Y-98795661D01*
X84231852Y-98847823D01*
X84177267Y-98901835D01*
X84122794Y-98954653D01*
X84071529Y-99003231D01*
X84026567Y-99044523D01*
X83991004Y-99075485D01*
X83967935Y-99093070D01*
X83961554Y-99095941D01*
X83946699Y-99089178D01*
X83916286Y-99070939D01*
X83875268Y-99044297D01*
X83843709Y-99022852D01*
X83786525Y-98983503D01*
X83718806Y-98937171D01*
X83650880Y-98890913D01*
X83614361Y-98866155D01*
X83490752Y-98782547D01*
X83386991Y-98838650D01*
X83339720Y-98863228D01*
X83299523Y-98882331D01*
X83272326Y-98893227D01*
X83265402Y-98894743D01*
X83257077Y-98883549D01*
X83240654Y-98851917D01*
X83217357Y-98802765D01*
X83188414Y-98739010D01*
X83155050Y-98663571D01*
X83118491Y-98579364D01*
X83079964Y-98489308D01*
X83040694Y-98396321D01*
X83001908Y-98303320D01*
X82964830Y-98213223D01*
X82930689Y-98128948D01*
X82900708Y-98053413D01*
X82876116Y-97989534D01*
X82858136Y-97940231D01*
X82847997Y-97908421D01*
X82846366Y-97897496D01*
X82859291Y-97883561D01*
X82887589Y-97860940D01*
X82925346Y-97834333D01*
X82928515Y-97832228D01*
X83026100Y-97754114D01*
X83104786Y-97662982D01*
X83163891Y-97561745D01*
X83202732Y-97453318D01*
X83220628Y-97340614D01*
X83216897Y-97226548D01*
X83190857Y-97114034D01*
X83141825Y-97005985D01*
X83127400Y-96982345D01*
X83052369Y-96886887D01*
X82963730Y-96810232D01*
X82864549Y-96752780D01*
X82757895Y-96714929D01*
X82646836Y-96697078D01*
X82534439Y-96699625D01*
X82423773Y-96722970D01*
X82317906Y-96767510D01*
X82219905Y-96833645D01*
X82189590Y-96860487D01*
X82112438Y-96944512D01*
X82056218Y-97032966D01*
X82017653Y-97132115D01*
X81996174Y-97230303D01*
X81990872Y-97340697D01*
X82008552Y-97451640D01*
X82047419Y-97559381D01*
X82105677Y-97660169D01*
X82181531Y-97750256D01*
X82273183Y-97825892D01*
X82285228Y-97833864D01*
X82323389Y-97859974D01*
X82352399Y-97882595D01*
X82366268Y-97897039D01*
X82366469Y-97897496D01*
X82363492Y-97913121D01*
X82351689Y-97948582D01*
X82332286Y-98000962D01*
X82306512Y-98067345D01*
X82275591Y-98144814D01*
X82240751Y-98230450D01*
X82203217Y-98321337D01*
X82164217Y-98414559D01*
X82124977Y-98507197D01*
X82086724Y-98596335D01*
X82050683Y-98679055D01*
X82018083Y-98752441D01*
X81990148Y-98813575D01*
X81968105Y-98859541D01*
X81953182Y-98887421D01*
X81947172Y-98894743D01*
X81928809Y-98889041D01*
X81894448Y-98873749D01*
X81850016Y-98851599D01*
X81825583Y-98838650D01*
X81721822Y-98782547D01*
X81598213Y-98866155D01*
X81535114Y-98908987D01*
X81466030Y-98956122D01*
X81401293Y-99000503D01*
X81368866Y-99022852D01*
X81323259Y-99053477D01*
X81284640Y-99077747D01*
X81258048Y-99092587D01*
X81249410Y-99095724D01*
X81236839Y-99087261D01*
X81209016Y-99063636D01*
X81168639Y-99027302D01*
X81118405Y-98980711D01*
X81061012Y-98926317D01*
X81024714Y-98891392D01*
X80961210Y-98828996D01*
X80906327Y-98773188D01*
X80862286Y-98726354D01*
X80831305Y-98690882D01*
X80815602Y-98669161D01*
X80814095Y-98664752D01*
X80821086Y-98647985D01*
X80840406Y-98614082D01*
X80869909Y-98566476D01*
X80907455Y-98508599D01*
X80950900Y-98443884D01*
X80963255Y-98425842D01*
X81008273Y-98360267D01*
X81048660Y-98301228D01*
X81082160Y-98252042D01*
X81106514Y-98216028D01*
X81119464Y-98196502D01*
X81120715Y-98194483D01*
X81118844Y-98178922D01*
X81108913Y-98144709D01*
X81092653Y-98096355D01*
X81071795Y-98038371D01*
X81048073Y-97975270D01*
X81023216Y-97911563D01*
X80998958Y-97851761D01*
X80977029Y-97800376D01*
X80959162Y-97761919D01*
X80947087Y-97740902D01*
X80946229Y-97739894D01*
X80938846Y-97733888D01*
X80926375Y-97727948D01*
X80906080Y-97721460D01*
X80875222Y-97713809D01*
X80831066Y-97704380D01*
X80770874Y-97692559D01*
X80691907Y-97677729D01*
X80591430Y-97659277D01*
X80569675Y-97655310D01*
X80505198Y-97642853D01*
X80448989Y-97630666D01*
X80406013Y-97619926D01*
X80381240Y-97611809D01*
X80377918Y-97609916D01*
X80372444Y-97593138D01*
X80367994Y-97555645D01*
X80364572Y-97501794D01*
X80362181Y-97435944D01*
X80360823Y-97362453D01*
X80360501Y-97285680D01*
X80361219Y-97209983D01*
X80362979Y-97139720D01*
X80365784Y-97079250D01*
X80369638Y-97032930D01*
X80374543Y-97005119D01*
X80377500Y-96999427D01*
X80393963Y-96993686D01*
X80431449Y-96984345D01*
X80486225Y-96972215D01*
X80554555Y-96958107D01*
X80632706Y-96942830D01*
X80675284Y-96934823D01*
X80756071Y-96919721D01*
X80828113Y-96906040D01*
X80887889Y-96894467D01*
X80931879Y-96885687D01*
X80956561Y-96880387D01*
X80960623Y-96879212D01*
X80967489Y-96865965D01*
X80982002Y-96834057D01*
X81002229Y-96788047D01*
X81026234Y-96732492D01*
X81052082Y-96671953D01*
X81077840Y-96610986D01*
X81101573Y-96554151D01*
X81121346Y-96506006D01*
X81135224Y-96471110D01*
X81141274Y-96454021D01*
X81141386Y-96453274D01*
X81134528Y-96439793D01*
X81115302Y-96408770D01*
X81085728Y-96363289D01*
X81047827Y-96306432D01*
X81003620Y-96241283D01*
X80977921Y-96203862D01*
X80931093Y-96135247D01*
X80889501Y-96072952D01*
X80855175Y-96020129D01*
X80830143Y-95979927D01*
X80816435Y-95955500D01*
X80814456Y-95950024D01*
X80822966Y-95937278D01*
X80846493Y-95910063D01*
X80882032Y-95871428D01*
X80926577Y-95824423D01*
X80977123Y-95772095D01*
X81030664Y-95717495D01*
X81084195Y-95663670D01*
X81134711Y-95613670D01*
X81179206Y-95570543D01*
X81214675Y-95537339D01*
X81238113Y-95517106D01*
X81245954Y-95512278D01*
X81258720Y-95519067D01*
X81289256Y-95538142D01*
X81334590Y-95567561D01*
X81391756Y-95605381D01*
X81457784Y-95649661D01*
X81507590Y-95683395D01*
X81759236Y-95854512D01*
X81968999Y-95768041D01*
X82178763Y-95681570D01*
X82235611Y-95380018D01*
X82292460Y-95078466D01*
X82920115Y-95078466D01*
X82976964Y-95380018D01*
G36*
X83336663Y-100825244D02*
G01*
X83367624Y-100786580D01*
X83386376Y-100769864D01*
X83404733Y-100758878D01*
X83428619Y-100752180D01*
X83463957Y-100748326D01*
X83516669Y-100745873D01*
X83537577Y-100745168D01*
X83668812Y-100740879D01*
X83668620Y-100701158D01*
X83663537Y-100659405D01*
X83645162Y-100634158D01*
X83608039Y-100618030D01*
X83607043Y-100617742D01*
X83554410Y-100611400D01*
X83502906Y-100619684D01*
X83464630Y-100639827D01*
X83449272Y-100649773D01*
X83432730Y-100648397D01*
X83407275Y-100633987D01*
X83392328Y-100623817D01*
X83363091Y-100602088D01*
X83344980Y-100585800D01*
X83342074Y-100581137D01*
X83354040Y-100557005D01*
X83389396Y-100528185D01*
X83404753Y-100518461D01*
X83448901Y-100501714D01*
X83508398Y-100492227D01*
X83574487Y-100490095D01*
X83638411Y-100495417D01*
X83691411Y-100508290D01*
X83706731Y-100515110D01*
X83736428Y-100532974D01*
X83759220Y-100553093D01*
X83776083Y-100578962D01*
X83787998Y-100614073D01*
X83795942Y-100661920D01*
X83800894Y-100725996D01*
X83803831Y-100809794D01*
X83804947Y-100865768D01*
X83809052Y-101107822D01*
X83738932Y-101107822D01*
X83696393Y-101106038D01*
X83674476Y-101099942D01*
X83668812Y-101089706D01*
X83665821Y-101078637D01*
X83652451Y-101080754D01*
X83634233Y-101089629D01*
X83588624Y-101103233D01*
X83530007Y-101106899D01*
X83468354Y-101100903D01*
X83413638Y-101085521D01*
X83408730Y-101083386D01*
X83358723Y-101048255D01*
X83325756Y-100999419D01*
X83310587Y-100942333D01*
X83311746Y-100921824D01*
X83435508Y-100921824D01*
X83446413Y-100949425D01*
X83478745Y-100969204D01*
X83530910Y-100979819D01*
X83558787Y-100981228D01*
X83605247Y-100977620D01*
X83636129Y-100963597D01*
X83643664Y-100956931D01*
X83664076Y-100920666D01*
X83668812Y-100887773D01*
X83668812Y-100843763D01*
X83607513Y-100843763D01*
X83536256Y-100847395D01*
X83486276Y-100858818D01*
X83454696Y-100878824D01*
X83447626Y-100887743D01*
X83435508Y-100921824D01*
X83311746Y-100921824D01*
X83313971Y-100882456D01*
X83336663Y-100825244D01*
G37*
X83336663Y-100825244D02*
X83367624Y-100786580D01*
X83386376Y-100769864D01*
X83404733Y-100758878D01*
X83428619Y-100752180D01*
X83463957Y-100748326D01*
X83516669Y-100745873D01*
X83537577Y-100745168D01*
X83668812Y-100740879D01*
X83668620Y-100701158D01*
X83663537Y-100659405D01*
X83645162Y-100634158D01*
X83608039Y-100618030D01*
X83607043Y-100617742D01*
X83554410Y-100611400D01*
X83502906Y-100619684D01*
X83464630Y-100639827D01*
X83449272Y-100649773D01*
X83432730Y-100648397D01*
X83407275Y-100633987D01*
X83392328Y-100623817D01*
X83363091Y-100602088D01*
X83344980Y-100585800D01*
X83342074Y-100581137D01*
X83354040Y-100557005D01*
X83389396Y-100528185D01*
X83404753Y-100518461D01*
X83448901Y-100501714D01*
X83508398Y-100492227D01*
X83574487Y-100490095D01*
X83638411Y-100495417D01*
X83691411Y-100508290D01*
X83706731Y-100515110D01*
X83736428Y-100532974D01*
X83759220Y-100553093D01*
X83776083Y-100578962D01*
X83787998Y-100614073D01*
X83795942Y-100661920D01*
X83800894Y-100725996D01*
X83803831Y-100809794D01*
X83804947Y-100865768D01*
X83809052Y-101107822D01*
X83738932Y-101107822D01*
X83696393Y-101106038D01*
X83674476Y-101099942D01*
X83668812Y-101089706D01*
X83665821Y-101078637D01*
X83652451Y-101080754D01*
X83634233Y-101089629D01*
X83588624Y-101103233D01*
X83530007Y-101106899D01*
X83468354Y-101100903D01*
X83413638Y-101085521D01*
X83408730Y-101083386D01*
X83358723Y-101048255D01*
X83325756Y-100999419D01*
X83310587Y-100942333D01*
X83311746Y-100921824D01*
X83435508Y-100921824D01*
X83446413Y-100949425D01*
X83478745Y-100969204D01*
X83530910Y-100979819D01*
X83558787Y-100981228D01*
X83605247Y-100977620D01*
X83636129Y-100963597D01*
X83643664Y-100956931D01*
X83664076Y-100920666D01*
X83668812Y-100887773D01*
X83668812Y-100843763D01*
X83607513Y-100843763D01*
X83536256Y-100847395D01*
X83486276Y-100858818D01*
X83454696Y-100878824D01*
X83447626Y-100887743D01*
X83435508Y-100921824D01*
X83311746Y-100921824D01*
X83313971Y-100882456D01*
X83336663Y-100825244D01*
G36*
X80933962Y-99650025D02*
G01*
X80966193Y-99610639D01*
X81025783Y-99567931D01*
X81095832Y-99545109D01*
X81170339Y-99543046D01*
X81243301Y-99562614D01*
X81255832Y-99568514D01*
X81299201Y-99600283D01*
X81340210Y-99646646D01*
X81370832Y-99697696D01*
X81379541Y-99721166D01*
X81387488Y-99763091D01*
X81392226Y-99813757D01*
X81392801Y-99834679D01*
X81392871Y-99900693D01*
X81012917Y-99900693D01*
X81021017Y-99935273D01*
X81040896Y-99976170D01*
X81075653Y-100011514D01*
X81117002Y-100034282D01*
X81143351Y-100039010D01*
X81179084Y-100033273D01*
X81221718Y-100018882D01*
X81236201Y-100012262D01*
X81289760Y-99985513D01*
X81335467Y-100020376D01*
X81361842Y-100043955D01*
X81375876Y-100063417D01*
X81376586Y-100069129D01*
X81364049Y-100082973D01*
X81336572Y-100104012D01*
X81311634Y-100120425D01*
X81244336Y-100149930D01*
X81168890Y-100163284D01*
X81094112Y-100159812D01*
X81034505Y-100141663D01*
X80973059Y-100102784D01*
X80929392Y-100051595D01*
X80902074Y-99985367D01*
X80889678Y-99901371D01*
X80888579Y-99862936D01*
X80892978Y-99774861D01*
X80893518Y-99772299D01*
X81019418Y-99772299D01*
X81022885Y-99780558D01*
X81037137Y-99785113D01*
X81066530Y-99787065D01*
X81115425Y-99787517D01*
X81134252Y-99787525D01*
X81191533Y-99786843D01*
X81227859Y-99784364D01*
X81247396Y-99779443D01*
X81254310Y-99771434D01*
X81254555Y-99768862D01*
X81246664Y-99748423D01*
X81226915Y-99719789D01*
X81218425Y-99709763D01*
X81186906Y-99681408D01*
X81154051Y-99670259D01*
X81136349Y-99669327D01*
X81088461Y-99680981D01*
X81048301Y-99712285D01*
X81022827Y-99757752D01*
X81022375Y-99759233D01*
X81019418Y-99772299D01*
X80893518Y-99772299D01*
X80907608Y-99705510D01*
X80933962Y-99650025D01*
G37*
X80933962Y-99650025D02*
X80966193Y-99610639D01*
X81025783Y-99567931D01*
X81095832Y-99545109D01*
X81170339Y-99543046D01*
X81243301Y-99562614D01*
X81255832Y-99568514D01*
X81299201Y-99600283D01*
X81340210Y-99646646D01*
X81370832Y-99697696D01*
X81379541Y-99721166D01*
X81387488Y-99763091D01*
X81392226Y-99813757D01*
X81392801Y-99834679D01*
X81392871Y-99900693D01*
X81012917Y-99900693D01*
X81021017Y-99935273D01*
X81040896Y-99976170D01*
X81075653Y-100011514D01*
X81117002Y-100034282D01*
X81143351Y-100039010D01*
X81179084Y-100033273D01*
X81221718Y-100018882D01*
X81236201Y-100012262D01*
X81289760Y-99985513D01*
X81335467Y-100020376D01*
X81361842Y-100043955D01*
X81375876Y-100063417D01*
X81376586Y-100069129D01*
X81364049Y-100082973D01*
X81336572Y-100104012D01*
X81311634Y-100120425D01*
X81244336Y-100149930D01*
X81168890Y-100163284D01*
X81094112Y-100159812D01*
X81034505Y-100141663D01*
X80973059Y-100102784D01*
X80929392Y-100051595D01*
X80902074Y-99985367D01*
X80889678Y-99901371D01*
X80888579Y-99862936D01*
X80892978Y-99774861D01*
X80893518Y-99772299D01*
X81019418Y-99772299D01*
X81022885Y-99780558D01*
X81037137Y-99785113D01*
X81066530Y-99787065D01*
X81115425Y-99787517D01*
X81134252Y-99787525D01*
X81191533Y-99786843D01*
X81227859Y-99784364D01*
X81247396Y-99779443D01*
X81254310Y-99771434D01*
X81254555Y-99768862D01*
X81246664Y-99748423D01*
X81226915Y-99719789D01*
X81218425Y-99709763D01*
X81186906Y-99681408D01*
X81154051Y-99670259D01*
X81136349Y-99669327D01*
X81088461Y-99680981D01*
X81048301Y-99712285D01*
X81022827Y-99757752D01*
X81022375Y-99759233D01*
X81019418Y-99772299D01*
X80893518Y-99772299D01*
X80907608Y-99705510D01*
X80933962Y-99650025D01*
G36*
X80393218Y-99548614D02*
G01*
X80434740Y-99550256D01*
X80456162Y-99556087D01*
X80462374Y-99567461D01*
X80462376Y-99567798D01*
X80465258Y-99578938D01*
X80477970Y-99577673D01*
X80503243Y-99565433D01*
X80562131Y-99546707D01*
X80628385Y-99544739D01*
X80691241Y-99559184D01*
X80717753Y-99572282D01*
X80750447Y-99595106D01*
X80774275Y-99619996D01*
X80790594Y-99651249D01*
X80800760Y-99693166D01*
X80806128Y-99750044D01*
X80808056Y-99826184D01*
X80808169Y-99858917D01*
X80807839Y-99930656D01*
X80806473Y-99981927D01*
X80803500Y-100017404D01*
X80798351Y-100041763D01*
X80790457Y-100059680D01*
X80782243Y-100071902D01*
X80729813Y-100123905D01*
X80668070Y-100155184D01*
X80601464Y-100164592D01*
X80534442Y-100150980D01*
X80513208Y-100141354D01*
X80462376Y-100114859D01*
X80462376Y-100530052D01*
X80499475Y-100510868D01*
X80548357Y-100496025D01*
X80608439Y-100492222D01*
X80668436Y-100499243D01*
X80713744Y-100515013D01*
X80751325Y-100545047D01*
X80783436Y-100588024D01*
X80785850Y-100592436D01*
X80796033Y-100613221D01*
X80803470Y-100634170D01*
X80808589Y-100659548D01*
X80811819Y-100693618D01*
X80813587Y-100740641D01*
X80814323Y-100804882D01*
X80814456Y-100877176D01*
X80814456Y-101107822D01*
X80676139Y-101107822D01*
X80676139Y-100682533D01*
X80637451Y-100649979D01*
X80597262Y-100623940D01*
X80559203Y-100619205D01*
X80520934Y-100631389D01*
X80500538Y-100643320D01*
X80485358Y-100660313D01*
X80474562Y-100685995D01*
X80467317Y-100723991D01*
X80462792Y-100777926D01*
X80460156Y-100851425D01*
X80459228Y-100900347D01*
X80456089Y-101101535D01*
X80390074Y-101105336D01*
X80324060Y-101109136D01*
X80324060Y-99860650D01*
X80462376Y-99860650D01*
X80465903Y-99930254D01*
X80477785Y-99978569D01*
X80499980Y-100008631D01*
X80534441Y-100023471D01*
X80569258Y-100026436D01*
X80608671Y-100023028D01*
X80634829Y-100009617D01*
X80651186Y-99991896D01*
X80664063Y-99972835D01*
X80671728Y-99951601D01*
X80675139Y-99921849D01*
X80675251Y-99877236D01*
X80674103Y-99839880D01*
X80671468Y-99783604D01*
X80667544Y-99746658D01*
X80660937Y-99723223D01*
X80650251Y-99707480D01*
X80640167Y-99698380D01*
X80598030Y-99678537D01*
X80548160Y-99675332D01*
X80519524Y-99682168D01*
X80491172Y-99706464D01*
X80472391Y-99753728D01*
X80463288Y-99823624D01*
X80462376Y-99860650D01*
X80324060Y-99860650D01*
X80324060Y-99548614D01*
X80393218Y-99548614D01*
G37*
X80393218Y-99548614D02*
X80434740Y-99550256D01*
X80456162Y-99556087D01*
X80462374Y-99567461D01*
X80462376Y-99567798D01*
X80465258Y-99578938D01*
X80477970Y-99577673D01*
X80503243Y-99565433D01*
X80562131Y-99546707D01*
X80628385Y-99544739D01*
X80691241Y-99559184D01*
X80717753Y-99572282D01*
X80750447Y-99595106D01*
X80774275Y-99619996D01*
X80790594Y-99651249D01*
X80800760Y-99693166D01*
X80806128Y-99750044D01*
X80808056Y-99826184D01*
X80808169Y-99858917D01*
X80807839Y-99930656D01*
X80806473Y-99981927D01*
X80803500Y-100017404D01*
X80798351Y-100041763D01*
X80790457Y-100059680D01*
X80782243Y-100071902D01*
X80729813Y-100123905D01*
X80668070Y-100155184D01*
X80601464Y-100164592D01*
X80534442Y-100150980D01*
X80513208Y-100141354D01*
X80462376Y-100114859D01*
X80462376Y-100530052D01*
X80499475Y-100510868D01*
X80548357Y-100496025D01*
X80608439Y-100492222D01*
X80668436Y-100499243D01*
X80713744Y-100515013D01*
X80751325Y-100545047D01*
X80783436Y-100588024D01*
X80785850Y-100592436D01*
X80796033Y-100613221D01*
X80803470Y-100634170D01*
X80808589Y-100659548D01*
X80811819Y-100693618D01*
X80813587Y-100740641D01*
X80814323Y-100804882D01*
X80814456Y-100877176D01*
X80814456Y-101107822D01*
X80676139Y-101107822D01*
X80676139Y-100682533D01*
X80637451Y-100649979D01*
X80597262Y-100623940D01*
X80559203Y-100619205D01*
X80520934Y-100631389D01*
X80500538Y-100643320D01*
X80485358Y-100660313D01*
X80474562Y-100685995D01*
X80467317Y-100723991D01*
X80462792Y-100777926D01*
X80460156Y-100851425D01*
X80459228Y-100900347D01*
X80456089Y-101101535D01*
X80390074Y-101105336D01*
X80324060Y-101109136D01*
X80324060Y-99860650D01*
X80462376Y-99860650D01*
X80465903Y-99930254D01*
X80477785Y-99978569D01*
X80499980Y-100008631D01*
X80534441Y-100023471D01*
X80569258Y-100026436D01*
X80608671Y-100023028D01*
X80634829Y-100009617D01*
X80651186Y-99991896D01*
X80664063Y-99972835D01*
X80671728Y-99951601D01*
X80675139Y-99921849D01*
X80675251Y-99877236D01*
X80674103Y-99839880D01*
X80671468Y-99783604D01*
X80667544Y-99746658D01*
X80660937Y-99723223D01*
X80650251Y-99707480D01*
X80640167Y-99698380D01*
X80598030Y-99678537D01*
X80548160Y-99675332D01*
X80519524Y-99682168D01*
X80491172Y-99706464D01*
X80472391Y-99753728D01*
X80463288Y-99823624D01*
X80462376Y-99860650D01*
X80324060Y-99860650D01*
X80324060Y-99548614D01*
X80393218Y-99548614D01*
G36*
X84399460Y-99548030D02*
G01*
X84442711Y-99561245D01*
X84470558Y-99577941D01*
X84479629Y-99591145D01*
X84477132Y-99606797D01*
X84460931Y-99631385D01*
X84447232Y-99648800D01*
X84418992Y-99680283D01*
X84397775Y-99693529D01*
X84379688Y-99692664D01*
X84326035Y-99679010D01*
X84286630Y-99679630D01*
X84254632Y-99695104D01*
X84243890Y-99704161D01*
X84209505Y-99736027D01*
X84209505Y-100152179D01*
X84071188Y-100152179D01*
X84071188Y-99548614D01*
X84140347Y-99548614D01*
X84181869Y-99550256D01*
X84203291Y-99556087D01*
X84209502Y-99567461D01*
X84209505Y-99567798D01*
X84212439Y-99579713D01*
X84225704Y-99578159D01*
X84244084Y-99569563D01*
X84282046Y-99553568D01*
X84312872Y-99543945D01*
X84352536Y-99541478D01*
X84399460Y-99548030D01*
G37*
X84399460Y-99548030D02*
X84442711Y-99561245D01*
X84470558Y-99577941D01*
X84479629Y-99591145D01*
X84477132Y-99606797D01*
X84460931Y-99631385D01*
X84447232Y-99648800D01*
X84418992Y-99680283D01*
X84397775Y-99693529D01*
X84379688Y-99692664D01*
X84326035Y-99679010D01*
X84286630Y-99679630D01*
X84254632Y-99695104D01*
X84243890Y-99704161D01*
X84209505Y-99736027D01*
X84209505Y-100152179D01*
X84071188Y-100152179D01*
X84071188Y-99548614D01*
X84140347Y-99548614D01*
X84181869Y-99550256D01*
X84203291Y-99556087D01*
X84209502Y-99567461D01*
X84209505Y-99567798D01*
X84212439Y-99579713D01*
X84225704Y-99578159D01*
X84244084Y-99569563D01*
X84282046Y-99553568D01*
X84312872Y-99543945D01*
X84352536Y-99541478D01*
X84399460Y-99548030D01*
G36*
X82614017Y-99546452D02*
G01*
X82661634Y-99555482D01*
X82711034Y-99574370D01*
X82716312Y-99576777D01*
X82753774Y-99596476D01*
X82779717Y-99614781D01*
X82788103Y-99626508D01*
X82780117Y-99645632D01*
X82760720Y-99673850D01*
X82752110Y-99684384D01*
X82716628Y-99725847D01*
X82670885Y-99698858D01*
X82627350Y-99680878D01*
X82577050Y-99671267D01*
X82528812Y-99670660D01*
X82491467Y-99679691D01*
X82482505Y-99685327D01*
X82465437Y-99711171D01*
X82463363Y-99740941D01*
X82476134Y-99764197D01*
X82483688Y-99768708D01*
X82506325Y-99774309D01*
X82546115Y-99780892D01*
X82595166Y-99787183D01*
X82604215Y-99788170D01*
X82682996Y-99801798D01*
X82740136Y-99824946D01*
X82778030Y-99859752D01*
X82799079Y-99908354D01*
X82805635Y-99967718D01*
X82796577Y-100035198D01*
X82767164Y-100088188D01*
X82717278Y-100126783D01*
X82646800Y-100151081D01*
X82568565Y-100160667D01*
X82504766Y-100160552D01*
X82453016Y-100151845D01*
X82417673Y-100139825D01*
X82373017Y-100118880D01*
X82331747Y-100094574D01*
X82317079Y-100083876D01*
X82279357Y-100053084D01*
X82324852Y-100007049D01*
X82370347Y-99961013D01*
X82422072Y-99995243D01*
X82473952Y-100020952D01*
X82529351Y-100034399D01*
X82582605Y-100035818D01*
X82628049Y-100025443D01*
X82660016Y-100003507D01*
X82670338Y-99984998D01*
X82668789Y-99955314D01*
X82643140Y-99932615D01*
X82593460Y-99916940D01*
X82539031Y-99909695D01*
X82455264Y-99895873D01*
X82393033Y-99869796D01*
X82351507Y-99830699D01*
X82329853Y-99777820D01*
X82326853Y-99715126D01*
X82341671Y-99649642D01*
X82375454Y-99600144D01*
X82428505Y-99566408D01*
X82501126Y-99548207D01*
X82554928Y-99544639D01*
X82614017Y-99546452D01*
G37*
X82614017Y-99546452D02*
X82661634Y-99555482D01*
X82711034Y-99574370D01*
X82716312Y-99576777D01*
X82753774Y-99596476D01*
X82779717Y-99614781D01*
X82788103Y-99626508D01*
X82780117Y-99645632D01*
X82760720Y-99673850D01*
X82752110Y-99684384D01*
X82716628Y-99725847D01*
X82670885Y-99698858D01*
X82627350Y-99680878D01*
X82577050Y-99671267D01*
X82528812Y-99670660D01*
X82491467Y-99679691D01*
X82482505Y-99685327D01*
X82465437Y-99711171D01*
X82463363Y-99740941D01*
X82476134Y-99764197D01*
X82483688Y-99768708D01*
X82506325Y-99774309D01*
X82546115Y-99780892D01*
X82595166Y-99787183D01*
X82604215Y-99788170D01*
X82682996Y-99801798D01*
X82740136Y-99824946D01*
X82778030Y-99859752D01*
X82799079Y-99908354D01*
X82805635Y-99967718D01*
X82796577Y-100035198D01*
X82767164Y-100088188D01*
X82717278Y-100126783D01*
X82646800Y-100151081D01*
X82568565Y-100160667D01*
X82504766Y-100160552D01*
X82453016Y-100151845D01*
X82417673Y-100139825D01*
X82373017Y-100118880D01*
X82331747Y-100094574D01*
X82317079Y-100083876D01*
X82279357Y-100053084D01*
X82324852Y-100007049D01*
X82370347Y-99961013D01*
X82422072Y-99995243D01*
X82473952Y-100020952D01*
X82529351Y-100034399D01*
X82582605Y-100035818D01*
X82628049Y-100025443D01*
X82660016Y-100003507D01*
X82670338Y-99984998D01*
X82668789Y-99955314D01*
X82643140Y-99932615D01*
X82593460Y-99916940D01*
X82539031Y-99909695D01*
X82455264Y-99895873D01*
X82393033Y-99869796D01*
X82351507Y-99830699D01*
X82329853Y-99777820D01*
X82326853Y-99715126D01*
X82341671Y-99649642D01*
X82375454Y-99600144D01*
X82428505Y-99566408D01*
X82501126Y-99548207D01*
X82554928Y-99544639D01*
X82614017Y-99546452D01*
G36*
X81910336Y-100752563D02*
G01*
X81916486Y-100670981D01*
X81929267Y-100609730D01*
X81950529Y-100564449D01*
X81982122Y-100530779D01*
X82012793Y-100511014D01*
X82055646Y-100497120D01*
X82108944Y-100492354D01*
X82163520Y-100496236D01*
X82210208Y-100508282D01*
X82234876Y-100522693D01*
X82260495Y-100545878D01*
X82260495Y-100252773D01*
X82398812Y-100252773D01*
X82398812Y-101107822D01*
X82329654Y-101107822D01*
X82289512Y-101106645D01*
X82268606Y-101101772D01*
X82261078Y-101091186D01*
X82260495Y-101084029D01*
X82259226Y-101069676D01*
X82251221Y-101066923D01*
X82230185Y-101075771D01*
X82213827Y-101084029D01*
X82151023Y-101103597D01*
X82082752Y-101104729D01*
X82027248Y-101090135D01*
X81975562Y-101054877D01*
X81936162Y-101002835D01*
X81914587Y-100941450D01*
X81914038Y-100938018D01*
X81910833Y-100900571D01*
X81909239Y-100846813D01*
X81909367Y-100806155D01*
X82046721Y-100806155D01*
X82049903Y-100860194D01*
X82057141Y-100904735D01*
X82066940Y-100929888D01*
X82104011Y-100964260D01*
X82148026Y-100976582D01*
X82193416Y-100966618D01*
X82232203Y-100936895D01*
X82246892Y-100916905D01*
X82255481Y-100893050D01*
X82259504Y-100858230D01*
X82260495Y-100805930D01*
X82258722Y-100754139D01*
X82254037Y-100708634D01*
X82247397Y-100678181D01*
X82246290Y-100675452D01*
X82219509Y-100643000D01*
X82180421Y-100625183D01*
X82136685Y-100622306D01*
X82095962Y-100634674D01*
X82065913Y-100662593D01*
X82062796Y-100668148D01*
X82053039Y-100702022D01*
X82047723Y-100750728D01*
X82046721Y-100806155D01*
X81909367Y-100806155D01*
X81909432Y-100785540D01*
X81910336Y-100752563D01*
G37*
X81910336Y-100752563D02*
X81916486Y-100670981D01*
X81929267Y-100609730D01*
X81950529Y-100564449D01*
X81982122Y-100530779D01*
X82012793Y-100511014D01*
X82055646Y-100497120D01*
X82108944Y-100492354D01*
X82163520Y-100496236D01*
X82210208Y-100508282D01*
X82234876Y-100522693D01*
X82260495Y-100545878D01*
X82260495Y-100252773D01*
X82398812Y-100252773D01*
X82398812Y-101107822D01*
X82329654Y-101107822D01*
X82289512Y-101106645D01*
X82268606Y-101101772D01*
X82261078Y-101091186D01*
X82260495Y-101084029D01*
X82259226Y-101069676D01*
X82251221Y-101066923D01*
X82230185Y-101075771D01*
X82213827Y-101084029D01*
X82151023Y-101103597D01*
X82082752Y-101104729D01*
X82027248Y-101090135D01*
X81975562Y-101054877D01*
X81936162Y-101002835D01*
X81914587Y-100941450D01*
X81914038Y-100938018D01*
X81910833Y-100900571D01*
X81909239Y-100846813D01*
X81909367Y-100806155D01*
X82046721Y-100806155D01*
X82049903Y-100860194D01*
X82057141Y-100904735D01*
X82066940Y-100929888D01*
X82104011Y-100964260D01*
X82148026Y-100976582D01*
X82193416Y-100966618D01*
X82232203Y-100936895D01*
X82246892Y-100916905D01*
X82255481Y-100893050D01*
X82259504Y-100858230D01*
X82260495Y-100805930D01*
X82258722Y-100754139D01*
X82254037Y-100708634D01*
X82247397Y-100678181D01*
X82246290Y-100675452D01*
X82219509Y-100643000D01*
X82180421Y-100625183D01*
X82136685Y-100622306D01*
X82095962Y-100634674D01*
X82065913Y-100662593D01*
X82062796Y-100668148D01*
X82053039Y-100702022D01*
X82047723Y-100750728D01*
X82046721Y-100806155D01*
X81909367Y-100806155D01*
X81909432Y-100785540D01*
X81910336Y-100752563D01*
G36*
X84235255Y-100491486D02*
G01*
X84283595Y-100501015D01*
X84311114Y-100515125D01*
X84340064Y-100538568D01*
X84298876Y-100590571D01*
X84273482Y-100622064D01*
X84256238Y-100637428D01*
X84239102Y-100639776D01*
X84214027Y-100632217D01*
X84202257Y-100627941D01*
X84154270Y-100621631D01*
X84110324Y-100635156D01*
X84078060Y-100665710D01*
X84072819Y-100675452D01*
X84067112Y-100701258D01*
X84062706Y-100748817D01*
X84059811Y-100814758D01*
X84058631Y-100895710D01*
X84058614Y-100907226D01*
X84058614Y-101107822D01*
X83920297Y-101107822D01*
X83920297Y-100491683D01*
X83989456Y-100491683D01*
X84029333Y-100492725D01*
X84050107Y-100497358D01*
X84057789Y-100507849D01*
X84058614Y-100517745D01*
X84058614Y-100543806D01*
X84091745Y-100517745D01*
X84129735Y-100499965D01*
X84180770Y-100491174D01*
X84235255Y-100491486D01*
G37*
X84235255Y-100491486D02*
X84283595Y-100501015D01*
X84311114Y-100515125D01*
X84340064Y-100538568D01*
X84298876Y-100590571D01*
X84273482Y-100622064D01*
X84256238Y-100637428D01*
X84239102Y-100639776D01*
X84214027Y-100632217D01*
X84202257Y-100627941D01*
X84154270Y-100621631D01*
X84110324Y-100635156D01*
X84078060Y-100665710D01*
X84072819Y-100675452D01*
X84067112Y-100701258D01*
X84062706Y-100748817D01*
X84059811Y-100814758D01*
X84058631Y-100895710D01*
X84058614Y-100907226D01*
X84058614Y-101107822D01*
X83920297Y-101107822D01*
X83920297Y-100491683D01*
X83989456Y-100491683D01*
X84029333Y-100492725D01*
X84050107Y-100497358D01*
X84057789Y-100507849D01*
X84058614Y-100517745D01*
X84058614Y-100543806D01*
X84091745Y-100517745D01*
X84129735Y-100499965D01*
X84180770Y-100491174D01*
X84235255Y-100491486D01*
G36*
X80919290Y-100813845D02*
G01*
X80963052Y-100771647D01*
X80969101Y-100767808D01*
X80995093Y-100755309D01*
X81027265Y-100747740D01*
X81072240Y-100744061D01*
X81125669Y-100743216D01*
X81241980Y-100743169D01*
X81241980Y-100694411D01*
X81237047Y-100656581D01*
X81224457Y-100631236D01*
X81222983Y-100629887D01*
X81194966Y-100618800D01*
X81152674Y-100614503D01*
X81105936Y-100616615D01*
X81064582Y-100624756D01*
X81040043Y-100636965D01*
X81026747Y-100646746D01*
X81012706Y-100648613D01*
X80993329Y-100640600D01*
X80964024Y-100620739D01*
X80920197Y-100587063D01*
X80916175Y-100583909D01*
X80918236Y-100572236D01*
X80935432Y-100552822D01*
X80961567Y-100531248D01*
X80990448Y-100513096D01*
X80999522Y-100508809D01*
X81032620Y-100500256D01*
X81081120Y-100494155D01*
X81135305Y-100491708D01*
X81137839Y-100491703D01*
X81215790Y-100496555D01*
X81274945Y-100512339D01*
X81319977Y-100540948D01*
X81351754Y-100578419D01*
X81361634Y-100594411D01*
X81368927Y-100611163D01*
X81374026Y-100632592D01*
X81377321Y-100662616D01*
X81379203Y-100705154D01*
X81380063Y-100764122D01*
X81380293Y-100843440D01*
X81380297Y-100864484D01*
X81380297Y-101107822D01*
X81319941Y-101107822D01*
X81281443Y-101105126D01*
X81252977Y-101098295D01*
X81245845Y-101094083D01*
X81226348Y-101086813D01*
X81206434Y-101094083D01*
X81173647Y-101103160D01*
X81126022Y-101106813D01*
X81073236Y-101105228D01*
X81024964Y-101098589D01*
X80996782Y-101090072D01*
X80942247Y-101055063D01*
X80908165Y-101006479D01*
X80892843Y-100941882D01*
X80892701Y-100940223D01*
X80894045Y-100911566D01*
X81015644Y-100911566D01*
X81026274Y-100944161D01*
X81043590Y-100962505D01*
X81078348Y-100976379D01*
X81124227Y-100981917D01*
X81171012Y-100979191D01*
X81208486Y-100968274D01*
X81218985Y-100961269D01*
X81237332Y-100928904D01*
X81241980Y-100892111D01*
X81241980Y-100843763D01*
X81172418Y-100843763D01*
X81106333Y-100848850D01*
X81056236Y-100863263D01*
X81025071Y-100885729D01*
X81015644Y-100911566D01*
X80894045Y-100911566D01*
X80896013Y-100869647D01*
X80919290Y-100813845D01*
G37*
X80919290Y-100813845D02*
X80963052Y-100771647D01*
X80969101Y-100767808D01*
X80995093Y-100755309D01*
X81027265Y-100747740D01*
X81072240Y-100744061D01*
X81125669Y-100743216D01*
X81241980Y-100743169D01*
X81241980Y-100694411D01*
X81237047Y-100656581D01*
X81224457Y-100631236D01*
X81222983Y-100629887D01*
X81194966Y-100618800D01*
X81152674Y-100614503D01*
X81105936Y-100616615D01*
X81064582Y-100624756D01*
X81040043Y-100636965D01*
X81026747Y-100646746D01*
X81012706Y-100648613D01*
X80993329Y-100640600D01*
X80964024Y-100620739D01*
X80920197Y-100587063D01*
X80916175Y-100583909D01*
X80918236Y-100572236D01*
X80935432Y-100552822D01*
X80961567Y-100531248D01*
X80990448Y-100513096D01*
X80999522Y-100508809D01*
X81032620Y-100500256D01*
X81081120Y-100494155D01*
X81135305Y-100491708D01*
X81137839Y-100491703D01*
X81215790Y-100496555D01*
X81274945Y-100512339D01*
X81319977Y-100540948D01*
X81351754Y-100578419D01*
X81361634Y-100594411D01*
X81368927Y-100611163D01*
X81374026Y-100632592D01*
X81377321Y-100662616D01*
X81379203Y-100705154D01*
X81380063Y-100764122D01*
X81380293Y-100843440D01*
X81380297Y-100864484D01*
X81380297Y-101107822D01*
X81319941Y-101107822D01*
X81281443Y-101105126D01*
X81252977Y-101098295D01*
X81245845Y-101094083D01*
X81226348Y-101086813D01*
X81206434Y-101094083D01*
X81173647Y-101103160D01*
X81126022Y-101106813D01*
X81073236Y-101105228D01*
X81024964Y-101098589D01*
X80996782Y-101090072D01*
X80942247Y-101055063D01*
X80908165Y-101006479D01*
X80892843Y-100941882D01*
X80892701Y-100940223D01*
X80894045Y-100911566D01*
X81015644Y-100911566D01*
X81026274Y-100944161D01*
X81043590Y-100962505D01*
X81078348Y-100976379D01*
X81124227Y-100981917D01*
X81171012Y-100979191D01*
X81208486Y-100968274D01*
X81218985Y-100961269D01*
X81237332Y-100928904D01*
X81241980Y-100892111D01*
X81241980Y-100843763D01*
X81172418Y-100843763D01*
X81106333Y-100848850D01*
X81056236Y-100863263D01*
X81025071Y-100885729D01*
X81015644Y-100911566D01*
X80894045Y-100911566D01*
X80896013Y-100869647D01*
X80919290Y-100813845D01*
G36*
X82881524Y-100494237D02*
G01*
X82931255Y-100497971D01*
X83061291Y-100887773D01*
X83081678Y-100818614D01*
X83093946Y-100775874D01*
X83110085Y-100718115D01*
X83127512Y-100654625D01*
X83136726Y-100620570D01*
X83171388Y-100491683D01*
X83314391Y-100491683D01*
X83271646Y-100626857D01*
X83250596Y-100693342D01*
X83225167Y-100773539D01*
X83198610Y-100857193D01*
X83174902Y-100931782D01*
X83120902Y-101101535D01*
X83062598Y-101105328D01*
X83004295Y-101109122D01*
X82972679Y-101004734D01*
X82953182Y-100939889D01*
X82931904Y-100868400D01*
X82913308Y-100805263D01*
X82912574Y-100802750D01*
X82898684Y-100759969D01*
X82886429Y-100730779D01*
X82877846Y-100719741D01*
X82876082Y-100721018D01*
X82869891Y-100738130D01*
X82858128Y-100774787D01*
X82842225Y-100826378D01*
X82823614Y-100888294D01*
X82813543Y-100922352D01*
X82759007Y-101107822D01*
X82643264Y-101107822D01*
X82550737Y-100815471D01*
X82524744Y-100733462D01*
X82501066Y-100658987D01*
X82480820Y-100595544D01*
X82465126Y-100546632D01*
X82455102Y-100515749D01*
X82452055Y-100506726D01*
X82454467Y-100497487D01*
X82473408Y-100493441D01*
X82512823Y-100493846D01*
X82518993Y-100494152D01*
X82592086Y-100497971D01*
X82639957Y-100674010D01*
X82657553Y-100738211D01*
X82673277Y-100794649D01*
X82685746Y-100838422D01*
X82693574Y-100864630D01*
X82695020Y-100868903D01*
X82701014Y-100863990D01*
X82713101Y-100838532D01*
X82729893Y-100795997D01*
X82750003Y-100739850D01*
X82767003Y-100689130D01*
X82831794Y-100490504D01*
X82881524Y-100494237D01*
G37*
X82881524Y-100494237D02*
X82931255Y-100497971D01*
X83061291Y-100887773D01*
X83081678Y-100818614D01*
X83093946Y-100775874D01*
X83110085Y-100718115D01*
X83127512Y-100654625D01*
X83136726Y-100620570D01*
X83171388Y-100491683D01*
X83314391Y-100491683D01*
X83271646Y-100626857D01*
X83250596Y-100693342D01*
X83225167Y-100773539D01*
X83198610Y-100857193D01*
X83174902Y-100931782D01*
X83120902Y-101101535D01*
X83062598Y-101105328D01*
X83004295Y-101109122D01*
X82972679Y-101004734D01*
X82953182Y-100939889D01*
X82931904Y-100868400D01*
X82913308Y-100805263D01*
X82912574Y-100802750D01*
X82898684Y-100759969D01*
X82886429Y-100730779D01*
X82877846Y-100719741D01*
X82876082Y-100721018D01*
X82869891Y-100738130D01*
X82858128Y-100774787D01*
X82842225Y-100826378D01*
X82823614Y-100888294D01*
X82813543Y-100922352D01*
X82759007Y-101107822D01*
X82643264Y-101107822D01*
X82550737Y-100815471D01*
X82524744Y-100733462D01*
X82501066Y-100658987D01*
X82480820Y-100595544D01*
X82465126Y-100546632D01*
X82455102Y-100515749D01*
X82452055Y-100506726D01*
X82454467Y-100497487D01*
X82473408Y-100493441D01*
X82512823Y-100493846D01*
X82518993Y-100494152D01*
X82592086Y-100497971D01*
X82639957Y-100674010D01*
X82657553Y-100738211D01*
X82673277Y-100794649D01*
X82685746Y-100838422D01*
X82693574Y-100864630D01*
X82695020Y-100868903D01*
X82701014Y-100863990D01*
X82713101Y-100838532D01*
X82729893Y-100795997D01*
X82750003Y-100739850D01*
X82767003Y-100689130D01*
X82831794Y-100490504D01*
X82881524Y-100494237D01*
G36*
X79736052Y-99748056D02*
G01*
X79743638Y-99704007D01*
X79757319Y-99669248D01*
X79778135Y-99638551D01*
X79785853Y-99629436D01*
X79834111Y-99584021D01*
X79885872Y-99557493D01*
X79949172Y-99546379D01*
X79980039Y-99545471D01*
X80061739Y-99555148D01*
X80127521Y-99584231D01*
X80177460Y-99632793D01*
X80211626Y-99700908D01*
X80230093Y-99788651D01*
X80231417Y-99802351D01*
X80232454Y-99898939D01*
X80219007Y-99983602D01*
X80191892Y-100052221D01*
X80177373Y-100074294D01*
X80126799Y-100121011D01*
X80062391Y-100151268D01*
X79990334Y-100163824D01*
X79916815Y-100157439D01*
X79860928Y-100137772D01*
X79812868Y-100104629D01*
X79773588Y-100061175D01*
X79772908Y-100060158D01*
X79756956Y-100033338D01*
X79746590Y-100006368D01*
X79740312Y-99972332D01*
X79736627Y-99924310D01*
X79735003Y-99884931D01*
X79734328Y-99849219D01*
X79860045Y-99849219D01*
X79861274Y-99884770D01*
X79865734Y-99932094D01*
X79873603Y-99962465D01*
X79887793Y-99984072D01*
X79901083Y-99996694D01*
X79948198Y-100023122D01*
X79997495Y-100026653D01*
X80043407Y-100007639D01*
X80066362Y-99986331D01*
X80082904Y-99964859D01*
X80092579Y-99944313D01*
X80096826Y-99917574D01*
X80097080Y-99877523D01*
X80095772Y-99840638D01*
X80092957Y-99787947D01*
X80088495Y-99753772D01*
X80080452Y-99731480D01*
X80066897Y-99714442D01*
X80056155Y-99704703D01*
X80011223Y-99679123D01*
X79962751Y-99677847D01*
X79922106Y-99692999D01*
X79887433Y-99724642D01*
X79866776Y-99776620D01*
X79860045Y-99849219D01*
X79734328Y-99849219D01*
X79733521Y-99806621D01*
X79736052Y-99748056D01*
G37*
X79736052Y-99748056D02*
X79743638Y-99704007D01*
X79757319Y-99669248D01*
X79778135Y-99638551D01*
X79785853Y-99629436D01*
X79834111Y-99584021D01*
X79885872Y-99557493D01*
X79949172Y-99546379D01*
X79980039Y-99545471D01*
X80061739Y-99555148D01*
X80127521Y-99584231D01*
X80177460Y-99632793D01*
X80211626Y-99700908D01*
X80230093Y-99788651D01*
X80231417Y-99802351D01*
X80232454Y-99898939D01*
X80219007Y-99983602D01*
X80191892Y-100052221D01*
X80177373Y-100074294D01*
X80126799Y-100121011D01*
X80062391Y-100151268D01*
X79990334Y-100163824D01*
X79916815Y-100157439D01*
X79860928Y-100137772D01*
X79812868Y-100104629D01*
X79773588Y-100061175D01*
X79772908Y-100060158D01*
X79756956Y-100033338D01*
X79746590Y-100006368D01*
X79740312Y-99972332D01*
X79736627Y-99924310D01*
X79735003Y-99884931D01*
X79734328Y-99849219D01*
X79860045Y-99849219D01*
X79861274Y-99884770D01*
X79865734Y-99932094D01*
X79873603Y-99962465D01*
X79887793Y-99984072D01*
X79901083Y-99996694D01*
X79948198Y-100023122D01*
X79997495Y-100026653D01*
X80043407Y-100007639D01*
X80066362Y-99986331D01*
X80082904Y-99964859D01*
X80092579Y-99944313D01*
X80096826Y-99917574D01*
X80097080Y-99877523D01*
X80095772Y-99840638D01*
X80092957Y-99787947D01*
X80088495Y-99753772D01*
X80080452Y-99731480D01*
X80066897Y-99714442D01*
X80056155Y-99704703D01*
X80011223Y-99679123D01*
X79962751Y-99677847D01*
X79922106Y-99692999D01*
X79887433Y-99724642D01*
X79866776Y-99776620D01*
X79860045Y-99849219D01*
X79734328Y-99849219D01*
X79733521Y-99806621D01*
X79736052Y-99748056D01*
D12*
%TO.C,SW5*%
X102370000Y-50660000D02*
X102370000Y-46160000D01*
X95870000Y-46160000D02*
X95870000Y-50660000D01*
X98370000Y-51910000D02*
X99870000Y-51910000D01*
X99870000Y-44910000D02*
X98370000Y-44910000D01*
%TO.C,SW4*%
X102310000Y-61360000D02*
X102310000Y-56860000D01*
X95810000Y-56860000D02*
X95810000Y-61360000D01*
X98310000Y-62610000D02*
X99810000Y-62610000D01*
X99810000Y-55610000D02*
X98310000Y-55610000D01*
%TO.C,SW3*%
X102337500Y-71765000D02*
X102337500Y-67265000D01*
X95837500Y-67265000D02*
X95837500Y-71765000D01*
X98337500Y-73015000D02*
X99837500Y-73015000D01*
X99837500Y-66015000D02*
X98337500Y-66015000D01*
%TO.C,SW2*%
X102337500Y-82295000D02*
X102337500Y-77795000D01*
X95837500Y-77795000D02*
X95837500Y-82295000D01*
X98337500Y-83545000D02*
X99837500Y-83545000D01*
X99837500Y-76545000D02*
X98337500Y-76545000D01*
%TO.C,SW1*%
X102337500Y-93165000D02*
X102337500Y-88665000D01*
X95837500Y-88665000D02*
X95837500Y-93165000D01*
X98337500Y-94415000D02*
X99837500Y-94415000D01*
X99837500Y-87415000D02*
X98337500Y-87415000D01*
%TD*%
M02*
