M48
; DRILL file {KiCad 6.0.10-86aedd382b~118~ubuntu22.04.1} date So 08 Jan 2023 16:40:54 CET
; FORMAT={-:-/ absolute / metric / decimal}
; #@! TF.CreationDate,2023-01-08T16:40:54+01:00
; #@! TF.GenerationSoftware,Kicad,Pcbnew,6.0.10-86aedd382b~118~ubuntu22.04.1
; #@! TF.FileFunction,Plated,1,2,PTH
FMAT,2
METRIC
; #@! TA.AperFunction,Plated,PTH,ComponentDrill
T1C0.500
; #@! TA.AperFunction,Plated,PTH,ComponentDrill
T2C1.000
; #@! TA.AperFunction,Plated,PTH,ComponentDrill
T3C1.100
; #@! TA.AperFunction,Plated,PTH,ComponentDrill
T4C2.700
%
G90
G05
T1
X57.385Y-39.51
X57.405Y-97.64
X57.978Y-38.078
X57.978Y-40.942
X57.998Y-96.208
X57.998Y-99.072
X59.41Y-37.485
X59.41Y-41.535
X59.43Y-95.615
X59.43Y-99.665
X60.842Y-38.078
X60.842Y-40.942
X60.862Y-96.208
X60.862Y-99.072
X61.435Y-39.51
X61.455Y-97.64
X106.275Y-97.67
X106.295Y-39.46
X106.868Y-96.238
X106.868Y-99.102
X106.888Y-38.028
X106.888Y-40.892
X108.3Y-95.645
X108.3Y-99.695
X108.32Y-37.435
X108.32Y-41.485
X109.732Y-96.238
X109.732Y-99.102
X109.752Y-38.028
X109.752Y-40.892
X110.325Y-97.67
X110.345Y-39.46
T2
X106.92Y-44.43
X106.92Y-46.97
X106.92Y-49.51
X106.92Y-52.05
X106.92Y-54.59
X106.92Y-57.13
X106.92Y-59.67
X106.92Y-62.21
X106.92Y-64.75
X106.92Y-67.29
X106.92Y-69.83
X106.92Y-72.37
X106.92Y-74.91
X106.92Y-77.45
X106.92Y-79.99
X106.92Y-82.53
X106.92Y-85.07
X106.92Y-87.61
X106.92Y-90.15
X106.92Y-92.69
X109.46Y-44.43
X109.46Y-46.97
X109.46Y-49.51
X109.46Y-52.05
X109.46Y-54.59
X109.46Y-57.13
X109.46Y-59.67
X109.46Y-62.21
X109.46Y-64.75
X109.46Y-67.29
X109.46Y-69.83
X109.46Y-72.37
X109.46Y-74.91
X109.46Y-77.45
X109.46Y-79.99
X109.46Y-82.53
X109.46Y-85.07
X109.46Y-87.61
X109.46Y-90.15
X109.46Y-92.69
T3
X96.81Y-55.86
X96.81Y-62.36
X96.837Y-66.265
X96.837Y-72.765
X96.837Y-76.795
X96.837Y-83.295
X96.837Y-87.665
X96.837Y-94.165
X96.87Y-45.16
X96.87Y-51.66
X101.31Y-55.86
X101.31Y-62.36
X101.337Y-66.265
X101.337Y-72.765
X101.337Y-76.795
X101.337Y-83.295
X101.337Y-87.665
X101.337Y-94.165
X101.37Y-45.16
X101.37Y-51.66
T4
X59.41Y-39.51
X59.43Y-97.64
X108.3Y-97.67
X108.32Y-39.46
T0
M30
