%TF.GenerationSoftware,KiCad,Pcbnew,6.0.10-86aedd382b~118~ubuntu22.04.1*%
%TF.CreationDate,2023-01-08T16:41:25+01:00*%
%TF.ProjectId,bcp,6263702e-6b69-4636-9164-5f7063625858,rev?*%
%TF.SameCoordinates,Original*%
%TF.FileFunction,Profile,NP*%
%FSLAX46Y46*%
G04 Gerber Fmt 4.6, Leading zero omitted, Abs format (unit mm)*
G04 Created by KiCad (PCBNEW 6.0.10-86aedd382b~118~ubuntu22.04.1) date 2023-01-08 16:41:25*
%MOMM*%
%LPD*%
G01*
G04 APERTURE LIST*
%TA.AperFunction,Profile*%
%ADD10C,0.100000*%
%TD*%
G04 APERTURE END LIST*
D10*
X76082077Y-87502840D02*
G75*
G03*
X77976196Y-85600909I2220J1891924D01*
G01*
X56739999Y-85360000D02*
G75*
G03*
X58863767Y-87502841I2121687J-21051D01*
G01*
X77980000Y-80530000D02*
X77976196Y-85600909D01*
X56740000Y-80560000D02*
X56740000Y-85360000D01*
X58610000Y-78700000D02*
G75*
G03*
X56740000Y-80560000I9909J-1879989D01*
G01*
X77979999Y-80530000D02*
G75*
G03*
X76080000Y-78720000I-1880954J-72245D01*
G01*
X58863767Y-87502841D02*
X76082077Y-87502841D01*
X58610000Y-78700000D02*
X76080000Y-78720000D01*
X92822077Y-42271930D02*
G75*
G03*
X92820000Y-38510000I16994J1880975D01*
G01*
X75350000Y-38489999D02*
G75*
G03*
X75352077Y-42271931I10013J-1890961D01*
G01*
X75352077Y-42271931D02*
X92822077Y-42271931D01*
X75350000Y-38490000D02*
X92820000Y-38510000D01*
X53008333Y-99587778D02*
G75*
G03*
X56790000Y-103300000I3726054J13441D01*
G01*
X111017778Y-103291664D02*
G75*
G03*
X114730000Y-99500000I-13414J3726187D01*
G01*
X114710000Y-35750000D02*
G75*
G03*
X110941388Y-32018122I-3726091J6025D01*
G01*
X56720000Y-32020000D02*
G75*
G03*
X52990000Y-35820000I2200J-3732804D01*
G01*
X53008335Y-99587778D02*
X52990000Y-35820000D01*
X111017778Y-103291665D02*
X56790000Y-103300000D01*
X114710000Y-35750000D02*
X114730000Y-99500000D01*
X56720000Y-32020000D02*
X110941388Y-32018122D01*
M02*
