%TF.GenerationSoftware,KiCad,Pcbnew,6.0.10-86aedd382b~118~ubuntu22.04.1*%
%TF.CreationDate,2023-01-08T16:41:24+01:00*%
%TF.ProjectId,bcp,6263702e-6b69-4636-9164-5f7063625858,rev?*%
%TF.SameCoordinates,Original*%
%TF.FileFunction,Copper,L2,Bot*%
%TF.FilePolarity,Positive*%
%FSLAX46Y46*%
G04 Gerber Fmt 4.6, Leading zero omitted, Abs format (unit mm)*
G04 Created by KiCad (PCBNEW 6.0.10-86aedd382b~118~ubuntu22.04.1) date 2023-01-08 16:41:24*
%MOMM*%
%LPD*%
G01*
G04 APERTURE LIST*
%TA.AperFunction,ComponentPad*%
%ADD10C,2.000000*%
%TD*%
%TA.AperFunction,ComponentPad*%
%ADD11R,1.700000X1.700000*%
%TD*%
%TA.AperFunction,ComponentPad*%
%ADD12O,1.700000X1.700000*%
%TD*%
%TA.AperFunction,ComponentPad*%
%ADD13C,0.800000*%
%TD*%
%TA.AperFunction,ComponentPad*%
%ADD14C,5.400000*%
%TD*%
G04 APERTURE END LIST*
D10*
%TO.P,SW5,1,1*%
%TO.N,GPIO17*%
X101370000Y-45160000D03*
X101370000Y-51660000D03*
%TO.P,SW5,2,2*%
%TO.N,GND*%
X96870000Y-45160000D03*
X96870000Y-51660000D03*
%TD*%
%TO.P,SW4,1,1*%
%TO.N,GPIO27*%
X101310000Y-55860000D03*
X101310000Y-62360000D03*
%TO.P,SW4,2,2*%
%TO.N,GND*%
X96810000Y-55860000D03*
X96810000Y-62360000D03*
%TD*%
%TO.P,SW3,1,1*%
%TO.N,GPIO22*%
X101337500Y-66265000D03*
X101337500Y-72765000D03*
%TO.P,SW3,2,2*%
%TO.N,GND*%
X96837500Y-66265000D03*
X96837500Y-72765000D03*
%TD*%
%TO.P,SW2,1,1*%
%TO.N,GPIO19*%
X101337500Y-76795000D03*
X101337500Y-83295000D03*
%TO.P,SW2,2,2*%
%TO.N,GND*%
X96837500Y-76795000D03*
X96837500Y-83295000D03*
%TD*%
%TO.P,SW1,1,1*%
%TO.N,GPIO26*%
X101337500Y-87665000D03*
X101337500Y-94165000D03*
%TO.P,SW1,2,2*%
%TO.N,GND*%
X96837500Y-87665000D03*
X96837500Y-94165000D03*
%TD*%
D11*
%TO.P,J1,1,3V3*%
%TO.N,3v3*%
X106920000Y-44430000D03*
D12*
%TO.P,J1,2,5V*%
%TO.N,5v*%
X109460000Y-44430000D03*
%TO.P,J1,3,SDA/GPIO2*%
%TO.N,GPIO02*%
X106920000Y-46970000D03*
%TO.P,J1,4,5V*%
%TO.N,5v*%
X109460000Y-46970000D03*
%TO.P,J1,5,SCL/GPIO3*%
%TO.N,GPIO03*%
X106920000Y-49510000D03*
%TO.P,J1,6,GND*%
%TO.N,GND*%
X109460000Y-49510000D03*
%TO.P,J1,7,GCLK0/GPIO4*%
%TO.N,GPIO04*%
X106920000Y-52050000D03*
%TO.P,J1,8,GPIO14/TXD*%
%TO.N,GPIO14*%
X109460000Y-52050000D03*
%TO.P,J1,9,GND*%
%TO.N,GND*%
X106920000Y-54590000D03*
%TO.P,J1,10,GPIO15/RXD*%
%TO.N,GPIO15*%
X109460000Y-54590000D03*
%TO.P,J1,11,GPIO17*%
%TO.N,GPIO17*%
X106920000Y-57130000D03*
%TO.P,J1,12,GPIO18/PWM0*%
%TO.N,GPIO18*%
X109460000Y-57130000D03*
%TO.P,J1,13,GPIO27*%
%TO.N,GPIO27*%
X106920000Y-59670000D03*
%TO.P,J1,14,GND*%
%TO.N,GND*%
X109460000Y-59670000D03*
%TO.P,J1,15,GPIO22*%
%TO.N,GPIO22*%
X106920000Y-62210000D03*
%TO.P,J1,16,GPIO23*%
%TO.N,GPIO23*%
X109460000Y-62210000D03*
%TO.P,J1,17,3V3*%
%TO.N,3v3*%
X106920000Y-64750000D03*
%TO.P,J1,18,GPIO24*%
%TO.N,GPIO24*%
X109460000Y-64750000D03*
%TO.P,J1,19,MOSI0/GPIO10*%
%TO.N,GPIO10*%
X106920000Y-67290000D03*
%TO.P,J1,20,GND*%
%TO.N,GND*%
X109460000Y-67290000D03*
%TO.P,J1,21,MISO0/GPIO9*%
%TO.N,GPIO09*%
X106920000Y-69830000D03*
%TO.P,J1,22,GPIO25*%
%TO.N,GPIO25*%
X109460000Y-69830000D03*
%TO.P,J1,23,SCLK0/GPIO11*%
%TO.N,GPIO11*%
X106920000Y-72370000D03*
%TO.P,J1,24,~{CE0}/GPIO8*%
%TO.N,GPIO08*%
X109460000Y-72370000D03*
%TO.P,J1,25,GND*%
%TO.N,GND*%
X106920000Y-74910000D03*
%TO.P,J1,26,~{CE1}/GPIO7*%
%TO.N,GPIO07*%
X109460000Y-74910000D03*
%TO.P,J1,27,ID_SD/GPIO0*%
%TO.N,GPIO00*%
X106920000Y-77450000D03*
%TO.P,J1,28,ID_SC/GPIO1*%
%TO.N,GPIO01*%
X109460000Y-77450000D03*
%TO.P,J1,29,GCLK1/GPIO5*%
%TO.N,GPIO05*%
X106920000Y-79990000D03*
%TO.P,J1,30,GND*%
%TO.N,GND*%
X109460000Y-79990000D03*
%TO.P,J1,31,GCLK2/GPIO6*%
%TO.N,GPIO06*%
X106920000Y-82530000D03*
%TO.P,J1,32,PWM0/GPIO12*%
%TO.N,GPIO12*%
X109460000Y-82530000D03*
%TO.P,J1,33,PWM1/GPIO13*%
%TO.N,GPIO13*%
X106920000Y-85070000D03*
%TO.P,J1,34,GND*%
%TO.N,GND*%
X109460000Y-85070000D03*
%TO.P,J1,35,GPIO19/MISO1*%
%TO.N,GPIO19*%
X106920000Y-87610000D03*
%TO.P,J1,36,GPIO16*%
%TO.N,GPIO16*%
X109460000Y-87610000D03*
%TO.P,J1,37,GPIO26*%
%TO.N,GPIO26*%
X106920000Y-90150000D03*
%TO.P,J1,38,GPIO20/MOSI1*%
%TO.N,GPIO20*%
X109460000Y-90150000D03*
%TO.P,J1,39,GND*%
%TO.N,GND*%
X106920000Y-92690000D03*
%TO.P,J1,40,GPIO21/SCLK1*%
%TO.N,GPIO21*%
X109460000Y-92690000D03*
%TD*%
D13*
%TO.P,H4,1*%
%TO.N,N/C*%
X57998109Y-99071891D03*
D14*
X59430000Y-97640000D03*
D13*
X59430000Y-99665000D03*
X60861891Y-96208109D03*
X57405000Y-97640000D03*
X59430000Y-95615000D03*
X61455000Y-97640000D03*
X60861891Y-99071891D03*
X57998109Y-96208109D03*
%TD*%
%TO.P,H3,1*%
%TO.N,N/C*%
X106868109Y-99101891D03*
D14*
X108300000Y-97670000D03*
D13*
X108300000Y-99695000D03*
X109731891Y-96238109D03*
X106275000Y-97670000D03*
X108300000Y-95645000D03*
X110325000Y-97670000D03*
X109731891Y-99101891D03*
X106868109Y-96238109D03*
%TD*%
%TO.P,H2,1*%
%TO.N,N/C*%
X106888109Y-40891891D03*
D14*
X108320000Y-39460000D03*
D13*
X108320000Y-41485000D03*
X109751891Y-38028109D03*
X106295000Y-39460000D03*
X108320000Y-37435000D03*
X110345000Y-39460000D03*
X109751891Y-40891891D03*
X106888109Y-38028109D03*
%TD*%
%TO.P,H1,1*%
%TO.N,N/C*%
X57978109Y-40941891D03*
D14*
X59410000Y-39510000D03*
D13*
X59410000Y-41535000D03*
X60841891Y-38078109D03*
X57385000Y-39510000D03*
X59410000Y-37485000D03*
X61435000Y-39510000D03*
X60841891Y-40941891D03*
X57978109Y-38078109D03*
%TD*%
%TA.AperFunction,Conductor*%
%TO.N,GND*%
G36*
X110913614Y-32527911D02*
G01*
X110940973Y-32531851D01*
X110949857Y-32530586D01*
X110949861Y-32530586D01*
X110959572Y-32529203D01*
X110982546Y-32528053D01*
X111010318Y-32529203D01*
X111279829Y-32540364D01*
X111293058Y-32541613D01*
X111615827Y-32589395D01*
X111628845Y-32592031D01*
X111843240Y-32647360D01*
X111944770Y-32673562D01*
X111957452Y-32677560D01*
X112263013Y-32791928D01*
X112275202Y-32797239D01*
X112309026Y-32814155D01*
X112567013Y-32943177D01*
X112578576Y-32949744D01*
X112853388Y-33125627D01*
X112864194Y-33133377D01*
X113118922Y-33337230D01*
X113128852Y-33346075D01*
X113360686Y-33575650D01*
X113369628Y-33585492D01*
X113575977Y-33838220D01*
X113583828Y-33848945D01*
X113608392Y-33886509D01*
X113762399Y-34122023D01*
X113769076Y-34133517D01*
X113917862Y-34423875D01*
X113923294Y-34436013D01*
X114040657Y-34740455D01*
X114044777Y-34753096D01*
X114121635Y-35039291D01*
X114129395Y-35068188D01*
X114132161Y-35081189D01*
X114140187Y-35131967D01*
X114183103Y-35403468D01*
X114184482Y-35416689D01*
X114189667Y-35517893D01*
X114199326Y-35706441D01*
X114197960Y-35732468D01*
X114197715Y-35734024D01*
X114197715Y-35734032D01*
X114196320Y-35742897D01*
X114200477Y-35775088D01*
X114201514Y-35791167D01*
X114213465Y-73890635D01*
X114221485Y-99456276D01*
X114220307Y-99473501D01*
X114216278Y-99502755D01*
X114217598Y-99511633D01*
X114217598Y-99511635D01*
X114219039Y-99521327D01*
X114220331Y-99544296D01*
X114213585Y-99735634D01*
X114209839Y-99841871D01*
X114208669Y-99855118D01*
X114193139Y-99964608D01*
X114162821Y-100178352D01*
X114160260Y-100191409D01*
X114143149Y-100259399D01*
X114080932Y-100506615D01*
X114080580Y-100508012D01*
X114076658Y-100520719D01*
X113964608Y-100825597D01*
X113964032Y-100827165D01*
X113958790Y-100839390D01*
X113943483Y-100870453D01*
X113814479Y-101132237D01*
X113807976Y-101143844D01*
X113770193Y-101203643D01*
X113633582Y-101419851D01*
X113625910Y-101430682D01*
X113423367Y-101686778D01*
X113414593Y-101696741D01*
X113186185Y-101930036D01*
X113176395Y-101939031D01*
X112924671Y-102146928D01*
X112913978Y-102154848D01*
X112641738Y-102335037D01*
X112630270Y-102341785D01*
X112340545Y-102492261D01*
X112328430Y-102497762D01*
X112024442Y-102616849D01*
X112011813Y-102621041D01*
X111696983Y-102707401D01*
X111683983Y-102710239D01*
X111361787Y-102762918D01*
X111348561Y-102764369D01*
X111058534Y-102780749D01*
X111032491Y-102779518D01*
X111032465Y-102779514D01*
X111022210Y-102777955D01*
X111013319Y-102779150D01*
X111013314Y-102779150D01*
X110991754Y-102782048D01*
X110974990Y-102783171D01*
X86431509Y-102786944D01*
X56834597Y-102791494D01*
X56817064Y-102790270D01*
X56788610Y-102786273D01*
X56779725Y-102787570D01*
X56779721Y-102787570D01*
X56770012Y-102788987D01*
X56747052Y-102790218D01*
X56605145Y-102784850D01*
X56450079Y-102778983D01*
X56436867Y-102777784D01*
X56114272Y-102731240D01*
X56101251Y-102728654D01*
X56000896Y-102703161D01*
X55785376Y-102648414D01*
X55772692Y-102644470D01*
X55571843Y-102570190D01*
X55467008Y-102531418D01*
X55454813Y-102526162D01*
X55162729Y-102381555D01*
X55151156Y-102375044D01*
X54875922Y-102200493D01*
X54865095Y-102192797D01*
X54817260Y-102154848D01*
X54609772Y-101990244D01*
X54599815Y-101981451D01*
X54367236Y-101753144D01*
X54358260Y-101743352D01*
X54151006Y-101491825D01*
X54143111Y-101481143D01*
X53963484Y-101209187D01*
X53956758Y-101197732D01*
X53806767Y-100908390D01*
X53801284Y-100896291D01*
X53734797Y-100726273D01*
X53682586Y-100592759D01*
X53678408Y-100580153D01*
X53592324Y-100265812D01*
X53589497Y-100252841D01*
X53581142Y-100201660D01*
X53536983Y-99931173D01*
X53535538Y-99917974D01*
X53534791Y-99904721D01*
X53519220Y-99628716D01*
X53520451Y-99602685D01*
X53520696Y-99601071D01*
X53520696Y-99601070D01*
X53522045Y-99592196D01*
X53520850Y-99583307D01*
X53520850Y-99583301D01*
X53517946Y-99561700D01*
X53516823Y-99544950D01*
X53516262Y-97595132D01*
X56216757Y-97595132D01*
X56231781Y-97953588D01*
X56286668Y-98308136D01*
X56380734Y-98654356D01*
X56512806Y-98987933D01*
X56514461Y-98991045D01*
X56514463Y-98991050D01*
X56575421Y-99105694D01*
X56681239Y-99304709D01*
X56683224Y-99307607D01*
X56683230Y-99307618D01*
X56881942Y-99597829D01*
X56881947Y-99597835D01*
X56883933Y-99600736D01*
X56886236Y-99603404D01*
X57092075Y-99841871D01*
X57118361Y-99872324D01*
X57381602Y-100116087D01*
X57670375Y-100328989D01*
X57673412Y-100330743D01*
X57673416Y-100330745D01*
X57790503Y-100398345D01*
X57981080Y-100508375D01*
X58045719Y-100536615D01*
X58306622Y-100650601D01*
X58306632Y-100650605D01*
X58309844Y-100652008D01*
X58313201Y-100653047D01*
X58313206Y-100653049D01*
X58448744Y-100695005D01*
X58652570Y-100758100D01*
X59004987Y-100825327D01*
X59201571Y-100840453D01*
X59359203Y-100852582D01*
X59359204Y-100852582D01*
X59362700Y-100852851D01*
X59580001Y-100845263D01*
X59717738Y-100840453D01*
X59717743Y-100840453D01*
X59721253Y-100840330D01*
X59727585Y-100839395D01*
X60072683Y-100788436D01*
X60072689Y-100788435D01*
X60076175Y-100787920D01*
X60079579Y-100787021D01*
X60079582Y-100787020D01*
X60419652Y-100697169D01*
X60419653Y-100697169D01*
X60423043Y-100696273D01*
X60757534Y-100566533D01*
X61075478Y-100400316D01*
X61274876Y-100265820D01*
X61369997Y-100201660D01*
X61369999Y-100201659D01*
X61372913Y-100199693D01*
X61646131Y-99967167D01*
X61861144Y-99738202D01*
X61889316Y-99708202D01*
X61889320Y-99708197D01*
X61891727Y-99705634D01*
X61893832Y-99702820D01*
X61893838Y-99702813D01*
X62104530Y-99421174D01*
X62106639Y-99418355D01*
X62288189Y-99108910D01*
X62434115Y-98781156D01*
X62532011Y-98472546D01*
X62541528Y-98442546D01*
X62541528Y-98442545D01*
X62542596Y-98439179D01*
X62612282Y-98087241D01*
X62626008Y-97923784D01*
X62642120Y-97731912D01*
X62642121Y-97731901D01*
X62642303Y-97729728D01*
X62643138Y-97670000D01*
X62643526Y-97642178D01*
X62643526Y-97642166D01*
X62643556Y-97640000D01*
X62642725Y-97625132D01*
X105086757Y-97625132D01*
X105101781Y-97983588D01*
X105118364Y-98090705D01*
X105152024Y-98308136D01*
X105156668Y-98338136D01*
X105250734Y-98684356D01*
X105302211Y-98814372D01*
X105369632Y-98984658D01*
X105382806Y-99017933D01*
X105551239Y-99334709D01*
X105553224Y-99337607D01*
X105553230Y-99337618D01*
X105751942Y-99627829D01*
X105751947Y-99627835D01*
X105753933Y-99630736D01*
X105756236Y-99633404D01*
X105964535Y-99874721D01*
X105988361Y-99902324D01*
X106251602Y-100146087D01*
X106540375Y-100358989D01*
X106851080Y-100538375D01*
X106854301Y-100539782D01*
X107176622Y-100680601D01*
X107176632Y-100680605D01*
X107179844Y-100682008D01*
X107183201Y-100683047D01*
X107183206Y-100683049D01*
X107318744Y-100725005D01*
X107522570Y-100788100D01*
X107874987Y-100855327D01*
X108071571Y-100870453D01*
X108229203Y-100882582D01*
X108229204Y-100882582D01*
X108232700Y-100882851D01*
X108450001Y-100875263D01*
X108587738Y-100870453D01*
X108587743Y-100870453D01*
X108591253Y-100870330D01*
X108594734Y-100869816D01*
X108942683Y-100818436D01*
X108942689Y-100818435D01*
X108946175Y-100817920D01*
X108949579Y-100817021D01*
X108949582Y-100817020D01*
X109289652Y-100727169D01*
X109289653Y-100727169D01*
X109293043Y-100726273D01*
X109627534Y-100596533D01*
X109945478Y-100430316D01*
X110242913Y-100229693D01*
X110516131Y-99997167D01*
X110631116Y-99874721D01*
X110759316Y-99738202D01*
X110759320Y-99738197D01*
X110761727Y-99735634D01*
X110763832Y-99732820D01*
X110763838Y-99732813D01*
X110974530Y-99451174D01*
X110976639Y-99448355D01*
X110996021Y-99415320D01*
X111062743Y-99301594D01*
X111158189Y-99138910D01*
X111304115Y-98811156D01*
X111412596Y-98469179D01*
X111482282Y-98117241D01*
X111512303Y-97759728D01*
X111512692Y-97731912D01*
X111513526Y-97672178D01*
X111513526Y-97672166D01*
X111513556Y-97670000D01*
X111511758Y-97637828D01*
X111493725Y-97315301D01*
X111493529Y-97311788D01*
X111486589Y-97270757D01*
X111434286Y-96961522D01*
X111434285Y-96961518D01*
X111433697Y-96958041D01*
X111334806Y-96613169D01*
X111286662Y-96496362D01*
X111199427Y-96284713D01*
X111199423Y-96284705D01*
X111198089Y-96281468D01*
X111025250Y-95967075D01*
X110818443Y-95673907D01*
X110580245Y-95405619D01*
X110313626Y-95165554D01*
X110310776Y-95163513D01*
X110310769Y-95163508D01*
X110024763Y-94958748D01*
X110024760Y-94958746D01*
X110021909Y-94956705D01*
X109708730Y-94781675D01*
X109377992Y-94642646D01*
X109374623Y-94641655D01*
X109374619Y-94641653D01*
X109222707Y-94596943D01*
X109033818Y-94541350D01*
X108750904Y-94491464D01*
X108683958Y-94479660D01*
X108683956Y-94479660D01*
X108680498Y-94479050D01*
X108676987Y-94478829D01*
X108676986Y-94478829D01*
X108325953Y-94456743D01*
X108325947Y-94456743D01*
X108322435Y-94456522D01*
X108221046Y-94461481D01*
X107967599Y-94473876D01*
X107967591Y-94473877D01*
X107964092Y-94474048D01*
X107960624Y-94474610D01*
X107960621Y-94474610D01*
X107613411Y-94530846D01*
X107613408Y-94530847D01*
X107609936Y-94531409D01*
X107606549Y-94532355D01*
X107606543Y-94532356D01*
X107367104Y-94599209D01*
X107264381Y-94627890D01*
X107098057Y-94695089D01*
X106934998Y-94760969D01*
X106934994Y-94760971D01*
X106931734Y-94762288D01*
X106928647Y-94763957D01*
X106928643Y-94763959D01*
X106892699Y-94783394D01*
X106616142Y-94932928D01*
X106321537Y-95137683D01*
X106318895Y-95139996D01*
X106318891Y-95139999D01*
X106074080Y-95354316D01*
X106051593Y-95374002D01*
X106022996Y-95405320D01*
X105843209Y-95602211D01*
X105809672Y-95638938D01*
X105598792Y-95929190D01*
X105597050Y-95932256D01*
X105597049Y-95932258D01*
X105578905Y-95964198D01*
X105421580Y-96241140D01*
X105280245Y-96570899D01*
X105275520Y-96586549D01*
X105185607Y-96884358D01*
X105176549Y-96914358D01*
X105175913Y-96917825D01*
X105116644Y-97240757D01*
X105111784Y-97267235D01*
X105086757Y-97625132D01*
X62642725Y-97625132D01*
X62623529Y-97281788D01*
X62616589Y-97240757D01*
X62564286Y-96931522D01*
X62564285Y-96931518D01*
X62563697Y-96928041D01*
X62559774Y-96914358D01*
X62537446Y-96836492D01*
X62464806Y-96583169D01*
X62341792Y-96284713D01*
X62329427Y-96254713D01*
X62329423Y-96254705D01*
X62328089Y-96251468D01*
X62220857Y-96056413D01*
X62156943Y-95940154D01*
X62156940Y-95940150D01*
X62155250Y-95937075D01*
X61971982Y-95677275D01*
X61950479Y-95646793D01*
X61950478Y-95646791D01*
X61948443Y-95643907D01*
X61729823Y-95397670D01*
X95969660Y-95397670D01*
X95975387Y-95405320D01*
X96146542Y-95510205D01*
X96155337Y-95514687D01*
X96365488Y-95601734D01*
X96374873Y-95604783D01*
X96596054Y-95657885D01*
X96605801Y-95659428D01*
X96832570Y-95677275D01*
X96842430Y-95677275D01*
X97069199Y-95659428D01*
X97078946Y-95657885D01*
X97300127Y-95604783D01*
X97309512Y-95601734D01*
X97519663Y-95514687D01*
X97528458Y-95510205D01*
X97695945Y-95407568D01*
X97705407Y-95397110D01*
X97701624Y-95388334D01*
X96850312Y-94537022D01*
X96836368Y-94529408D01*
X96834535Y-94529539D01*
X96827920Y-94533790D01*
X95976420Y-95385290D01*
X95969660Y-95397670D01*
X61729823Y-95397670D01*
X61710245Y-95375619D01*
X61479562Y-95167911D01*
X61446244Y-95137911D01*
X61446241Y-95137909D01*
X61443626Y-95135554D01*
X61440776Y-95133513D01*
X61440769Y-95133508D01*
X61154763Y-94928748D01*
X61154760Y-94928746D01*
X61151909Y-94926705D01*
X60838730Y-94751675D01*
X60507992Y-94612646D01*
X60504623Y-94611655D01*
X60504619Y-94611653D01*
X60265749Y-94541350D01*
X60163818Y-94511350D01*
X59852874Y-94456522D01*
X59813958Y-94449660D01*
X59813956Y-94449660D01*
X59810498Y-94449050D01*
X59806987Y-94448829D01*
X59806986Y-94448829D01*
X59455953Y-94426743D01*
X59455947Y-94426743D01*
X59452435Y-94426522D01*
X59351046Y-94431481D01*
X59097599Y-94443876D01*
X59097591Y-94443877D01*
X59094092Y-94444048D01*
X59090624Y-94444610D01*
X59090621Y-94444610D01*
X58743411Y-94500846D01*
X58743408Y-94500847D01*
X58739936Y-94501409D01*
X58736549Y-94502355D01*
X58736543Y-94502356D01*
X58452406Y-94581689D01*
X58394381Y-94597890D01*
X58228057Y-94665089D01*
X58064998Y-94730969D01*
X58064994Y-94730971D01*
X58061734Y-94732288D01*
X58058647Y-94733957D01*
X58058643Y-94733959D01*
X57972915Y-94780312D01*
X57746142Y-94902928D01*
X57451537Y-95107683D01*
X57448895Y-95109996D01*
X57448891Y-95109999D01*
X57382739Y-95167911D01*
X57181593Y-95344002D01*
X56939672Y-95608938D01*
X56728792Y-95899190D01*
X56551580Y-96211140D01*
X56410245Y-96540899D01*
X56306549Y-96884358D01*
X56241784Y-97237235D01*
X56216757Y-97595132D01*
X53516262Y-97595132D01*
X53515277Y-94169930D01*
X95325225Y-94169930D01*
X95343072Y-94396699D01*
X95344615Y-94406446D01*
X95397717Y-94627627D01*
X95400766Y-94637012D01*
X95487813Y-94847163D01*
X95492295Y-94855958D01*
X95594932Y-95023445D01*
X95605390Y-95032907D01*
X95614166Y-95029124D01*
X96465478Y-94177812D01*
X96471856Y-94166132D01*
X97201908Y-94166132D01*
X97202039Y-94167965D01*
X97206290Y-94174580D01*
X98057790Y-95026080D01*
X98070170Y-95032840D01*
X98077820Y-95027113D01*
X98182705Y-94855958D01*
X98187187Y-94847163D01*
X98274234Y-94637012D01*
X98277283Y-94627627D01*
X98330385Y-94406446D01*
X98331928Y-94396699D01*
X98349775Y-94169930D01*
X98349775Y-94165000D01*
X99824335Y-94165000D01*
X99842965Y-94401711D01*
X99844119Y-94406518D01*
X99844120Y-94406524D01*
X99874103Y-94531409D01*
X99898395Y-94632594D01*
X99900288Y-94637165D01*
X99900289Y-94637167D01*
X99987272Y-94847163D01*
X99989260Y-94851963D01*
X99991846Y-94856183D01*
X100110741Y-95050202D01*
X100110745Y-95050208D01*
X100113324Y-95054416D01*
X100267531Y-95234969D01*
X100448084Y-95389176D01*
X100452292Y-95391755D01*
X100452298Y-95391759D01*
X100645584Y-95510205D01*
X100650537Y-95513240D01*
X100655107Y-95515133D01*
X100655111Y-95515135D01*
X100865333Y-95602211D01*
X100869906Y-95604105D01*
X100901900Y-95611786D01*
X101095976Y-95658380D01*
X101095982Y-95658381D01*
X101100789Y-95659535D01*
X101337500Y-95678165D01*
X101574211Y-95659535D01*
X101579018Y-95658381D01*
X101579024Y-95658380D01*
X101773100Y-95611786D01*
X101805094Y-95604105D01*
X101809667Y-95602211D01*
X102019889Y-95515135D01*
X102019893Y-95515133D01*
X102024463Y-95513240D01*
X102029416Y-95510205D01*
X102222702Y-95391759D01*
X102222708Y-95391755D01*
X102226916Y-95389176D01*
X102407469Y-95234969D01*
X102561676Y-95054416D01*
X102564255Y-95050208D01*
X102564259Y-95050202D01*
X102683154Y-94856183D01*
X102685740Y-94851963D01*
X102687729Y-94847163D01*
X102774711Y-94637167D01*
X102774712Y-94637165D01*
X102776605Y-94632594D01*
X102800897Y-94531409D01*
X102830880Y-94406524D01*
X102830881Y-94406518D01*
X102832035Y-94401711D01*
X102850665Y-94165000D01*
X102832035Y-93928289D01*
X102829887Y-93919338D01*
X102777760Y-93702218D01*
X102776605Y-93697406D01*
X102760973Y-93659667D01*
X102687635Y-93482611D01*
X102687633Y-93482607D01*
X102685740Y-93478037D01*
X102633459Y-93392722D01*
X102564259Y-93279798D01*
X102564255Y-93279792D01*
X102561676Y-93275584D01*
X102407469Y-93095031D01*
X102246987Y-92957966D01*
X105588257Y-92957966D01*
X105618565Y-93092446D01*
X105621645Y-93102275D01*
X105701770Y-93299603D01*
X105706413Y-93308794D01*
X105817694Y-93490388D01*
X105823777Y-93498699D01*
X105963213Y-93659667D01*
X105970580Y-93666883D01*
X106134434Y-93802916D01*
X106142881Y-93808831D01*
X106326756Y-93916279D01*
X106336042Y-93920729D01*
X106535001Y-93996703D01*
X106544899Y-93999579D01*
X106648250Y-94020606D01*
X106662299Y-94019410D01*
X106666000Y-94009065D01*
X106666000Y-92962115D01*
X106661525Y-92946876D01*
X106660135Y-92945671D01*
X106652452Y-92944000D01*
X105603225Y-92944000D01*
X105589694Y-92947973D01*
X105588257Y-92957966D01*
X102246987Y-92957966D01*
X102226916Y-92940824D01*
X102222708Y-92938245D01*
X102222702Y-92938241D01*
X102028683Y-92819346D01*
X102024463Y-92816760D01*
X102019893Y-92814867D01*
X102019889Y-92814865D01*
X101809667Y-92727789D01*
X101809665Y-92727788D01*
X101805094Y-92725895D01*
X101669597Y-92693365D01*
X101579024Y-92671620D01*
X101579018Y-92671619D01*
X101574211Y-92670465D01*
X101337500Y-92651835D01*
X101100789Y-92670465D01*
X101095982Y-92671619D01*
X101095976Y-92671620D01*
X101005403Y-92693365D01*
X100869906Y-92725895D01*
X100865335Y-92727788D01*
X100865333Y-92727789D01*
X100655111Y-92814865D01*
X100655107Y-92814867D01*
X100650537Y-92816760D01*
X100646317Y-92819346D01*
X100452298Y-92938241D01*
X100452292Y-92938245D01*
X100448084Y-92940824D01*
X100267531Y-93095031D01*
X100113324Y-93275584D01*
X100110745Y-93279792D01*
X100110741Y-93279798D01*
X100041541Y-93392722D01*
X99989260Y-93478037D01*
X99987367Y-93482607D01*
X99987365Y-93482611D01*
X99914027Y-93659667D01*
X99898395Y-93697406D01*
X99897240Y-93702218D01*
X99845114Y-93919338D01*
X99842965Y-93928289D01*
X99824335Y-94165000D01*
X98349775Y-94165000D01*
X98349775Y-94160070D01*
X98331928Y-93933301D01*
X98330385Y-93923554D01*
X98277283Y-93702373D01*
X98274234Y-93692988D01*
X98187187Y-93482837D01*
X98182705Y-93474042D01*
X98080068Y-93306555D01*
X98069610Y-93297093D01*
X98060834Y-93300876D01*
X97209522Y-94152188D01*
X97201908Y-94166132D01*
X96471856Y-94166132D01*
X96473092Y-94163868D01*
X96472961Y-94162035D01*
X96468710Y-94155420D01*
X95617210Y-93303920D01*
X95604830Y-93297160D01*
X95597180Y-93302887D01*
X95492295Y-93474042D01*
X95487813Y-93482837D01*
X95400766Y-93692988D01*
X95397717Y-93702373D01*
X95344615Y-93923554D01*
X95343072Y-93933301D01*
X95325225Y-94160070D01*
X95325225Y-94169930D01*
X53515277Y-94169930D01*
X53514921Y-92932890D01*
X95969593Y-92932890D01*
X95973376Y-92941666D01*
X96824688Y-93792978D01*
X96838632Y-93800592D01*
X96840465Y-93800461D01*
X96847080Y-93796210D01*
X97698580Y-92944710D01*
X97705340Y-92932330D01*
X97699613Y-92924680D01*
X97528458Y-92819795D01*
X97519663Y-92815313D01*
X97309512Y-92728266D01*
X97300127Y-92725217D01*
X97078946Y-92672115D01*
X97069199Y-92670572D01*
X96842430Y-92652725D01*
X96832570Y-92652725D01*
X96605801Y-92670572D01*
X96596054Y-92672115D01*
X96374873Y-92725217D01*
X96365488Y-92728266D01*
X96155337Y-92815313D01*
X96146542Y-92819795D01*
X95979055Y-92922432D01*
X95969593Y-92932890D01*
X53514921Y-92932890D01*
X53514111Y-90116695D01*
X105557251Y-90116695D01*
X105557548Y-90121848D01*
X105557548Y-90121851D01*
X105563011Y-90216590D01*
X105570110Y-90339715D01*
X105571247Y-90344761D01*
X105571248Y-90344767D01*
X105591119Y-90432939D01*
X105619222Y-90557639D01*
X105703266Y-90764616D01*
X105754019Y-90847438D01*
X105817291Y-90950688D01*
X105819987Y-90955088D01*
X105966250Y-91123938D01*
X106138126Y-91266632D01*
X106211445Y-91309476D01*
X106211955Y-91309774D01*
X106260679Y-91361412D01*
X106273750Y-91431195D01*
X106247019Y-91496967D01*
X106206562Y-91530327D01*
X106198457Y-91534546D01*
X106189738Y-91540036D01*
X106019433Y-91667905D01*
X106011726Y-91674748D01*
X105864590Y-91828717D01*
X105858104Y-91836727D01*
X105738098Y-92012649D01*
X105733000Y-92021623D01*
X105643338Y-92214783D01*
X105639775Y-92224470D01*
X105584389Y-92424183D01*
X105585912Y-92432607D01*
X105598292Y-92436000D01*
X107048000Y-92436000D01*
X107116121Y-92456002D01*
X107162614Y-92509658D01*
X107174000Y-92562000D01*
X107174000Y-94008517D01*
X107178064Y-94022359D01*
X107191478Y-94024393D01*
X107198184Y-94023534D01*
X107208262Y-94021392D01*
X107412255Y-93960191D01*
X107421842Y-93956433D01*
X107613095Y-93862739D01*
X107621945Y-93857464D01*
X107795328Y-93733792D01*
X107803200Y-93727139D01*
X107954052Y-93576812D01*
X107960730Y-93568965D01*
X108088022Y-93391819D01*
X108089279Y-93392722D01*
X108136373Y-93349362D01*
X108206311Y-93337145D01*
X108271751Y-93364678D01*
X108299579Y-93396511D01*
X108359987Y-93495088D01*
X108506250Y-93663938D01*
X108678126Y-93806632D01*
X108871000Y-93919338D01*
X108875825Y-93921180D01*
X108875826Y-93921181D01*
X108894440Y-93928289D01*
X109079692Y-93999030D01*
X109084760Y-94000061D01*
X109084763Y-94000062D01*
X109179862Y-94019410D01*
X109298597Y-94043567D01*
X109303772Y-94043757D01*
X109303774Y-94043757D01*
X109516673Y-94051564D01*
X109516677Y-94051564D01*
X109521837Y-94051753D01*
X109526957Y-94051097D01*
X109526959Y-94051097D01*
X109738288Y-94024025D01*
X109738289Y-94024025D01*
X109743416Y-94023368D01*
X109748366Y-94021883D01*
X109952429Y-93960661D01*
X109952434Y-93960659D01*
X109957384Y-93959174D01*
X110157994Y-93860896D01*
X110339860Y-93731173D01*
X110368917Y-93702218D01*
X110494435Y-93577137D01*
X110498096Y-93573489D01*
X110628453Y-93392077D01*
X110641995Y-93364678D01*
X110725136Y-93196453D01*
X110725137Y-93196451D01*
X110727430Y-93191811D01*
X110792370Y-92978069D01*
X110821529Y-92756590D01*
X110823156Y-92690000D01*
X110804852Y-92467361D01*
X110750431Y-92250702D01*
X110661354Y-92045840D01*
X110540014Y-91858277D01*
X110389670Y-91693051D01*
X110385619Y-91689852D01*
X110385615Y-91689848D01*
X110218414Y-91557800D01*
X110218410Y-91557798D01*
X110214359Y-91554598D01*
X110173053Y-91531796D01*
X110123084Y-91481364D01*
X110108312Y-91411921D01*
X110133428Y-91345516D01*
X110160780Y-91318909D01*
X110204603Y-91287650D01*
X110339860Y-91191173D01*
X110498096Y-91033489D01*
X110557594Y-90950689D01*
X110625435Y-90856277D01*
X110628453Y-90852077D01*
X110649320Y-90809857D01*
X110725136Y-90656453D01*
X110725137Y-90656451D01*
X110727430Y-90651811D01*
X110792370Y-90438069D01*
X110821529Y-90216590D01*
X110823156Y-90150000D01*
X110804852Y-89927361D01*
X110750431Y-89710702D01*
X110661354Y-89505840D01*
X110540014Y-89318277D01*
X110389670Y-89153051D01*
X110385619Y-89149852D01*
X110385615Y-89149848D01*
X110218414Y-89017800D01*
X110218410Y-89017798D01*
X110214359Y-89014598D01*
X110173053Y-88991796D01*
X110123084Y-88941364D01*
X110108312Y-88871921D01*
X110133428Y-88805516D01*
X110160780Y-88778909D01*
X110227647Y-88731213D01*
X110339860Y-88651173D01*
X110498096Y-88493489D01*
X110557594Y-88410689D01*
X110625435Y-88316277D01*
X110628453Y-88312077D01*
X110649320Y-88269857D01*
X110725136Y-88116453D01*
X110725137Y-88116451D01*
X110727430Y-88111811D01*
X110777619Y-87946621D01*
X110790865Y-87903023D01*
X110790865Y-87903021D01*
X110792370Y-87898069D01*
X110821529Y-87676590D01*
X110823156Y-87610000D01*
X110804852Y-87387361D01*
X110750431Y-87170702D01*
X110661354Y-86965840D01*
X110621906Y-86904862D01*
X110542822Y-86782617D01*
X110542820Y-86782614D01*
X110540014Y-86778277D01*
X110389670Y-86613051D01*
X110385619Y-86609852D01*
X110385615Y-86609848D01*
X110218414Y-86477800D01*
X110218410Y-86477798D01*
X110214359Y-86474598D01*
X110172569Y-86451529D01*
X110122598Y-86401097D01*
X110107826Y-86331654D01*
X110132942Y-86265248D01*
X110160294Y-86238641D01*
X110335328Y-86113792D01*
X110343200Y-86107139D01*
X110494052Y-85956812D01*
X110500730Y-85948965D01*
X110625003Y-85776020D01*
X110630313Y-85767183D01*
X110724670Y-85576267D01*
X110728469Y-85566672D01*
X110790377Y-85362910D01*
X110792555Y-85352837D01*
X110793986Y-85341962D01*
X110791775Y-85327778D01*
X110778617Y-85324000D01*
X109332000Y-85324000D01*
X109263879Y-85303998D01*
X109217386Y-85250342D01*
X109206000Y-85198000D01*
X109206000Y-84942000D01*
X109226002Y-84873879D01*
X109279658Y-84827386D01*
X109332000Y-84816000D01*
X110778344Y-84816000D01*
X110791875Y-84812027D01*
X110793180Y-84802947D01*
X110751214Y-84635875D01*
X110747894Y-84626124D01*
X110662972Y-84430814D01*
X110658105Y-84421739D01*
X110542426Y-84242926D01*
X110536136Y-84234757D01*
X110392806Y-84077240D01*
X110385273Y-84070215D01*
X110218139Y-83938222D01*
X110209556Y-83932520D01*
X110172602Y-83912120D01*
X110122631Y-83861687D01*
X110107859Y-83792245D01*
X110132975Y-83725839D01*
X110160327Y-83699232D01*
X110216158Y-83659408D01*
X110339860Y-83571173D01*
X110384412Y-83526777D01*
X110494435Y-83417137D01*
X110498096Y-83413489D01*
X110557594Y-83330689D01*
X110625435Y-83236277D01*
X110628453Y-83232077D01*
X110649320Y-83189857D01*
X110725136Y-83036453D01*
X110725137Y-83036451D01*
X110727430Y-83031811D01*
X110792370Y-82818069D01*
X110821529Y-82596590D01*
X110823156Y-82530000D01*
X110804852Y-82307361D01*
X110750431Y-82090702D01*
X110661354Y-81885840D01*
X110540014Y-81698277D01*
X110389670Y-81533051D01*
X110385619Y-81529852D01*
X110385615Y-81529848D01*
X110218414Y-81397800D01*
X110218410Y-81397798D01*
X110214359Y-81394598D01*
X110172569Y-81371529D01*
X110122598Y-81321097D01*
X110107826Y-81251654D01*
X110132942Y-81185248D01*
X110160294Y-81158641D01*
X110335328Y-81033792D01*
X110343200Y-81027139D01*
X110494052Y-80876812D01*
X110500730Y-80868965D01*
X110625003Y-80696020D01*
X110630313Y-80687183D01*
X110724670Y-80496267D01*
X110728469Y-80486672D01*
X110790377Y-80282910D01*
X110792555Y-80272837D01*
X110793986Y-80261962D01*
X110791775Y-80247778D01*
X110778617Y-80244000D01*
X109332000Y-80244000D01*
X109263879Y-80223998D01*
X109217386Y-80170342D01*
X109206000Y-80118000D01*
X109206000Y-79862000D01*
X109226002Y-79793879D01*
X109279658Y-79747386D01*
X109332000Y-79736000D01*
X110778344Y-79736000D01*
X110791875Y-79732027D01*
X110793180Y-79722947D01*
X110751214Y-79555875D01*
X110747894Y-79546124D01*
X110662972Y-79350814D01*
X110658105Y-79341739D01*
X110542426Y-79162926D01*
X110536136Y-79154757D01*
X110392806Y-78997240D01*
X110385273Y-78990215D01*
X110218139Y-78858222D01*
X110209556Y-78852520D01*
X110172602Y-78832120D01*
X110122631Y-78781687D01*
X110107859Y-78712245D01*
X110132975Y-78645839D01*
X110160327Y-78619232D01*
X110185613Y-78601196D01*
X110339860Y-78491173D01*
X110370921Y-78460221D01*
X110481022Y-78350503D01*
X110498096Y-78333489D01*
X110545060Y-78268132D01*
X110625435Y-78156277D01*
X110628453Y-78152077D01*
X110632106Y-78144687D01*
X110725136Y-77956453D01*
X110725137Y-77956451D01*
X110727430Y-77951811D01*
X110792370Y-77738069D01*
X110821529Y-77516590D01*
X110822272Y-77486183D01*
X110823074Y-77453365D01*
X110823074Y-77453361D01*
X110823156Y-77450000D01*
X110804852Y-77227361D01*
X110750431Y-77010702D01*
X110661354Y-76805840D01*
X110540014Y-76618277D01*
X110389670Y-76453051D01*
X110385619Y-76449852D01*
X110385615Y-76449848D01*
X110218414Y-76317800D01*
X110218410Y-76317798D01*
X110214359Y-76314598D01*
X110173053Y-76291796D01*
X110123084Y-76241364D01*
X110108312Y-76171921D01*
X110133428Y-76105516D01*
X110160780Y-76078909D01*
X110204603Y-76047650D01*
X110339860Y-75951173D01*
X110357174Y-75933920D01*
X110444287Y-75847110D01*
X110498096Y-75793489D01*
X110628453Y-75612077D01*
X110641995Y-75584678D01*
X110725136Y-75416453D01*
X110725137Y-75416451D01*
X110727430Y-75411811D01*
X110761260Y-75300465D01*
X110790865Y-75203023D01*
X110790865Y-75203021D01*
X110792370Y-75198069D01*
X110821529Y-74976590D01*
X110823156Y-74910000D01*
X110804852Y-74687361D01*
X110750431Y-74470702D01*
X110661354Y-74265840D01*
X110560669Y-74110205D01*
X110542822Y-74082617D01*
X110542820Y-74082614D01*
X110540014Y-74078277D01*
X110389670Y-73913051D01*
X110385619Y-73909852D01*
X110385615Y-73909848D01*
X110218414Y-73777800D01*
X110218410Y-73777798D01*
X110214359Y-73774598D01*
X110173053Y-73751796D01*
X110123084Y-73701364D01*
X110108312Y-73631921D01*
X110133428Y-73565516D01*
X110160780Y-73538909D01*
X110204603Y-73507650D01*
X110339860Y-73411173D01*
X110498096Y-73253489D01*
X110509825Y-73237167D01*
X110625435Y-73076277D01*
X110628453Y-73072077D01*
X110649320Y-73029857D01*
X110725136Y-72876453D01*
X110725137Y-72876451D01*
X110727430Y-72871811D01*
X110763774Y-72752188D01*
X110790865Y-72663023D01*
X110790865Y-72663021D01*
X110792370Y-72658069D01*
X110821529Y-72436590D01*
X110823156Y-72370000D01*
X110804852Y-72147361D01*
X110750431Y-71930702D01*
X110661354Y-71725840D01*
X110540014Y-71538277D01*
X110389670Y-71373051D01*
X110385619Y-71369852D01*
X110385615Y-71369848D01*
X110218414Y-71237800D01*
X110218410Y-71237798D01*
X110214359Y-71234598D01*
X110173053Y-71211796D01*
X110123084Y-71161364D01*
X110108312Y-71091921D01*
X110133428Y-71025516D01*
X110160780Y-70998909D01*
X110204603Y-70967650D01*
X110339860Y-70871173D01*
X110498096Y-70713489D01*
X110557594Y-70630689D01*
X110625435Y-70536277D01*
X110628453Y-70532077D01*
X110649320Y-70489857D01*
X110725136Y-70336453D01*
X110725137Y-70336451D01*
X110727430Y-70331811D01*
X110792370Y-70118069D01*
X110821529Y-69896590D01*
X110823156Y-69830000D01*
X110804852Y-69607361D01*
X110750431Y-69390702D01*
X110661354Y-69185840D01*
X110540014Y-68998277D01*
X110389670Y-68833051D01*
X110385619Y-68829852D01*
X110385615Y-68829848D01*
X110218414Y-68697800D01*
X110218410Y-68697798D01*
X110214359Y-68694598D01*
X110172569Y-68671529D01*
X110122598Y-68621097D01*
X110107826Y-68551654D01*
X110132942Y-68485248D01*
X110160294Y-68458641D01*
X110335328Y-68333792D01*
X110343200Y-68327139D01*
X110494052Y-68176812D01*
X110500730Y-68168965D01*
X110625003Y-67996020D01*
X110630313Y-67987183D01*
X110724670Y-67796267D01*
X110728469Y-67786672D01*
X110790377Y-67582910D01*
X110792555Y-67572837D01*
X110793986Y-67561962D01*
X110791775Y-67547778D01*
X110778617Y-67544000D01*
X109332000Y-67544000D01*
X109263879Y-67523998D01*
X109217386Y-67470342D01*
X109206000Y-67418000D01*
X109206000Y-67162000D01*
X109226002Y-67093879D01*
X109279658Y-67047386D01*
X109332000Y-67036000D01*
X110778344Y-67036000D01*
X110791875Y-67032027D01*
X110793180Y-67022947D01*
X110751214Y-66855875D01*
X110747894Y-66846124D01*
X110662972Y-66650814D01*
X110658105Y-66641739D01*
X110542426Y-66462926D01*
X110536136Y-66454757D01*
X110392806Y-66297240D01*
X110385273Y-66290215D01*
X110218139Y-66158222D01*
X110209556Y-66152520D01*
X110172602Y-66132120D01*
X110122631Y-66081687D01*
X110107859Y-66012245D01*
X110132975Y-65945839D01*
X110160327Y-65919232D01*
X110197134Y-65892978D01*
X110339860Y-65791173D01*
X110498096Y-65633489D01*
X110540975Y-65573817D01*
X110625435Y-65456277D01*
X110628453Y-65452077D01*
X110649320Y-65409857D01*
X110725136Y-65256453D01*
X110725137Y-65256451D01*
X110727430Y-65251811D01*
X110790352Y-65044710D01*
X110790865Y-65043023D01*
X110790865Y-65043021D01*
X110792370Y-65038069D01*
X110821529Y-64816590D01*
X110822628Y-64771620D01*
X110823074Y-64753365D01*
X110823074Y-64753361D01*
X110823156Y-64750000D01*
X110804852Y-64527361D01*
X110750431Y-64310702D01*
X110661354Y-64105840D01*
X110540014Y-63918277D01*
X110389670Y-63753051D01*
X110385619Y-63749852D01*
X110385615Y-63749848D01*
X110218414Y-63617800D01*
X110218410Y-63617798D01*
X110214359Y-63614598D01*
X110173053Y-63591796D01*
X110123084Y-63541364D01*
X110108312Y-63471921D01*
X110133428Y-63405516D01*
X110160780Y-63378909D01*
X110204603Y-63347650D01*
X110339860Y-63251173D01*
X110363208Y-63227907D01*
X110494435Y-63097137D01*
X110498096Y-63093489D01*
X110528658Y-63050958D01*
X110625435Y-62916277D01*
X110628453Y-62912077D01*
X110649320Y-62869857D01*
X110725136Y-62716453D01*
X110725137Y-62716451D01*
X110727430Y-62711811D01*
X110792370Y-62498069D01*
X110821529Y-62276590D01*
X110823156Y-62210000D01*
X110804852Y-61987361D01*
X110750431Y-61770702D01*
X110661354Y-61565840D01*
X110619766Y-61501555D01*
X110542822Y-61382617D01*
X110542820Y-61382614D01*
X110540014Y-61378277D01*
X110389670Y-61213051D01*
X110385619Y-61209852D01*
X110385615Y-61209848D01*
X110218414Y-61077800D01*
X110218410Y-61077798D01*
X110214359Y-61074598D01*
X110172569Y-61051529D01*
X110122598Y-61001097D01*
X110107826Y-60931654D01*
X110132942Y-60865248D01*
X110160294Y-60838641D01*
X110335328Y-60713792D01*
X110343200Y-60707139D01*
X110494052Y-60556812D01*
X110500730Y-60548965D01*
X110625003Y-60376020D01*
X110630313Y-60367183D01*
X110724670Y-60176267D01*
X110728469Y-60166672D01*
X110790377Y-59962910D01*
X110792555Y-59952837D01*
X110793986Y-59941962D01*
X110791775Y-59927778D01*
X110778617Y-59924000D01*
X109332000Y-59924000D01*
X109263879Y-59903998D01*
X109217386Y-59850342D01*
X109206000Y-59798000D01*
X109206000Y-59542000D01*
X109226002Y-59473879D01*
X109279658Y-59427386D01*
X109332000Y-59416000D01*
X110778344Y-59416000D01*
X110791875Y-59412027D01*
X110793180Y-59402947D01*
X110751214Y-59235875D01*
X110747894Y-59226124D01*
X110662972Y-59030814D01*
X110658105Y-59021739D01*
X110542426Y-58842926D01*
X110536136Y-58834757D01*
X110392806Y-58677240D01*
X110385273Y-58670215D01*
X110218139Y-58538222D01*
X110209556Y-58532520D01*
X110172602Y-58512120D01*
X110122631Y-58461687D01*
X110107859Y-58392245D01*
X110132975Y-58325839D01*
X110160327Y-58299232D01*
X110183797Y-58282491D01*
X110339860Y-58171173D01*
X110498096Y-58013489D01*
X110557594Y-57930689D01*
X110625435Y-57836277D01*
X110628453Y-57832077D01*
X110649320Y-57789857D01*
X110725136Y-57636453D01*
X110725137Y-57636451D01*
X110727430Y-57631811D01*
X110792370Y-57418069D01*
X110821529Y-57196590D01*
X110823156Y-57130000D01*
X110804852Y-56907361D01*
X110750431Y-56690702D01*
X110661354Y-56485840D01*
X110621906Y-56424862D01*
X110542822Y-56302617D01*
X110542820Y-56302614D01*
X110540014Y-56298277D01*
X110389670Y-56133051D01*
X110385619Y-56129852D01*
X110385615Y-56129848D01*
X110218414Y-55997800D01*
X110218410Y-55997798D01*
X110214359Y-55994598D01*
X110173053Y-55971796D01*
X110123084Y-55921364D01*
X110108312Y-55851921D01*
X110133428Y-55785516D01*
X110160780Y-55758909D01*
X110204603Y-55727650D01*
X110339860Y-55631173D01*
X110352602Y-55618476D01*
X110421209Y-55550107D01*
X110498096Y-55473489D01*
X110628453Y-55292077D01*
X110641995Y-55264678D01*
X110725136Y-55096453D01*
X110725137Y-55096451D01*
X110727430Y-55091811D01*
X110792370Y-54878069D01*
X110821529Y-54656590D01*
X110821611Y-54653240D01*
X110823074Y-54593365D01*
X110823074Y-54593361D01*
X110823156Y-54590000D01*
X110804852Y-54367361D01*
X110750431Y-54150702D01*
X110661354Y-53945840D01*
X110540014Y-53758277D01*
X110389670Y-53593051D01*
X110385619Y-53589852D01*
X110385615Y-53589848D01*
X110218414Y-53457800D01*
X110218410Y-53457798D01*
X110214359Y-53454598D01*
X110173053Y-53431796D01*
X110123084Y-53381364D01*
X110108312Y-53311921D01*
X110133428Y-53245516D01*
X110160780Y-53218909D01*
X110225455Y-53172777D01*
X110339860Y-53091173D01*
X110498096Y-52933489D01*
X110557594Y-52850689D01*
X110625435Y-52756277D01*
X110628453Y-52752077D01*
X110639380Y-52729969D01*
X110725136Y-52556453D01*
X110725137Y-52556451D01*
X110727430Y-52551811D01*
X110792370Y-52338069D01*
X110821529Y-52116590D01*
X110823156Y-52050000D01*
X110804852Y-51827361D01*
X110750431Y-51610702D01*
X110661354Y-51405840D01*
X110589947Y-51295461D01*
X110542822Y-51222617D01*
X110542820Y-51222614D01*
X110540014Y-51218277D01*
X110389670Y-51053051D01*
X110385619Y-51049852D01*
X110385615Y-51049848D01*
X110218414Y-50917800D01*
X110218410Y-50917798D01*
X110214359Y-50914598D01*
X110172569Y-50891529D01*
X110122598Y-50841097D01*
X110107826Y-50771654D01*
X110132942Y-50705248D01*
X110160294Y-50678641D01*
X110335328Y-50553792D01*
X110343200Y-50547139D01*
X110494052Y-50396812D01*
X110500730Y-50388965D01*
X110625003Y-50216020D01*
X110630313Y-50207183D01*
X110724670Y-50016267D01*
X110728469Y-50006672D01*
X110790377Y-49802910D01*
X110792555Y-49792837D01*
X110793986Y-49781962D01*
X110791775Y-49767778D01*
X110778617Y-49764000D01*
X109332000Y-49764000D01*
X109263879Y-49743998D01*
X109217386Y-49690342D01*
X109206000Y-49638000D01*
X109206000Y-49382000D01*
X109226002Y-49313879D01*
X109279658Y-49267386D01*
X109332000Y-49256000D01*
X110778344Y-49256000D01*
X110791875Y-49252027D01*
X110793180Y-49242947D01*
X110751214Y-49075875D01*
X110747894Y-49066124D01*
X110662972Y-48870814D01*
X110658105Y-48861739D01*
X110542426Y-48682926D01*
X110536136Y-48674757D01*
X110392806Y-48517240D01*
X110385273Y-48510215D01*
X110218139Y-48378222D01*
X110209556Y-48372520D01*
X110172602Y-48352120D01*
X110122631Y-48301687D01*
X110107859Y-48232245D01*
X110132975Y-48165839D01*
X110160327Y-48139232D01*
X110183797Y-48122491D01*
X110339860Y-48011173D01*
X110498096Y-47853489D01*
X110557594Y-47770689D01*
X110625435Y-47676277D01*
X110628453Y-47672077D01*
X110649320Y-47629857D01*
X110725136Y-47476453D01*
X110725137Y-47476451D01*
X110727430Y-47471811D01*
X110792370Y-47258069D01*
X110821529Y-47036590D01*
X110823156Y-46970000D01*
X110804852Y-46747361D01*
X110750431Y-46530702D01*
X110661354Y-46325840D01*
X110540014Y-46138277D01*
X110389670Y-45973051D01*
X110385619Y-45969852D01*
X110385615Y-45969848D01*
X110218414Y-45837800D01*
X110218410Y-45837798D01*
X110214359Y-45834598D01*
X110173053Y-45811796D01*
X110123084Y-45761364D01*
X110108312Y-45691921D01*
X110133428Y-45625516D01*
X110160780Y-45598909D01*
X110227193Y-45551537D01*
X110339860Y-45471173D01*
X110498096Y-45313489D01*
X110543661Y-45250079D01*
X110625435Y-45136277D01*
X110628453Y-45132077D01*
X110659968Y-45068312D01*
X110725136Y-44936453D01*
X110725137Y-44936451D01*
X110727430Y-44931811D01*
X110762857Y-44815209D01*
X110790865Y-44723023D01*
X110790865Y-44723021D01*
X110792370Y-44718069D01*
X110821529Y-44496590D01*
X110821993Y-44477611D01*
X110823074Y-44433365D01*
X110823074Y-44433361D01*
X110823156Y-44430000D01*
X110804852Y-44207361D01*
X110750431Y-43990702D01*
X110661354Y-43785840D01*
X110618592Y-43719740D01*
X110542822Y-43602617D01*
X110542820Y-43602614D01*
X110540014Y-43598277D01*
X110389670Y-43433051D01*
X110385619Y-43429852D01*
X110385615Y-43429848D01*
X110218414Y-43297800D01*
X110218410Y-43297798D01*
X110214359Y-43294598D01*
X110018789Y-43186638D01*
X110013920Y-43184914D01*
X110013916Y-43184912D01*
X109813087Y-43113795D01*
X109813083Y-43113794D01*
X109808212Y-43112069D01*
X109803119Y-43111162D01*
X109803116Y-43111161D01*
X109593373Y-43073800D01*
X109593367Y-43073799D01*
X109588284Y-43072894D01*
X109514452Y-43071992D01*
X109370081Y-43070228D01*
X109370079Y-43070228D01*
X109364911Y-43070165D01*
X109144091Y-43103955D01*
X108931756Y-43173357D01*
X108733607Y-43276507D01*
X108729474Y-43279610D01*
X108729471Y-43279612D01*
X108559100Y-43407530D01*
X108554965Y-43410635D01*
X108498537Y-43469684D01*
X108474283Y-43495064D01*
X108412759Y-43530494D01*
X108341846Y-43527037D01*
X108284060Y-43485791D01*
X108265207Y-43452243D01*
X108223767Y-43341703D01*
X108220615Y-43333295D01*
X108133261Y-43216739D01*
X108016705Y-43129385D01*
X107880316Y-43078255D01*
X107818134Y-43071500D01*
X106021866Y-43071500D01*
X105959684Y-43078255D01*
X105823295Y-43129385D01*
X105706739Y-43216739D01*
X105619385Y-43333295D01*
X105568255Y-43469684D01*
X105561500Y-43531866D01*
X105561500Y-45328134D01*
X105568255Y-45390316D01*
X105619385Y-45526705D01*
X105706739Y-45643261D01*
X105823295Y-45730615D01*
X105831704Y-45733767D01*
X105831705Y-45733768D01*
X105940451Y-45774535D01*
X105997216Y-45817176D01*
X106021916Y-45883738D01*
X106006709Y-45953087D01*
X105987316Y-45979568D01*
X105866494Y-46106001D01*
X105860629Y-46112138D01*
X105734743Y-46296680D01*
X105640688Y-46499305D01*
X105580989Y-46714570D01*
X105557251Y-46936695D01*
X105557548Y-46941848D01*
X105557548Y-46941851D01*
X105563011Y-47036590D01*
X105570110Y-47159715D01*
X105571247Y-47164761D01*
X105571248Y-47164767D01*
X105591119Y-47252939D01*
X105619222Y-47377639D01*
X105703266Y-47584616D01*
X105754019Y-47667438D01*
X105817291Y-47770688D01*
X105819987Y-47775088D01*
X105966250Y-47943938D01*
X106138126Y-48086632D01*
X106208595Y-48127811D01*
X106211445Y-48129476D01*
X106260169Y-48181114D01*
X106273240Y-48250897D01*
X106246509Y-48316669D01*
X106206055Y-48350027D01*
X106193607Y-48356507D01*
X106189474Y-48359610D01*
X106189471Y-48359612D01*
X106165247Y-48377800D01*
X106014965Y-48490635D01*
X105860629Y-48652138D01*
X105734743Y-48836680D01*
X105640688Y-49039305D01*
X105580989Y-49254570D01*
X105557251Y-49476695D01*
X105570110Y-49699715D01*
X105571247Y-49704761D01*
X105571248Y-49704767D01*
X105584597Y-49764000D01*
X105619222Y-49917639D01*
X105703266Y-50124616D01*
X105819987Y-50315088D01*
X105966250Y-50483938D01*
X106138126Y-50626632D01*
X106208595Y-50667811D01*
X106211445Y-50669476D01*
X106260169Y-50721114D01*
X106273240Y-50790897D01*
X106246509Y-50856669D01*
X106206055Y-50890027D01*
X106193607Y-50896507D01*
X106189474Y-50899610D01*
X106189471Y-50899612D01*
X106096999Y-50969042D01*
X106014965Y-51030635D01*
X105860629Y-51192138D01*
X105734743Y-51376680D01*
X105640688Y-51579305D01*
X105580989Y-51794570D01*
X105557251Y-52016695D01*
X105557548Y-52021848D01*
X105557548Y-52021851D01*
X105563011Y-52116590D01*
X105570110Y-52239715D01*
X105571247Y-52244761D01*
X105571248Y-52244767D01*
X105591119Y-52332939D01*
X105619222Y-52457639D01*
X105703266Y-52664616D01*
X105741013Y-52726213D01*
X105817291Y-52850688D01*
X105819987Y-52855088D01*
X105966250Y-53023938D01*
X106138126Y-53166632D01*
X106147783Y-53172275D01*
X106211955Y-53209774D01*
X106260679Y-53261412D01*
X106273750Y-53331195D01*
X106247019Y-53396967D01*
X106206562Y-53430327D01*
X106198457Y-53434546D01*
X106189738Y-53440036D01*
X106019433Y-53567905D01*
X106011726Y-53574748D01*
X105864590Y-53728717D01*
X105858104Y-53736727D01*
X105738098Y-53912649D01*
X105733000Y-53921623D01*
X105643338Y-54114783D01*
X105639775Y-54124470D01*
X105584389Y-54324183D01*
X105585912Y-54332607D01*
X105598292Y-54336000D01*
X107048000Y-54336000D01*
X107116121Y-54356002D01*
X107162614Y-54409658D01*
X107174000Y-54462000D01*
X107174000Y-54718000D01*
X107153998Y-54786121D01*
X107100342Y-54832614D01*
X107048000Y-54844000D01*
X105603225Y-54844000D01*
X105589694Y-54847973D01*
X105588257Y-54857966D01*
X105618565Y-54992446D01*
X105621645Y-55002275D01*
X105701770Y-55199603D01*
X105706413Y-55208794D01*
X105817694Y-55390388D01*
X105823777Y-55398699D01*
X105963213Y-55559667D01*
X105970580Y-55566883D01*
X106134434Y-55702916D01*
X106142881Y-55708831D01*
X106211969Y-55749203D01*
X106260693Y-55800842D01*
X106273764Y-55870625D01*
X106247033Y-55936396D01*
X106206584Y-55969752D01*
X106193607Y-55976507D01*
X106189474Y-55979610D01*
X106189471Y-55979612D01*
X106019100Y-56107530D01*
X106014965Y-56110635D01*
X105860629Y-56272138D01*
X105734743Y-56456680D01*
X105640688Y-56659305D01*
X105580989Y-56874570D01*
X105557251Y-57096695D01*
X105557548Y-57101848D01*
X105557548Y-57101851D01*
X105563766Y-57209687D01*
X105570110Y-57319715D01*
X105571247Y-57324761D01*
X105571248Y-57324767D01*
X105591119Y-57412939D01*
X105619222Y-57537639D01*
X105703266Y-57744616D01*
X105754019Y-57827438D01*
X105817291Y-57930688D01*
X105819987Y-57935088D01*
X105966250Y-58103938D01*
X106138126Y-58246632D01*
X106208595Y-58287811D01*
X106211445Y-58289476D01*
X106260169Y-58341114D01*
X106273240Y-58410897D01*
X106246509Y-58476669D01*
X106206055Y-58510027D01*
X106193607Y-58516507D01*
X106189474Y-58519610D01*
X106189471Y-58519612D01*
X106165247Y-58537800D01*
X106014965Y-58650635D01*
X105860629Y-58812138D01*
X105734743Y-58996680D01*
X105640688Y-59199305D01*
X105580989Y-59414570D01*
X105557251Y-59636695D01*
X105570110Y-59859715D01*
X105571247Y-59864761D01*
X105571248Y-59864767D01*
X105584597Y-59924000D01*
X105619222Y-60077639D01*
X105703266Y-60284616D01*
X105819987Y-60475088D01*
X105966250Y-60643938D01*
X106138126Y-60786632D01*
X106208595Y-60827811D01*
X106211445Y-60829476D01*
X106260169Y-60881114D01*
X106273240Y-60950897D01*
X106246509Y-61016669D01*
X106206055Y-61050027D01*
X106193607Y-61056507D01*
X106189474Y-61059610D01*
X106189471Y-61059612D01*
X106019100Y-61187530D01*
X106014965Y-61190635D01*
X106011393Y-61194373D01*
X105923046Y-61286823D01*
X105860629Y-61352138D01*
X105734743Y-61536680D01*
X105640688Y-61739305D01*
X105580989Y-61954570D01*
X105557251Y-62176695D01*
X105557548Y-62181848D01*
X105557548Y-62181851D01*
X105563011Y-62276590D01*
X105570110Y-62399715D01*
X105571247Y-62404761D01*
X105571248Y-62404767D01*
X105591119Y-62492939D01*
X105619222Y-62617639D01*
X105703266Y-62824616D01*
X105754019Y-62907438D01*
X105817291Y-63010688D01*
X105819987Y-63015088D01*
X105966250Y-63183938D01*
X106138126Y-63326632D01*
X106208595Y-63367811D01*
X106211445Y-63369476D01*
X106260169Y-63421114D01*
X106273240Y-63490897D01*
X106246509Y-63556669D01*
X106206055Y-63590027D01*
X106202054Y-63592110D01*
X106193607Y-63596507D01*
X106189474Y-63599610D01*
X106189471Y-63599612D01*
X106044792Y-63708240D01*
X106014965Y-63730635D01*
X106011393Y-63734373D01*
X105879611Y-63872275D01*
X105860629Y-63892138D01*
X105734743Y-64076680D01*
X105640688Y-64279305D01*
X105580989Y-64494570D01*
X105557251Y-64716695D01*
X105557548Y-64721848D01*
X105557548Y-64721851D01*
X105563684Y-64828266D01*
X105570110Y-64939715D01*
X105571247Y-64944761D01*
X105571248Y-64944767D01*
X105588751Y-65022432D01*
X105619222Y-65157639D01*
X105703266Y-65364616D01*
X105754019Y-65447438D01*
X105817291Y-65550688D01*
X105819987Y-65555088D01*
X105966250Y-65723938D01*
X106138126Y-65866632D01*
X106183212Y-65892978D01*
X106211445Y-65909476D01*
X106260169Y-65961114D01*
X106273240Y-66030897D01*
X106246509Y-66096669D01*
X106206055Y-66130027D01*
X106193607Y-66136507D01*
X106189474Y-66139610D01*
X106189471Y-66139612D01*
X106022470Y-66265000D01*
X106014965Y-66270635D01*
X105860629Y-66432138D01*
X105857715Y-66436410D01*
X105857714Y-66436411D01*
X105809886Y-66506524D01*
X105734743Y-66616680D01*
X105640688Y-66819305D01*
X105580989Y-67034570D01*
X105557251Y-67256695D01*
X105557548Y-67261848D01*
X105557548Y-67261851D01*
X105561764Y-67334969D01*
X105570110Y-67479715D01*
X105571247Y-67484761D01*
X105571248Y-67484767D01*
X105584597Y-67544000D01*
X105619222Y-67697639D01*
X105703266Y-67904616D01*
X105819987Y-68095088D01*
X105966250Y-68263938D01*
X106138126Y-68406632D01*
X106208595Y-68447811D01*
X106211445Y-68449476D01*
X106260169Y-68501114D01*
X106273240Y-68570897D01*
X106246509Y-68636669D01*
X106206055Y-68670027D01*
X106193607Y-68676507D01*
X106189474Y-68679610D01*
X106189471Y-68679612D01*
X106165247Y-68697800D01*
X106014965Y-68810635D01*
X105860629Y-68972138D01*
X105734743Y-69156680D01*
X105640688Y-69359305D01*
X105580989Y-69574570D01*
X105557251Y-69796695D01*
X105557548Y-69801848D01*
X105557548Y-69801851D01*
X105563011Y-69896590D01*
X105570110Y-70019715D01*
X105571247Y-70024761D01*
X105571248Y-70024767D01*
X105591119Y-70112939D01*
X105619222Y-70237639D01*
X105703266Y-70444616D01*
X105754019Y-70527438D01*
X105817291Y-70630688D01*
X105819987Y-70635088D01*
X105966250Y-70803938D01*
X106138126Y-70946632D01*
X106208595Y-70987811D01*
X106211445Y-70989476D01*
X106260169Y-71041114D01*
X106273240Y-71110897D01*
X106246509Y-71176669D01*
X106206055Y-71210027D01*
X106193607Y-71216507D01*
X106189474Y-71219610D01*
X106189471Y-71219612D01*
X106019100Y-71347530D01*
X106014965Y-71350635D01*
X105860629Y-71512138D01*
X105734743Y-71696680D01*
X105719003Y-71730590D01*
X105653444Y-71871825D01*
X105640688Y-71899305D01*
X105580989Y-72114570D01*
X105557251Y-72336695D01*
X105557548Y-72341848D01*
X105557548Y-72341851D01*
X105568587Y-72533301D01*
X105570110Y-72559715D01*
X105571247Y-72564761D01*
X105571248Y-72564767D01*
X105582752Y-72615812D01*
X105619222Y-72777639D01*
X105657461Y-72871811D01*
X105690384Y-72952890D01*
X105703266Y-72984616D01*
X105754019Y-73067438D01*
X105817291Y-73170688D01*
X105819987Y-73175088D01*
X105966250Y-73343938D01*
X106138126Y-73486632D01*
X106211445Y-73529476D01*
X106211955Y-73529774D01*
X106260679Y-73581412D01*
X106273750Y-73651195D01*
X106247019Y-73716967D01*
X106206562Y-73750327D01*
X106198457Y-73754546D01*
X106189738Y-73760036D01*
X106019433Y-73887905D01*
X106011726Y-73894748D01*
X105864590Y-74048717D01*
X105858104Y-74056727D01*
X105738098Y-74232649D01*
X105733000Y-74241623D01*
X105643338Y-74434783D01*
X105639775Y-74444470D01*
X105584389Y-74644183D01*
X105585912Y-74652607D01*
X105598292Y-74656000D01*
X107048000Y-74656000D01*
X107116121Y-74676002D01*
X107162614Y-74729658D01*
X107174000Y-74782000D01*
X107174000Y-75038000D01*
X107153998Y-75106121D01*
X107100342Y-75152614D01*
X107048000Y-75164000D01*
X105603225Y-75164000D01*
X105589694Y-75167973D01*
X105588257Y-75177966D01*
X105618565Y-75312446D01*
X105621645Y-75322275D01*
X105701770Y-75519603D01*
X105706413Y-75528794D01*
X105817694Y-75710388D01*
X105823777Y-75718699D01*
X105963213Y-75879667D01*
X105970580Y-75886883D01*
X106134434Y-76022916D01*
X106142881Y-76028831D01*
X106211969Y-76069203D01*
X106260693Y-76120842D01*
X106273764Y-76190625D01*
X106247033Y-76256396D01*
X106206584Y-76289752D01*
X106193607Y-76296507D01*
X106189474Y-76299610D01*
X106189471Y-76299612D01*
X106019100Y-76427530D01*
X106014965Y-76430635D01*
X105860629Y-76592138D01*
X105734743Y-76776680D01*
X105640688Y-76979305D01*
X105580989Y-77194570D01*
X105557251Y-77416695D01*
X105557548Y-77421848D01*
X105557548Y-77421851D01*
X105563011Y-77516590D01*
X105570110Y-77639715D01*
X105571247Y-77644761D01*
X105571248Y-77644767D01*
X105579234Y-77680202D01*
X105619222Y-77857639D01*
X105657461Y-77951811D01*
X105688037Y-78027110D01*
X105703266Y-78064616D01*
X105749587Y-78140205D01*
X105817291Y-78250688D01*
X105819987Y-78255088D01*
X105966250Y-78423938D01*
X106138126Y-78566632D01*
X106200467Y-78603061D01*
X106211445Y-78609476D01*
X106260169Y-78661114D01*
X106273240Y-78730897D01*
X106246509Y-78796669D01*
X106206055Y-78830027D01*
X106193607Y-78836507D01*
X106189474Y-78839610D01*
X106189471Y-78839612D01*
X106165247Y-78857800D01*
X106014965Y-78970635D01*
X105860629Y-79132138D01*
X105857715Y-79136410D01*
X105857714Y-79136411D01*
X105807036Y-79210702D01*
X105734743Y-79316680D01*
X105640688Y-79519305D01*
X105580989Y-79734570D01*
X105557251Y-79956695D01*
X105557548Y-79961848D01*
X105557548Y-79961851D01*
X105563011Y-80056590D01*
X105570110Y-80179715D01*
X105571247Y-80184761D01*
X105571248Y-80184767D01*
X105592275Y-80278069D01*
X105619222Y-80397639D01*
X105661697Y-80502242D01*
X105695538Y-80585583D01*
X105703266Y-80604616D01*
X105819987Y-80795088D01*
X105966250Y-80963938D01*
X106138126Y-81106632D01*
X106208595Y-81147811D01*
X106211445Y-81149476D01*
X106260169Y-81201114D01*
X106273240Y-81270897D01*
X106246509Y-81336669D01*
X106206055Y-81370027D01*
X106193607Y-81376507D01*
X106189474Y-81379610D01*
X106189471Y-81379612D01*
X106165247Y-81397800D01*
X106014965Y-81510635D01*
X105860629Y-81672138D01*
X105734743Y-81856680D01*
X105640688Y-82059305D01*
X105580989Y-82274570D01*
X105557251Y-82496695D01*
X105557548Y-82501848D01*
X105557548Y-82501851D01*
X105569812Y-82714547D01*
X105570110Y-82719715D01*
X105571247Y-82724761D01*
X105571248Y-82724767D01*
X105591119Y-82812939D01*
X105619222Y-82937639D01*
X105703266Y-83144616D01*
X105754019Y-83227438D01*
X105817291Y-83330688D01*
X105819987Y-83335088D01*
X105966250Y-83503938D01*
X106138126Y-83646632D01*
X106208595Y-83687811D01*
X106211445Y-83689476D01*
X106260169Y-83741114D01*
X106273240Y-83810897D01*
X106246509Y-83876669D01*
X106206055Y-83910027D01*
X106193607Y-83916507D01*
X106189474Y-83919610D01*
X106189471Y-83919612D01*
X106100807Y-83986183D01*
X106014965Y-84050635D01*
X106011393Y-84054373D01*
X105883529Y-84188175D01*
X105860629Y-84212138D01*
X105734743Y-84396680D01*
X105718899Y-84430814D01*
X105676684Y-84521759D01*
X105640688Y-84599305D01*
X105580989Y-84814570D01*
X105557251Y-85036695D01*
X105570110Y-85259715D01*
X105571247Y-85264761D01*
X105571248Y-85264767D01*
X105590462Y-85350023D01*
X105619222Y-85477639D01*
X105703266Y-85684616D01*
X105819987Y-85875088D01*
X105966250Y-86043938D01*
X106138126Y-86186632D01*
X106203340Y-86224740D01*
X106211445Y-86229476D01*
X106260169Y-86281114D01*
X106273240Y-86350897D01*
X106246509Y-86416669D01*
X106206055Y-86450027D01*
X106193607Y-86456507D01*
X106189474Y-86459610D01*
X106189471Y-86459612D01*
X106019100Y-86587530D01*
X106014965Y-86590635D01*
X106011393Y-86594373D01*
X105886825Y-86724726D01*
X105860629Y-86752138D01*
X105734743Y-86936680D01*
X105640688Y-87139305D01*
X105580989Y-87354570D01*
X105557251Y-87576695D01*
X105557548Y-87581848D01*
X105557548Y-87581851D01*
X105562895Y-87674580D01*
X105570110Y-87799715D01*
X105571247Y-87804761D01*
X105571248Y-87804767D01*
X105585375Y-87867452D01*
X105619222Y-88017639D01*
X105703266Y-88224616D01*
X105754019Y-88307438D01*
X105817291Y-88410688D01*
X105819987Y-88415088D01*
X105966250Y-88583938D01*
X106138126Y-88726632D01*
X106157883Y-88738177D01*
X106211445Y-88769476D01*
X106260169Y-88821114D01*
X106273240Y-88890897D01*
X106246509Y-88956669D01*
X106206055Y-88990027D01*
X106193607Y-88996507D01*
X106189474Y-88999610D01*
X106189471Y-88999612D01*
X106048761Y-89105260D01*
X106014965Y-89130635D01*
X105860629Y-89292138D01*
X105734743Y-89476680D01*
X105640688Y-89679305D01*
X105580989Y-89894570D01*
X105557251Y-90116695D01*
X53514111Y-90116695D01*
X53513761Y-88897670D01*
X95969660Y-88897670D01*
X95975387Y-88905320D01*
X96146542Y-89010205D01*
X96155337Y-89014687D01*
X96365488Y-89101734D01*
X96374873Y-89104783D01*
X96596054Y-89157885D01*
X96605801Y-89159428D01*
X96832570Y-89177275D01*
X96842430Y-89177275D01*
X97069199Y-89159428D01*
X97078946Y-89157885D01*
X97300127Y-89104783D01*
X97309512Y-89101734D01*
X97519663Y-89014687D01*
X97528458Y-89010205D01*
X97695945Y-88907568D01*
X97705407Y-88897110D01*
X97701624Y-88888334D01*
X96850312Y-88037022D01*
X96836368Y-88029408D01*
X96834535Y-88029539D01*
X96827920Y-88033790D01*
X95976420Y-88885290D01*
X95969660Y-88897670D01*
X53513761Y-88897670D01*
X53512743Y-85354891D01*
X56226296Y-85354891D01*
X56227348Y-85362794D01*
X56228312Y-85373547D01*
X56241285Y-85652054D01*
X56288539Y-85945751D01*
X56289496Y-85949176D01*
X56289497Y-85949180D01*
X56366827Y-86225895D01*
X56368602Y-86232248D01*
X56369935Y-86235532D01*
X56369937Y-86235539D01*
X56468244Y-86477800D01*
X56480455Y-86507892D01*
X56622670Y-86769168D01*
X56624716Y-86772086D01*
X56624717Y-86772088D01*
X56772467Y-86982837D01*
X56793435Y-87012746D01*
X56795790Y-87015408D01*
X56795793Y-87015411D01*
X56957738Y-87198415D01*
X56990572Y-87235519D01*
X57211567Y-87434646D01*
X57214460Y-87436713D01*
X57214466Y-87436718D01*
X57372800Y-87549852D01*
X57453603Y-87607589D01*
X57456719Y-87609322D01*
X57456723Y-87609324D01*
X57710484Y-87750414D01*
X57710492Y-87750418D01*
X57713593Y-87752142D01*
X57716870Y-87753506D01*
X57716876Y-87753509D01*
X57984933Y-87865094D01*
X57984941Y-87865097D01*
X57988223Y-87866463D01*
X57991636Y-87867450D01*
X57991642Y-87867452D01*
X58213094Y-87931485D01*
X58273990Y-87949093D01*
X58277501Y-87949690D01*
X58277500Y-87949690D01*
X58563677Y-87998371D01*
X58567251Y-87998979D01*
X58570804Y-87999176D01*
X58570809Y-87999177D01*
X58679477Y-88005216D01*
X58830083Y-88013586D01*
X58843864Y-88015116D01*
X58851715Y-88016429D01*
X58856582Y-88016484D01*
X58856586Y-88016484D01*
X58857991Y-88016499D01*
X58864267Y-88016570D01*
X58869085Y-88015875D01*
X58869088Y-88015875D01*
X58891582Y-88012631D01*
X58909566Y-88011341D01*
X76028455Y-88011341D01*
X76049505Y-88013112D01*
X76064117Y-88015588D01*
X76064120Y-88015588D01*
X76068922Y-88016402D01*
X76076244Y-88016500D01*
X76076615Y-88016505D01*
X76081473Y-88016570D01*
X76086290Y-88015886D01*
X76086291Y-88015886D01*
X76086850Y-88015807D01*
X76097070Y-88014778D01*
X76372548Y-87998371D01*
X76376300Y-87997685D01*
X76376309Y-87997684D01*
X76584544Y-87959616D01*
X76659384Y-87945934D01*
X76937765Y-87859167D01*
X77203598Y-87739345D01*
X77318150Y-87669930D01*
X95325225Y-87669930D01*
X95343072Y-87896699D01*
X95344615Y-87906446D01*
X95397717Y-88127627D01*
X95400766Y-88137012D01*
X95487813Y-88347163D01*
X95492295Y-88355958D01*
X95594932Y-88523445D01*
X95605390Y-88532907D01*
X95614166Y-88529124D01*
X96465478Y-87677812D01*
X96471856Y-87666132D01*
X97201908Y-87666132D01*
X97202039Y-87667965D01*
X97206290Y-87674580D01*
X98057790Y-88526080D01*
X98070170Y-88532840D01*
X98077820Y-88527113D01*
X98182705Y-88355958D01*
X98187187Y-88347163D01*
X98274234Y-88137012D01*
X98277283Y-88127627D01*
X98330385Y-87906446D01*
X98331928Y-87896699D01*
X98349775Y-87669930D01*
X98349775Y-87665000D01*
X99824335Y-87665000D01*
X99842965Y-87901711D01*
X99844119Y-87906518D01*
X99844120Y-87906524D01*
X99870527Y-88016515D01*
X99898395Y-88132594D01*
X99900288Y-88137165D01*
X99900289Y-88137167D01*
X99987272Y-88347163D01*
X99989260Y-88351963D01*
X99991846Y-88356183D01*
X100110741Y-88550202D01*
X100110745Y-88550208D01*
X100113324Y-88554416D01*
X100198523Y-88654171D01*
X100260411Y-88726632D01*
X100267531Y-88734969D01*
X100448084Y-88889176D01*
X100452292Y-88891755D01*
X100452298Y-88891759D01*
X100612657Y-88990027D01*
X100650537Y-89013240D01*
X100655107Y-89015133D01*
X100655111Y-89015135D01*
X100865333Y-89102211D01*
X100869906Y-89104105D01*
X100950109Y-89123360D01*
X101095976Y-89158380D01*
X101095982Y-89158381D01*
X101100789Y-89159535D01*
X101337500Y-89178165D01*
X101574211Y-89159535D01*
X101579018Y-89158381D01*
X101579024Y-89158380D01*
X101724891Y-89123360D01*
X101805094Y-89104105D01*
X101809667Y-89102211D01*
X102019889Y-89015135D01*
X102019893Y-89015133D01*
X102024463Y-89013240D01*
X102062343Y-88990027D01*
X102222702Y-88891759D01*
X102222708Y-88891755D01*
X102226916Y-88889176D01*
X102407469Y-88734969D01*
X102414590Y-88726632D01*
X102476477Y-88654171D01*
X102561676Y-88554416D01*
X102564255Y-88550208D01*
X102564259Y-88550202D01*
X102683154Y-88356183D01*
X102685740Y-88351963D01*
X102687729Y-88347163D01*
X102774711Y-88137167D01*
X102774712Y-88137165D01*
X102776605Y-88132594D01*
X102804473Y-88016515D01*
X102830880Y-87906524D01*
X102830881Y-87906518D01*
X102832035Y-87901711D01*
X102850665Y-87665000D01*
X102832035Y-87428289D01*
X102826525Y-87405335D01*
X102777760Y-87202218D01*
X102776605Y-87197406D01*
X102774711Y-87192833D01*
X102687635Y-86982611D01*
X102687633Y-86982607D01*
X102685740Y-86978037D01*
X102671391Y-86954621D01*
X102564259Y-86779798D01*
X102564255Y-86779792D01*
X102561676Y-86775584D01*
X102407469Y-86595031D01*
X102398687Y-86587530D01*
X102263540Y-86472104D01*
X102226916Y-86440824D01*
X102222708Y-86438245D01*
X102222702Y-86438241D01*
X102028683Y-86319346D01*
X102024463Y-86316760D01*
X102019893Y-86314867D01*
X102019889Y-86314865D01*
X101809667Y-86227789D01*
X101809665Y-86227788D01*
X101805094Y-86225895D01*
X101724891Y-86206640D01*
X101579024Y-86171620D01*
X101579018Y-86171619D01*
X101574211Y-86170465D01*
X101337500Y-86151835D01*
X101100789Y-86170465D01*
X101095982Y-86171619D01*
X101095976Y-86171620D01*
X100950109Y-86206640D01*
X100869906Y-86225895D01*
X100865335Y-86227788D01*
X100865333Y-86227789D01*
X100655111Y-86314865D01*
X100655107Y-86314867D01*
X100650537Y-86316760D01*
X100646317Y-86319346D01*
X100452298Y-86438241D01*
X100452292Y-86438245D01*
X100448084Y-86440824D01*
X100411460Y-86472104D01*
X100276314Y-86587530D01*
X100267531Y-86595031D01*
X100113324Y-86775584D01*
X100110745Y-86779792D01*
X100110741Y-86779798D01*
X100003609Y-86954621D01*
X99989260Y-86978037D01*
X99987367Y-86982607D01*
X99987365Y-86982611D01*
X99900289Y-87192833D01*
X99898395Y-87197406D01*
X99897240Y-87202218D01*
X99848476Y-87405335D01*
X99842965Y-87428289D01*
X99824335Y-87665000D01*
X98349775Y-87665000D01*
X98349775Y-87660070D01*
X98331928Y-87433301D01*
X98330385Y-87423554D01*
X98277283Y-87202373D01*
X98274234Y-87192988D01*
X98187187Y-86982837D01*
X98182705Y-86974042D01*
X98080068Y-86806555D01*
X98069610Y-86797093D01*
X98060834Y-86800876D01*
X97209522Y-87652188D01*
X97201908Y-87666132D01*
X96471856Y-87666132D01*
X96473092Y-87663868D01*
X96472961Y-87662035D01*
X96468710Y-87655420D01*
X95617210Y-86803920D01*
X95604830Y-86797160D01*
X95597180Y-86802887D01*
X95492295Y-86974042D01*
X95487813Y-86982837D01*
X95400766Y-87192988D01*
X95397717Y-87202373D01*
X95344615Y-87423554D01*
X95343072Y-87433301D01*
X95325225Y-87660070D01*
X95325225Y-87669930D01*
X77318150Y-87669930D01*
X77452975Y-87588230D01*
X77682229Y-87408045D01*
X77684928Y-87405335D01*
X77885286Y-87204153D01*
X77885293Y-87204145D01*
X77887990Y-87201437D01*
X77950362Y-87121406D01*
X78064884Y-86974460D01*
X78064889Y-86974452D01*
X78067233Y-86971445D01*
X78091192Y-86931538D01*
X78215356Y-86724726D01*
X78215359Y-86724721D01*
X78217323Y-86721449D01*
X78336052Y-86455127D01*
X78337172Y-86451481D01*
X78337175Y-86451473D01*
X78342883Y-86432890D01*
X95969593Y-86432890D01*
X95973376Y-86441666D01*
X96824688Y-87292978D01*
X96838632Y-87300592D01*
X96840465Y-87300461D01*
X96847080Y-87296210D01*
X97698580Y-86444710D01*
X97705340Y-86432330D01*
X97699613Y-86424680D01*
X97528458Y-86319795D01*
X97519663Y-86315313D01*
X97309512Y-86228266D01*
X97300127Y-86225217D01*
X97078946Y-86172115D01*
X97069199Y-86170572D01*
X96842430Y-86152725D01*
X96832570Y-86152725D01*
X96605801Y-86170572D01*
X96596054Y-86172115D01*
X96374873Y-86225217D01*
X96365488Y-86228266D01*
X96155337Y-86315313D01*
X96146542Y-86319795D01*
X95979055Y-86422432D01*
X95969593Y-86432890D01*
X78342883Y-86432890D01*
X78420552Y-86180051D01*
X78421676Y-86176392D01*
X78472935Y-85889343D01*
X78479218Y-85776020D01*
X78487260Y-85630945D01*
X78488704Y-85617674D01*
X78489050Y-85615552D01*
X78489051Y-85615540D01*
X78489831Y-85610749D01*
X78489918Y-85598196D01*
X78486100Y-85572504D01*
X78484731Y-85553888D01*
X78485305Y-84789428D01*
X78485501Y-84527670D01*
X95969660Y-84527670D01*
X95975387Y-84535320D01*
X96146542Y-84640205D01*
X96155337Y-84644687D01*
X96365488Y-84731734D01*
X96374873Y-84734783D01*
X96596054Y-84787885D01*
X96605801Y-84789428D01*
X96832570Y-84807275D01*
X96842430Y-84807275D01*
X97069199Y-84789428D01*
X97078946Y-84787885D01*
X97300127Y-84734783D01*
X97309512Y-84731734D01*
X97519663Y-84644687D01*
X97528458Y-84640205D01*
X97695945Y-84537568D01*
X97705407Y-84527110D01*
X97701624Y-84518334D01*
X96850312Y-83667022D01*
X96836368Y-83659408D01*
X96834535Y-83659539D01*
X96827920Y-83663790D01*
X95976420Y-84515290D01*
X95969660Y-84527670D01*
X78485501Y-84527670D01*
X78486422Y-83299930D01*
X95325225Y-83299930D01*
X95343072Y-83526699D01*
X95344615Y-83536446D01*
X95397717Y-83757627D01*
X95400766Y-83767012D01*
X95487813Y-83977163D01*
X95492295Y-83985958D01*
X95594932Y-84153445D01*
X95605390Y-84162907D01*
X95614166Y-84159124D01*
X96465478Y-83307812D01*
X96471856Y-83296132D01*
X97201908Y-83296132D01*
X97202039Y-83297965D01*
X97206290Y-83304580D01*
X98057790Y-84156080D01*
X98070170Y-84162840D01*
X98077820Y-84157113D01*
X98182705Y-83985958D01*
X98187187Y-83977163D01*
X98274234Y-83767012D01*
X98277283Y-83757627D01*
X98330385Y-83536446D01*
X98331928Y-83526699D01*
X98349775Y-83299930D01*
X98349775Y-83295000D01*
X99824335Y-83295000D01*
X99842965Y-83531711D01*
X99844119Y-83536518D01*
X99844120Y-83536524D01*
X99870555Y-83646632D01*
X99898395Y-83762594D01*
X99900288Y-83767165D01*
X99900289Y-83767167D01*
X99987272Y-83977163D01*
X99989260Y-83981963D01*
X99991846Y-83986183D01*
X100110741Y-84180202D01*
X100110745Y-84180208D01*
X100113324Y-84184416D01*
X100267531Y-84364969D01*
X100448084Y-84519176D01*
X100452292Y-84521755D01*
X100452298Y-84521759D01*
X100571180Y-84594610D01*
X100650537Y-84643240D01*
X100655107Y-84645133D01*
X100655111Y-84645135D01*
X100865333Y-84732211D01*
X100869906Y-84734105D01*
X100950109Y-84753360D01*
X101095976Y-84788380D01*
X101095982Y-84788381D01*
X101100789Y-84789535D01*
X101337500Y-84808165D01*
X101574211Y-84789535D01*
X101579018Y-84788381D01*
X101579024Y-84788380D01*
X101724891Y-84753360D01*
X101805094Y-84734105D01*
X101809667Y-84732211D01*
X102019889Y-84645135D01*
X102019893Y-84645133D01*
X102024463Y-84643240D01*
X102103820Y-84594610D01*
X102222702Y-84521759D01*
X102222708Y-84521755D01*
X102226916Y-84519176D01*
X102407469Y-84364969D01*
X102561676Y-84184416D01*
X102564255Y-84180208D01*
X102564259Y-84180202D01*
X102683154Y-83986183D01*
X102685740Y-83981963D01*
X102687729Y-83977163D01*
X102774711Y-83767167D01*
X102774712Y-83767165D01*
X102776605Y-83762594D01*
X102804445Y-83646632D01*
X102830880Y-83536524D01*
X102830881Y-83536518D01*
X102832035Y-83531711D01*
X102850665Y-83295000D01*
X102832035Y-83058289D01*
X102825679Y-83031811D01*
X102777760Y-82832218D01*
X102776605Y-82827406D01*
X102734091Y-82724767D01*
X102687635Y-82612611D01*
X102687633Y-82612607D01*
X102685740Y-82608037D01*
X102637919Y-82530000D01*
X102564259Y-82409798D01*
X102564255Y-82409792D01*
X102561676Y-82405584D01*
X102407469Y-82225031D01*
X102226916Y-82070824D01*
X102222708Y-82068245D01*
X102222702Y-82068241D01*
X102028683Y-81949346D01*
X102024463Y-81946760D01*
X102019893Y-81944867D01*
X102019889Y-81944865D01*
X101809667Y-81857789D01*
X101809665Y-81857788D01*
X101805094Y-81855895D01*
X101724891Y-81836640D01*
X101579024Y-81801620D01*
X101579018Y-81801619D01*
X101574211Y-81800465D01*
X101337500Y-81781835D01*
X101100789Y-81800465D01*
X101095982Y-81801619D01*
X101095976Y-81801620D01*
X100950109Y-81836640D01*
X100869906Y-81855895D01*
X100865335Y-81857788D01*
X100865333Y-81857789D01*
X100655111Y-81944865D01*
X100655107Y-81944867D01*
X100650537Y-81946760D01*
X100646317Y-81949346D01*
X100452298Y-82068241D01*
X100452292Y-82068245D01*
X100448084Y-82070824D01*
X100267531Y-82225031D01*
X100113324Y-82405584D01*
X100110745Y-82409792D01*
X100110741Y-82409798D01*
X100037081Y-82530000D01*
X99989260Y-82608037D01*
X99987367Y-82612607D01*
X99987365Y-82612611D01*
X99940909Y-82724767D01*
X99898395Y-82827406D01*
X99897240Y-82832218D01*
X99849322Y-83031811D01*
X99842965Y-83058289D01*
X99824335Y-83295000D01*
X98349775Y-83295000D01*
X98349775Y-83290070D01*
X98331928Y-83063301D01*
X98330385Y-83053554D01*
X98277283Y-82832373D01*
X98274234Y-82822988D01*
X98187187Y-82612837D01*
X98182705Y-82604042D01*
X98080068Y-82436555D01*
X98069610Y-82427093D01*
X98060834Y-82430876D01*
X97209522Y-83282188D01*
X97201908Y-83296132D01*
X96471856Y-83296132D01*
X96473092Y-83293868D01*
X96472961Y-83292035D01*
X96468710Y-83285420D01*
X95617210Y-82433920D01*
X95604830Y-82427160D01*
X95597180Y-82432887D01*
X95492295Y-82604042D01*
X95487813Y-82612837D01*
X95400766Y-82822988D01*
X95397717Y-82832373D01*
X95344615Y-83053554D01*
X95343072Y-83063301D01*
X95325225Y-83290070D01*
X95325225Y-83299930D01*
X78486422Y-83299930D01*
X78486493Y-83205144D01*
X78487350Y-82062890D01*
X95969593Y-82062890D01*
X95973376Y-82071666D01*
X96824688Y-82922978D01*
X96838632Y-82930592D01*
X96840465Y-82930461D01*
X96847080Y-82926210D01*
X97698580Y-82074710D01*
X97705340Y-82062330D01*
X97699613Y-82054680D01*
X97528458Y-81949795D01*
X97519663Y-81945313D01*
X97309512Y-81858266D01*
X97300127Y-81855217D01*
X97078946Y-81802115D01*
X97069199Y-81800572D01*
X96842430Y-81782725D01*
X96832570Y-81782725D01*
X96605801Y-81800572D01*
X96596054Y-81802115D01*
X96374873Y-81855217D01*
X96365488Y-81858266D01*
X96155337Y-81945313D01*
X96146542Y-81949795D01*
X95979055Y-82052432D01*
X95969593Y-82062890D01*
X78487350Y-82062890D01*
X78488469Y-80571231D01*
X78489505Y-80555202D01*
X78493056Y-80527678D01*
X78493680Y-80522844D01*
X78493351Y-80510296D01*
X78491878Y-80502231D01*
X78490432Y-80491899D01*
X78469950Y-80282910D01*
X78464537Y-80227678D01*
X78446688Y-80146466D01*
X78404372Y-79953938D01*
X78404372Y-79953936D01*
X78403569Y-79950285D01*
X78359843Y-79824682D01*
X78311423Y-79685595D01*
X78311421Y-79685590D01*
X78310192Y-79682060D01*
X78273854Y-79607531D01*
X78187361Y-79430137D01*
X78187359Y-79430133D01*
X78185721Y-79426774D01*
X78117819Y-79321375D01*
X78033927Y-79191158D01*
X78033926Y-79191157D01*
X78031904Y-79188018D01*
X77850906Y-78969149D01*
X77645271Y-78773245D01*
X77642285Y-78771010D01*
X77642279Y-78771005D01*
X77495853Y-78661412D01*
X77417891Y-78603061D01*
X77171965Y-78460991D01*
X77076474Y-78420031D01*
X76914382Y-78350503D01*
X76914374Y-78350500D01*
X76910949Y-78349031D01*
X76703429Y-78287885D01*
X76642103Y-78269815D01*
X76642100Y-78269814D01*
X76638515Y-78268758D01*
X76584329Y-78259574D01*
X76362183Y-78221923D01*
X76362182Y-78221923D01*
X76358495Y-78221298D01*
X76109006Y-78209005D01*
X76095568Y-78207618D01*
X76093558Y-78207300D01*
X76092170Y-78207081D01*
X76092167Y-78207081D01*
X76087367Y-78206323D01*
X76081127Y-78206310D01*
X76079683Y-78206307D01*
X76079682Y-78206307D01*
X76074814Y-78206297D01*
X76069997Y-78207037D01*
X76069992Y-78207037D01*
X76050790Y-78209985D01*
X76031524Y-78211445D01*
X58661790Y-78191560D01*
X58641696Y-78189923D01*
X58619847Y-78186365D01*
X58614979Y-78186331D01*
X58614976Y-78186331D01*
X58613628Y-78186322D01*
X58607295Y-78186278D01*
X58599867Y-78187381D01*
X58589559Y-78188481D01*
X58505482Y-78193959D01*
X58325662Y-78205677D01*
X58325658Y-78205678D01*
X58321891Y-78205923D01*
X58040741Y-78258443D01*
X58004529Y-78269815D01*
X57771469Y-78343004D01*
X57771466Y-78343005D01*
X57767865Y-78344136D01*
X57764417Y-78345692D01*
X57510610Y-78460221D01*
X57510604Y-78460224D01*
X57507165Y-78461776D01*
X57262363Y-78609684D01*
X57036960Y-78785745D01*
X56970243Y-78852104D01*
X56851074Y-78970635D01*
X56834175Y-78987443D01*
X56656906Y-79211898D01*
X56507685Y-79455900D01*
X56506114Y-79459332D01*
X56506113Y-79459334D01*
X56461924Y-79555875D01*
X56388646Y-79715965D01*
X56387500Y-79719547D01*
X56387498Y-79719552D01*
X56378593Y-79747386D01*
X56301488Y-79988376D01*
X56247458Y-80269241D01*
X56247193Y-80272998D01*
X56229744Y-80520293D01*
X56228081Y-80533649D01*
X56226587Y-80541985D01*
X56226300Y-80554535D01*
X56230410Y-80585583D01*
X56231500Y-80602118D01*
X56231500Y-85303584D01*
X56229540Y-85325723D01*
X56228939Y-85329093D01*
X56226574Y-85342341D01*
X56226296Y-85354891D01*
X53512743Y-85354891D01*
X53510636Y-78027670D01*
X95969660Y-78027670D01*
X95975387Y-78035320D01*
X96146542Y-78140205D01*
X96155337Y-78144687D01*
X96365488Y-78231734D01*
X96374873Y-78234783D01*
X96596054Y-78287885D01*
X96605801Y-78289428D01*
X96832570Y-78307275D01*
X96842430Y-78307275D01*
X97069199Y-78289428D01*
X97078946Y-78287885D01*
X97300127Y-78234783D01*
X97309512Y-78231734D01*
X97519663Y-78144687D01*
X97528458Y-78140205D01*
X97695945Y-78037568D01*
X97705407Y-78027110D01*
X97701624Y-78018334D01*
X96850312Y-77167022D01*
X96836368Y-77159408D01*
X96834535Y-77159539D01*
X96827920Y-77163790D01*
X95976420Y-78015290D01*
X95969660Y-78027670D01*
X53510636Y-78027670D01*
X53510283Y-76799930D01*
X95325225Y-76799930D01*
X95343072Y-77026699D01*
X95344615Y-77036446D01*
X95397717Y-77257627D01*
X95400766Y-77267012D01*
X95487813Y-77477163D01*
X95492295Y-77485958D01*
X95594932Y-77653445D01*
X95605390Y-77662907D01*
X95614166Y-77659124D01*
X96465478Y-76807812D01*
X96471856Y-76796132D01*
X97201908Y-76796132D01*
X97202039Y-76797965D01*
X97206290Y-76804580D01*
X98057790Y-77656080D01*
X98070170Y-77662840D01*
X98077820Y-77657113D01*
X98182705Y-77485958D01*
X98187187Y-77477163D01*
X98274234Y-77267012D01*
X98277283Y-77257627D01*
X98330385Y-77036446D01*
X98331928Y-77026699D01*
X98349775Y-76799930D01*
X98349775Y-76795000D01*
X99824335Y-76795000D01*
X99842965Y-77031711D01*
X99898395Y-77262594D01*
X99900288Y-77267165D01*
X99900289Y-77267167D01*
X99987272Y-77477163D01*
X99989260Y-77481963D01*
X99991846Y-77486183D01*
X100110741Y-77680202D01*
X100110745Y-77680208D01*
X100113324Y-77684416D01*
X100267531Y-77864969D01*
X100448084Y-78019176D01*
X100452292Y-78021755D01*
X100452298Y-78021759D01*
X100576100Y-78097625D01*
X100650537Y-78143240D01*
X100655107Y-78145133D01*
X100655111Y-78145135D01*
X100865333Y-78232211D01*
X100869906Y-78234105D01*
X100950109Y-78253360D01*
X101095976Y-78288380D01*
X101095982Y-78288381D01*
X101100789Y-78289535D01*
X101337500Y-78308165D01*
X101574211Y-78289535D01*
X101579018Y-78288381D01*
X101579024Y-78288380D01*
X101724891Y-78253360D01*
X101805094Y-78234105D01*
X101809667Y-78232211D01*
X102019889Y-78145135D01*
X102019893Y-78145133D01*
X102024463Y-78143240D01*
X102098900Y-78097625D01*
X102222702Y-78021759D01*
X102222708Y-78021755D01*
X102226916Y-78019176D01*
X102407469Y-77864969D01*
X102561676Y-77684416D01*
X102564255Y-77680208D01*
X102564259Y-77680202D01*
X102683154Y-77486183D01*
X102685740Y-77481963D01*
X102687729Y-77477163D01*
X102774711Y-77267167D01*
X102774712Y-77267165D01*
X102776605Y-77262594D01*
X102832035Y-77031711D01*
X102850665Y-76795000D01*
X102832035Y-76558289D01*
X102807687Y-76456870D01*
X102777760Y-76332218D01*
X102776605Y-76327406D01*
X102770266Y-76312101D01*
X102687635Y-76112611D01*
X102687633Y-76112607D01*
X102685740Y-76108037D01*
X102674788Y-76090165D01*
X102564259Y-75909798D01*
X102564255Y-75909792D01*
X102561676Y-75905584D01*
X102407469Y-75725031D01*
X102226916Y-75570824D01*
X102222708Y-75568245D01*
X102222702Y-75568241D01*
X102028683Y-75449346D01*
X102024463Y-75446760D01*
X102019893Y-75444867D01*
X102019889Y-75444865D01*
X101809667Y-75357789D01*
X101809665Y-75357788D01*
X101805094Y-75355895D01*
X101724891Y-75336640D01*
X101579024Y-75301620D01*
X101579018Y-75301619D01*
X101574211Y-75300465D01*
X101337500Y-75281835D01*
X101100789Y-75300465D01*
X101095982Y-75301619D01*
X101095976Y-75301620D01*
X100950109Y-75336640D01*
X100869906Y-75355895D01*
X100865335Y-75357788D01*
X100865333Y-75357789D01*
X100655111Y-75444865D01*
X100655107Y-75444867D01*
X100650537Y-75446760D01*
X100646317Y-75449346D01*
X100452298Y-75568241D01*
X100452292Y-75568245D01*
X100448084Y-75570824D01*
X100267531Y-75725031D01*
X100113324Y-75905584D01*
X100110745Y-75909792D01*
X100110741Y-75909798D01*
X100000212Y-76090165D01*
X99989260Y-76108037D01*
X99987367Y-76112607D01*
X99987365Y-76112611D01*
X99904734Y-76312101D01*
X99898395Y-76327406D01*
X99897240Y-76332218D01*
X99867314Y-76456870D01*
X99842965Y-76558289D01*
X99824335Y-76795000D01*
X98349775Y-76795000D01*
X98349775Y-76790070D01*
X98331928Y-76563301D01*
X98330385Y-76553554D01*
X98277283Y-76332373D01*
X98274234Y-76322988D01*
X98187187Y-76112837D01*
X98182705Y-76104042D01*
X98080068Y-75936555D01*
X98069610Y-75927093D01*
X98060834Y-75930876D01*
X97209522Y-76782188D01*
X97201908Y-76796132D01*
X96471856Y-76796132D01*
X96473092Y-76793868D01*
X96472961Y-76792035D01*
X96468710Y-76785420D01*
X95617210Y-75933920D01*
X95604830Y-75927160D01*
X95597180Y-75932887D01*
X95492295Y-76104042D01*
X95487813Y-76112837D01*
X95400766Y-76322988D01*
X95397717Y-76332373D01*
X95344615Y-76553554D01*
X95343072Y-76563301D01*
X95325225Y-76790070D01*
X95325225Y-76799930D01*
X53510283Y-76799930D01*
X53509605Y-74442277D01*
X55037009Y-74442277D01*
X55062625Y-74710769D01*
X55063710Y-74715203D01*
X55063711Y-74715209D01*
X55111376Y-74910000D01*
X55126731Y-74972750D01*
X55227985Y-75222733D01*
X55364265Y-75455482D01*
X55367118Y-75459049D01*
X55485788Y-75607438D01*
X55532716Y-75666119D01*
X55729809Y-75850234D01*
X55951416Y-76003968D01*
X55955499Y-76005999D01*
X55955502Y-76006001D01*
X56001393Y-76028831D01*
X56192894Y-76124101D01*
X56197228Y-76125522D01*
X56197231Y-76125523D01*
X56444853Y-76206698D01*
X56444859Y-76206699D01*
X56449186Y-76208118D01*
X56453677Y-76208898D01*
X56453678Y-76208898D01*
X56711140Y-76253601D01*
X56711148Y-76253602D01*
X56714921Y-76254257D01*
X56718758Y-76254448D01*
X56798578Y-76258422D01*
X56798586Y-76258422D01*
X56800149Y-76258500D01*
X56968512Y-76258500D01*
X56970780Y-76258335D01*
X56970792Y-76258335D01*
X57101884Y-76248823D01*
X57169004Y-76243953D01*
X57173459Y-76242969D01*
X57173462Y-76242969D01*
X57427912Y-76186791D01*
X57427916Y-76186790D01*
X57432372Y-76185806D01*
X57574209Y-76132069D01*
X57680318Y-76091868D01*
X57680321Y-76091867D01*
X57684588Y-76090250D01*
X57920368Y-75959286D01*
X58134773Y-75795657D01*
X58140996Y-75789292D01*
X58264891Y-75662553D01*
X58323312Y-75602792D01*
X58482034Y-75384730D01*
X58565190Y-75226676D01*
X58605490Y-75150079D01*
X58605493Y-75150073D01*
X58607615Y-75146039D01*
X58666283Y-74979908D01*
X58695902Y-74896033D01*
X58695902Y-74896032D01*
X58697425Y-74891720D01*
X58733987Y-74706217D01*
X58748700Y-74631572D01*
X58748701Y-74631566D01*
X58749581Y-74627100D01*
X58758782Y-74442277D01*
X85037009Y-74442277D01*
X85062625Y-74710769D01*
X85063710Y-74715203D01*
X85063711Y-74715209D01*
X85111376Y-74910000D01*
X85126731Y-74972750D01*
X85227985Y-75222733D01*
X85364265Y-75455482D01*
X85367118Y-75459049D01*
X85485788Y-75607438D01*
X85532716Y-75666119D01*
X85729809Y-75850234D01*
X85951416Y-76003968D01*
X85955499Y-76005999D01*
X85955502Y-76006001D01*
X86001393Y-76028831D01*
X86192894Y-76124101D01*
X86197228Y-76125522D01*
X86197231Y-76125523D01*
X86444853Y-76206698D01*
X86444859Y-76206699D01*
X86449186Y-76208118D01*
X86453677Y-76208898D01*
X86453678Y-76208898D01*
X86711140Y-76253601D01*
X86711148Y-76253602D01*
X86714921Y-76254257D01*
X86718758Y-76254448D01*
X86798578Y-76258422D01*
X86798586Y-76258422D01*
X86800149Y-76258500D01*
X86968512Y-76258500D01*
X86970780Y-76258335D01*
X86970792Y-76258335D01*
X87101884Y-76248823D01*
X87169004Y-76243953D01*
X87173459Y-76242969D01*
X87173462Y-76242969D01*
X87427912Y-76186791D01*
X87427916Y-76186790D01*
X87432372Y-76185806D01*
X87574209Y-76132069D01*
X87680318Y-76091868D01*
X87680321Y-76091867D01*
X87684588Y-76090250D01*
X87920368Y-75959286D01*
X88134773Y-75795657D01*
X88140996Y-75789292D01*
X88264891Y-75662553D01*
X88323312Y-75602792D01*
X88352356Y-75562890D01*
X95969593Y-75562890D01*
X95973376Y-75571666D01*
X96824688Y-76422978D01*
X96838632Y-76430592D01*
X96840465Y-76430461D01*
X96847080Y-76426210D01*
X97698580Y-75574710D01*
X97705340Y-75562330D01*
X97699613Y-75554680D01*
X97528458Y-75449795D01*
X97519663Y-75445313D01*
X97309512Y-75358266D01*
X97300127Y-75355217D01*
X97078946Y-75302115D01*
X97069199Y-75300572D01*
X96842430Y-75282725D01*
X96832570Y-75282725D01*
X96605801Y-75300572D01*
X96596054Y-75302115D01*
X96374873Y-75355217D01*
X96365488Y-75358266D01*
X96155337Y-75445313D01*
X96146542Y-75449795D01*
X95979055Y-75552432D01*
X95969593Y-75562890D01*
X88352356Y-75562890D01*
X88482034Y-75384730D01*
X88565190Y-75226676D01*
X88605490Y-75150079D01*
X88605493Y-75150073D01*
X88607615Y-75146039D01*
X88666283Y-74979908D01*
X88695902Y-74896033D01*
X88695902Y-74896032D01*
X88697425Y-74891720D01*
X88733987Y-74706217D01*
X88748700Y-74631572D01*
X88748701Y-74631566D01*
X88749581Y-74627100D01*
X88758930Y-74439305D01*
X88762764Y-74362292D01*
X88762764Y-74362286D01*
X88762991Y-74357723D01*
X88737375Y-74089231D01*
X88735833Y-74082926D01*
X88714971Y-73997670D01*
X95969660Y-73997670D01*
X95975387Y-74005320D01*
X96146542Y-74110205D01*
X96155337Y-74114687D01*
X96365488Y-74201734D01*
X96374873Y-74204783D01*
X96596054Y-74257885D01*
X96605801Y-74259428D01*
X96832570Y-74277275D01*
X96842430Y-74277275D01*
X97069199Y-74259428D01*
X97078946Y-74257885D01*
X97300127Y-74204783D01*
X97309512Y-74201734D01*
X97519663Y-74114687D01*
X97528458Y-74110205D01*
X97695945Y-74007568D01*
X97705407Y-73997110D01*
X97701624Y-73988334D01*
X96850312Y-73137022D01*
X96836368Y-73129408D01*
X96834535Y-73129539D01*
X96827920Y-73133790D01*
X95976420Y-73985290D01*
X95969660Y-73997670D01*
X88714971Y-73997670D01*
X88674355Y-73831688D01*
X88673269Y-73827250D01*
X88572015Y-73577267D01*
X88435735Y-73344518D01*
X88317928Y-73197208D01*
X88270136Y-73137447D01*
X88270135Y-73137445D01*
X88267284Y-73133881D01*
X88070191Y-72949766D01*
X87848584Y-72796032D01*
X87844501Y-72794001D01*
X87844498Y-72793999D01*
X87796117Y-72769930D01*
X95325225Y-72769930D01*
X95343072Y-72996699D01*
X95344615Y-73006446D01*
X95397717Y-73227627D01*
X95400766Y-73237012D01*
X95487813Y-73447163D01*
X95492295Y-73455958D01*
X95594932Y-73623445D01*
X95605390Y-73632907D01*
X95614166Y-73629124D01*
X96465478Y-72777812D01*
X96471856Y-72766132D01*
X97201908Y-72766132D01*
X97202039Y-72767965D01*
X97206290Y-72774580D01*
X98057790Y-73626080D01*
X98070170Y-73632840D01*
X98077820Y-73627113D01*
X98182705Y-73455958D01*
X98187187Y-73447163D01*
X98274234Y-73237012D01*
X98277283Y-73227627D01*
X98330385Y-73006446D01*
X98331928Y-72996699D01*
X98349775Y-72769930D01*
X98349775Y-72765000D01*
X99824335Y-72765000D01*
X99842965Y-73001711D01*
X99844119Y-73006518D01*
X99844120Y-73006524D01*
X99861039Y-73076994D01*
X99898395Y-73232594D01*
X99900288Y-73237165D01*
X99900289Y-73237167D01*
X99987272Y-73447163D01*
X99989260Y-73451963D01*
X99991846Y-73456183D01*
X100110741Y-73650202D01*
X100110745Y-73650208D01*
X100113324Y-73654416D01*
X100267531Y-73834969D01*
X100448084Y-73989176D01*
X100452292Y-73991755D01*
X100452298Y-73991759D01*
X100611358Y-74089231D01*
X100650537Y-74113240D01*
X100655107Y-74115133D01*
X100655111Y-74115135D01*
X100865333Y-74202211D01*
X100869906Y-74204105D01*
X100950109Y-74223360D01*
X101095976Y-74258380D01*
X101095982Y-74258381D01*
X101100789Y-74259535D01*
X101337500Y-74278165D01*
X101574211Y-74259535D01*
X101579018Y-74258381D01*
X101579024Y-74258380D01*
X101724891Y-74223360D01*
X101805094Y-74204105D01*
X101809667Y-74202211D01*
X102019889Y-74115135D01*
X102019893Y-74115133D01*
X102024463Y-74113240D01*
X102063642Y-74089231D01*
X102222702Y-73991759D01*
X102222708Y-73991755D01*
X102226916Y-73989176D01*
X102407469Y-73834969D01*
X102561676Y-73654416D01*
X102564255Y-73650208D01*
X102564259Y-73650202D01*
X102683154Y-73456183D01*
X102685740Y-73451963D01*
X102687729Y-73447163D01*
X102774711Y-73237167D01*
X102774712Y-73237165D01*
X102776605Y-73232594D01*
X102813961Y-73076994D01*
X102830880Y-73006524D01*
X102830881Y-73006518D01*
X102832035Y-73001711D01*
X102850665Y-72765000D01*
X102832035Y-72528289D01*
X102776605Y-72297406D01*
X102774711Y-72292833D01*
X102687635Y-72082611D01*
X102687633Y-72082607D01*
X102685740Y-72078037D01*
X102592543Y-71925954D01*
X102564259Y-71879798D01*
X102564255Y-71879792D01*
X102561676Y-71875584D01*
X102407469Y-71695031D01*
X102226916Y-71540824D01*
X102222708Y-71538245D01*
X102222702Y-71538241D01*
X102028683Y-71419346D01*
X102024463Y-71416760D01*
X102019893Y-71414867D01*
X102019889Y-71414865D01*
X101809667Y-71327789D01*
X101809665Y-71327788D01*
X101805094Y-71325895D01*
X101724891Y-71306640D01*
X101579024Y-71271620D01*
X101579018Y-71271619D01*
X101574211Y-71270465D01*
X101337500Y-71251835D01*
X101100789Y-71270465D01*
X101095982Y-71271619D01*
X101095976Y-71271620D01*
X100950109Y-71306640D01*
X100869906Y-71325895D01*
X100865335Y-71327788D01*
X100865333Y-71327789D01*
X100655111Y-71414865D01*
X100655107Y-71414867D01*
X100650537Y-71416760D01*
X100646317Y-71419346D01*
X100452298Y-71538241D01*
X100452292Y-71538245D01*
X100448084Y-71540824D01*
X100267531Y-71695031D01*
X100113324Y-71875584D01*
X100110745Y-71879792D01*
X100110741Y-71879798D01*
X100082457Y-71925954D01*
X99989260Y-72078037D01*
X99987367Y-72082607D01*
X99987365Y-72082611D01*
X99900289Y-72292833D01*
X99898395Y-72297406D01*
X99842965Y-72528289D01*
X99824335Y-72765000D01*
X98349775Y-72765000D01*
X98349775Y-72760070D01*
X98331928Y-72533301D01*
X98330385Y-72523554D01*
X98277283Y-72302373D01*
X98274234Y-72292988D01*
X98187187Y-72082837D01*
X98182705Y-72074042D01*
X98080068Y-71906555D01*
X98069610Y-71897093D01*
X98060834Y-71900876D01*
X97209522Y-72752188D01*
X97201908Y-72766132D01*
X96471856Y-72766132D01*
X96473092Y-72763868D01*
X96472961Y-72762035D01*
X96468710Y-72755420D01*
X95617210Y-71903920D01*
X95604830Y-71897160D01*
X95597180Y-71902887D01*
X95492295Y-72074042D01*
X95487813Y-72082837D01*
X95400766Y-72292988D01*
X95397717Y-72302373D01*
X95344615Y-72523554D01*
X95343072Y-72533301D01*
X95325225Y-72760070D01*
X95325225Y-72769930D01*
X87796117Y-72769930D01*
X87679606Y-72711967D01*
X87607106Y-72675899D01*
X87602772Y-72674478D01*
X87602769Y-72674477D01*
X87355147Y-72593302D01*
X87355141Y-72593301D01*
X87350814Y-72591882D01*
X87346322Y-72591102D01*
X87088860Y-72546399D01*
X87088852Y-72546398D01*
X87085079Y-72545743D01*
X87073817Y-72545182D01*
X87001422Y-72541578D01*
X87001414Y-72541578D01*
X86999851Y-72541500D01*
X86831488Y-72541500D01*
X86829220Y-72541665D01*
X86829208Y-72541665D01*
X86698116Y-72551177D01*
X86630996Y-72556047D01*
X86626541Y-72557031D01*
X86626538Y-72557031D01*
X86372088Y-72613209D01*
X86372084Y-72613210D01*
X86367628Y-72614194D01*
X86265362Y-72652939D01*
X86119682Y-72708132D01*
X86119679Y-72708133D01*
X86115412Y-72709750D01*
X85879632Y-72840714D01*
X85876000Y-72843486D01*
X85691076Y-72984616D01*
X85665227Y-73004343D01*
X85662034Y-73007609D01*
X85662032Y-73007611D01*
X85570958Y-73100775D01*
X85476688Y-73197208D01*
X85317966Y-73415270D01*
X85298661Y-73451963D01*
X85194510Y-73649921D01*
X85194507Y-73649927D01*
X85192385Y-73653961D01*
X85190865Y-73658266D01*
X85190863Y-73658270D01*
X85128464Y-73834969D01*
X85102575Y-73908280D01*
X85083449Y-74005320D01*
X85061893Y-74114687D01*
X85050419Y-74172900D01*
X85050192Y-74177453D01*
X85050192Y-74177456D01*
X85040991Y-74362292D01*
X85037009Y-74442277D01*
X58758782Y-74442277D01*
X58758930Y-74439305D01*
X58762764Y-74362292D01*
X58762764Y-74362286D01*
X58762991Y-74357723D01*
X58737375Y-74089231D01*
X58735833Y-74082926D01*
X58674355Y-73831688D01*
X58673269Y-73827250D01*
X58572015Y-73577267D01*
X58435735Y-73344518D01*
X58317928Y-73197208D01*
X58270136Y-73137447D01*
X58270135Y-73137445D01*
X58267284Y-73133881D01*
X58070191Y-72949766D01*
X57848584Y-72796032D01*
X57844501Y-72794001D01*
X57844498Y-72793999D01*
X57679606Y-72711967D01*
X57607106Y-72675899D01*
X57602772Y-72674478D01*
X57602769Y-72674477D01*
X57355147Y-72593302D01*
X57355141Y-72593301D01*
X57350814Y-72591882D01*
X57346322Y-72591102D01*
X57088860Y-72546399D01*
X57088852Y-72546398D01*
X57085079Y-72545743D01*
X57073817Y-72545182D01*
X57001422Y-72541578D01*
X57001414Y-72541578D01*
X56999851Y-72541500D01*
X56831488Y-72541500D01*
X56829220Y-72541665D01*
X56829208Y-72541665D01*
X56698116Y-72551177D01*
X56630996Y-72556047D01*
X56626541Y-72557031D01*
X56626538Y-72557031D01*
X56372088Y-72613209D01*
X56372084Y-72613210D01*
X56367628Y-72614194D01*
X56265362Y-72652939D01*
X56119682Y-72708132D01*
X56119679Y-72708133D01*
X56115412Y-72709750D01*
X55879632Y-72840714D01*
X55876000Y-72843486D01*
X55691076Y-72984616D01*
X55665227Y-73004343D01*
X55662034Y-73007609D01*
X55662032Y-73007611D01*
X55570958Y-73100775D01*
X55476688Y-73197208D01*
X55317966Y-73415270D01*
X55298661Y-73451963D01*
X55194510Y-73649921D01*
X55194507Y-73649927D01*
X55192385Y-73653961D01*
X55190865Y-73658266D01*
X55190863Y-73658270D01*
X55128464Y-73834969D01*
X55102575Y-73908280D01*
X55083449Y-74005320D01*
X55061893Y-74114687D01*
X55050419Y-74172900D01*
X55050192Y-74177453D01*
X55050192Y-74177456D01*
X55040991Y-74362292D01*
X55037009Y-74442277D01*
X53509605Y-74442277D01*
X53508768Y-71532890D01*
X95969593Y-71532890D01*
X95973376Y-71541666D01*
X96824688Y-72392978D01*
X96838632Y-72400592D01*
X96840465Y-72400461D01*
X96847080Y-72396210D01*
X97698580Y-71544710D01*
X97705340Y-71532330D01*
X97699613Y-71524680D01*
X97528458Y-71419795D01*
X97519663Y-71415313D01*
X97309512Y-71328266D01*
X97300127Y-71325217D01*
X97078946Y-71272115D01*
X97069199Y-71270572D01*
X96842430Y-71252725D01*
X96832570Y-71252725D01*
X96605801Y-71270572D01*
X96596054Y-71272115D01*
X96374873Y-71325217D01*
X96365488Y-71328266D01*
X96155337Y-71415313D01*
X96146542Y-71419795D01*
X95979055Y-71522432D01*
X95969593Y-71532890D01*
X53508768Y-71532890D01*
X53507885Y-68460896D01*
X53507608Y-67497670D01*
X95969660Y-67497670D01*
X95975387Y-67505320D01*
X96146542Y-67610205D01*
X96155337Y-67614687D01*
X96365488Y-67701734D01*
X96374873Y-67704783D01*
X96596054Y-67757885D01*
X96605801Y-67759428D01*
X96832570Y-67777275D01*
X96842430Y-67777275D01*
X97069199Y-67759428D01*
X97078946Y-67757885D01*
X97300127Y-67704783D01*
X97309512Y-67701734D01*
X97519663Y-67614687D01*
X97528458Y-67610205D01*
X97695945Y-67507568D01*
X97705407Y-67497110D01*
X97701624Y-67488334D01*
X96850312Y-66637022D01*
X96836368Y-66629408D01*
X96834535Y-66629539D01*
X96827920Y-66633790D01*
X95976420Y-67485290D01*
X95969660Y-67497670D01*
X53507608Y-67497670D01*
X53507255Y-66269930D01*
X95325225Y-66269930D01*
X95343072Y-66496699D01*
X95344615Y-66506446D01*
X95397717Y-66727627D01*
X95400766Y-66737012D01*
X95487813Y-66947163D01*
X95492295Y-66955958D01*
X95594932Y-67123445D01*
X95605390Y-67132907D01*
X95614166Y-67129124D01*
X96465478Y-66277812D01*
X96471856Y-66266132D01*
X97201908Y-66266132D01*
X97202039Y-66267965D01*
X97206290Y-66274580D01*
X98057790Y-67126080D01*
X98070170Y-67132840D01*
X98077820Y-67127113D01*
X98182705Y-66955958D01*
X98187187Y-66947163D01*
X98274234Y-66737012D01*
X98277283Y-66727627D01*
X98330385Y-66506446D01*
X98331928Y-66496699D01*
X98349775Y-66269930D01*
X98349775Y-66265000D01*
X99824335Y-66265000D01*
X99842965Y-66501711D01*
X99844119Y-66506518D01*
X99844120Y-66506524D01*
X99871694Y-66621375D01*
X99898395Y-66732594D01*
X99900288Y-66737165D01*
X99900289Y-66737167D01*
X99987272Y-66947163D01*
X99989260Y-66951963D01*
X99991846Y-66956183D01*
X100110741Y-67150202D01*
X100110745Y-67150208D01*
X100113324Y-67154416D01*
X100267531Y-67334969D01*
X100448084Y-67489176D01*
X100452292Y-67491755D01*
X100452298Y-67491759D01*
X100593143Y-67578069D01*
X100650537Y-67613240D01*
X100655107Y-67615133D01*
X100655111Y-67615135D01*
X100865333Y-67702211D01*
X100869906Y-67704105D01*
X100950109Y-67723360D01*
X101095976Y-67758380D01*
X101095982Y-67758381D01*
X101100789Y-67759535D01*
X101337500Y-67778165D01*
X101574211Y-67759535D01*
X101579018Y-67758381D01*
X101579024Y-67758380D01*
X101724891Y-67723360D01*
X101805094Y-67704105D01*
X101809667Y-67702211D01*
X102019889Y-67615135D01*
X102019893Y-67615133D01*
X102024463Y-67613240D01*
X102081857Y-67578069D01*
X102222702Y-67491759D01*
X102222708Y-67491755D01*
X102226916Y-67489176D01*
X102407469Y-67334969D01*
X102561676Y-67154416D01*
X102564255Y-67150208D01*
X102564259Y-67150202D01*
X102683154Y-66956183D01*
X102685740Y-66951963D01*
X102687729Y-66947163D01*
X102774711Y-66737167D01*
X102774712Y-66737165D01*
X102776605Y-66732594D01*
X102803306Y-66621375D01*
X102830880Y-66506524D01*
X102830881Y-66506518D01*
X102832035Y-66501711D01*
X102850665Y-66265000D01*
X102832035Y-66028289D01*
X102830477Y-66021797D01*
X102777760Y-65802218D01*
X102776605Y-65797406D01*
X102772514Y-65787529D01*
X102687635Y-65582611D01*
X102687633Y-65582607D01*
X102685740Y-65578037D01*
X102668981Y-65550689D01*
X102564259Y-65379798D01*
X102564255Y-65379792D01*
X102561676Y-65375584D01*
X102407469Y-65195031D01*
X102226916Y-65040824D01*
X102222708Y-65038245D01*
X102222702Y-65038241D01*
X102028683Y-64919346D01*
X102024463Y-64916760D01*
X102019893Y-64914867D01*
X102019889Y-64914865D01*
X101809667Y-64827789D01*
X101809665Y-64827788D01*
X101805094Y-64825895D01*
X101724891Y-64806640D01*
X101579024Y-64771620D01*
X101579018Y-64771619D01*
X101574211Y-64770465D01*
X101337500Y-64751835D01*
X101100789Y-64770465D01*
X101095982Y-64771619D01*
X101095976Y-64771620D01*
X100950109Y-64806640D01*
X100869906Y-64825895D01*
X100865335Y-64827788D01*
X100865333Y-64827789D01*
X100655111Y-64914865D01*
X100655107Y-64914867D01*
X100650537Y-64916760D01*
X100646317Y-64919346D01*
X100452298Y-65038241D01*
X100452292Y-65038245D01*
X100448084Y-65040824D01*
X100267531Y-65195031D01*
X100113324Y-65375584D01*
X100110745Y-65379792D01*
X100110741Y-65379798D01*
X100006019Y-65550689D01*
X99989260Y-65578037D01*
X99987367Y-65582607D01*
X99987365Y-65582611D01*
X99902486Y-65787529D01*
X99898395Y-65797406D01*
X99897240Y-65802218D01*
X99844524Y-66021797D01*
X99842965Y-66028289D01*
X99824335Y-66265000D01*
X98349775Y-66265000D01*
X98349775Y-66260070D01*
X98331928Y-66033301D01*
X98330385Y-66023554D01*
X98277283Y-65802373D01*
X98274234Y-65792988D01*
X98187187Y-65582837D01*
X98182705Y-65574042D01*
X98080068Y-65406555D01*
X98069610Y-65397093D01*
X98060834Y-65400876D01*
X97209522Y-66252188D01*
X97201908Y-66266132D01*
X96471856Y-66266132D01*
X96473092Y-66263868D01*
X96472961Y-66262035D01*
X96468710Y-66255420D01*
X95617210Y-65403920D01*
X95604830Y-65397160D01*
X95597180Y-65402887D01*
X95492295Y-65574042D01*
X95487813Y-65582837D01*
X95400766Y-65792988D01*
X95397717Y-65802373D01*
X95344615Y-66023554D01*
X95343072Y-66033301D01*
X95325225Y-66260070D01*
X95325225Y-66269930D01*
X53507255Y-66269930D01*
X53506899Y-65032890D01*
X95969593Y-65032890D01*
X95973376Y-65041666D01*
X96824688Y-65892978D01*
X96838632Y-65900592D01*
X96840465Y-65900461D01*
X96847080Y-65896210D01*
X97698580Y-65044710D01*
X97705340Y-65032330D01*
X97699613Y-65024680D01*
X97528458Y-64919795D01*
X97519663Y-64915313D01*
X97309512Y-64828266D01*
X97300127Y-64825217D01*
X97078946Y-64772115D01*
X97069199Y-64770572D01*
X96842430Y-64752725D01*
X96832570Y-64752725D01*
X96605801Y-64770572D01*
X96596054Y-64772115D01*
X96374873Y-64825217D01*
X96365488Y-64828266D01*
X96155337Y-64915313D01*
X96146542Y-64919795D01*
X95979055Y-65022432D01*
X95969593Y-65032890D01*
X53506899Y-65032890D01*
X53506485Y-63592670D01*
X95942160Y-63592670D01*
X95947887Y-63600320D01*
X96119042Y-63705205D01*
X96127837Y-63709687D01*
X96337988Y-63796734D01*
X96347373Y-63799783D01*
X96568554Y-63852885D01*
X96578301Y-63854428D01*
X96805070Y-63872275D01*
X96814930Y-63872275D01*
X97041699Y-63854428D01*
X97051446Y-63852885D01*
X97272627Y-63799783D01*
X97282012Y-63796734D01*
X97492163Y-63709687D01*
X97500958Y-63705205D01*
X97668445Y-63602568D01*
X97677907Y-63592110D01*
X97674124Y-63583334D01*
X96822812Y-62732022D01*
X96808868Y-62724408D01*
X96807035Y-62724539D01*
X96800420Y-62728790D01*
X95948920Y-63580290D01*
X95942160Y-63592670D01*
X53506485Y-63592670D01*
X53506132Y-62364930D01*
X95297725Y-62364930D01*
X95315572Y-62591699D01*
X95317115Y-62601446D01*
X95370217Y-62822627D01*
X95373266Y-62832012D01*
X95460313Y-63042163D01*
X95464795Y-63050958D01*
X95567432Y-63218445D01*
X95577890Y-63227907D01*
X95586666Y-63224124D01*
X96437978Y-62372812D01*
X96444356Y-62361132D01*
X97174408Y-62361132D01*
X97174539Y-62362965D01*
X97178790Y-62369580D01*
X98030290Y-63221080D01*
X98042670Y-63227840D01*
X98050320Y-63222113D01*
X98155205Y-63050958D01*
X98159687Y-63042163D01*
X98246734Y-62832012D01*
X98249783Y-62822627D01*
X98302885Y-62601446D01*
X98304428Y-62591699D01*
X98322275Y-62364930D01*
X98322275Y-62360000D01*
X99796835Y-62360000D01*
X99815465Y-62596711D01*
X99816619Y-62601518D01*
X99816620Y-62601524D01*
X99820489Y-62617639D01*
X99870895Y-62827594D01*
X99872788Y-62832165D01*
X99872789Y-62832167D01*
X99959772Y-63042163D01*
X99961760Y-63046963D01*
X99964346Y-63051183D01*
X100083241Y-63245202D01*
X100083245Y-63245208D01*
X100085824Y-63249416D01*
X100240031Y-63429969D01*
X100420584Y-63584176D01*
X100424792Y-63586755D01*
X100424798Y-63586759D01*
X100618084Y-63705205D01*
X100623037Y-63708240D01*
X100627607Y-63710133D01*
X100627611Y-63710135D01*
X100837833Y-63797211D01*
X100842406Y-63799105D01*
X100922609Y-63818360D01*
X101068476Y-63853380D01*
X101068482Y-63853381D01*
X101073289Y-63854535D01*
X101310000Y-63873165D01*
X101546711Y-63854535D01*
X101551518Y-63853381D01*
X101551524Y-63853380D01*
X101697391Y-63818360D01*
X101777594Y-63799105D01*
X101782167Y-63797211D01*
X101992389Y-63710135D01*
X101992393Y-63710133D01*
X101996963Y-63708240D01*
X102001916Y-63705205D01*
X102195202Y-63586759D01*
X102195208Y-63586755D01*
X102199416Y-63584176D01*
X102379969Y-63429969D01*
X102534176Y-63249416D01*
X102536755Y-63245208D01*
X102536759Y-63245202D01*
X102655654Y-63051183D01*
X102658240Y-63046963D01*
X102660229Y-63042163D01*
X102747211Y-62832167D01*
X102747212Y-62832165D01*
X102749105Y-62827594D01*
X102799511Y-62617639D01*
X102803380Y-62601524D01*
X102803381Y-62601518D01*
X102804535Y-62596711D01*
X102823165Y-62360000D01*
X102804535Y-62123289D01*
X102749105Y-61892406D01*
X102747211Y-61887833D01*
X102660135Y-61677611D01*
X102660133Y-61677607D01*
X102658240Y-61673037D01*
X102595460Y-61570590D01*
X102536759Y-61474798D01*
X102536755Y-61474792D01*
X102534176Y-61470584D01*
X102379969Y-61290031D01*
X102199416Y-61135824D01*
X102195208Y-61133245D01*
X102195202Y-61133241D01*
X102001183Y-61014346D01*
X101996963Y-61011760D01*
X101992393Y-61009867D01*
X101992389Y-61009865D01*
X101782167Y-60922789D01*
X101782165Y-60922788D01*
X101777594Y-60920895D01*
X101697391Y-60901640D01*
X101551524Y-60866620D01*
X101551518Y-60866619D01*
X101546711Y-60865465D01*
X101310000Y-60846835D01*
X101073289Y-60865465D01*
X101068482Y-60866619D01*
X101068476Y-60866620D01*
X100922609Y-60901640D01*
X100842406Y-60920895D01*
X100837835Y-60922788D01*
X100837833Y-60922789D01*
X100627611Y-61009865D01*
X100627607Y-61009867D01*
X100623037Y-61011760D01*
X100618817Y-61014346D01*
X100424798Y-61133241D01*
X100424792Y-61133245D01*
X100420584Y-61135824D01*
X100240031Y-61290031D01*
X100085824Y-61470584D01*
X100083245Y-61474792D01*
X100083241Y-61474798D01*
X100024540Y-61570590D01*
X99961760Y-61673037D01*
X99959867Y-61677607D01*
X99959865Y-61677611D01*
X99872789Y-61887833D01*
X99870895Y-61892406D01*
X99815465Y-62123289D01*
X99796835Y-62360000D01*
X98322275Y-62360000D01*
X98322275Y-62355070D01*
X98304428Y-62128301D01*
X98302885Y-62118554D01*
X98249783Y-61897373D01*
X98246734Y-61887988D01*
X98159687Y-61677837D01*
X98155205Y-61669042D01*
X98052568Y-61501555D01*
X98042110Y-61492093D01*
X98033334Y-61495876D01*
X97182022Y-62347188D01*
X97174408Y-62361132D01*
X96444356Y-62361132D01*
X96445592Y-62358868D01*
X96445461Y-62357035D01*
X96441210Y-62350420D01*
X95589710Y-61498920D01*
X95577330Y-61492160D01*
X95569680Y-61497887D01*
X95464795Y-61669042D01*
X95460313Y-61677837D01*
X95373266Y-61887988D01*
X95370217Y-61897373D01*
X95317115Y-62118554D01*
X95315572Y-62128301D01*
X95297725Y-62355070D01*
X95297725Y-62364930D01*
X53506132Y-62364930D01*
X53505776Y-61127890D01*
X95942093Y-61127890D01*
X95945876Y-61136666D01*
X96797188Y-61987978D01*
X96811132Y-61995592D01*
X96812965Y-61995461D01*
X96819580Y-61991210D01*
X97671080Y-61139710D01*
X97677840Y-61127330D01*
X97672113Y-61119680D01*
X97500958Y-61014795D01*
X97492163Y-61010313D01*
X97282012Y-60923266D01*
X97272627Y-60920217D01*
X97051446Y-60867115D01*
X97041699Y-60865572D01*
X96814930Y-60847725D01*
X96805070Y-60847725D01*
X96578301Y-60865572D01*
X96568554Y-60867115D01*
X96347373Y-60920217D01*
X96337988Y-60923266D01*
X96127837Y-61010313D01*
X96119042Y-61014795D01*
X95951555Y-61117432D01*
X95942093Y-61127890D01*
X53505776Y-61127890D01*
X53504616Y-57092670D01*
X95942160Y-57092670D01*
X95947887Y-57100320D01*
X96119042Y-57205205D01*
X96127837Y-57209687D01*
X96337988Y-57296734D01*
X96347373Y-57299783D01*
X96568554Y-57352885D01*
X96578301Y-57354428D01*
X96805070Y-57372275D01*
X96814930Y-57372275D01*
X97041699Y-57354428D01*
X97051446Y-57352885D01*
X97272627Y-57299783D01*
X97282012Y-57296734D01*
X97492163Y-57209687D01*
X97500958Y-57205205D01*
X97668445Y-57102568D01*
X97677907Y-57092110D01*
X97674124Y-57083334D01*
X96822812Y-56232022D01*
X96808868Y-56224408D01*
X96807035Y-56224539D01*
X96800420Y-56228790D01*
X95948920Y-57080290D01*
X95942160Y-57092670D01*
X53504616Y-57092670D01*
X53504263Y-55864930D01*
X95297725Y-55864930D01*
X95315572Y-56091699D01*
X95317115Y-56101446D01*
X95370217Y-56322627D01*
X95373266Y-56332012D01*
X95460313Y-56542163D01*
X95464795Y-56550958D01*
X95567432Y-56718445D01*
X95577890Y-56727907D01*
X95586666Y-56724124D01*
X96437978Y-55872812D01*
X96444356Y-55861132D01*
X97174408Y-55861132D01*
X97174539Y-55862965D01*
X97178790Y-55869580D01*
X98030290Y-56721080D01*
X98042670Y-56727840D01*
X98050320Y-56722113D01*
X98155205Y-56550958D01*
X98159687Y-56542163D01*
X98246734Y-56332012D01*
X98249783Y-56322627D01*
X98302885Y-56101446D01*
X98304428Y-56091699D01*
X98322275Y-55864930D01*
X98322275Y-55860000D01*
X99796835Y-55860000D01*
X99815465Y-56096711D01*
X99816619Y-56101518D01*
X99816620Y-56101524D01*
X99819705Y-56114373D01*
X99870895Y-56327594D01*
X99872788Y-56332165D01*
X99872789Y-56332167D01*
X99959772Y-56542163D01*
X99961760Y-56546963D01*
X99964346Y-56551183D01*
X100083241Y-56745202D01*
X100083245Y-56745208D01*
X100085824Y-56749416D01*
X100240031Y-56929969D01*
X100420584Y-57084176D01*
X100424792Y-57086755D01*
X100424798Y-57086759D01*
X100598559Y-57193240D01*
X100623037Y-57208240D01*
X100627607Y-57210133D01*
X100627611Y-57210135D01*
X100837833Y-57297211D01*
X100842406Y-57299105D01*
X100906727Y-57314547D01*
X101068476Y-57353380D01*
X101068482Y-57353381D01*
X101073289Y-57354535D01*
X101310000Y-57373165D01*
X101546711Y-57354535D01*
X101551518Y-57353381D01*
X101551524Y-57353380D01*
X101713273Y-57314547D01*
X101777594Y-57299105D01*
X101782167Y-57297211D01*
X101992389Y-57210135D01*
X101992393Y-57210133D01*
X101996963Y-57208240D01*
X102021441Y-57193240D01*
X102195202Y-57086759D01*
X102195208Y-57086755D01*
X102199416Y-57084176D01*
X102379969Y-56929969D01*
X102534176Y-56749416D01*
X102536755Y-56745208D01*
X102536759Y-56745202D01*
X102655654Y-56551183D01*
X102658240Y-56546963D01*
X102660229Y-56542163D01*
X102747211Y-56332167D01*
X102747212Y-56332165D01*
X102749105Y-56327594D01*
X102800295Y-56114373D01*
X102803380Y-56101524D01*
X102803381Y-56101518D01*
X102804535Y-56096711D01*
X102823165Y-55860000D01*
X102804535Y-55623289D01*
X102749105Y-55392406D01*
X102747211Y-55387833D01*
X102660135Y-55177611D01*
X102660133Y-55177607D01*
X102658240Y-55173037D01*
X102611309Y-55096453D01*
X102536759Y-54974798D01*
X102536755Y-54974792D01*
X102534176Y-54970584D01*
X102379969Y-54790031D01*
X102199416Y-54635824D01*
X102195208Y-54633245D01*
X102195202Y-54633241D01*
X102001183Y-54514346D01*
X101996963Y-54511760D01*
X101992393Y-54509867D01*
X101992389Y-54509865D01*
X101782167Y-54422789D01*
X101782165Y-54422788D01*
X101777594Y-54420895D01*
X101697391Y-54401640D01*
X101551524Y-54366620D01*
X101551518Y-54366619D01*
X101546711Y-54365465D01*
X101310000Y-54346835D01*
X101073289Y-54365465D01*
X101068482Y-54366619D01*
X101068476Y-54366620D01*
X100922609Y-54401640D01*
X100842406Y-54420895D01*
X100837835Y-54422788D01*
X100837833Y-54422789D01*
X100627611Y-54509865D01*
X100627607Y-54509867D01*
X100623037Y-54511760D01*
X100618817Y-54514346D01*
X100424798Y-54633241D01*
X100424792Y-54633245D01*
X100420584Y-54635824D01*
X100240031Y-54790031D01*
X100085824Y-54970584D01*
X100083245Y-54974792D01*
X100083241Y-54974798D01*
X100008691Y-55096453D01*
X99961760Y-55173037D01*
X99959867Y-55177607D01*
X99959865Y-55177611D01*
X99872789Y-55387833D01*
X99870895Y-55392406D01*
X99815465Y-55623289D01*
X99796835Y-55860000D01*
X98322275Y-55860000D01*
X98322275Y-55855070D01*
X98304428Y-55628301D01*
X98302885Y-55618554D01*
X98249783Y-55397373D01*
X98246734Y-55387988D01*
X98159687Y-55177837D01*
X98155205Y-55169042D01*
X98052568Y-55001555D01*
X98042110Y-54992093D01*
X98033334Y-54995876D01*
X97182022Y-55847188D01*
X97174408Y-55861132D01*
X96444356Y-55861132D01*
X96445592Y-55858868D01*
X96445461Y-55857035D01*
X96441210Y-55850420D01*
X95589710Y-54998920D01*
X95577330Y-54992160D01*
X95569680Y-54997887D01*
X95464795Y-55169042D01*
X95460313Y-55177837D01*
X95373266Y-55387988D01*
X95370217Y-55397373D01*
X95317115Y-55618554D01*
X95315572Y-55628301D01*
X95297725Y-55855070D01*
X95297725Y-55864930D01*
X53504263Y-55864930D01*
X53503907Y-54627890D01*
X95942093Y-54627890D01*
X95945876Y-54636666D01*
X96797188Y-55487978D01*
X96811132Y-55495592D01*
X96812965Y-55495461D01*
X96819580Y-55491210D01*
X97671080Y-54639710D01*
X97677840Y-54627330D01*
X97672113Y-54619680D01*
X97500958Y-54514795D01*
X97492163Y-54510313D01*
X97282012Y-54423266D01*
X97272627Y-54420217D01*
X97051446Y-54367115D01*
X97041699Y-54365572D01*
X96814930Y-54347725D01*
X96805070Y-54347725D01*
X96578301Y-54365572D01*
X96568554Y-54367115D01*
X96347373Y-54420217D01*
X96337988Y-54423266D01*
X96127837Y-54510313D01*
X96119042Y-54514795D01*
X95951555Y-54617432D01*
X95942093Y-54627890D01*
X53503907Y-54627890D01*
X53503408Y-52892670D01*
X96002160Y-52892670D01*
X96007887Y-52900320D01*
X96179042Y-53005205D01*
X96187837Y-53009687D01*
X96397988Y-53096734D01*
X96407373Y-53099783D01*
X96628554Y-53152885D01*
X96638301Y-53154428D01*
X96865070Y-53172275D01*
X96874930Y-53172275D01*
X97101699Y-53154428D01*
X97111446Y-53152885D01*
X97332627Y-53099783D01*
X97342012Y-53096734D01*
X97552163Y-53009687D01*
X97560958Y-53005205D01*
X97728445Y-52902568D01*
X97737907Y-52892110D01*
X97734124Y-52883334D01*
X96882812Y-52032022D01*
X96868868Y-52024408D01*
X96867035Y-52024539D01*
X96860420Y-52028790D01*
X96008920Y-52880290D01*
X96002160Y-52892670D01*
X53503408Y-52892670D01*
X53503055Y-51664930D01*
X95357725Y-51664930D01*
X95375572Y-51891699D01*
X95377115Y-51901446D01*
X95430217Y-52122627D01*
X95433266Y-52132012D01*
X95520313Y-52342163D01*
X95524795Y-52350958D01*
X95627432Y-52518445D01*
X95637890Y-52527907D01*
X95646666Y-52524124D01*
X96497978Y-51672812D01*
X96504356Y-51661132D01*
X97234408Y-51661132D01*
X97234539Y-51662965D01*
X97238790Y-51669580D01*
X98090290Y-52521080D01*
X98102670Y-52527840D01*
X98110320Y-52522113D01*
X98215205Y-52350958D01*
X98219687Y-52342163D01*
X98306734Y-52132012D01*
X98309783Y-52122627D01*
X98362885Y-51901446D01*
X98364428Y-51891699D01*
X98382275Y-51664930D01*
X98382275Y-51660000D01*
X99856835Y-51660000D01*
X99875465Y-51896711D01*
X99876619Y-51901518D01*
X99876620Y-51901524D01*
X99905508Y-52021851D01*
X99930895Y-52127594D01*
X99932788Y-52132165D01*
X99932789Y-52132167D01*
X100019772Y-52342163D01*
X100021760Y-52346963D01*
X100024346Y-52351183D01*
X100143241Y-52545202D01*
X100143245Y-52545208D01*
X100145824Y-52549416D01*
X100300031Y-52729969D01*
X100480584Y-52884176D01*
X100484792Y-52886755D01*
X100484798Y-52886759D01*
X100567003Y-52937134D01*
X100683037Y-53008240D01*
X100687607Y-53010133D01*
X100687611Y-53010135D01*
X100897833Y-53097211D01*
X100902406Y-53099105D01*
X100982609Y-53118360D01*
X101128476Y-53153380D01*
X101128482Y-53153381D01*
X101133289Y-53154535D01*
X101370000Y-53173165D01*
X101606711Y-53154535D01*
X101611518Y-53153381D01*
X101611524Y-53153380D01*
X101757391Y-53118360D01*
X101837594Y-53099105D01*
X101842167Y-53097211D01*
X102052389Y-53010135D01*
X102052393Y-53010133D01*
X102056963Y-53008240D01*
X102172997Y-52937134D01*
X102255202Y-52886759D01*
X102255208Y-52886755D01*
X102259416Y-52884176D01*
X102439969Y-52729969D01*
X102594176Y-52549416D01*
X102596755Y-52545208D01*
X102596759Y-52545202D01*
X102715654Y-52351183D01*
X102718240Y-52346963D01*
X102720229Y-52342163D01*
X102807211Y-52132167D01*
X102807212Y-52132165D01*
X102809105Y-52127594D01*
X102834492Y-52021851D01*
X102863380Y-51901524D01*
X102863381Y-51901518D01*
X102864535Y-51896711D01*
X102883165Y-51660000D01*
X102864535Y-51423289D01*
X102861487Y-51410590D01*
X102810260Y-51197218D01*
X102809105Y-51192406D01*
X102740812Y-51027530D01*
X102720135Y-50977611D01*
X102720133Y-50977607D01*
X102718240Y-50973037D01*
X102684391Y-50917800D01*
X102596759Y-50774798D01*
X102596755Y-50774792D01*
X102594176Y-50770584D01*
X102439969Y-50590031D01*
X102259416Y-50435824D01*
X102255208Y-50433245D01*
X102255202Y-50433241D01*
X102061183Y-50314346D01*
X102056963Y-50311760D01*
X102052393Y-50309867D01*
X102052389Y-50309865D01*
X101842167Y-50222789D01*
X101842165Y-50222788D01*
X101837594Y-50220895D01*
X101757391Y-50201640D01*
X101611524Y-50166620D01*
X101611518Y-50166619D01*
X101606711Y-50165465D01*
X101370000Y-50146835D01*
X101133289Y-50165465D01*
X101128482Y-50166619D01*
X101128476Y-50166620D01*
X100982609Y-50201640D01*
X100902406Y-50220895D01*
X100897835Y-50222788D01*
X100897833Y-50222789D01*
X100687611Y-50309865D01*
X100687607Y-50309867D01*
X100683037Y-50311760D01*
X100678817Y-50314346D01*
X100484798Y-50433241D01*
X100484792Y-50433245D01*
X100480584Y-50435824D01*
X100300031Y-50590031D01*
X100145824Y-50770584D01*
X100143245Y-50774792D01*
X100143241Y-50774798D01*
X100055609Y-50917800D01*
X100021760Y-50973037D01*
X100019867Y-50977607D01*
X100019865Y-50977611D01*
X99999188Y-51027530D01*
X99930895Y-51192406D01*
X99929740Y-51197218D01*
X99878514Y-51410590D01*
X99875465Y-51423289D01*
X99856835Y-51660000D01*
X98382275Y-51660000D01*
X98382275Y-51655070D01*
X98364428Y-51428301D01*
X98362885Y-51418554D01*
X98309783Y-51197373D01*
X98306734Y-51187988D01*
X98219687Y-50977837D01*
X98215205Y-50969042D01*
X98112568Y-50801555D01*
X98102110Y-50792093D01*
X98093334Y-50795876D01*
X97242022Y-51647188D01*
X97234408Y-51661132D01*
X96504356Y-51661132D01*
X96505592Y-51658868D01*
X96505461Y-51657035D01*
X96501210Y-51650420D01*
X95649710Y-50798920D01*
X95637330Y-50792160D01*
X95629680Y-50797887D01*
X95524795Y-50969042D01*
X95520313Y-50977837D01*
X95433266Y-51187988D01*
X95430217Y-51197373D01*
X95377115Y-51418554D01*
X95375572Y-51428301D01*
X95357725Y-51655070D01*
X95357725Y-51664930D01*
X53503055Y-51664930D01*
X53502699Y-50427890D01*
X96002093Y-50427890D01*
X96005876Y-50436666D01*
X96857188Y-51287978D01*
X96871132Y-51295592D01*
X96872965Y-51295461D01*
X96879580Y-51291210D01*
X97731080Y-50439710D01*
X97737840Y-50427330D01*
X97732113Y-50419680D01*
X97560958Y-50314795D01*
X97552163Y-50310313D01*
X97342012Y-50223266D01*
X97332627Y-50220217D01*
X97111446Y-50167115D01*
X97101699Y-50165572D01*
X96874930Y-50147725D01*
X96865070Y-50147725D01*
X96638301Y-50165572D01*
X96628554Y-50167115D01*
X96407373Y-50220217D01*
X96397988Y-50223266D01*
X96187837Y-50310313D01*
X96179042Y-50314795D01*
X96011555Y-50417432D01*
X96002093Y-50427890D01*
X53502699Y-50427890D01*
X53501539Y-46392670D01*
X96002160Y-46392670D01*
X96007887Y-46400320D01*
X96179042Y-46505205D01*
X96187837Y-46509687D01*
X96397988Y-46596734D01*
X96407373Y-46599783D01*
X96628554Y-46652885D01*
X96638301Y-46654428D01*
X96865070Y-46672275D01*
X96874930Y-46672275D01*
X97101699Y-46654428D01*
X97111446Y-46652885D01*
X97332627Y-46599783D01*
X97342012Y-46596734D01*
X97552163Y-46509687D01*
X97560958Y-46505205D01*
X97728445Y-46402568D01*
X97737907Y-46392110D01*
X97734124Y-46383334D01*
X96882812Y-45532022D01*
X96868868Y-45524408D01*
X96867035Y-45524539D01*
X96860420Y-45528790D01*
X96008920Y-46380290D01*
X96002160Y-46392670D01*
X53501539Y-46392670D01*
X53501007Y-44542277D01*
X55037009Y-44542277D01*
X55062625Y-44810769D01*
X55063710Y-44815203D01*
X55063711Y-44815209D01*
X55125645Y-45068312D01*
X55126731Y-45072750D01*
X55227985Y-45322733D01*
X55364265Y-45555482D01*
X55418086Y-45622782D01*
X55484686Y-45706060D01*
X55532716Y-45766119D01*
X55729809Y-45950234D01*
X55951416Y-46103968D01*
X55955499Y-46105999D01*
X55955502Y-46106001D01*
X56020380Y-46138277D01*
X56192894Y-46224101D01*
X56197228Y-46225522D01*
X56197231Y-46225523D01*
X56444853Y-46306698D01*
X56444859Y-46306699D01*
X56449186Y-46308118D01*
X56453677Y-46308898D01*
X56453678Y-46308898D01*
X56711140Y-46353601D01*
X56711148Y-46353602D01*
X56714921Y-46354257D01*
X56718758Y-46354448D01*
X56798578Y-46358422D01*
X56798586Y-46358422D01*
X56800149Y-46358500D01*
X56968512Y-46358500D01*
X56970780Y-46358335D01*
X56970792Y-46358335D01*
X57101884Y-46348823D01*
X57169004Y-46343953D01*
X57173459Y-46342969D01*
X57173462Y-46342969D01*
X57427912Y-46286791D01*
X57427916Y-46286790D01*
X57432372Y-46285806D01*
X57571284Y-46233177D01*
X57680318Y-46191868D01*
X57680321Y-46191867D01*
X57684588Y-46190250D01*
X57920368Y-46059286D01*
X58067354Y-45947110D01*
X58131141Y-45898429D01*
X58131142Y-45898428D01*
X58134773Y-45895657D01*
X58178250Y-45851183D01*
X58320117Y-45706060D01*
X58323312Y-45702792D01*
X58482034Y-45484730D01*
X58566221Y-45324717D01*
X58605490Y-45250079D01*
X58605493Y-45250073D01*
X58607615Y-45246039D01*
X58611483Y-45235088D01*
X58695902Y-44996033D01*
X58695902Y-44996032D01*
X58697425Y-44991720D01*
X58733987Y-44806217D01*
X58748700Y-44731572D01*
X58748701Y-44731566D01*
X58749581Y-44727100D01*
X58758782Y-44542277D01*
X58762764Y-44462292D01*
X58762764Y-44462286D01*
X58762991Y-44457723D01*
X58737375Y-44189231D01*
X58692042Y-44003967D01*
X58674355Y-43931688D01*
X58673269Y-43927250D01*
X58572015Y-43677267D01*
X58435735Y-43444518D01*
X58315841Y-43294598D01*
X58270136Y-43237447D01*
X58270135Y-43237445D01*
X58267284Y-43233881D01*
X58070191Y-43049766D01*
X57848584Y-42896032D01*
X57844501Y-42894001D01*
X57844498Y-42893999D01*
X57679606Y-42811967D01*
X57607106Y-42775899D01*
X57602772Y-42774478D01*
X57602769Y-42774477D01*
X57355147Y-42693302D01*
X57355141Y-42693301D01*
X57350814Y-42691882D01*
X57346322Y-42691102D01*
X57088860Y-42646399D01*
X57088852Y-42646398D01*
X57085079Y-42645743D01*
X57063446Y-42644666D01*
X57001422Y-42641578D01*
X57001414Y-42641578D01*
X56999851Y-42641500D01*
X56831488Y-42641500D01*
X56829220Y-42641665D01*
X56829208Y-42641665D01*
X56698116Y-42651177D01*
X56630996Y-42656047D01*
X56626541Y-42657031D01*
X56626538Y-42657031D01*
X56372088Y-42713209D01*
X56372084Y-42713210D01*
X56367628Y-42714194D01*
X56241520Y-42761972D01*
X56119682Y-42808132D01*
X56119679Y-42808133D01*
X56115412Y-42809750D01*
X55879632Y-42940714D01*
X55876000Y-42943486D01*
X55695776Y-43081029D01*
X55665227Y-43104343D01*
X55662034Y-43107609D01*
X55662032Y-43107611D01*
X55599332Y-43171750D01*
X55476688Y-43297208D01*
X55317966Y-43515270D01*
X55276304Y-43594457D01*
X55194510Y-43749921D01*
X55194507Y-43749927D01*
X55192385Y-43753961D01*
X55190865Y-43758266D01*
X55190863Y-43758270D01*
X55129074Y-43933241D01*
X55102575Y-44008280D01*
X55086462Y-44090031D01*
X55063337Y-44207361D01*
X55050419Y-44272900D01*
X55050192Y-44277453D01*
X55050192Y-44277456D01*
X55040456Y-44473037D01*
X55037009Y-44542277D01*
X53501007Y-44542277D01*
X53499547Y-39465132D01*
X56196757Y-39465132D01*
X56211781Y-39823588D01*
X56230151Y-39942252D01*
X56258928Y-40128136D01*
X56266668Y-40178136D01*
X56267590Y-40181528D01*
X56267590Y-40181530D01*
X56288687Y-40259179D01*
X56360734Y-40524356D01*
X56412211Y-40654372D01*
X56487634Y-40844869D01*
X56492806Y-40857933D01*
X56494461Y-40861045D01*
X56494463Y-40861050D01*
X56534003Y-40935413D01*
X56661239Y-41174709D01*
X56663224Y-41177607D01*
X56663230Y-41177618D01*
X56861942Y-41467829D01*
X56861947Y-41467835D01*
X56863933Y-41470736D01*
X56866236Y-41473404D01*
X57052898Y-41689654D01*
X57098361Y-41742324D01*
X57361602Y-41986087D01*
X57650375Y-42198989D01*
X57653412Y-42200743D01*
X57653416Y-42200745D01*
X57687314Y-42220316D01*
X57961080Y-42378375D01*
X58044389Y-42414772D01*
X58286622Y-42520601D01*
X58286632Y-42520605D01*
X58289844Y-42522008D01*
X58293201Y-42523047D01*
X58293206Y-42523049D01*
X58428744Y-42565005D01*
X58632570Y-42628100D01*
X58984987Y-42695327D01*
X59242446Y-42715137D01*
X59339203Y-42722582D01*
X59339204Y-42722582D01*
X59342700Y-42722851D01*
X59563599Y-42715137D01*
X59697738Y-42710453D01*
X59697743Y-42710453D01*
X59701253Y-42710330D01*
X59728145Y-42706359D01*
X60052683Y-42658436D01*
X60052689Y-42658435D01*
X60056175Y-42657920D01*
X60059579Y-42657021D01*
X60059582Y-42657020D01*
X60399652Y-42567169D01*
X60399653Y-42567169D01*
X60403043Y-42566273D01*
X60737534Y-42436533D01*
X61055478Y-42270316D01*
X61243395Y-42143564D01*
X61349997Y-42071660D01*
X61349999Y-42071659D01*
X61352913Y-42069693D01*
X61626131Y-41837167D01*
X61717702Y-41739654D01*
X61869316Y-41578202D01*
X61869320Y-41578197D01*
X61871727Y-41575634D01*
X61873832Y-41572820D01*
X61873838Y-41572813D01*
X62084530Y-41291174D01*
X62086639Y-41288355D01*
X62117755Y-41235320D01*
X62182649Y-41124709D01*
X62268189Y-40978910D01*
X62414115Y-40651156D01*
X62522596Y-40309179D01*
X62537923Y-40231770D01*
X72960412Y-40231770D01*
X72960414Y-40235712D01*
X72960414Y-40235715D01*
X72960494Y-40380455D01*
X72960578Y-40532785D01*
X72998355Y-40831420D01*
X73073154Y-41122994D01*
X73074601Y-41126656D01*
X73074604Y-41126664D01*
X73169047Y-41365611D01*
X73183800Y-41402936D01*
X73185701Y-41406402D01*
X73185702Y-41406404D01*
X73219393Y-41467829D01*
X73328559Y-41666858D01*
X73505163Y-41910623D01*
X73517574Y-41923885D01*
X73708147Y-42127530D01*
X73708154Y-42127536D01*
X73710842Y-42130409D01*
X73713874Y-42132928D01*
X73713875Y-42132929D01*
X73733205Y-42148989D01*
X73942374Y-42322772D01*
X74196127Y-42484696D01*
X74199687Y-42486384D01*
X74199693Y-42486387D01*
X74339902Y-42552856D01*
X74468125Y-42613642D01*
X74471868Y-42614872D01*
X74471874Y-42614874D01*
X74750358Y-42706359D01*
X74750367Y-42706361D01*
X74754104Y-42707589D01*
X74832563Y-42722851D01*
X75045714Y-42764314D01*
X75045717Y-42764314D01*
X75049581Y-42765066D01*
X75320229Y-42783183D01*
X75331198Y-42784493D01*
X75332572Y-42784622D01*
X75337371Y-42785450D01*
X75349922Y-42785655D01*
X75378895Y-42781630D01*
X75396232Y-42780431D01*
X85686867Y-42780431D01*
X85754988Y-42800433D01*
X85801481Y-42854089D01*
X85811585Y-42924363D01*
X85782091Y-42988943D01*
X85763310Y-43006593D01*
X85635227Y-43104343D01*
X85632034Y-43107609D01*
X85632032Y-43107611D01*
X85569332Y-43171750D01*
X85446688Y-43297208D01*
X85287966Y-43515270D01*
X85246304Y-43594457D01*
X85164510Y-43749921D01*
X85164507Y-43749927D01*
X85162385Y-43753961D01*
X85160865Y-43758266D01*
X85160863Y-43758270D01*
X85099074Y-43933241D01*
X85072575Y-44008280D01*
X85056462Y-44090031D01*
X85033337Y-44207361D01*
X85020419Y-44272900D01*
X85020192Y-44277453D01*
X85020192Y-44277456D01*
X85010456Y-44473037D01*
X85007009Y-44542277D01*
X85032625Y-44810769D01*
X85033710Y-44815203D01*
X85033711Y-44815209D01*
X85095645Y-45068312D01*
X85096731Y-45072750D01*
X85197985Y-45322733D01*
X85334265Y-45555482D01*
X85388086Y-45622782D01*
X85454686Y-45706060D01*
X85502716Y-45766119D01*
X85699809Y-45950234D01*
X85921416Y-46103968D01*
X85925499Y-46105999D01*
X85925502Y-46106001D01*
X85990380Y-46138277D01*
X86162894Y-46224101D01*
X86167228Y-46225522D01*
X86167231Y-46225523D01*
X86414853Y-46306698D01*
X86414859Y-46306699D01*
X86419186Y-46308118D01*
X86423677Y-46308898D01*
X86423678Y-46308898D01*
X86681140Y-46353601D01*
X86681148Y-46353602D01*
X86684921Y-46354257D01*
X86688758Y-46354448D01*
X86768578Y-46358422D01*
X86768586Y-46358422D01*
X86770149Y-46358500D01*
X86938512Y-46358500D01*
X86940780Y-46358335D01*
X86940792Y-46358335D01*
X87071884Y-46348823D01*
X87139004Y-46343953D01*
X87143459Y-46342969D01*
X87143462Y-46342969D01*
X87397912Y-46286791D01*
X87397916Y-46286790D01*
X87402372Y-46285806D01*
X87541284Y-46233177D01*
X87650318Y-46191868D01*
X87650321Y-46191867D01*
X87654588Y-46190250D01*
X87890368Y-46059286D01*
X88037354Y-45947110D01*
X88101141Y-45898429D01*
X88101142Y-45898428D01*
X88104773Y-45895657D01*
X88148250Y-45851183D01*
X88290117Y-45706060D01*
X88293312Y-45702792D01*
X88452034Y-45484730D01*
X88536221Y-45324717D01*
X88575490Y-45250079D01*
X88575493Y-45250073D01*
X88577615Y-45246039D01*
X88581483Y-45235088D01*
X88606258Y-45164930D01*
X95357725Y-45164930D01*
X95375572Y-45391699D01*
X95377115Y-45401446D01*
X95430217Y-45622627D01*
X95433266Y-45632012D01*
X95520313Y-45842163D01*
X95524795Y-45850958D01*
X95627432Y-46018445D01*
X95637890Y-46027907D01*
X95646666Y-46024124D01*
X96497978Y-45172812D01*
X96504356Y-45161132D01*
X97234408Y-45161132D01*
X97234539Y-45162965D01*
X97238790Y-45169580D01*
X98090290Y-46021080D01*
X98102670Y-46027840D01*
X98110320Y-46022113D01*
X98215205Y-45850958D01*
X98219687Y-45842163D01*
X98306734Y-45632012D01*
X98309783Y-45622627D01*
X98362885Y-45401446D01*
X98364428Y-45391699D01*
X98382275Y-45164930D01*
X98382275Y-45160000D01*
X99856835Y-45160000D01*
X99875465Y-45396711D01*
X99876619Y-45401518D01*
X99876620Y-45401524D01*
X99894061Y-45474171D01*
X99930895Y-45627594D01*
X99932788Y-45632165D01*
X99932789Y-45632167D01*
X100019772Y-45842163D01*
X100021760Y-45846963D01*
X100024346Y-45851183D01*
X100143241Y-46045202D01*
X100143245Y-46045208D01*
X100145824Y-46049416D01*
X100300031Y-46229969D01*
X100480584Y-46384176D01*
X100484792Y-46386755D01*
X100484798Y-46386759D01*
X100639248Y-46481406D01*
X100683037Y-46508240D01*
X100687607Y-46510133D01*
X100687611Y-46510135D01*
X100897833Y-46597211D01*
X100902406Y-46599105D01*
X100982609Y-46618360D01*
X101128476Y-46653380D01*
X101128482Y-46653381D01*
X101133289Y-46654535D01*
X101370000Y-46673165D01*
X101606711Y-46654535D01*
X101611518Y-46653381D01*
X101611524Y-46653380D01*
X101757391Y-46618360D01*
X101837594Y-46599105D01*
X101842167Y-46597211D01*
X102052389Y-46510135D01*
X102052393Y-46510133D01*
X102056963Y-46508240D01*
X102100752Y-46481406D01*
X102255202Y-46386759D01*
X102255208Y-46386755D01*
X102259416Y-46384176D01*
X102439969Y-46229969D01*
X102594176Y-46049416D01*
X102596755Y-46045208D01*
X102596759Y-46045202D01*
X102715654Y-45851183D01*
X102718240Y-45846963D01*
X102720229Y-45842163D01*
X102807211Y-45632167D01*
X102807212Y-45632165D01*
X102809105Y-45627594D01*
X102845939Y-45474171D01*
X102863380Y-45401524D01*
X102863381Y-45401518D01*
X102864535Y-45396711D01*
X102883165Y-45160000D01*
X102864535Y-44923289D01*
X102837522Y-44810769D01*
X102815266Y-44718069D01*
X102809105Y-44692406D01*
X102746920Y-44542277D01*
X102720135Y-44477611D01*
X102720133Y-44477607D01*
X102718240Y-44473037D01*
X102691867Y-44430000D01*
X102596759Y-44274798D01*
X102596755Y-44274792D01*
X102594176Y-44270584D01*
X102439969Y-44090031D01*
X102259416Y-43935824D01*
X102255208Y-43933245D01*
X102255202Y-43933241D01*
X102061183Y-43814346D01*
X102056963Y-43811760D01*
X102052393Y-43809867D01*
X102052389Y-43809865D01*
X101842167Y-43722789D01*
X101842165Y-43722788D01*
X101837594Y-43720895D01*
X101757391Y-43701640D01*
X101611524Y-43666620D01*
X101611518Y-43666619D01*
X101606711Y-43665465D01*
X101370000Y-43646835D01*
X101133289Y-43665465D01*
X101128482Y-43666619D01*
X101128476Y-43666620D01*
X100982609Y-43701640D01*
X100902406Y-43720895D01*
X100897835Y-43722788D01*
X100897833Y-43722789D01*
X100687611Y-43809865D01*
X100687607Y-43809867D01*
X100683037Y-43811760D01*
X100678817Y-43814346D01*
X100484798Y-43933241D01*
X100484792Y-43933245D01*
X100480584Y-43935824D01*
X100300031Y-44090031D01*
X100145824Y-44270584D01*
X100143245Y-44274792D01*
X100143241Y-44274798D01*
X100048133Y-44430000D01*
X100021760Y-44473037D01*
X100019867Y-44477607D01*
X100019865Y-44477611D01*
X99993080Y-44542277D01*
X99930895Y-44692406D01*
X99924734Y-44718069D01*
X99902479Y-44810769D01*
X99875465Y-44923289D01*
X99856835Y-45160000D01*
X98382275Y-45160000D01*
X98382275Y-45155070D01*
X98364428Y-44928301D01*
X98362885Y-44918554D01*
X98309783Y-44697373D01*
X98306734Y-44687988D01*
X98219687Y-44477837D01*
X98215205Y-44469042D01*
X98112568Y-44301555D01*
X98102110Y-44292093D01*
X98093334Y-44295876D01*
X97242022Y-45147188D01*
X97234408Y-45161132D01*
X96504356Y-45161132D01*
X96505592Y-45158868D01*
X96505461Y-45157035D01*
X96501210Y-45150420D01*
X95649710Y-44298920D01*
X95637330Y-44292160D01*
X95629680Y-44297887D01*
X95524795Y-44469042D01*
X95520313Y-44477837D01*
X95433266Y-44687988D01*
X95430217Y-44697373D01*
X95377115Y-44918554D01*
X95375572Y-44928301D01*
X95357725Y-45155070D01*
X95357725Y-45164930D01*
X88606258Y-45164930D01*
X88665902Y-44996033D01*
X88665902Y-44996032D01*
X88667425Y-44991720D01*
X88703987Y-44806217D01*
X88718700Y-44731572D01*
X88718701Y-44731566D01*
X88719581Y-44727100D01*
X88728782Y-44542277D01*
X88732764Y-44462292D01*
X88732764Y-44462286D01*
X88732991Y-44457723D01*
X88707375Y-44189231D01*
X88662042Y-44003967D01*
X88644355Y-43931688D01*
X88643426Y-43927890D01*
X96002093Y-43927890D01*
X96005876Y-43936666D01*
X96857188Y-44787978D01*
X96871132Y-44795592D01*
X96872965Y-44795461D01*
X96879580Y-44791210D01*
X97731080Y-43939710D01*
X97737840Y-43927330D01*
X97732113Y-43919680D01*
X97560958Y-43814795D01*
X97552163Y-43810313D01*
X97342012Y-43723266D01*
X97332627Y-43720217D01*
X97111446Y-43667115D01*
X97101699Y-43665572D01*
X96874930Y-43647725D01*
X96865070Y-43647725D01*
X96638301Y-43665572D01*
X96628554Y-43667115D01*
X96407373Y-43720217D01*
X96397988Y-43723266D01*
X96187837Y-43810313D01*
X96179042Y-43814795D01*
X96011555Y-43917432D01*
X96002093Y-43927890D01*
X88643426Y-43927890D01*
X88643269Y-43927250D01*
X88542015Y-43677267D01*
X88405735Y-43444518D01*
X88285841Y-43294598D01*
X88240136Y-43237447D01*
X88240135Y-43237445D01*
X88237284Y-43233881D01*
X88040191Y-43049766D01*
X88036443Y-43047166D01*
X88036432Y-43047157D01*
X87982810Y-43009959D01*
X87938239Y-42954696D01*
X87930622Y-42884109D01*
X87962376Y-42820609D01*
X88023420Y-42784357D01*
X88054629Y-42780431D01*
X92765952Y-42780431D01*
X92787976Y-42782371D01*
X92792546Y-42783182D01*
X92800092Y-42784522D01*
X92800094Y-42784522D01*
X92804886Y-42785373D01*
X92812207Y-42785528D01*
X92812575Y-42785536D01*
X92817436Y-42785639D01*
X92822260Y-42784992D01*
X92826006Y-42784782D01*
X92828630Y-42784536D01*
X93115529Y-42768977D01*
X93115535Y-42768976D01*
X93119505Y-42768761D01*
X93417094Y-42714421D01*
X93598094Y-42657031D01*
X93701661Y-42624193D01*
X93701666Y-42624191D01*
X93705454Y-42622990D01*
X93709058Y-42621322D01*
X93709063Y-42621320D01*
X93976373Y-42497601D01*
X93976376Y-42497599D01*
X93979985Y-42495929D01*
X94020393Y-42470601D01*
X94152482Y-42387805D01*
X94236303Y-42335265D01*
X94313595Y-42271948D01*
X94467227Y-42146095D01*
X94467232Y-42146091D01*
X94470316Y-42143564D01*
X94678288Y-41923885D01*
X94856901Y-41679735D01*
X95003302Y-41415012D01*
X95097773Y-41177618D01*
X95113680Y-41137646D01*
X95113682Y-41137640D01*
X95115154Y-41133941D01*
X95190673Y-40841010D01*
X95194465Y-40811050D01*
X95228151Y-40544853D01*
X95228652Y-40540895D01*
X95228646Y-40528832D01*
X95228496Y-40259179D01*
X95228485Y-40238386D01*
X95190175Y-39938313D01*
X95114333Y-39645466D01*
X95022376Y-39415132D01*
X105106757Y-39415132D01*
X105121781Y-39773588D01*
X105176668Y-40128136D01*
X105177590Y-40131528D01*
X105177590Y-40131530D01*
X105189309Y-40174663D01*
X105270734Y-40474356D01*
X105402806Y-40807933D01*
X105404461Y-40811045D01*
X105404463Y-40811050D01*
X105431049Y-40861050D01*
X105571239Y-41124709D01*
X105573224Y-41127607D01*
X105573230Y-41127618D01*
X105771942Y-41417829D01*
X105771947Y-41417835D01*
X105773933Y-41420736D01*
X105776236Y-41423404D01*
X106000276Y-41682957D01*
X106008361Y-41692324D01*
X106271602Y-41936087D01*
X106274428Y-41938170D01*
X106274431Y-41938173D01*
X106339420Y-41986087D01*
X106560375Y-42148989D01*
X106871080Y-42328375D01*
X106954389Y-42364772D01*
X107196622Y-42470601D01*
X107196632Y-42470605D01*
X107199844Y-42472008D01*
X107203201Y-42473047D01*
X107203206Y-42473049D01*
X107282521Y-42497601D01*
X107542570Y-42578100D01*
X107894987Y-42645327D01*
X108091571Y-42660453D01*
X108249203Y-42672582D01*
X108249204Y-42672582D01*
X108252700Y-42672851D01*
X108470001Y-42665263D01*
X108607738Y-42660453D01*
X108607743Y-42660453D01*
X108611253Y-42660330D01*
X108633594Y-42657031D01*
X108962683Y-42608436D01*
X108962689Y-42608435D01*
X108966175Y-42607920D01*
X108969579Y-42607021D01*
X108969582Y-42607020D01*
X109309652Y-42517169D01*
X109309653Y-42517169D01*
X109313043Y-42516273D01*
X109647534Y-42386533D01*
X109965478Y-42220316D01*
X110262913Y-42019693D01*
X110536131Y-41787167D01*
X110572623Y-41748307D01*
X110779316Y-41528202D01*
X110779320Y-41528197D01*
X110781727Y-41525634D01*
X110783832Y-41522820D01*
X110783838Y-41522813D01*
X110994530Y-41241174D01*
X110996639Y-41238355D01*
X111035808Y-41171594D01*
X111126549Y-41016928D01*
X111178189Y-40928910D01*
X111221595Y-40831420D01*
X111322683Y-40604372D01*
X111324115Y-40601156D01*
X111432596Y-40259179D01*
X111502282Y-39907241D01*
X111524280Y-39645275D01*
X111532120Y-39551912D01*
X111532121Y-39551901D01*
X111532303Y-39549728D01*
X111532828Y-39512178D01*
X111533526Y-39462178D01*
X111533526Y-39462166D01*
X111533556Y-39460000D01*
X111524208Y-39292788D01*
X111523240Y-39275475D01*
X111513529Y-39101788D01*
X111506589Y-39060757D01*
X111454286Y-38751522D01*
X111454285Y-38751518D01*
X111453697Y-38748041D01*
X111354806Y-38403169D01*
X111250152Y-38149259D01*
X111219427Y-38074713D01*
X111219423Y-38074705D01*
X111218089Y-38071468D01*
X111110857Y-37876413D01*
X111046943Y-37760154D01*
X111046940Y-37760150D01*
X111045250Y-37757075D01*
X110849046Y-37478938D01*
X110840479Y-37466793D01*
X110840478Y-37466791D01*
X110838443Y-37463907D01*
X110600245Y-37195619D01*
X110333626Y-36955554D01*
X110330776Y-36953513D01*
X110330769Y-36953508D01*
X110044763Y-36748748D01*
X110044760Y-36748746D01*
X110041909Y-36746705D01*
X109728730Y-36571675D01*
X109397992Y-36432646D01*
X109394623Y-36431655D01*
X109394619Y-36431653D01*
X109193144Y-36372356D01*
X109053818Y-36331350D01*
X108770904Y-36281464D01*
X108703958Y-36269660D01*
X108703956Y-36269660D01*
X108700498Y-36269050D01*
X108696987Y-36268829D01*
X108696986Y-36268829D01*
X108345953Y-36246743D01*
X108345947Y-36246743D01*
X108342435Y-36246522D01*
X108241046Y-36251481D01*
X107987599Y-36263876D01*
X107987591Y-36263877D01*
X107984092Y-36264048D01*
X107980624Y-36264610D01*
X107980621Y-36264610D01*
X107633411Y-36320846D01*
X107633408Y-36320847D01*
X107629936Y-36321409D01*
X107626549Y-36322355D01*
X107626543Y-36322356D01*
X107342406Y-36401689D01*
X107284381Y-36417890D01*
X107160627Y-36467890D01*
X106954998Y-36550969D01*
X106954994Y-36550971D01*
X106951734Y-36552288D01*
X106948647Y-36553957D01*
X106948643Y-36553959D01*
X106838916Y-36613289D01*
X106636142Y-36722928D01*
X106341537Y-36927683D01*
X106338895Y-36929996D01*
X106338891Y-36929999D01*
X106094080Y-37144316D01*
X106071593Y-37164002D01*
X105829672Y-37428938D01*
X105618792Y-37719190D01*
X105441580Y-38031140D01*
X105422905Y-38074713D01*
X105335560Y-38278504D01*
X105300245Y-38360899D01*
X105299228Y-38364268D01*
X105217020Y-38636556D01*
X105196549Y-38704358D01*
X105186736Y-38757825D01*
X105136161Y-39033389D01*
X105131784Y-39057235D01*
X105106757Y-39415132D01*
X95022376Y-39415132D01*
X95002170Y-39364519D01*
X94855477Y-39099958D01*
X94676595Y-38856006D01*
X94673855Y-38853118D01*
X94673849Y-38853111D01*
X94471124Y-38639449D01*
X94471123Y-38639448D01*
X94468379Y-38636556D01*
X94234155Y-38445113D01*
X93977660Y-38284733D01*
X93702989Y-38157974D01*
X93414528Y-38066862D01*
X93116880Y-38012851D01*
X92844793Y-37998396D01*
X92832798Y-37997134D01*
X92832163Y-37997083D01*
X92827345Y-37996323D01*
X92820894Y-37996310D01*
X92819653Y-37996307D01*
X92819652Y-37996307D01*
X92814792Y-37996297D01*
X92801126Y-37998396D01*
X92790780Y-37999985D01*
X92771509Y-38001445D01*
X75401783Y-37981560D01*
X75381683Y-37979922D01*
X75364638Y-37977147D01*
X75364635Y-37977147D01*
X75359833Y-37976365D01*
X75354974Y-37976331D01*
X75354970Y-37976331D01*
X75353414Y-37976321D01*
X75347281Y-37976278D01*
X75342467Y-37976994D01*
X75338425Y-37977278D01*
X75336242Y-37977514D01*
X75059954Y-37996313D01*
X75046962Y-37997197D01*
X74751549Y-38054997D01*
X74465673Y-38149259D01*
X74193817Y-38278504D01*
X73940242Y-38440706D01*
X73708922Y-38633323D01*
X73503484Y-38853335D01*
X73327148Y-39097294D01*
X73182679Y-39361375D01*
X73181232Y-39365048D01*
X73181231Y-39365050D01*
X73096810Y-39579329D01*
X73072340Y-39641438D01*
X72997862Y-39933094D01*
X72960412Y-40231770D01*
X62537923Y-40231770D01*
X62592282Y-39957241D01*
X62618139Y-39649320D01*
X62622120Y-39601912D01*
X62622121Y-39601901D01*
X62622303Y-39599728D01*
X62623002Y-39549728D01*
X62623526Y-39512178D01*
X62623526Y-39512166D01*
X62623556Y-39510000D01*
X62620883Y-39462178D01*
X62603725Y-39155301D01*
X62603529Y-39151788D01*
X62596589Y-39110757D01*
X62544286Y-38801522D01*
X62544285Y-38801518D01*
X62543697Y-38798041D01*
X62444806Y-38453169D01*
X62373689Y-38280626D01*
X62309427Y-38124713D01*
X62309423Y-38124705D01*
X62308089Y-38121468D01*
X62135250Y-37807075D01*
X61928443Y-37513907D01*
X61690245Y-37245619D01*
X61423626Y-37005554D01*
X61420776Y-37003513D01*
X61420769Y-37003508D01*
X61134763Y-36798748D01*
X61134760Y-36798746D01*
X61131909Y-36796705D01*
X60818730Y-36621675D01*
X60487992Y-36482646D01*
X60484623Y-36481655D01*
X60484619Y-36481653D01*
X60314733Y-36431653D01*
X60143818Y-36381350D01*
X59856801Y-36330741D01*
X59793958Y-36319660D01*
X59793956Y-36319660D01*
X59790498Y-36319050D01*
X59786987Y-36318829D01*
X59786986Y-36318829D01*
X59435953Y-36296743D01*
X59435947Y-36296743D01*
X59432435Y-36296522D01*
X59331046Y-36301481D01*
X59077599Y-36313876D01*
X59077591Y-36313877D01*
X59074092Y-36314048D01*
X59070624Y-36314610D01*
X59070621Y-36314610D01*
X58723411Y-36370846D01*
X58723408Y-36370847D01*
X58719936Y-36371409D01*
X58716549Y-36372355D01*
X58716543Y-36372356D01*
X58432406Y-36451689D01*
X58374381Y-36467890D01*
X58208058Y-36535089D01*
X58044998Y-36600969D01*
X58044994Y-36600971D01*
X58041734Y-36602288D01*
X58038647Y-36603957D01*
X58038643Y-36603959D01*
X58002699Y-36623394D01*
X57726142Y-36772928D01*
X57431537Y-36977683D01*
X57161593Y-37214002D01*
X56919672Y-37478938D01*
X56708792Y-37769190D01*
X56531580Y-38081140D01*
X56390245Y-38410899D01*
X56389228Y-38414268D01*
X56289480Y-38744651D01*
X56286549Y-38754358D01*
X56268383Y-38853335D01*
X56222478Y-39103456D01*
X56221784Y-39107235D01*
X56196757Y-39465132D01*
X53499547Y-39465132D01*
X53498512Y-35863601D01*
X53499684Y-35846430D01*
X53502500Y-35825924D01*
X53502500Y-35825919D01*
X53503721Y-35817027D01*
X53500955Y-35798476D01*
X53499655Y-35775498D01*
X53510105Y-35476497D01*
X53511275Y-35463214D01*
X53557293Y-35138576D01*
X53559861Y-35125490D01*
X53574292Y-35068188D01*
X53639931Y-34807540D01*
X53643867Y-34794800D01*
X53757088Y-34487094D01*
X53762348Y-34474841D01*
X53787502Y-34423875D01*
X53907459Y-34180815D01*
X53913983Y-34169190D01*
X53936562Y-34133522D01*
X54089356Y-33892146D01*
X54097074Y-33881273D01*
X54122694Y-33848950D01*
X54300738Y-33624321D01*
X54309559Y-33614327D01*
X54347524Y-33575650D01*
X54539241Y-33380334D01*
X54549073Y-33371325D01*
X54719645Y-33230886D01*
X54802198Y-33162917D01*
X54812918Y-33155004D01*
X55086652Y-32974512D01*
X55098157Y-32967771D01*
X55389427Y-32817222D01*
X55401581Y-32811734D01*
X55707136Y-32692808D01*
X55719801Y-32688636D01*
X56036211Y-32602670D01*
X56049246Y-32599860D01*
X56220785Y-32572280D01*
X56372960Y-32547814D01*
X56386211Y-32546397D01*
X56493682Y-32540639D01*
X56677635Y-32530783D01*
X56703686Y-32532092D01*
X56705144Y-32532318D01*
X56705151Y-32532318D01*
X56714027Y-32533695D01*
X56745422Y-32529570D01*
X56761820Y-32528498D01*
X82587020Y-32527604D01*
X110895657Y-32526624D01*
X110913614Y-32527911D01*
G37*
%TD.AperFunction*%
%TD*%
M02*
