%TF.GenerationSoftware,KiCad,Pcbnew,6.0.10-86aedd382b~118~ubuntu22.04.1*%
%TF.CreationDate,2023-01-22T12:34:59+01:00*%
%TF.ProjectId,pcb,7063622e-6b69-4636-9164-5f7063625858,rev?*%
%TF.SameCoordinates,Original*%
%TF.FileFunction,Copper,L1,Top*%
%TF.FilePolarity,Positive*%
%FSLAX46Y46*%
G04 Gerber Fmt 4.6, Leading zero omitted, Abs format (unit mm)*
G04 Created by KiCad (PCBNEW 6.0.10-86aedd382b~118~ubuntu22.04.1) date 2023-01-22 12:34:59*
%MOMM*%
%LPD*%
G01*
G04 APERTURE LIST*
%TA.AperFunction,ComponentPad*%
%ADD10R,1.700000X1.700000*%
%TD*%
%TA.AperFunction,ComponentPad*%
%ADD11O,1.700000X1.700000*%
%TD*%
%TA.AperFunction,ComponentPad*%
%ADD12C,2.000000*%
%TD*%
%TA.AperFunction,ComponentPad*%
%ADD13C,0.800000*%
%TD*%
%TA.AperFunction,ComponentPad*%
%ADD14C,5.400000*%
%TD*%
%TA.AperFunction,Conductor*%
%ADD15C,0.250000*%
%TD*%
%TA.AperFunction,Conductor*%
%ADD16C,0.400000*%
%TD*%
G04 APERTURE END LIST*
D10*
%TO.P,J2,1,Pin_1*%
%TO.N,GPIO26*%
X88760000Y-96470000D03*
D11*
%TO.P,J2,2,Pin_2*%
%TO.N,GND*%
X88760000Y-99010000D03*
%TO.P,J2,3,Pin_3*%
%TO.N,GPIO19*%
X86220000Y-96470000D03*
%TO.P,J2,4,Pin_4*%
%TO.N,GND*%
X86220000Y-99010000D03*
%TO.P,J2,5,Pin_5*%
%TO.N,GPIO22*%
X83680000Y-96470000D03*
%TO.P,J2,6,Pin_6*%
%TO.N,GND*%
X83680000Y-99010000D03*
%TO.P,J2,7,Pin_7*%
%TO.N,GPIO27*%
X81140000Y-96470000D03*
%TO.P,J2,8,Pin_8*%
%TO.N,GND*%
X81140000Y-99010000D03*
%TO.P,J2,9,Pin_9*%
%TO.N,GPIO17*%
X78600000Y-96470000D03*
%TO.P,J2,10,Pin_10*%
%TO.N,GND*%
X78600000Y-99010000D03*
%TD*%
D12*
%TO.P,SW3,1,1*%
%TO.N,GPIO22*%
X101337500Y-72765000D03*
X101337500Y-66265000D03*
%TO.P,SW3,2,2*%
%TO.N,GND*%
X96837500Y-72765000D03*
X96837500Y-66265000D03*
%TD*%
D13*
%TO.P,H4,1*%
%TO.N,N/C*%
X57998109Y-99071891D03*
X57998109Y-96208109D03*
X59430000Y-95615000D03*
X61455000Y-97640000D03*
X60861891Y-96208109D03*
X57405000Y-97640000D03*
X59430000Y-99665000D03*
D14*
X59430000Y-97640000D03*
D13*
X60861891Y-99071891D03*
%TD*%
%TO.P,H3,1*%
%TO.N,N/C*%
X106868109Y-99101891D03*
X109731891Y-96238109D03*
X108300000Y-95645000D03*
X106868109Y-96238109D03*
X109731891Y-99101891D03*
D14*
X108300000Y-97670000D03*
D13*
X110325000Y-97670000D03*
X106275000Y-97670000D03*
X108300000Y-99695000D03*
%TD*%
%TO.P,H1,1*%
%TO.N,N/C*%
X60841891Y-40941891D03*
X57385000Y-39510000D03*
X60841891Y-38078109D03*
D14*
X59410000Y-39510000D03*
D13*
X57978109Y-40941891D03*
X57978109Y-38078109D03*
X59410000Y-41535000D03*
X61435000Y-39510000D03*
X59410000Y-37485000D03*
%TD*%
D12*
%TO.P,SW5,1,1*%
%TO.N,GPIO17*%
X101370000Y-51660000D03*
X101370000Y-45160000D03*
%TO.P,SW5,2,2*%
%TO.N,GND*%
X96870000Y-45160000D03*
X96870000Y-51660000D03*
%TD*%
%TO.P,SW2,1,1*%
%TO.N,GPIO19*%
X101337500Y-83295000D03*
X101337500Y-76795000D03*
%TO.P,SW2,2,2*%
%TO.N,GND*%
X96837500Y-76795000D03*
X96837500Y-83295000D03*
%TD*%
%TO.P,SW1,1,1*%
%TO.N,GPIO26*%
X101337500Y-87665000D03*
X101337500Y-94165000D03*
%TO.P,SW1,2,2*%
%TO.N,GND*%
X96837500Y-87665000D03*
X96837500Y-94165000D03*
%TD*%
D13*
%TO.P,H2,1*%
%TO.N,N/C*%
X109751891Y-40891891D03*
X110345000Y-39460000D03*
X106888109Y-38028109D03*
X106888109Y-40891891D03*
X109751891Y-38028109D03*
X106295000Y-39460000D03*
X108320000Y-37435000D03*
D14*
X108320000Y-39460000D03*
D13*
X108320000Y-41485000D03*
%TD*%
D12*
%TO.P,SW4,1,1*%
%TO.N,GPIO27*%
X101310000Y-62360000D03*
X101310000Y-55860000D03*
%TO.P,SW4,2,2*%
%TO.N,GND*%
X96810000Y-62360000D03*
X96810000Y-55860000D03*
%TD*%
D10*
%TO.P,J1,1,3V3*%
%TO.N,3v3*%
X106920000Y-44430000D03*
D11*
%TO.P,J1,2,5V*%
%TO.N,5v*%
X109460000Y-44430000D03*
%TO.P,J1,3,SDA/GPIO2*%
%TO.N,GPIO02*%
X106920000Y-46970000D03*
%TO.P,J1,4,5V*%
%TO.N,5v*%
X109460000Y-46970000D03*
%TO.P,J1,5,SCL/GPIO3*%
%TO.N,GPIO03*%
X106920000Y-49510000D03*
%TO.P,J1,6,GND*%
%TO.N,GND*%
X109460000Y-49510000D03*
%TO.P,J1,7,GCLK0/GPIO4*%
%TO.N,GPIO04*%
X106920000Y-52050000D03*
%TO.P,J1,8,GPIO14/TXD*%
%TO.N,GPIO14*%
X109460000Y-52050000D03*
%TO.P,J1,9,GND*%
%TO.N,GND*%
X106920000Y-54590000D03*
%TO.P,J1,10,GPIO15/RXD*%
%TO.N,GPIO15*%
X109460000Y-54590000D03*
%TO.P,J1,11,GPIO17*%
%TO.N,GPIO17*%
X106920000Y-57130000D03*
%TO.P,J1,12,GPIO18/PWM0*%
%TO.N,GPIO18*%
X109460000Y-57130000D03*
%TO.P,J1,13,GPIO27*%
%TO.N,GPIO27*%
X106920000Y-59670000D03*
%TO.P,J1,14,GND*%
%TO.N,GND*%
X109460000Y-59670000D03*
%TO.P,J1,15,GPIO22*%
%TO.N,GPIO22*%
X106920000Y-62210000D03*
%TO.P,J1,16,GPIO23*%
%TO.N,GPIO23*%
X109460000Y-62210000D03*
%TO.P,J1,17,3V3*%
%TO.N,3v3*%
X106920000Y-64750000D03*
%TO.P,J1,18,GPIO24*%
%TO.N,GPIO24*%
X109460000Y-64750000D03*
%TO.P,J1,19,MOSI0/GPIO10*%
%TO.N,GPIO10*%
X106920000Y-67290000D03*
%TO.P,J1,20,GND*%
%TO.N,GND*%
X109460000Y-67290000D03*
%TO.P,J1,21,MISO0/GPIO9*%
%TO.N,GPIO09*%
X106920000Y-69830000D03*
%TO.P,J1,22,GPIO25*%
%TO.N,GPIO25*%
X109460000Y-69830000D03*
%TO.P,J1,23,SCLK0/GPIO11*%
%TO.N,GPIO11*%
X106920000Y-72370000D03*
%TO.P,J1,24,~{CE0}/GPIO8*%
%TO.N,GPIO08*%
X109460000Y-72370000D03*
%TO.P,J1,25,GND*%
%TO.N,GND*%
X106920000Y-74910000D03*
%TO.P,J1,26,~{CE1}/GPIO7*%
%TO.N,GPIO07*%
X109460000Y-74910000D03*
%TO.P,J1,27,ID_SD/GPIO0*%
%TO.N,GPIO00*%
X106920000Y-77450000D03*
%TO.P,J1,28,ID_SC/GPIO1*%
%TO.N,GPIO01*%
X109460000Y-77450000D03*
%TO.P,J1,29,GCLK1/GPIO5*%
%TO.N,GPIO05*%
X106920000Y-79990000D03*
%TO.P,J1,30,GND*%
%TO.N,GND*%
X109460000Y-79990000D03*
%TO.P,J1,31,GCLK2/GPIO6*%
%TO.N,GPIO06*%
X106920000Y-82530000D03*
%TO.P,J1,32,PWM0/GPIO12*%
%TO.N,GPIO12*%
X109460000Y-82530000D03*
%TO.P,J1,33,PWM1/GPIO13*%
%TO.N,GPIO13*%
X106920000Y-85070000D03*
%TO.P,J1,34,GND*%
%TO.N,GND*%
X109460000Y-85070000D03*
%TO.P,J1,35,GPIO19/MISO1*%
%TO.N,GPIO19*%
X106920000Y-87610000D03*
%TO.P,J1,36,GPIO16*%
%TO.N,GPIO16*%
X109460000Y-87610000D03*
%TO.P,J1,37,GPIO26*%
%TO.N,GPIO26*%
X106920000Y-90150000D03*
%TO.P,J1,38,GPIO20/MOSI1*%
%TO.N,GPIO20*%
X109460000Y-90150000D03*
%TO.P,J1,39,GND*%
%TO.N,GND*%
X106920000Y-92690000D03*
%TO.P,J1,40,GPIO21/SCLK1*%
%TO.N,GPIO21*%
X109460000Y-92690000D03*
%TD*%
D15*
%TO.N,GPIO17*%
X78580000Y-94740000D02*
X78600000Y-94760000D01*
X78600000Y-94760000D02*
X78600000Y-96470000D01*
X101370000Y-51660000D02*
X99260000Y-53770000D01*
X79970000Y-93350000D02*
X78580000Y-94740000D01*
X99260000Y-53770000D02*
X95040000Y-53770000D01*
X95040000Y-53770000D02*
X92680000Y-56130000D01*
X92680000Y-56130000D02*
X92680000Y-84293604D01*
X92680000Y-84293604D02*
X83623604Y-93350000D01*
X83623604Y-93350000D02*
X79970000Y-93350000D01*
%TO.N,GPIO27*%
X81140000Y-96470000D02*
X93400000Y-84210000D01*
X93400000Y-84210000D02*
X93400000Y-66330000D01*
X93400000Y-66330000D02*
X95240000Y-64490000D01*
X95240000Y-64490000D02*
X99180000Y-64490000D01*
X99180000Y-64490000D02*
X101310000Y-62360000D01*
%TO.N,GPIO22*%
X83680000Y-96470000D02*
X83680000Y-95140000D01*
X83680000Y-95140000D02*
X94380000Y-84440000D01*
X94380000Y-84440000D02*
X94380000Y-77378667D01*
X94380000Y-77378667D02*
X96868667Y-74890000D01*
X96868667Y-74890000D02*
X99212500Y-74890000D01*
X99212500Y-74890000D02*
X101337500Y-72765000D01*
%TO.N,GPIO19*%
X86220000Y-93710000D02*
X94380000Y-85550000D01*
X86220000Y-96470000D02*
X86220000Y-93710000D01*
X94380000Y-85550000D02*
X99082500Y-85550000D01*
X99082500Y-85550000D02*
X101337500Y-83295000D01*
%TO.N,GPIO26*%
X88760000Y-96470000D02*
X92532500Y-96470000D01*
X92532500Y-96470000D02*
X101337500Y-87665000D01*
D16*
%TO.N,GPIO17*%
X106840000Y-57130000D02*
X106920000Y-57130000D01*
X101370000Y-51660000D02*
X106840000Y-57130000D01*
%TO.N,GPIO27*%
X101310000Y-62360000D02*
X104230000Y-62360000D01*
X104230000Y-62360000D02*
X106920000Y-59670000D01*
%TO.N,GPIO22*%
X101337500Y-66265000D02*
X102865000Y-66265000D01*
X102865000Y-66265000D02*
X106920000Y-62210000D01*
%TO.N,GPIO19*%
X105652500Y-87610000D02*
X106920000Y-87610000D01*
X101337500Y-83295000D02*
X105652500Y-87610000D01*
%TO.N,GPIO26*%
X103822500Y-90150000D02*
X106920000Y-90150000D01*
X101337500Y-87665000D02*
X103822500Y-90150000D01*
%TD*%
M02*
